<svg xmlns="http://www.w3.org/2000/svg" fill="none" viewBox="-0.5 -0.5 70 70" id="Cat-Getting-Pointed-At-Hand-Drawn--Streamline-Memes.svg" height="70" width="70"><desc>Cat Getting Pointed At Hand Drawn Streamline Element: https://streamlinehq.com</desc><path fill="#000000" fill-rule="evenodd" d="M38.338332 22.18005C30.900132 17.804691 31.337591999999997 18.02349 30.900062999999996 18.242219999999996C30.025004999999997 18.679748999999997 31.556459999999998 24.148964999999997 34.619232 27.649334999999997C32.650316999999994 30.930905999999997 32.869046999999995 34.212477 33.744174 37.71277799999999C32.431518 40.119291 33.744174 42.744603 34.400433 42.30707399999999C34.838030999999994 41.869476 33.087846 40.338089999999994 34.619232 37.931577C34.837962 37.275318 32.869046999999995 32.89989 35.931819 27.649334999999997C36.369348 26.993075999999995 35.056760999999995 26.774346 33.306644999999996 22.836378C32.869116 21.742589999999996 32.431518 20.429934 31.993988999999996 19.336077L37.966629 22.564449C38.338332 22.836378 38.557062 22.398849 38.338332 22.18005Z" clip-rule="evenodd" stroke-width="1"></path><path fill="#000000" fill-rule="evenodd" d="M33.087776999999996 21.304647C34.181634 23.054762999999998 34.61916299999999 23.492429999999995 37.025606999999994 25.023815999999997C37.463204999999995 25.242545999999997 37.681934999999996 24.805017 37.463136 24.586217999999995C36.806877 23.929889999999997 36.150549 23.054831999999998 35.275490999999995 22.179705C34.61916299999999 21.742175999999997 33.962835 21.304647 33.525306 20.867117999999998C33.306576 20.429589 32.650248 20.867117999999998 33.087776999999996 21.304647Z" clip-rule="evenodd" stroke-width="1"></path><path fill="#000000" fill-rule="evenodd" d="M38.119602 23.711712C41.401173 21.524067 48.620642999999994 21.086537999999997 53.214800999999994 23.930510999999996C53.65233 24.149240999999996 52.558473 24.149240999999996 63.059445 20.211411C61.09053 28.962266999999997 58.027758 29.180996999999998 58.684086 30.056054999999997C59.340414 30.712383 62.62191599999999 26.555822999999997 64.37217 19.555152C64.37217 19.117554 64.15337099999999 18.898755 63.715842 18.898755C60.434202 20.211411 57.152699999999996 21.086537999999997 53.65233 22.836654C46.432928999999994 18.461295 37.02574499999999 22.617855 37.900802999999996 23.711712H38.119602Z" clip-rule="evenodd" stroke-width="1"></path><path fill="#000000" fill-rule="evenodd" d="M56.058704999999996 25.461620999999997C59.559006 22.836378 62.184248999999994 21.742520999999996 61.96545 21.086192999999998C61.96545 20.867462999999997 61.746719999999996 20.867462999999997 61.527921 20.867462999999997C52.777134 25.46169 54.308519999999994 24.586632 56.05863599999999 26.993075999999995C57.152561999999996 28.524461999999996 57.152561999999996 28.961990999999998 57.590090999999994 28.743191999999997C58.24641899999999 28.743191999999997 56.496234 26.117949 56.05863599999999 25.461620999999997Z" clip-rule="evenodd" stroke-width="1"></path><path fill="#000000" fill-rule="evenodd" d="M58.684086 29.837324999999996C58.902815999999994 31.368710999999998 58.902815999999994 32.900234999999995 58.902815999999994 33.994092C58.684086 35.52547799999999 58.46528699999999 35.962937999999994 58.46528699999999 36.838065C58.684086 38.150651999999994 59.559143999999996 39.463308 59.340414 40.557233999999994C59.340414 40.994763 59.77794299999999 41.213493 59.996672999999994 40.775895C60.434202 39.682038 59.996672999999994 38.588181 59.77794299999999 37.713122999999996C59.340345 35.525408999999996 61.09053 35.087948999999995 59.340414 29.618595C59.12161499999999 29.181066 58.46528699999999 29.399796 58.684086 29.837324999999996Z" clip-rule="evenodd" stroke-width="1"></path><path fill="#000000" fill-rule="evenodd" d="M36.150687 30.055640999999998C36.806945999999996 30.930698999999997 36.806945999999996 30.930698999999997 38.338332 31.368227999999995C38.775929999999995 31.587027 38.994659999999996 30.930698999999997 38.775861 30.711969C37.900802999999996 29.836910999999997 37.900802999999996 29.618111999999996 36.588215999999996 29.399313C36.150687 29.399313 35.931888 29.836841999999997 36.150687 30.055640999999998Z" clip-rule="evenodd" stroke-width="1"></path><path fill="#000000" fill-rule="evenodd" d="M44.682606 31.587509999999998C47.526647999999994 31.149980999999997 45.995262 31.587509999999998 49.05810299999999 30.493653C49.49563199999999 30.493653 49.276832999999996 29.837324999999996 49.05810299999999 29.837324999999996C46.65159 29.837324999999996 46.213992 30.056054999999997 44.682606 30.931112999999996C44.026346999999994 31.149911999999997 44.245076999999995 31.587509999999998 44.682606 31.587509999999998Z" clip-rule="evenodd" stroke-width="1"></path><path fill="#000000" fill-rule="evenodd" d="M37.900802999999996 33.994092C38.994659999999996 35.306678999999995 38.775929999999995 36.181737 40.307385 35.30660999999999C40.744914 35.08788 41.182443 34.650351 41.619972 34.431551999999996C41.838770999999994 34.431551999999996 41.838702 34.212821999999996 41.838702 33.994092C41.619972 33.556563 40.744914 33.994023 39.869786999999995 34.431551999999996C39.432188999999994 33.994023 38.994659999999996 33.775293 38.557131 33.556493999999994C38.119602 33.118964999999996 37.682072999999995 33.556563 37.900802999999996 33.994092Z" clip-rule="evenodd" stroke-width="1"></path><path fill="#000000" fill-rule="evenodd" d="M38.338332 38.369381999999995C39.432188999999994 36.837996 41.619902999999994 38.369313 43.588817999999996 39.900698999999996C44.026346999999994 40.11949799999999 44.245146 39.681968999999995 44.026346999999994 39.463238999999994C43.151289 38.588181 42.057500999999995 37.275524999999995 40.526115 36.837996C39.432258 36.400467 38.338332 36.837996 37.682004 38.150583C37.463274 38.369381999999995 38.119533 38.806911 38.338332 38.369381999999995Z" clip-rule="evenodd" stroke-width="1"></path><path fill="#000000" fill-rule="evenodd" d="M38.994591 34.868804999999995C38.557062 35.962661999999995 38.557062 35.962731 38.994591 37.275318C38.994591 37.712847 39.650988 37.712847 39.650988 37.275318C39.869718 35.962731 40.088516999999996 35.962661999999995 39.650988 34.868804999999995C39.650988 34.431276 38.994591 34.431276 38.994591 34.868804999999995Z" clip-rule="evenodd" stroke-width="1"></path><path fill="#000000" fill-rule="evenodd" d="M45.995262 36.618783C46.214060999999994 36.618783 52.558403999999996 35.306127 52.995932999999994 35.306127C53.433462 35.306127 53.433462 34.649868 52.995932999999994 34.649868C49.933161 34.431069 48.182976 34.868667 45.77646299999999 35.962455C45.338934 36.181253999999996 45.557733 36.837513 45.995262 36.618783Z" clip-rule="evenodd" stroke-width="1"></path><path fill="#000000" fill-rule="evenodd" d="M47.964177 38.369037C49.058034 38.806566 48.839234999999995 38.806566 50.370621 38.806566C50.808218999999994 38.806566 51.026948999999995 38.369037 50.58942 38.150307C49.27676399999999 37.493978999999996 49.058034 37.49391 47.964177 37.712709C47.52657899999999 37.712709 47.52657899999999 38.369037 47.964177 38.369037Z" clip-rule="evenodd" stroke-width="1"></path><path fill="#000000" fill-rule="evenodd" d="M36.588215999999996 34.868667C34.8381 33.774809999999995 34.61930099999999 33.774809999999995 32.650386 33.556011C32.212857 33.337281 31.994058 33.993539999999996 32.43158699999999 34.212339C34.838030999999994 35.524925999999994 34.838030999999994 35.30619599999999 36.369417 35.524925999999994C36.588215999999996 35.743725 37.02574499999999 35.087396999999996 36.588215999999996 34.868667Z" clip-rule="evenodd" stroke-width="1"></path><path fill="#000000" fill-rule="evenodd" d="M35.713226999999996 35.963007C34.400639999999996 35.744277 34.61943899999999 35.744277 32.869254 36.181805999999995C32.43172499999999 36.181805999999995 32.43172499999999 36.838065 32.869254 36.838065C34.400639999999996 37.056864 34.400639999999996 37.056864 35.713226999999996 36.619335C36.150756 36.619335 36.150756 35.963007 35.713226999999996 35.963007Z" clip-rule="evenodd" stroke-width="1"></path><path fill="#000000" fill-rule="evenodd" d="M36.806945999999996 40.994211C39.869786999999995 43.400655 44.026416 42.963125999999995 47.526717 41.43174C47.96431499999999 41.21301 47.74544699999999 40.775411999999996 47.307918 40.775411999999996C44.463944999999995 41.65047 39.650988 41.869338 37.02574499999999 40.337951999999994C36.806945999999996 40.337951999999994 36.369417 40.775411999999996 36.806945999999996 40.994211Z" clip-rule="evenodd" stroke-width="1"></path><path fill="#000000" fill-rule="evenodd" d="M17.773916999999997 42.52607999999999C55.840112999999995 43.401137999999996 48.839442 42.963609 61.746857999999996 42.744879C68.09127 42.744879 68.30999999999999 42.963609 68.30999999999999 42.52607999999999C68.30999999999999 42.088550999999995 68.30999999999999 42.08848199999999 61.746857999999996 42.08848199999999H17.773916999999997C17.336388 41.869752 17.336388 42.52607999999999 17.773916999999997 42.52607999999999Z" clip-rule="evenodd" stroke-width="1"></path><path fill="#000000" fill-rule="evenodd" d="M66.341016 49.74548099999999C63.93450299999999 44.71372499999999 57.15263099999999 45.807582 43.370019 44.932524C35.931819 44.494994999999996 28.27482 43.838598 22.586804999999995 49.74548099999999C20.180360999999998 52.15192499999999 20.180360999999998 54.995898 23.680661999999998 56.308553999999994C26.305904999999996 57.402411 29.149946999999997 57.18368099999999 31.99392 57.18368099999999C58.684017 57.62121 58.24648799999999 57.83993999999999 60.65293199999999 57.18368099999999C65.684688 55.87095599999999 66.997344 50.620539 65.903487 50.620539C65.24709 50.620539 65.903487 51.058068 65.24709 52.370724C64.37203199999999 54.12084 62.840646 55.652226 60.434202 56.308553999999994C57.371361 57.18368099999999 27.399762 55.871024999999996 27.181032 55.871024999999996C16.242462 54.777168 25.212116999999996 46.026312 35.713089 45.588783C36.369348 45.588783 56.27750399999999 46.245042 56.496234 46.245042C60.215402999999995 46.463840999999995 63.93450299999999 46.68264 65.684688 49.964211C65.903418 50.40180899999999 66.55974599999999 50.183009999999996 66.341016 49.74548099999999Z" clip-rule="evenodd" stroke-width="1"></path><path fill="#000000" fill-rule="evenodd" d="M30.462602999999998 51.276246C30.025074 50.619918 30.025074 50.18238899999999 30.025074 49.307331C29.806274999999996 48.432272999999995 29.587476 47.77587599999999 30.243803999999997 47.77587599999999C30.681332999999995 47.77587599999999 31.118930999999996 47.77587599999999 31.775258999999995 47.994606C33.087914999999995 47.994606 33.306644999999996 47.119547999999995 36.369417 49.74485999999999C36.806945999999996 49.963589999999996 37.02574499999999 49.526129999999995 36.806945999999996 49.307331C33.744174 46.24449 33.087914999999995 47.119547999999995 31.994058 46.900817999999994C31.337660999999997 46.900817999999994 30.900132 46.682019 30.025074 46.682019C28.493688 47.119547999999995 28.712418 48.432135 29.149946999999997 49.74485999999999C29.368745999999998 50.401119 29.368745999999998 51.057446999999996 30.025074 51.713705999999995C30.243803999999997 51.93250499999999 30.681332999999995 51.494975999999994 30.462602999999998 51.276246Z" clip-rule="evenodd" stroke-width="1"></path><path fill="#000000" fill-rule="evenodd" d="M40.088654999999996 55.870542C40.526184 55.870542 40.744983 55.433012999999995 40.307454 55.214214C38.5572 54.557885999999996 38.5572 52.151511 35.932026 52.58903999999999C35.275698 52.151511 34.181841 49.96379699999999 33.087984 51.495183L32.869254 51.27638399999999C31.556666999999997 50.182527 31.119068999999996 50.62005599999999 30.243941999999997 51.71391299999999C29.368814999999998 51.27638399999999 29.368814999999998 50.838855 28.056227999999997 51.057654C26.743640999999997 51.27638399999999 24.993456 48.432411 23.462069999999997 51.057654C22.149413999999997 53.026568999999995 24.555926999999997 54.77668499999999 26.743640999999997 55.433012999999995C28.493826 55.870611 30.462740999999998 55.870611 32.212925999999996 55.870611C32.650454999999994 55.870611 39.869924999999995 56.745737999999996 40.088654999999996 55.870611ZM31.556597999999997 51.71391299999999C30.462671999999998 53.245299 30.681470999999995 53.245299 28.931354999999996 52.37024099999999C28.275026999999994 52.151511 27.837498 52.58903999999999 26.962370999999997 52.151441999999996C26.306112 51.932711999999995 25.430984999999996 51.27638399999999 24.993456 51.057654C24.555926999999997 51.057654 24.118398 51.495113999999994 24.118398 51.932711999999995C24.118398 52.37024099999999 24.993456 53.026568999999995 25.430984999999996 53.245299C26.524842 53.901627 27.618698999999996 54.12035699999999 28.931354999999996 54.33915599999999C38.338539 55.433012999999995 37.02588299999999 55.214214 39.432396 55.214214C38.338539 54.557885999999996 37.900940999999996 53.02649999999999 36.588285 53.02649999999999C36.369555 53.02649999999999 35.931957 53.245299 35.713226999999996 53.02649999999999C35.056898999999994 52.80777 34.619369999999996 51.932643 33.963111 51.71391299999999C33.087984 53.245299 31.994126999999995 51.71391299999999 31.556597999999997 51.71391299999999Z" clip-rule="evenodd" stroke-width="1"></path><path fill="#000000" fill-rule="evenodd" d="M54.52731899999999 49.307537999999994C53.65219199999999 48.21375 51.902075999999994 48.213680999999994 50.58942 49.745067C50.370689999999996 49.963865999999996 50.808218999999994 50.620194 51.027018 50.18266499999999C51.683277 49.745067 52.55833499999999 49.307537999999994 53.214662999999994 49.745067C53.65219199999999 50.18259599999999 53.65219199999999 50.620124999999994 54.308519999999994 50.620124999999994C55.183578 50.620124999999994 56.058704999999996 49.307537999999994 56.49630299999999 49.745067C56.715033 49.963865999999996 56.715102 49.963865999999996 56.933831999999995 50.18266499999999C57.80889 50.83892399999999 59.121477 48.651278999999995 59.777805 50.18266499999999C59.996604 50.620194 60.434132999999996 50.401395 60.434132999999996 49.963865999999996C59.996604 48.213680999999994 58.683947999999994 48.870008999999996 57.590090999999994 49.08880799999999C57.371361 48.870008999999996 57.15263099999999 48.65121 56.933831999999995 48.432411C56.058774 48.213680999999994 54.964917 49.08880799999999 54.52731899999999 49.307537999999994Z" clip-rule="evenodd" stroke-width="1"></path><path fill="#000000" fill-rule="evenodd" d="M48.182976 50.401256999999994C48.620504999999994 51.932643 49.714362 50.619987 50.370689999999996 51.05751599999999C50.808218999999994 51.276315 50.58942 51.932643 50.58942 52.588971C50.58942 53.24523 51.464478 53.24523 51.90200699999999 53.464029C52.339605 53.682759 52.120806 54.120287999999995 52.55833499999999 54.557885999999996C52.995864 55.214144999999995 54.308519999999994 54.557885999999996 54.52725 55.870473C54.52725 56.308071 55.183578 56.308071 55.183578 55.870473C55.183578 54.995415 54.746049 54.55781699999999 54.089721 54.120287999999995C53.87099099999999 54.120287999999995 53.561664 54.120287999999995 53.433392999999995 53.901489C53.433392999999995 53.682759 53.214662999999994 53.24523 53.214662999999994 53.026431C52.777065 52.37017199999999 52.55833499999999 52.588902 51.90200699999999 52.15137299999999C51.90200699999999 51.713843999999995 52.120806 51.276315 51.683277 50.619987C51.464478 49.963659 50.58942 49.74492899999999 50.15189099999999 49.74492899999999C49.714362 49.74492899999999 49.49556299999999 49.963659 49.276832999999996 49.963659C48.620504999999994 48.65107199999999 46.213992 49.96372799999999 46.432722 50.401256999999994C46.651520999999995 51.276315 47.307918 50.182458 48.182976 50.401256999999994Z" clip-rule="evenodd" stroke-width="1"></path><path fill="#000000" fill-rule="evenodd" d="M39.650918999999995 49.52661299999999C39.21332099999999 48.651554999999995 38.119464 48.432824999999994 37.244406 48.870354C36.369279 49.307883 36.369279 49.745412 36.150549 49.745412C35.494220999999996 49.52661299999999 34.400363999999996 49.964211 33.744036 51.27679799999999C33.525306 51.714327 34.181634 51.933125999999994 34.400363999999996 51.495597C34.837892999999994 50.620539 35.494220999999996 50.401740000000004 35.93175 50.401740000000004C36.150549 50.401740000000004 36.369279 50.620539 36.588077999999996 50.401740000000004C37.244406 49.964211 37.463136 49.307883 38.338263 49.52661299999999C38.994591 49.745412 38.775861 50.401671 39.43212 50.62047C40.088448 51.057998999999995 40.963506 49.52661299999999 41.83856399999999 49.52661299999999C42.057362999999995 49.52661299999999 41.83856399999999 50.62047 42.49489199999999 50.62047H43.369949999999996C43.588749 51.495528 43.588749 51.714327 44.901405 51.714327C45.995193 51.714327 44.901405 52.370655 45.995193 53.026914C46.432722 53.245712999999995 46.87025099999999 53.245712999999995 46.87025099999999 53.90204099999999C46.651520999999995 55.21462799999999 47.74544699999999 54.777099 48.182976 55.433427C43.588749 55.652156999999995 40.525977 54.55836899999999 40.525977 55.433427C40.525977 55.652156999999995 40.744707 55.652226 40.744707 55.652226C45.776393999999996 55.652226 50.808218999999994 57.62121 49.058034 54.777168C48.83930399999999 54.339569999999995 48.401706 54.120771 47.964177 53.90204099999999C47.964177 53.026914 47.526647999999994 52.151856 46.651520999999995 51.933125999999994C46.651520999999995 51.714327 46.651520999999995 51.495597 46.432722 51.27679799999999C45.995193 50.401740000000004 44.90133599999999 50.62047 44.682606 50.62047C44.245076999999995 48.870354 43.151219999999995 49.745412 42.932421 49.52661299999999C42.276092999999996 47.995157999999996 40.525977 48.432756 39.650918999999995 49.52661299999999Z" clip-rule="evenodd" stroke-width="1"></path><path fill="#000000" fill-rule="evenodd" d="M54.308519999999994 55.651467C49.276832999999996 55.651467 49.49563199999999 55.651398 49.49563199999999 56.089065C49.49563199999999 56.526593999999996 49.714362 56.526593999999996 52.558403999999996 56.74539299999999C56.058774 56.964123 57.59016 57.182922 60.215402999999995 56.526593999999996C62.621846999999995 55.870266 62.840576999999996 54.12008099999999 61.52799 53.463753C59.121477 52.151165999999996 54.52731899999999 53.245023 54.308519999999994 55.65153599999999ZM54.964847999999996 55.651467C56.715033 55.651467 59.777805 55.651467 61.090461 54.55761C60.871662 53.463753 55.402376999999994 53.682551999999994 54.964847999999996 55.651467Z" clip-rule="evenodd" stroke-width="1"></path><path fill="#000000" fill-rule="evenodd" d="M54.08992799999999 51.713705999999995C53.65239899999999 51.494907 53.21487 50.83864799999999 52.99607099999999 51.276246V51.713705999999995C53.43359999999999 52.151235 53.43359999999999 52.807563 54.08992799999999 52.807563C54.746255999999995 52.807563 55.621314 51.93250499999999 56.715239999999994 52.370034C57.809028 52.807563 57.37149899999999 53.682689999999994 57.809028 53.463891C58.46535599999999 53.463891 58.027826999999995 51.93250499999999 57.152769 51.494975999999994C56.05884299999999 50.838716999999995 54.527457 51.276177 54.08992799999999 51.713705999999995Z" clip-rule="evenodd" stroke-width="1"></path><path fill="#000000" fill-rule="evenodd" d="M59.12161499999999 51.494837999999994C59.77794299999999 50.83851 60.434202 51.05723999999999 61.09053 50.619711C61.965588 50.40091199999999 62.62191599999999 49.74465299999999 63.278243999999994 49.74465299999999C63.496974 49.74465299999999 63.715773 49.96345199999999 63.934571999999996 50.182182C64.59089999999999 50.400980999999994 65.24722799999999 50.182182 65.028429 50.619711C64.590831 51.932297999999996 62.62191599999999 53.026155 61.52805899999999 53.463753C61.09053 53.682483 61.309329 54.120011999999996 61.746857999999996 54.120011999999996C62.403186 53.901213 63.059445 53.682483 63.934571999999996 53.244954C65.466027 52.36989599999999 66.997344 50.838440999999996 65.903487 49.525853999999995C65.465958 49.088325 64.809699 49.307123999999995 64.59089999999999 49.088325C64.153302 48.869595 64.153302 48.65079599999999 63.49704299999999 48.65079599999999C62.403186 48.65079599999999 61.746857999999996 49.307055 60.653000999999996 49.74465299999999C59.77794299999999 50.182182 59.12161499999999 50.182182 58.46528699999999 51.05723999999999C58.46528699999999 51.494769 58.902885 51.932367 59.12161499999999 51.494837999999994Z" clip-rule="evenodd" stroke-width="1"></path><path fill="#000000" fill-rule="evenodd" d="M3.3351149999999996 38.150651999999994C4.8665009999999995 38.588181 6.179087999999999 39.463238999999994 5.085231 40.557095999999994C4.428903 41.651022 2.678787 42.52607999999999 1.58493 43.182339C1.147401 43.401137999999996 1.366131 44.057466 1.8036599999999998 43.838736C7.929272999999999 41.651022 7.929272999999999 38.150583 3.3351149999999996 37.494254999999995C3.116316 37.494254999999995 2.8975169999999997 38.150651999999994 3.3351149999999996 38.150651999999994Z" clip-rule="evenodd" stroke-width="1"></path><path fill="#000000" fill-rule="evenodd" d="M6.616548 38.150651999999994C9.46059 39.90076799999999 7.272875999999999 41.432223 6.835278 42.307280999999996C5.741421 43.838667 7.272875999999999 49.526751 7.272875999999999 52.589523C7.272875999999999 54.995967 3.116178 56.308623 0.9284639999999998 56.964951C0.49093499999999995 56.964951 0.7097339999999999 57.621279 1.147263 57.621279C10.991976 55.652294999999995 8.366733 52.370724 7.710405 45.151253999999994C7.491674999999999 43.182339 7.710405 43.182407999999995 7.9292039999999995 42.52607999999999C8.366733 41.869752 9.023061 41.213493 9.023061 40.338297C9.023061 39.02571 8.147934 38.150583 6.835278 37.71305399999999C6.616548 37.49432399999999 6.179018999999999 37.931853 6.616548 38.150651999999994Z" clip-rule="evenodd" stroke-width="1"></path><path fill="#000000" fill-rule="evenodd" d="M5.303891999999999 19.335594C4.866363 18.897996 4.210104 17.804208 3.334977 18.241737C2.897448 18.460466999999998 2.6786489999999996 18.897996 2.24112 18.897996C1.584792 18.897996 1.147263 18.460466999999998 0.9284639999999998 18.897996C0.9284639999999998 19.116795 0.9285329999999998 19.335594 1.147263 19.335594C2.0223899999999997 19.773123 2.4599189999999997 19.991853 3.334977 19.335594C3.7725059999999995 19.116795 3.7725059999999995 19.116795 3.991305 19.335594C4.866363 20.429382 5.522690999999999 20.866979999999998 6.397748999999999 19.335594C6.616548 19.116795 6.397748999999999 19.116795 6.616548 19.116795C7.272875999999999 19.991853 7.272875999999999 20.866979999999998 8.366733 20.429382C9.679319999999999 22.398297 2.897448 31.149153 1.584792 39.90007799999999C1.584792 40.118807999999994 1.584792 40.33760699999999 1.803591 40.33760699999999C2.45985 40.556405999999996 1.803591 39.46248 3.991305 34.211994C7.272875999999999 26.554994999999998 11.210705999999998 21.742037999999997 9.023061 19.773123C8.585462999999999 19.335594 8.366733 19.554323999999998 7.9292039999999995 19.554323999999998C7.710405 19.116795 7.272875999999999 18.679266 7.054145999999999 18.460535999999998C5.96022 17.585409 5.522690999999999 19.335594 5.303891999999999 19.335594ZM5.303891999999999 19.335594C5.303891999999999 19.554323999999998 5.303891999999999 19.554323999999998 5.303891999999999 19.335594Z" clip-rule="evenodd" stroke-width="1"></path><path fill="#000000" fill-rule="evenodd" d="M1.584792 33.337211999999994C4.2100349999999995 32.899682999999996 3.334977 32.899682999999996 5.522690999999999 32.243355C5.96022 32.243355 5.741421 31.587027 5.303891999999999 31.587027C3.116178 31.587027 2.6786489999999996 32.024625 1.365993 32.680952999999995C1.147263 32.899682999999996 1.3660619999999999 33.556011 1.584792 33.337211999999994Z" clip-rule="evenodd" stroke-width="1"></path><path fill="#000000" fill-rule="evenodd" d="M5.085299999999999 37.055898C5.304099 35.305781999999994 5.522828999999999 35.305713 5.085299999999999 32.024211C5.085299999999999 31.586613 4.429041 31.586613 4.429041 32.024211C4.210242 34.430655 3.9915119999999993 34.430724 4.429041 37.055898C4.647771 37.493427 5.304099 37.493427 5.085299999999999 37.055898Z" clip-rule="evenodd" stroke-width="1"></path><path fill="#000000" fill-rule="evenodd" d="M16.898652 16.054091999999997C15.148535999999998 16.491621 8.585393999999999 16.92915 5.960082 16.054091999999997C8.804124 15.397694999999999 12.960752999999999 15.616494 15.804794999999999 15.835292999999998C16.242393 15.835292999999998 16.242393 15.178895999999998 15.804794999999999 15.178895999999998C14.054609999999998 14.960166 7.929066 14.085038999999998 4.866225 14.960166C4.647494999999999 15.178895999999998 3.7723679999999997 15.178895999999998 3.991167 16.054091999999997C4.866225 18.460535999999998 14.273409 17.585409 16.898652 16.710351C17.992509 16.272821999999998 18.430038 16.054091999999997 17.336181 15.397694999999999C16.898652 15.397694999999999 16.461122999999997 15.835292999999998 16.898652 16.054091999999997Z" clip-rule="evenodd" stroke-width="1"></path><path fill="#000000" fill-rule="evenodd" d="M13.398350999999998 13.428779999999998C10.773108 13.209980999999999 8.585393999999999 12.553721999999999 5.3038229999999995 12.991319999999998C1.5847229999999999 13.428848999999998 1.5847229999999999 14.303906999999999 1.8035219999999998 18.023007C1.8035219999999998 18.460535999999998 2.459781 18.460535999999998 2.459781 18.023007C2.459781 14.085107999999998 2.8973789999999995 14.303906999999999 5.522621999999999 14.085107999999998C7.710336 13.866378 10.991907 13.866378 13.398350999999998 13.866378C13.83588 14.085107999999998 14.054678999999998 13.428779999999998 13.398350999999998 13.428779999999998Z" clip-rule="evenodd" stroke-width="1"></path><path fill="#000000" fill-rule="evenodd" d="M18.211377 16.92984C18.211377 18.023697 17.336319 47.995227 16.898789999999998 49.964211C16.461260999999997 51.495597 15.148535999999998 52.370655 13.835948999999998 52.808184000000004C10.773177 53.683310999999996 8.585462999999999 53.027052 8.585462999999999 53.683310999999996C8.585462999999999 53.90210999999999 8.804262 53.90204099999999 9.022992 53.90204099999999C12.523292999999999 53.683310999999996 17.11752 53.90210999999999 17.992646999999998 50.183009999999996C18.648906 47.77649699999999 19.523964 28.30587 18.867704999999997 16.92984C18.867704999999997 16.273443 18.211377 16.492242 18.211377 16.92984Z" clip-rule="evenodd" stroke-width="1"></path><path fill="#000000" fill-rule="evenodd" d="M14.273477999999999 49.307952C14.273477999999999 49.526681999999994 12.523292999999999 50.183009999999996 11.429504999999999 50.401740000000004C9.241791 50.839338 8.804262 50.401740000000004 8.804262 50.839268999999994C8.585462999999999 51.933125999999994 14.492207999999998 51.27679799999999 15.586064999999998 49.745412C16.023663 48.870354 15.367334999999999 47.995227 14.492207999999998 47.776428C12.960821999999999 47.12016899999999 10.554378 47.557697999999995 9.022992 47.557697999999995C8.804262 47.557697999999995 8.585462999999999 47.776428 8.585462999999999 47.776428C8.366733 48.870354 13.398419999999998 47.995227 14.273477999999999 49.307952Z" clip-rule="evenodd" stroke-width="1"></path><path fill="#000000" fill-rule="evenodd" d="M17.117658 22.836446999999996C11.429642999999999 16.710903 0.49114199999999997 30.712107 17.555255999999996 38.587905C17.773985999999997 38.587905 17.992784999999998 38.587973999999996 17.992784999999998 38.369175C18.211584 37.712847 17.117727 37.931577 14.273615999999999 35.525133C9.898257 32.024831999999996 7.491743999999999 26.774346 11.648372999999998 23.055176999999997C13.179758999999999 21.742589999999996 14.929943999999999 21.742520999999996 16.461398999999997 23.273906999999998C16.898927999999998 23.711505 16.898927999999998 24.149102999999997 17.336457 23.930304C17.992784999999998 23.711574 17.760530999999997 22.861700999999996 17.979260999999997 21.549114C18.198059999999998 20.455256999999996 18.663050999999996 20.777349 18.430314 20.211135C18.430314 19.992404999999998 17.336457 20.429934 17.117658 22.836446999999996Z" clip-rule="evenodd" stroke-width="1"></path><path fill="#000000" fill-rule="evenodd" d="M67.43473499999999 5.990924999999999C56.714963999999995 5.334597 50.58942 5.553396 40.744707 5.334597C34.181565 5.115867 28.49355 4.897068 25.868306999999998 11.022680999999999C24.118122 14.960510999999999 24.993248999999995 16.710696 26.524634999999996 24.805223999999995C29.149808999999998 38.587767 28.49355 39.681624 29.368608 39.462825C29.587406999999995 39.462825 29.587406999999995 39.244026 29.587406999999995 39.025296C25.649576999999997 13.210325999999998 25.430778 14.741711999999998 26.962163999999998 11.241410999999998C29.368608 5.772125999999999 34.837892999999994 6.209654999999999 40.963506 6.209654999999999C44.026278 6.209654999999999 65.028291 6.209723999999999 67.653534 6.4284539999999994C67.872333 6.647252999999999 67.872264 5.990924999999999 67.43473499999999 5.990924999999999Z" clip-rule="evenodd" stroke-width="1"></path><path fill="#000000" fill-rule="evenodd" d="M38.994729 62.87155799999999C40.744914 57.839870999999995 48.839442 63.74661599999999 59.996742 63.74661599999999C60.215540999999995 63.74661599999999 60.434270999999995 63.527885999999995 60.434270999999995 63.527885999999995C60.434270999999995 62.87155799999999 59.996742 63.52781699999999 55.402584 62.652758999999996C47.52685499999999 61.12137299999999 43.588955999999996 58.71492899999999 40.307385 60.465044999999996C39.213528 61.12137299999999 37.900872 62.87155799999999 38.5572 63.09035699999999C38.775929999999995 63.09035699999999 38.775929999999995 62.87155799999999 38.994797999999996 62.87155799999999Z" clip-rule="evenodd" stroke-width="1"></path><path fill="#000000" fill-rule="evenodd" d="M56.496234 58.05880799999999C53.65212299999999 59.15266499999999 53.870922 58.933865999999995 50.370621 61.12157999999999C49.933091999999995 61.340309999999995 50.370621 61.996638 50.58942 61.777839C53.870922 60.46525199999999 53.870922 60.46525199999999 56.714963999999995 58.715067C57.152561999999996 58.49633699999999 56.93376299999999 57.840008999999995 56.496234 58.05880799999999Z" clip-rule="evenodd" stroke-width="1"></path><path fill="#000000" fill-rule="evenodd" d="M58.902885 61.77707999999999C58.46535599999999 61.12082099999999 58.027826999999995 60.464493 58.027826999999995 59.589435C58.027826999999995 58.276779 60.215540999999995 57.62051999999999 61.528127999999995 57.62051999999999C63.278313 57.62051999999999 64.80976799999999 59.370704999999994 66.341154 60.245763C66.77868299999999 60.464493 66.997482 60.02696399999999 66.77868299999999 59.808164999999995C65.247297 58.714307999999996 63.934641 56.74539299999999 61.74692699999999 56.526663C58.68415499999999 56.307863999999995 55.183785 58.71437699999999 58.68415499999999 62.214678C58.68415499999999 62.65220699999999 59.121683999999995 62.214608999999996 58.902885 61.77707999999999Z" clip-rule="evenodd" stroke-width="1"></path><path fill="#000000" fill-rule="evenodd" d="M67.87254 55.871162999999996C67.216212 55.433634 66.341154 55.433634 65.684826 55.652364C64.591038 56.089893 63.934641 56.96502 63.278313 57.621348C62.84078399999999 57.840146999999995 63.278313 58.496475 63.715842 58.058946C64.590969 57.40254899999999 66.559884 56.089893 67.653741 56.308692C68.09127 56.74622099999999 68.30999999999999 56.08996199999999 67.87254 55.871162999999996Z" clip-rule="evenodd" stroke-width="1"></path></svg>