<svg xmlns="http://www.w3.org/2000/svg" fill="none" viewBox="-0.5 -0.5 70 70" id="Sipping-Coffee-On-Laptop-Hand-Drawn--Streamline-Memes.svg" height="70" width="70"><desc>Sipping Coffee On Laptop Hand Drawn Streamline Element: https://streamlinehq.com</desc><path fill="#000000" fill-rule="evenodd" d="M39.344972999999996 26.807534999999998C39.783882 29.001873 41.539311 30.318393 42.63648 31.854401999999997C42.8559 32.073822 43.29474 32.293242 43.51416 31.854401999999997C44.830817999999994 30.537882 49.43884499999999 24.832686 49.877685 22.857768C50.097105 21.760599 49.658265 20.663429999999998 49.43884499999999 19.566260999999997C49.43884499999999 19.127421 48.780584999999995 19.346771999999998 48.780584999999995 19.785681C49.219424999999994 22.857698999999997 49.877685 22.418927999999998 47.02508699999999 25.929785999999996C45.927986999999995 27.246374999999997 44.391978 29.440713 43.29474 30.537950999999996C42.19763999999999 29.221292999999996 40.442142 28.124124 40.003302 26.368626C40.003302 26.149205999999996 39.344972999999996 26.368694999999995 39.344972999999996 26.807534999999998Z" clip-rule="evenodd" stroke-width="1"></path><path fill="#000000" fill-rule="evenodd" d="M37.80889499999999 23.954936999999997C37.370055 24.393846 37.370055 24.393846 37.58947499999999 25.052106C37.58947499999999 25.490945999999997 38.028315 25.710296999999997 38.247804 25.271457C38.686643999999994 24.613197 38.686643999999994 24.832617 38.467223999999995 24.174288C38.686643999999994 23.735447999999998 38.028383999999996 23.516028 37.80889499999999 23.954936999999997Z" clip-rule="evenodd" stroke-width="1"></path><path fill="#000000" fill-rule="evenodd" d="M38.90606399999999 24.832686C38.467223999999995 25.271525999999998 38.467223999999995 25.271525999999998 38.686643999999994 25.929785999999996C38.686643999999994 26.368694999999995 39.344904 26.368694999999995 39.344904 25.929785999999996C39.783812999999995 25.271525999999998 39.783882 25.271525999999998 39.564392999999995 24.832686C39.564392999999995 24.613265999999996 38.90606399999999 24.393846 38.90606399999999 24.832686Z" clip-rule="evenodd" stroke-width="1"></path><path fill="#000000" fill-rule="evenodd" d="M40.003371 25.491566999999996C39.564530999999995 25.930407 39.564530999999995 26.149827 40.003371 26.808224999999997C40.003371 27.247065 40.661699999999996 27.247065 40.661699999999996 26.808224999999997C40.881119999999996 26.149827 41.100539999999995 26.369315999999998 40.661699999999996 25.710987C40.661699999999996 25.052727 40.003371 25.052727 40.003371 25.491566999999996Z" clip-rule="evenodd" stroke-width="1"></path><path fill="#000000" fill-rule="evenodd" d="M41.539241999999994 25.929785999999996C41.100401999999995 26.588114999999995 41.319821999999995 26.588114999999995 41.539241999999994 27.026954999999997C41.539241999999994 27.465863999999996 42.19763999999999 27.465863999999996 42.19763999999999 27.026954999999997C42.41705999999999 26.368694999999995 42.41705999999999 26.368694999999995 42.19763999999999 25.929785999999996C42.19763999999999 25.710366 41.539241999999994 25.490945999999997 41.539241999999994 25.929785999999996Z" clip-rule="evenodd" stroke-width="1"></path><path fill="#000000" fill-rule="evenodd" d="M42.855969 25.711056C42.636548999999995 26.369315999999998 42.417128999999996 26.588804999999997 43.075388999999994 27.247133999999996C43.294808999999994 27.685973999999998 43.733649 27.466554 43.733649 27.027714C43.733649 26.149964999999998 43.953137999999996 26.369315999999998 43.514229 25.491636C43.514229 25.272215999999997 42.855969 25.272215999999997 42.855969 25.711056Z" clip-rule="evenodd" stroke-width="1"></path><path fill="#000000" fill-rule="evenodd" d="M44.172489 25.052933999999997C43.953069 25.711263 44.172489 25.930683 44.830817999999994 26.150102999999998C45.05023799999999 26.588942999999997 45.708498 26.150102999999998 45.48907799999999 25.930613999999995C45.48907799999999 25.052933999999997 45.48907799999999 25.272354 45.05023799999999 24.833513999999997S43.953069 24.614094 44.172489 25.052933999999997Z" clip-rule="evenodd" stroke-width="1"></path><path fill="#000000" fill-rule="evenodd" d="M45.050169 23.955764999999996C45.050169 24.833513999999997 45.26958899999999 24.833513999999997 45.927918 25.272354C46.147338 25.711194 46.805597999999996 25.272354 46.586178 25.052933999999997C46.366758 23.955764999999996 46.147338 23.955764999999996 45.708428999999995 23.736345C45.489009 23.297504999999997 44.830749 23.516925 45.050169 23.955764999999996Z" clip-rule="evenodd" stroke-width="1"></path><path fill="#000000" fill-rule="evenodd" d="M46.366827 23.297022000000002C46.366827 23.735861999999997 46.366827 23.735931 47.02508699999999 23.955350999999997C47.24450699999999 24.174770999999996 47.902836 23.735861999999997 47.463927 23.516441999999998C47.463927 22.858182 47.463927 22.858182 46.80566699999999 22.858182C46.586247 22.419341999999997 46.147407 22.858182 46.366827 23.297022000000002Z" clip-rule="evenodd" stroke-width="1"></path><path fill="#000000" fill-rule="evenodd" d="M47.464065 22.418859S47.464065 22.638278999999997 47.683485 22.857698999999997S48.12239399999999 22.857698999999997 48.34181399999999 22.857698999999997C48.780654 23.077118999999996 49.000074 22.638278999999997 48.780654 22.418859C48.561234 21.979881 48.561234 21.76053 48.12239399999999 21.76053C47.464065 21.54111 47.025225 22.199438999999998 47.464065 22.418859Z" clip-rule="evenodd" stroke-width="1"></path><path fill="#000000" fill-rule="evenodd" d="M47.902836 20.664326999999997C48.122325000000004 21.322656 48.341744999999996 21.103167 48.780584999999995 21.103167C49.219494 21.322587 49.438914 20.883816 49.219424999999994 20.664326999999997C49.000004999999994 20.005997999999998 48.780654 20.005997999999998 48.341744999999996 20.225417999999998C47.902836 20.005997999999998 47.463995999999995 20.444906999999997 47.902836 20.664326999999997Z" clip-rule="evenodd" stroke-width="1"></path><path fill="#000000" fill-rule="evenodd" d="M39.125553 21.321758999999997C39.344972999999996 21.541179 40.003371 21.760599 40.44221099999999 21.541179C40.698201 21.365574 40.661631 21.321758999999997 40.881051 21.102339C41.97822 20.882918999999998 42.417128999999996 20.005238999999996 42.19763999999999 19.346841C42.19763999999999 18.908001 41.539311 18.908001 41.539311 19.346841C41.539311 19.566260999999997 41.31989099999999 20.005169999999996 40.881051 20.005169999999996C40.44221099999999 20.005169999999996 40.621334999999995 20.376942 39.783950999999995 20.444079C39.56446199999999 20.444079 39.45516599999999 20.459121 39.345042 20.224659C39.139767 20.286827999999996 39.023157 20.196714 39.125553 20.005169999999996C40.003371 18.688581 39.344972999999996 16.274822999999998 38.686713 16.494242999999997C38.247873 16.713662999999997 38.686713 16.933083 38.686713 18.030320999999997C38.686713 18.908001 38.247873 19.127489999999998 38.028453 19.566329999999997C37.80903299999999 20.444079 38.247873 21.321758999999997 39.125553 21.321758999999997Z" clip-rule="evenodd" stroke-width="1"></path><path fill="#000000" fill-rule="evenodd" d="M37.589681999999996 22.199783999999998C37.809101999999996 21.980363999999998 38.028591 21.760944 38.248011 21.541524C38.467431 21.322103999999996 38.686851 20.663844 38.906271 20.663844C39.345110999999996 20.444423999999998 38.906271 19.786026 38.467431 20.005515C37.58975099999999 20.225004 37.150773 20.883263999999997 37.150773 21.761013C36.931352999999994 22.419341999999997 37.370262 22.638692999999996 37.589681999999996 22.199783999999998Z" clip-rule="evenodd" stroke-width="1"></path><path fill="#000000" fill-rule="evenodd" d="M41.978289 19.566122999999997C42.636548999999995 19.785543 43.514298 20.224452 44.39204699999999 20.882711999999998S45.269726999999996 21.979881 45.489146999999996 21.760461C45.927986999999995 21.541041 45.269726999999996 20.224452 44.830887 19.785474C43.733649 18.688373999999996 42.855969 18.907794 41.978289 18.907794C41.758869 18.907794 41.758869 19.566122999999997 41.978289 19.566122999999997Z" clip-rule="evenodd" stroke-width="1"></path><path fill="#000000" fill-rule="evenodd" d="M44.391909 21.980226C44.611329 21.760806 44.391909 21.321965999999996 43.953069 21.541386H43.29474C41.319821999999995 21.102546 41.319821999999995 21.980226 40.661561999999996 21.980226C40.222722 21.980226 39.56446199999999 21.321896999999996 38.686643999999994 21.980226C37.808963999999996 22.638554999999997 38.247804 23.296883999999995 39.125484 23.735723999999998C39.783882 24.174564 40.222722 24.393984 41.319821999999995 24.174494999999997C42.855831 23.955074999999997 44.391909 22.199714999999998 44.391909 21.980226ZM43.29474 22.199714999999998C41.978151 22.199714999999998 42.197570999999996 22.419203999999997 41.319821999999995 22.858044C40.442142 23.296883999999995 39.345042 22.419135 40.442142 23.077395C41.319821999999995 23.516234999999998 42.63648 22.857974999999996 43.29474 22.199714999999998Z" clip-rule="evenodd" stroke-width="1"></path><path fill="#000000" fill-rule="evenodd" d="M38.467293 16.275651C37.58961299999999 15.617322 36.273024 16.275582 36.053604 17.592170999999997C35.834115 18.031011 36.492444 18.250431 36.711864 17.811591C37.100471999999996 16.933911 37.867751999999996 16.743885 38.247873 16.933911C38.686713 17.153330999999998 38.906202 16.495071 38.467293 16.275651Z" clip-rule="evenodd" stroke-width="1"></path><path fill="#000000" fill-rule="evenodd" d="M34.298106 12.764655C33.859266 16.495071 34.736945999999996 16.933842 34.956365999999996 18.689339999999998C35.175785999999995 20.444768999999997 34.736945999999996 24.394536 38.906133 26.808362999999996C41.539311 28.344302999999996 43.733717999999996 28.563723 47.244575999999995 24.614024999999998C49.000074 22.858527 49.65833399999999 22.200197999999997 49.219424999999994 20.00586C51.194342999999996 19.78644 51.194342999999996 16.495002 50.536083 14.739572999999998C49.877754 13.422914999999998 48.780584999999995 13.642403999999999 48.341744999999996 15.178412999999997C48.341744999999996 15.617322 48.780584999999995 15.836672999999998 49.000004999999994 15.397832999999999C49.877685 12.106395 51.194342999999996 19.78644 48.780584999999995 19.12818C48.561164999999995 19.12818 48.122325000000004 19.347668999999996 48.122325000000004 19.567089C48.341744999999996 21.761357999999998 48.561164999999995 21.761357999999998 46.366827 23.955696C43.07532 27.466623 41.539311 27.027782999999996 39.344972999999996 25.711125C35.834115 23.516855999999997 36.053535 20.225348999999998 35.614695 18.46992C35.175785999999995 16.714491 34.298106 16.275651 34.736945999999996 12.764655C34.956365999999996 12.325814999999999 34.517526 12.325814999999999 34.298106 12.764655Z" clip-rule="evenodd" stroke-width="1"></path><path fill="#000000" fill-rule="evenodd" d="M36.053397 11.228507999999998C38.905995 7.498160999999999 40.003233 7.71765 39.564392999999995 7.278809999999999C39.344834999999996 6.839901 37.80889499999999 7.717581 37.370055 7.937069999999999C36.272886 8.81475 35.833977 9.692499 35.395137 10.789667999999999C35.175717 11.447996999999999 35.833977 11.667347999999999 36.053397 11.228507999999998Z" clip-rule="evenodd" stroke-width="1"></path><path fill="#000000" fill-rule="evenodd" d="M39.345110999999996 8.814473999999999C41.32002899999999 8.375565 41.436569999999996 8.061753 41.978358 7.717305C42.294585 7.484568 42.417198 7.059044999999999 41.978358 7.059044999999999C40.44228 7.059044999999999 40.00344 7.497884999999999 39.125690999999996 8.156214C38.686851 8.595054 38.906271 9.033893999999998 39.345110999999996 8.814473999999999Z" clip-rule="evenodd" stroke-width="1"></path><path fill="#000000" fill-rule="evenodd" d="M42.41705999999999 8.814681C43.273557 8.611752 43.710395999999996 8.326989 44.172557999999995 7.936932C44.611398 7.717511999999999 44.391978 7.278671999999999 43.953137999999996 7.278671999999999C43.390581 7.3402199999999995 42.63648 7.498091999999999 41.97822 8.156421C41.7588 8.375841 41.97822 9.034101 42.41705999999999 8.814681Z" clip-rule="evenodd" stroke-width="1"></path><path fill="#000000" fill-rule="evenodd" d="M45.489009 9.033548999999999C45.917981999999995 8.853665999999999 45.708428999999995 8.375288999999999 45.489009 8.375288999999999C45.200312999999994 8.319329999999999 44.576277 8.331128999999999 44.172489 8.594778C43.386717 9.247587 44.980686 9.287745 45.489009 9.033548999999999Z" clip-rule="evenodd" stroke-width="1"></path><path fill="#000000" fill-rule="evenodd" d="M45.928124999999994 11.008329C46.227791999999994 11.008329 46.36696499999999 10.898687999999998 46.58638499999999 10.788909C47.025225 10.569488999999999 46.805805 9.911228999999999 46.36696499999999 10.130649C46.195431 10.179018 45.990432 10.209171 45.708566999999995 10.350069C45.269726999999996 10.569488999999999 45.489146999999996 11.008329 45.928124999999994 11.008329Z" clip-rule="evenodd" stroke-width="1"></path><path fill="#000000" fill-rule="evenodd" d="M47.025155999999996 11.008880999999999C46.366896000000004 12.98373 47.025225 14.300388 48.34181399999999 15.616907999999999C48.561234 16.055817 49.219494 15.616976999999999 48.780654 15.178136999999998C48.12239399999999 13.861548 47.464065 11.886629999999998 47.683485 11.008880999999999C47.90290499999999 10.789461 47.244575999999995 10.570040999999998 47.025155999999996 11.008880999999999Z" clip-rule="evenodd" stroke-width="1"></path><path fill="#000000" fill-rule="evenodd" d="M40.003509 5.0841959999999995C38.248011 5.303616 33.420564 7.278534 34.737083999999996 8.375703C33.859404 9.253383 32.98158599999999 10.131132 32.542746 11.447652C32.542746 11.447652 32.323325999999994 11.667209999999999 32.323325999999994 11.886629999999998C32.323325999999994 12.32547 32.762166 12.764240999999998 33.639984 12.325401C33.639984 12.98373 33.420564 13.422569999999999 33.639984 14.519738999999998C33.859404 15.177998999999998 34.078824 16.275236999999997 34.517663999999996 16.055817C35.175923999999995 15.616907999999999 33.859404 15.397419 34.298244 12.325401C34.298244 12.325401 34.517663999999996 12.10605 34.517663999999996 11.886629999999998C34.517663999999996 11.667209999999999 34.517663999999996 11.447652 34.078824 11.447652H33.639984C34.956503999999995 9.253383 37.370331 8.595054 36.712002 7.717305C40.881189 5.523036 41.539449 7.278534 41.758938 6.181365V5.961944999999999C44.172695999999995 5.961944999999999 46.586453999999996 6.839624999999999 47.683553999999994 8.814473999999999C48.122462999999996 9.472802999999999 49.658471999999996 8.156214 49.658471999999996 12.54489C49.658471999999996 14.519738999999998 49.439052 14.958648 49.877891999999996 14.958648C50.097311999999995 14.958648 50.316801 14.958578999999999 50.316801 14.739158999999999C50.75564099999999 12.105980999999998 50.975061000000004 8.595054 48.561302999999995 8.156214C47.90297399999999 7.278465 47.244714 6.400785 46.367034 5.961875999999999C44.172695999999995 4.645287 41.758938 4.864775999999999 41.32002899999999 4.864775999999999C40.661769 4.864775999999999 40.222929 4.425866999999999 40.003509 4.864775999999999V5.0841959999999995Z" clip-rule="evenodd" stroke-width="1"></path><path fill="#000000" fill-rule="evenodd" d="M37.58961299999999 14.958993C36.711864 14.958993 36.492444 14.958993 35.614764 15.836741999999997C35.175923999999995 16.056162 35.614764 16.714422 36.053604 16.495002C36.639897 16.248050999999997 37.05348299999999 16.185054 38.028453 15.617253C38.270711999999996 15.377478 38.06592 15.026888999999997 37.58961299999999 14.958993Z" clip-rule="evenodd" stroke-width="1"></path><path fill="#000000" fill-rule="evenodd" d="M41.32002899999999 14.958993C41.719745999999994 15.049934999999998 42.19777799999999 15.178412999999997 42.636618 15.178412999999997C43.514298 15.178412999999997 43.97439 15.110930999999997 44.611535999999994 14.958993C45.050376 14.958993 45.103989 14.417687999999998 44.83095599999999 14.300664C43.294878 13.642335 42.636618 13.861755 41.539449 14.300664C40.921968 14.473785 41.100609 14.958993 41.32002899999999 14.958993Z" clip-rule="evenodd" stroke-width="1"></path><path fill="#000000" fill-rule="evenodd" d="M42.197570999999996 16.494104999999998C42.408297 15.396935999999998 43.953069 16.055265 44.172489 16.055265C44.611329 16.274684999999998 44.830749 15.616425 44.391909 15.396935999999998C42.41705999999999 14.080347 41.100401999999995 15.616425 41.539311 16.494104999999998C41.758731 17.152365 42.41705999999999 16.932945 42.197570999999996 16.494104999999998Z" clip-rule="evenodd" stroke-width="1"></path><path fill="#000000" fill-rule="evenodd" d="M42.636548999999995 16.275374999999997C42.636548999999995 16.714215 43.075388999999994 17.153055 43.514229 16.714215C44.391978 16.055955 42.855969 15.178205999999998 42.636548999999995 16.275374999999997Z" clip-rule="evenodd" stroke-width="1"></path><path fill="#000000" fill-rule="evenodd" d="M37.428290999999994 16.895753999999997C36.770030999999996 17.334594 37.428290999999994 18.212342999999997 37.86713099999999 17.773502999999998C38.525529 17.115174 37.428290999999994 16.456913999999998 36.989450999999995 17.334663L37.428290999999994 16.895753999999997Z" clip-rule="evenodd" stroke-width="1"></path><path fill="#000000" fill-rule="evenodd" d="M43.294878 30.976721999999995C41.978358 31.854401999999997 41.32002899999999 32.951570999999994 41.539449 35.145908999999996C41.539449 35.584748999999995 42.19777799999999 35.584748999999995 42.19777799999999 35.145908999999996C42.417198 34.487511 42.636618 33.829319999999996 42.856038 33.390411C43.733717999999996 31.196141999999995 44.17262699999999 31.196073 43.733717999999996 30.757232999999996C43.733717999999996 30.757232999999996 43.514298 30.976721999999995 43.294878 30.976721999999995Z" clip-rule="evenodd" stroke-width="1"></path><path fill="#000000" fill-rule="evenodd" d="M41.319959999999995 48.751259999999995C41.100539999999995 51.16501799999999 40.881119999999996 51.603927 41.539379999999994 55.773114C41.539379999999994 56.211954 42.19777799999999 56.211954 42.19777799999999 55.773114C42.417198 52.481676 42.636618 52.262187 41.978289 48.751259999999995C41.978289 48.312419999999996 41.319959999999995 48.312419999999996 41.319959999999995 48.751259999999995Z" clip-rule="evenodd" stroke-width="1"></path><path fill="#000000" fill-rule="evenodd" d="M48.341882999999996 30.757647C48.341882999999996 30.099317999999997 48.341882999999996 28.782797999999996 47.90290499999999 28.563308999999997C47.683485 28.343888999999997 47.244645 28.124468999999998 46.36696499999999 29.002287L45.928124999999994 29.660477999999994C45.708636 29.879897999999997 46.147544999999994 30.318807 46.36696499999999 30.099387C47.025225 29.441126999999998 47.025294 29.441126999999998 47.244714 29.221706999999995C47.464134 29.879966999999997 47.244714 30.757647 47.244714 31.415975999999997C47.464134 33.171473999999996 48.122462999999996 33.171405 49.000143 31.854816C49.65840299999999 30.977135999999994 49.87782299999999 30.318807 50.316731999999995 29.441126999999998C51.194480999999996 27.905117999999998 52.072160999999994 26.36904 52.072160999999994 24.613611C52.072160999999994 21.541524 49.219563 19.347254999999997 49.000143 20.224935C48.780723 20.663844 49.219563 20.663844 49.65840299999999 21.102684C50.536151999999994 21.760944 51.194480999999996 23.297022000000002 50.975061000000004 24.613541999999995C50.75564099999999 26.14962 49.87782299999999 27.685628999999995 49.219563 28.782729C49.000143 29.221638 48.561302999999995 30.318807 48.341882999999996 30.757647ZM48.341882999999996 31.635465C48.561302999999995 31.635465 48.561302999999995 31.635465 48.341882999999996 31.635465Z" clip-rule="evenodd" stroke-width="1"></path><path fill="#000000" fill-rule="evenodd" d="M37.589406 27.027368999999997C36.931076999999995 29.002218 36.931076999999995 29.879897999999997 38.905995 31.196555999999998C40.222584 32.074236 40.222584 32.293656 40.442004 32.074236C41.100333 31.415975999999997 38.467155 30.318807 38.247735 28.343888999999997C38.247735 27.246789 38.247665999999995 27.0273 38.028245999999996 26.807879999999997C37.808825999999996 26.807879999999997 37.589406 26.807948999999997 37.589406 27.027368999999997Z" clip-rule="evenodd" stroke-width="1"></path><path fill="#000000" fill-rule="evenodd" d="M38.028383999999996 28.343888999999997C37.589544 28.782797999999996 37.150635 29.440989 37.808963999999996 29.660408999999998C38.247804 29.879828999999997 38.247804 29.221638 38.686643999999994 29.221638C39.564392999999995 29.660477999999994 40.661561999999996 31.196486999999998 41.100401999999995 30.757508999999995C41.539241999999994 30.318669 39.344904 27.246719999999996 38.028383999999996 28.343888999999997Z" clip-rule="evenodd" stroke-width="1"></path><path fill="#000000" fill-rule="evenodd" d="M37.370124 25.052727C35.395206 27.466485 32.761959 27.466485 31.664859 28.344164999999997C30.78711 29.002562999999995 30.56769 29.660754 29.909360999999997 30.099663C29.251100999999995 30.757922999999998 27.934511999999998 31.196831999999997 27.495671999999995 32.074512C26.837411999999997 33.171612 27.056832 34.049361 26.617923 35.14653C25.740174 36.901959 24.862493999999998 37.779776999999996 25.520754 39.754625999999995C25.740174 40.193465999999994 26.179014 39.974045999999994 26.179014 39.535137C25.740174 37.779776999999996 26.617991999999997 36.902028 27.495671999999995 35.585438999999994C27.934511999999998 34.70769 27.934511999999998 33.610589999999995 28.373352 32.73284099999999C28.812261 32.074581 29.909429999999997 31.635671999999996 30.56769 31.196762999999997C31.226018999999997 30.757922999999998 31.664859 29.880242999999997 32.323119 29.441402999999998C33.200936999999996 28.783073999999996 36.05346599999999 28.563585 38.028383999999996 25.710987C38.247804 25.052727 37.589544 24.613817999999995 37.370124 25.052727Z" clip-rule="evenodd" stroke-width="1"></path><path fill="#000000" fill-rule="evenodd" d="M28.154000999999997 35.365604999999995C28.592840999999996 37.779363 29.25117 38.218202999999995 30.787179 40.193121C31.006598999999998 40.631961 31.664927999999996 40.193121 31.445507999999997 39.97370099999999C29.909429999999997 36.24328499999999 29.69001 36.682125 29.03175 35.146184999999996C28.592840999999996 34.707276 27.934511999999998 34.926696 28.154000999999997 35.365604999999995Z" clip-rule="evenodd" stroke-width="1"></path><path fill="#000000" fill-rule="evenodd" d="M30.128919 36.462773999999996C31.226156999999997 39.534861 30.128919 43.045787999999995 30.567758999999995 45.898386C30.567758999999995 46.556715 30.787247999999998 47.214974999999995 30.787247999999998 48.092724V49.848084C31.006736999999998 51.603581999999996 31.445507999999997 51.823001999999995 31.445507999999997 53.797850999999994C31.445507999999997 55.772769 31.006667999999994 56.43109799999999 31.664997 56.43109799999999C31.884416999999996 56.43109799999999 32.103837 56.211608999999996 32.103837 56.211608999999996C32.103837 54.89508899999999 32.542677 53.79792 32.323257 52.042421999999995C32.103837 51.16474199999999 32.103837 50.725902 31.884416999999996 49.848084C31.664997 44.581796999999995 31.445577 47.873304 31.664997 43.045719C31.664997 40.631961 31.664997 38.437622999999995 30.787247999999998 36.243354C30.567758999999995 35.585094 29.909498999999997 36.023934 30.128919 36.462773999999996Z" clip-rule="evenodd" stroke-width="1"></path><path fill="#000000" fill-rule="evenodd" d="M25.520754 45.240401999999996C25.081913999999998 46.9959 27.056832 48.531909 28.592840999999996 49.62907799999999C31.006529999999994 51.603927 31.006529999999994 51.823347 31.445438999999997 51.603927C32.103699 50.94566699999999 28.373352 47.65415999999999 27.715092 47.21531999999999C27.276251999999996 46.776410999999996 26.398502999999995 46.118219999999994 26.398502999999995 45.459821999999996C26.179083 44.801562 25.520754 44.801562 25.520754 45.240401999999996Z" clip-rule="evenodd" stroke-width="1"></path><path fill="#000000" fill-rule="evenodd" d="M24.643143 39.973631999999995C22.229315999999997 41.948480999999994 22.448805 43.923398999999996 23.984813999999997 44.801079C24.423654 45.020499 24.643143 44.581658999999995 24.423654 44.362238999999995C23.765393999999997 43.703979 23.984813999999997 43.045581 24.204234 42.167901L25.081983 40.412472C25.520822999999996 40.193051999999994 25.081983 39.754143 24.643143 39.973631999999995Z" clip-rule="evenodd" stroke-width="1"></path><path fill="#000000" fill-rule="evenodd" d="M19.157297999999997 48.970335C18.499038 49.409175 16.304699999999997 50.725832999999994 16.963029 51.384093C17.182449 51.603513 17.401799999999998 51.164604 18.279618 50.725764C19.157297999999997 50.06750399999999 19.376718 50.06750399999999 19.815558 49.848015C20.473955999999998 49.409175 20.254398 48.53149499999999 21.132216 47.653676999999995C22.887644999999996 45.898317 22.934289 44.262603 24.031458 42.50717399999999C24.031458 42.287684999999996 24.031526999999997 42.068265 23.812106999999997 42.068265C23.153709 41.629425 22.009895999999998 45.020568000000004 20.254466999999998 46.775997000000004C19.376718 47.653746 19.376718 48.31207499999999 19.157297999999997 48.970335Z" clip-rule="evenodd" stroke-width="1"></path><path fill="#000000" fill-rule="evenodd" d="M47.02501799999999 46.11835799999999C48.999867 44.801700000000004 50.316525 42.168591 50.097035999999996 40.851932999999995C50.316525 40.851932999999995 50.53594499999999 41.071422 50.53594499999999 41.071422C51.413624999999996 41.949171 54.70513199999999 43.046271 54.924620999999995 43.485110999999996C55.144040999999994 43.92402 55.363392 43.92402 55.802301 43.7046C57.33831 42.826851 59.313159 43.26576 59.971487999999994 44.80176899999999C60.41032799999999 45.898869 62.385245999999995 43.485110999999996 64.579515 44.362928999999994C65.237844 44.582348999999994 65.896104 44.362928999999994 66.55443299999999 44.362928999999994C67.651602 44.14344 67.651602 44.58227999999999 67.871022 44.14344C68.090442 43.704530999999996 67.432182 43.485110999999996 66.993273 43.485110999999996C66.33501299999999 43.485110999999996 65.237913 43.92402 64.799004 43.485110999999996C63.482414999999996 42.826851 61.946405999999996 43.265691 60.41032799999999 43.923950999999995C59.532647999999995 42.168521999999996 57.33831 41.510262 55.582812 42.388011C55.143972 41.949171 51.852464999999995 40.632512999999996 51.413624999999996 39.974253C50.97478499999999 39.535344 50.53594499999999 39.315923999999995 50.097035999999996 39.315923999999995C49.877615999999996 39.315923999999995 49.438706999999994 38.877083999999996 48.999867 39.315923999999995C48.341606999999996 39.974321999999994 49.65812699999999 40.413092999999996 47.902697999999994 43.046271C46.805597999999996 44.58227999999999 46.805597999999996 44.36286 45.927918 45.021119999999996C44.391839999999995 45.898869 48.561026999999996 48.532115999999995 48.999867 48.751535999999994C50.316525 49.84863599999999 50.53594499999999 51.384714 53.169123 52.26239399999999C55.143972 52.920723 55.582881 52.48181399999999 58.216058999999994 53.79840299999999C61.507566 55.334481 62.165825999999996 55.992740999999995 62.60466599999999 55.553900999999996C62.60466599999999 55.334481 62.60466599999999 55.115061 62.385245999999995 55.115061C61.068657 54.456663 59.971487999999994 53.79840299999999 58.654968 53.140143C55.143972 51.384714 53.169123 52.042973999999994 51.413624999999996 50.287544999999994C50.75536499999999 49.629284999999996 50.316525 48.751535999999994 49.658196 48.09320699999999C48.999867 47.434947 47.683277999999994 46.996038 47.02501799999999 46.118289Z" clip-rule="evenodd" stroke-width="1"></path><path fill="#000000" fill-rule="evenodd" d="M67.43231999999999 47.654091C66.773991 46.337571 66.335082 45.679242 64.579653 44.801492999999994C64.140813 44.582072999999994 63.921393 45.02091299999999 64.140813 45.240333C65.676822 46.77634199999999 64.579653 46.118151 66.77392199999998 47.873511C67.21289999999999 48.531839999999995 67.65174 48.092999999999996 67.43231999999999 47.654091Z" clip-rule="evenodd" stroke-width="1"></path><path fill="#000000" fill-rule="evenodd" d="M59.97169499999999 44.80176899999999C60.629954999999995 48.532185 61.72719299999999 48.09320699999999 62.824293 49.19044499999999C62.96353499999999 49.329687 63.12278699999999 49.284009 63.26320199999999 49.19044499999999C63.92146199999999 48.751605 62.824293 48.532115999999995 60.629954999999995 44.582348999999994C60.629954999999995 44.143509 59.97169499999999 44.362928999999994 59.97169499999999 44.80176899999999Z" clip-rule="evenodd" stroke-width="1"></path><path fill="#000000" fill-rule="evenodd" d="M55.14410999999999 43.48504199999999C54.48585 45.021051 52.730421 47.434808999999994 50.974923 48.751398C50.536083 48.970817999999994 50.974923 49.62907799999999 51.413762999999996 49.40965799999999C53.827521 48.093069 55.36352999999999 46.55706 55.802369999999996 43.923882C55.802369999999996 43.265553 55.36352999999999 43.046133 55.14410999999999 43.48504199999999Z" clip-rule="evenodd" stroke-width="1"></path><path fill="#000000" fill-rule="evenodd" d="M41.930609999999994 39.335313C41.272349999999996 39.554733 41.100539999999995 39.754833 41.100539999999995 40.193673C41.100539999999995 40.632512999999996 41.319959999999995 41.071352999999995 41.539379999999994 41.510262C41.100539999999995 42.388011 41.319959999999995 42.60743099999999 41.978289 43.485110999999996C41.319959999999995 44.14344 42.417128999999996 46.118289 45.92805599999999 46.118289C46.36696499999999 46.118289 46.36696499999999 45.459959999999995 45.92805599999999 45.459959999999995C45.050307 45.459959999999995 43.075458 44.801700000000004 42.856038 43.923950999999995C43.075458 43.70446199999999 43.294878 43.704530999999996 43.075388999999994 43.265691C43.075388999999994 42.607361999999995 42.197708999999996 42.168521999999996 42.197708999999996 42.168521999999996C41.978289 42.168521999999996 42.417128999999996 41.729682 42.417128999999996 41.729682C42.636548999999995 41.510192999999994 42.417128999999996 41.290773 42.417128999999996 41.071352999999995C42.197708999999996 40.851932999999995 41.758869 39.974253 41.978289 39.974253C41.978289 39.974253 42.609156 39.90994499999999 42.609156 39.690456C42.609156 39.13128 42.187704 39.136593 42.307005 38.38649399999999C42.307005 38.38649399999999 42.636548999999995 37.999334999999995 44.830887 38.438175C45.269726999999996 38.657595 45.489216 37.999334999999995 45.050307 37.779914999999995C43.953207 37.341075 42.417198 37.12158599999999 41.758869 37.999334999999995C41.758869 37.999334999999995 41.384612999999995 38.950982999999994 41.930609999999994 39.335313Z" clip-rule="evenodd" stroke-width="1"></path><path fill="#000000" fill-rule="evenodd" d="M42.417198 36.462635999999996C49.000143 36.462635999999996 48.780723 40.85131199999999 49.65840299999999 40.412472C49.87782299999999 40.412472 49.87782299999999 40.192983 49.87782299999999 39.97356299999999C48.341882999999996 37.120965 48.12239399999999 36.023796 44.611467 35.584956C40.00344 34.926626999999996 40.881119999999996 37.340453999999994 43.953207 38.21813399999999C44.392115999999994 38.437554 44.611467 37.779225 44.17262699999999 37.559805C43.514298 37.340385 42.636618 36.682055999999996 42.417198 36.462635999999996Z" clip-rule="evenodd" stroke-width="1"></path><path fill="#000000" fill-rule="evenodd" d="M41.100333 35.365742999999995C39.564392999999995 35.146322999999995 34.956227999999996 34.48799399999999 33.639708 36.024072C32.981379 36.682331999999995 33.20086799999999 37.998920999999996 33.420288 39.09602099999999C34.297968 45.240126 34.078548 47.21504399999999 35.833977 47.873372999999994C36.711726 48.312213 38.686575 48.312213 39.783812999999995 47.873372999999994C41.758661999999994 47.21504399999999 41.758661999999994 45.020706 42.41692199999999 42.826367999999995C42.41692199999999 42.606947999999996 42.416990999999996 42.387527999999996 42.197570999999996 42.387527999999996C41.319753 42.168108 41.539173 46.337364 39.564392999999995 46.995624C38.686643999999994 47.21504399999999 37.150566 46.995624 36.492306 46.776204C35.395137 46.337364 35.614626 45.679103999999995 35.175717 42.60701699999999C34.297968 37.340661 33.859128 36.901683 34.956227999999996 36.462843C35.395137 36.24342299999999 36.711726 36.024072 38.028315 36.024072C40.880913 36.024072 41.539173 36.462843 41.539173 35.804583C41.539173 35.585162999999994 41.319753 35.365742999999995 41.100333 35.365742999999995Z" clip-rule="evenodd" stroke-width="1"></path><path fill="#000000" fill-rule="evenodd" d="M35.175717 36.682608C35.614557 37.999196999999995 38.686575 37.99926599999999 41.100333 36.902028C41.319753 36.902028 41.319753 36.682608 41.319753 36.463187999999995C41.100333 36.024347999999996 40.880913 36.243767999999996 39.783744 36.463187999999995C39.56432399999999 36.463187999999995 36.053397 36.682608 35.833977 36.463187999999995C35.614557 36.024347999999996 34.956227999999996 36.243767999999996 35.175717 36.682608Z" clip-rule="evenodd" stroke-width="1"></path><path fill="#000000" fill-rule="evenodd" d="M15.865721999999998 51.823415999999995H15.426881999999999C14.988042 52.042836 14.549201999999998 52.262325000000004 14.329782 53.140074C14.110361999999999 53.57891399999999 14.549132999999998 53.79833399999999 14.987972999999998 53.57891399999999C15.865721999999998 52.701234 16.304630999999997 53.140004999999995 16.524051 52.920584999999996C16.962891 52.920584999999996 17.401799999999998 52.262325000000004 17.621219999999997 51.823415999999995C18.279549 51.165155999999996 18.498969 51.165155999999996 19.815489 51.603995999999995C20.254329 51.823415999999995 20.473817999999998 51.165155999999996 20.034909 50.945736C18.718389 50.06805599999999 17.840570999999997 49.848566999999996 16.743470999999996 50.945736C16.085211 51.384575999999996 16.085211 51.603995999999995 15.865721999999998 51.823415999999995ZM15.865721999999998 51.823415999999995C16.085211 51.823415999999995 16.085211 51.603995999999995 15.865721999999998 51.823415999999995Z" clip-rule="evenodd" stroke-width="1"></path><path fill="#000000" fill-rule="evenodd" d="M15.426950999999999 53.798196C15.207530999999998 57.08970299999999 15.426950999999999 56.43137399999999 15.426950999999999 57.967451999999994C15.426950999999999 58.40629199999999 16.085211 58.40629199999999 16.085211 57.967451999999994C16.743539999999996 55.992534 16.52412 55.114853999999994 16.085211 53.578776C15.865721999999998 53.359356 15.207530999999998 53.578776 15.426950999999999 53.798196Z" clip-rule="evenodd" stroke-width="1"></path><path fill="#000000" fill-rule="evenodd" d="M18.4989 56.431236C18.06006 56.211746999999995 18.27948 54.675737999999996 18.4989 54.236898C18.71832 52.4814 19.157228999999997 52.04256 18.718389 52.04256C18.4989 52.04256 18.27948 52.04256 18.27948 52.26198C18.06006 52.920308999999996 17.621150999999998 53.797989 17.401730999999998 54.456317999999996C16.524051 57.747756 18.937808999999998 58.844924999999996 20.254398 56.211678C20.693238 55.333997999999994 20.693238 54.456317999999996 21.132078 53.79792C21.351497999999996 53.5785 20.912657999999997 53.139728999999996 20.693238 53.359148999999995C19.596068999999996 54.236898 19.376649 55.772838 18.4989 56.431236Z" clip-rule="evenodd" stroke-width="1"></path><path fill="#000000" fill-rule="evenodd" d="M15.646301999999999 57.747756C15.646301999999999 59.942094 18.059991 59.942094 18.498969 57.967175999999995C18.498969 57.747756 18.71832 56.431166999999995 18.27948 56.431166999999995S18.06006 56.650656 17.621219999999997 57.52833599999999C17.401730999999998 57.967175999999995 17.182311 58.186595999999994 16.962891 58.186595999999994S16.524051 57.747756 16.304630999999997 57.52833599999999C16.085211 57.308915999999996 15.646301999999999 57.308915999999996 15.646301999999999 57.747756Z" clip-rule="evenodd" stroke-width="1"></path><path fill="#000000" fill-rule="evenodd" d="M19.596276 56.211678C21.571125 57.08942699999999 20.693445 56.431166999999995 21.351705 57.528267C22.887782999999995 59.722605 25.301471999999997 58.186595999999994 23.984882999999996 55.333997999999994C23.546042999999997 54.236829 22.668362999999996 53.13965999999999 22.010033999999997 52.4814C21.790613999999998 52.26198 21.790544999999998 52.26198 21.571125 52.4814C21.132285 52.92023999999999 22.229453999999997 53.578568999999995 22.887782999999995 55.772838C23.107203 56.431166999999995 23.107203 56.870006999999994 22.887782999999995 57.30884699999999C22.668362999999996 57.747687 21.790544999999998 56.650586999999994 21.790544999999998 56.431166999999995C21.790544999999998 56.211678 21.571125 55.992258 21.351705 55.992258C19.596276 55.553349 19.376856 55.333997999999994 19.157435999999997 55.772838C19.376856 55.772838 19.376856 55.992258 19.596276 56.211678Z" clip-rule="evenodd" stroke-width="1"></path><path fill="#000000" fill-rule="evenodd" d="M32.704412999999995 60.012266999999994C32.704412999999995 61.548275999999994 31.826663999999997 63.303704999999994 32.923832999999995 63.303704999999994C37.970769 62.864865 61.449951 63.962103 64.08305999999999 62.864865C65.61913799999999 62.206604999999996 65.83855799999999 59.573426999999995 64.741458 58.476257999999994C61.888791 55.84308 49.600581 57.81792899999999 44.334224999999996 58.256837999999995C41.262207 58.476257999999994 37.9707 58.037417999999995 34.898682 58.695677999999994C34.459773 58.695677999999994 34.679193 59.354007 35.118171 59.354007C38.190189 58.695677999999994 41.481696 59.354007 44.55371399999999 59.134518C48.72290099999999 58.915098 61.888791 57.159669 64.08305999999999 59.354007C64.52196899999998 59.792846999999995 64.5219 61.548345 63.86364 61.767765C62.10821099999999 62.64544499999999 40.384457999999995 61.987185 33.58209299999999 62.426024999999996C33.58209299999999 60.67052699999999 34.240353 58.915098 33.143253 59.134518C31.826594999999998 59.354007 31.168335 59.354007 31.168335 59.792846999999995C30.948914999999996 60.451176 31.607174999999994 60.231686999999994 32.704412999999995 60.012266999999994Z" clip-rule="evenodd" stroke-width="1"></path><path fill="#000000" fill-rule="evenodd" d="M28.154069999999997 57.748169999999995C27.934649999999998 57.748169999999995 16.304768999999997 61.91735699999999 16.08528 61.91735699999999C15.646439999999998 62.13677699999999 15.865859999999998 62.575616999999994 16.304768999999997 62.575616999999994C20.035116 61.697936999999996 34.078754999999994 57.967589999999994 30.567828 56.87049H29.690148C24.862631999999998 57.089909999999996 24.423723 56.870421 24.423723 57.309329999999996C24.423723 57.748169999999995 24.643143 57.528749999999995 28.154069999999997 57.748169999999995ZM29.909567999999997 57.748169999999995C30.128987999999996 57.967589999999994 30.128987999999996 57.748169999999995 29.909567999999997 57.748169999999995C30.128987999999996 57.748169999999995 30.128987999999996 57.748169999999995 29.909567999999997 57.748169999999995Z" clip-rule="evenodd" stroke-width="1"></path><path fill="#000000" fill-rule="evenodd" d="M20.035116 50.945805C20.912864999999996 51.165225 22.229453999999997 52.262325000000004 23.107203 53.79833399999999C23.326622999999998 54.237173999999996 23.984882999999996 54.01782299999999 23.765463 53.578982999999994C23.107203 51.165225 21.790613999999998 50.287544999999994 20.035116 50.287544999999994C19.596276 50.287544999999994 19.596276 50.945805 20.035116 50.945805Z" clip-rule="evenodd" stroke-width="1"></path><path fill="#000000" fill-rule="evenodd" d="M26.837411999999997 55.99184399999999C27.715092 55.772423999999994 28.373352 55.772423999999994 29.251100999999995 56.211332999999996C29.689940999999997 56.211332999999996 29.909360999999997 55.991913 29.909360999999997 55.553073C28.373352 50.506136999999995 26.398433999999998 50.50606799999999 23.765255999999997 49.408899C23.545835999999998 49.408899 23.326415999999995 49.408899 23.326415999999995 49.628319C23.106996 50.506136999999995 25.740174 50.286716999999996 27.495671999999995 53.13931499999999C27.934511999999998 53.797574999999995 28.153931999999998 54.455904 28.592771999999997 55.114164C27.934511999999998 55.114164 27.276251999999996 55.114164 26.617853999999998 55.553073C26.179014 55.553073 26.398502999999995 56.21126399999999 26.837342999999997 55.99184399999999Z" clip-rule="evenodd" stroke-width="1"></path><path fill="#000000" fill-rule="evenodd" d="M23.984744999999997 55.992603C27.715092 55.992603 31.226088 56.651001 35.614695 56.870421C36.492375 56.870421 63.04364399999999 56.212022999999995 67.651671 56.212022999999995C68.09058 56.212022999999995 68.09058 55.55376299999999 67.651671 55.55376299999999C55.802369999999996 55.334343 54.485780999999996 55.77318299999999 23.984744999999997 55.55376299999999C23.545904999999998 55.334343 23.545904999999998 55.992603 23.984744999999997 55.992603Z" clip-rule="evenodd" stroke-width="1"></path><path fill="#000000" fill-rule="evenodd" d="M51.63325199999999 23.515959C57.338516999999996 25.271457 63.043713 29.221224 65.676891 34.706999999999994C66.55463999999999 36.681849 66.77405999999999 39.315096 67.65180899999999 41.509434C67.87122899999999 41.948274 68.30999999999999 41.728854 68.30999999999999 41.290014C66.77405999999999 36.243008999999994 67.87122899999999 27.465795 52.072092 22.857698999999997C51.41383199999999 22.638278999999997 51.194412 23.296539 51.63325199999999 23.515959Z" clip-rule="evenodd" stroke-width="1"></path><path fill="#000000" fill-rule="evenodd" d="M59.093945999999995 30.757370999999996C56.680187999999994 35.145978 57.19272 39.531617999999995 57.529301999999994 42.79414499999999C57.529301999999994 43.232985 58.187562 43.232985 58.187562 42.79414499999999C58.187562 39.283218 58.435617 34.487649 59.752205999999994 31.196210999999998C59.971626 30.537882 59.313365999999995 30.318461999999997 59.093945999999995 30.757370999999996Z" clip-rule="evenodd" stroke-width="1"></path><path fill="#000000" fill-rule="evenodd" d="M59.971557 43.703979C60.190977 42.82616099999999 61.946405999999996 39.97356299999999 62.165895 39.754143C63.701904 37.120965 64.140744 37.120965 63.921324 36.901545C63.701904 36.682055999999996 63.482484 36.682055999999996 63.482484 36.901545C61.06872599999999 38.876394 59.971557 41.07073199999999 59.532717 43.703979C59.31329699999999 43.923398999999996 59.971557 44.142818999999996 59.971557 43.703979Z" clip-rule="evenodd" stroke-width="1"></path><path fill="#000000" fill-rule="evenodd" d="M29.909360999999997 57.309399C28.153862999999998 59.723157 23.765255999999997 61.69800599999999 21.132078 62.575686C20.693238 62.795106 20.912657999999997 63.234084 21.351566999999996 63.234084C25.301333999999997 62.575754999999994 28.592771999999997 61.25923499999999 30.567620999999995 57.748308C30.787040999999995 57.309399 30.128781 56.87055899999999 29.909360999999997 57.309399Z" clip-rule="evenodd" stroke-width="1"></path><path fill="#000000" fill-rule="evenodd" d="M6.210897 36.462981C6.649736999999999 36.462981 6.649736999999999 35.804721 6.210897 35.804721C-0.5915369999999999 34.48813199999999 -1.6886369999999997 36.901821 6.210897 36.462981Z" clip-rule="evenodd" stroke-width="1"></path><path fill="#000000" fill-rule="evenodd" d="M9.063357 36.243216C11.038274999999999 37.559805 11.257695 41.07073199999999 11.696534999999999 43.26507C11.916024 44.142818999999996 14.768621999999999 57.52812899999999 15.646301999999999 61.039055999999995C15.646301999999999 61.477895999999994 16.304699999999997 61.258475999999995 16.304699999999997 60.819635999999996C15.207461999999998 54.894951 12.793772999999998 40.85131199999999 11.477115 38.21813399999999C11.038274999999999 37.121033999999995 9.502265999999999 34.926696 8.844005999999998 35.584956C9.063426 35.804376 9.063357 36.023796 9.063357 36.243216Z" clip-rule="evenodd" stroke-width="1"></path><path fill="#000000" fill-rule="evenodd" d="M1.163823 54.895157999999995C3.797001 55.333997999999994 5.77185 55.992258 9.282777 56.431166999999995C10.818786 56.650586999999994 12.574215 56.650586999999994 14.110292999999999 57.08942699999999C14.549132999999998 57.30884699999999 14.768552999999999 56.650586999999994 14.329713 56.431166999999995C12.354864 55.772838 4.89417 54.236898 1.163823 54.456317999999996C0.724914 54.236898 0.724914 54.895157999999995 1.163823 54.895157999999995Z" clip-rule="evenodd" stroke-width="1"></path><path fill="#000000" fill-rule="evenodd" d="M1.163823 63.013698C6.210758999999999 63.89137799999999 3.797001 64.110867 15.426881999999999 64.330287C15.865721999999998 64.330287 15.865721999999998 63.671958 15.426881999999999 63.671958C13.451963999999998 63.452538 9.282777 63.013698 1.163823 62.35536899999999C0.724914 62.13594899999999 0.724914 62.794278 1.163823 63.013698Z" clip-rule="evenodd" stroke-width="1"></path></svg>