<svg xmlns="http://www.w3.org/2000/svg" fill="none" viewBox="-0.5 -0.5 70 70" id="Spanish-Laughing-Hand-Drawn--Streamline-Memes.svg" height="70" width="70"><desc>Spanish Laughing Hand Drawn Streamline Element: https://streamlinehq.com</desc><path fill="#000000" fill-rule="evenodd" d="M19.244514 19.89822C18.358691999999998 28.972824 19.244514 28.530603 19.022747999999996 33.178788C18.580527 43.80327 16.367283 41.589405 23.670932999999998 59.29708199999999C27.876896999999996 69.92156399999999 35.845293 69.92156399999999 40.935699 63.281279999999995C41.157534 62.83836899999999 40.714622999999996 62.617293 40.493477999999996 62.83836899999999C36.066368999999995 68.371755 28.762097999999995 69.257577 24.778589999999998 58.854171C17.694705 40.704273 19.90857 43.581503999999995 20.129645999999997 33.178788C20.129645999999997 28.308836999999997 19.243824 28.972824 19.90857 19.89822C20.129645999999997 19.455309 19.465659 19.455309 19.244514 19.89822Z" clip-rule="evenodd" stroke-width="1"></path><path fill="#000000" fill-rule="evenodd" d="M47.133140999999995 57.526128C46.690850999999995 59.518226999999996 44.698820999999995 64.16648099999999 42.48488699999999 66.15851099999999C42.042666 66.379656 42.48488699999999 67.044333 42.927797999999996 66.60142199999999C45.805029 64.609323 47.354907 61.28918099999999 47.797127999999994 57.747963C47.797127999999994 57.30505199999999 47.133140999999995 57.08321699999999 47.133140999999995 57.526128Z" clip-rule="evenodd" stroke-width="1"></path><path fill="#000000" fill-rule="evenodd" d="M54.659247 35.613797999999996C55.101468 30.965612999999994 58.642755 28.973513999999998 59.749722 31.629668999999996C60.635543999999996 33.842844 59.30743199999999 36.498999 58.863899999999994 38.93394C58.642755 40.483127999999994 58.421609999999994 42.032316 57.97938899999999 43.360358999999995C57.536477999999995 44.467326 56.42951099999999 45.795368999999994 55.101468 45.352458C53.995191 44.910236999999995 54.88039199999999 46.459424999999996 54.88039199999999 51.106989C54.88039199999999 51.55052099999999 55.54437899999999 51.55052099999999 55.54437899999999 51.106989C55.54437899999999 50.00071199999999 55.54437899999999 48.230379 55.322613 46.238279999999996C56.872491 46.459424999999996 58.200534 45.131381999999995 58.642755 43.80396C59.30743199999999 42.254151 59.30743199999999 40.704273 59.749722 39.376850999999995C60.413709 36.94191 61.741752 34.064609999999995 60.635543999999996 31.407833999999998C59.085665999999996 27.866546999999997 54.437481 29.63757 53.773424999999996 35.834942999999996C53.995191 35.834942999999996 54.659247 36.056709 54.659247 35.613797999999996Z" clip-rule="evenodd" stroke-width="1"></path><path fill="#000000" fill-rule="evenodd" d="M46.026174 9.937793999999998C45.583952999999994 9.937793999999998 45.362117999999995 10.601780999999999 45.805029 10.601780999999999C47.797127999999994 15.250035 48.01896299999999 20.562275999999997 44.919207 24.325329C44.476986 24.989316 45.583952999999994 25.211150999999997 47.576052 27.424325999999997C53.109369 33.621699 48.240038999999996 40.704963 48.461873999999995 41.147183999999996C48.682329 41.811170999999995 52.66645799999999 43.360358999999995 53.330513999999994 42.918138C53.773424999999996 42.696372 53.330513999999994 42.475227 53.773424999999996 40.483127999999994C55.101468 30.301557 57.536477999999995 31.186688999999994 57.536477999999995 30.301557C57.09356699999999 22.775450999999997 59.749722 12.151658999999999 51.560181 7.060493999999999C51.11727 6.617583 50.674359 7.281639 46.026174 9.937724999999999ZM46.469085 10.380704999999999C48.68295 15.028889999999999 49.12524 20.341130999999997 46.026863999999996 24.547094999999995C47.57536199999999 25.874516999999997 48.904095 27.20256 50.011061999999995 28.751747999999996C52.00247099999999 32.071889999999996 52.00247099999999 36.94191 50.011061999999995 40.704273C50.896194 41.147183999999996 51.55956 41.368328999999996 52.445381999999995 41.590095C52.445381999999995 39.819140999999995 52.88829299999999 38.712174 53.109369 36.94191C53.55227999999999 34.285755 54.21633599999999 31.629668999999996 56.42951099999999 29.63757C56.208434999999994 21.890318999999998 58.480467 12.547926 51.176127 7.457451L46.46977499999999 10.380635999999999Z" clip-rule="evenodd" stroke-width="1"></path><path fill="#000000" fill-rule="evenodd" d="M36.508658999999994 56.198775C34.074338999999995 57.30567299999999 32.08224 57.30505199999999 30.311216999999996 56.640995999999994C32.303315999999995 57.30505199999999 34.51725 56.862762 36.50928 56.198775ZM29.205008999999997 50.222477999999995C31.418183999999997 49.779567 32.08224 51.55052099999999 36.508658999999994 50.443622999999995L37.837391999999994 50.665389C40.492788 50.443622999999995 42.042666 53.099709 37.39448099999999 55.534029C39.164744999999996 54.427820999999994 38.500758 52.878632999999994 36.95157 53.320854C35.845293 53.54261999999999 34.959471 54.206675999999995 33.853194 54.42775199999999C32.303315999999995 54.64958699999999 29.426085 53.76376499999999 28.983174 55.755863999999995C29.205008999999997 55.312953 28.983174 55.755863999999995 29.426085 56.198775C26.105942999999996 54.42775199999999 26.105942999999996 51.771665999999996 28.098042 50.665389V50.88653399999999H28.319186999999996C28.098042 53.54261999999999 29.868996 53.320854 30.090140999999996 52.43572199999999C30.090140999999996 51.549899999999994 29.868996 50.443622999999995 29.204318999999998 50.222477999999995Z" clip-rule="evenodd" stroke-width="1"></path><path fill="#000000" fill-rule="evenodd" d="M27.876896999999996 34.285064999999996C28.762097999999995 36.498999 28.319186999999996 38.933319 27.655131 41.368328999999996C27.433985999999997 41.81055 28.098042 42.032316 28.319186999999996 41.589405C29.647229999999997 38.933319 30.311216999999996 36.498999 28.540262999999996 34.063299C28.319186999999996 33.621078 27.655131 33.842153999999994 27.876896999999996 34.285064999999996Z" clip-rule="evenodd" stroke-width="1"></path><path fill="#000000" fill-rule="evenodd" d="M36.287514 50.222477999999995C31.639329 51.328754999999994 30.533051999999998 48.6726 27.876896999999996 50.222477999999995C23.670932999999998 52.435032 28.319186999999996 58.41125999999999 33.853194 57.526128C36.066368999999995 57.08321699999999 38.721833999999994 55.75517399999999 40.050566999999994 53.98491C41.599754999999995 51.992810999999996 40.050566999999994 50.00071199999999 37.836701999999995 50.443622999999995C37.39448099999999 50.443622999999995 37.39448099999999 51.106989 37.836701999999995 51.106989C39.386579999999995 50.885844 40.492788 52.213887 39.386579999999995 53.541999C36.730425 56.640995999999994 31.418183999999997 57.747963 28.098042 54.427820999999994C27.21222 53.320854 26.991075 51.992810999999996 28.319186999999996 51.10761C30.533051999999998 49.778876999999994 31.418183999999997 51.992810999999996 36.508658999999994 50.66469899999999C36.730425 50.66469899999999 36.730425 50.221788 36.287514 50.221788Z" clip-rule="evenodd" stroke-width="1"></path><path fill="#000000" fill-rule="evenodd" d="M26.105942999999996 41.589405C25.663031999999998 42.696372 25.663031999999998 44.023725 26.548163999999996 45.352458C29.204318999999998 49.114889999999995 32.524460999999995 45.352458 34.959471 45.57360299999999C35.623458 45.57360299999999 35.845293 44.024415 31.639329 45.352458C30.311216999999996 45.794748 29.205008999999997 46.238279999999996 28.098042 45.352458C26.769999 44.466636 26.548163999999996 43.13928299999999 26.548163999999996 41.81055C26.548163999999996 41.265519 26.105942999999996 41.368328999999996 26.105942999999996 41.589405Z" clip-rule="evenodd" stroke-width="1"></path><path fill="#000000" fill-rule="evenodd" d="M35.402381999999996 42.253460999999994C37.615557 44.023725 37.836701999999995 47.12279099999999 32.525151 45.57360299999999C32.08224 45.351836999999996 31.860405 46.015823999999995 32.303315999999995 46.237658999999994C33.631428 46.90164599999999 34.959471 47.565701999999995 36.287514 47.123481C40.714622999999996 46.015823999999995 36.066368999999995 40.92541799999999 35.401692 41.81055C35.180547 41.81055 35.180547 42.032316 35.401692 42.253460999999994Z" clip-rule="evenodd" stroke-width="1"></path><path fill="#000000" fill-rule="evenodd" d="M35.623458 36.94191C36.287514 36.94191 38.279613 37.162986 42.48488699999999 37.162986C42.927797999999996 37.162986 42.927797999999996 36.498999 42.48488699999999 36.498999C39.828801 35.834942999999996 38.279613 35.39272199999999 35.402381999999996 36.277854C35.180547 36.277854 35.180547 36.94191 35.623458 36.94191Z" clip-rule="evenodd" stroke-width="1"></path><path fill="#000000" fill-rule="evenodd" d="M21.014846999999996 37.383441C21.457758 37.383441 22.121744999999997 37.162296 22.564035 37.162296C23.449857 36.941219999999994 24.335679 36.719385 24.998976 36.719385C25.441887 36.719385 25.441887 36.055398 24.998976 36.055398C23.228022 35.834253 22.121744999999997 35.613177 20.572557 36.719385C20.350790999999997 36.941219999999994 20.572557 37.605207 21.014846999999996 37.383441Z" clip-rule="evenodd" stroke-width="1"></path><path fill="#000000" fill-rule="evenodd" d="M42.62958 31.751385C39.467034 27.112583999999995 36.72635399999999 32.806256999999995 31.455374999999997 29.642951999999998C32.087621999999996 30.486200999999994 32.930870999999996 31.330071 33.774741 31.540383C36.515420999999996 32.384253 40.521215999999995 30.697133999999995 42.62958 31.751385Z" clip-rule="evenodd" stroke-width="1"></path><path fill="#000000" fill-rule="evenodd" d="M34.61799 31.118448C37.569603 31.329380999999994 39.466344 29.221016999999996 41.57539799999999 30.908136H40.942460999999994C40.521215999999995 30.908136 40.521215999999995 31.540383 40.942460999999994 31.540383C41.785709999999995 31.540383 42.20764499999999 31.751385 42.62964899999999 31.961627999999997C43.050894 32.17263 43.26189599999999 31.751385 43.050894 31.329380999999994C39.67734599999999 26.058401999999997 36.725733 31.961627999999997 31.876688999999995 29.010015C31.244441999999996 28.588769999999997 30.822438 29.432018999999997 31.033439999999995 29.853953999999995C34.196054999999994 33.648747 36.515420999999996 31.751385 39.888279 31.751385C40.310213999999995 31.751385 40.310213999999995 31.118448 39.888279 31.118448C38.20185 31.118448 36.09348599999999 31.540383 34.61799 31.118448Z" clip-rule="evenodd" stroke-width="1"></path><path fill="#000000" fill-rule="evenodd" d="M35.845293 38.490407999999995C36.730425 40.261362 38.500758 40.924727999999995 40.492788 40.482507C40.935699 40.482507 40.935699 39.818450999999996 40.492788 39.818450999999996C39.165434999999995 39.818450999999996 37.17264599999999 38.932629 36.508658999999994 38.269262999999995C36.066368999999995 37.605207 35.623458 38.048118 35.845293 38.490407999999995Z" clip-rule="evenodd" stroke-width="1"></path><path fill="#000000" fill-rule="evenodd" d="M26.327088 37.827732C26.548853999999995 37.605897 26.105942999999996 36.94191 25.884798 37.384820999999995C23.228711999999998 39.37692 22.121744999999997 38.491029 22.121744999999997 38.933319C21.899979 39.819140999999995 24.334988999999997 40.704963 26.327778 37.827042Z" clip-rule="evenodd" stroke-width="1"></path><path fill="#000000" fill-rule="evenodd" d="M32.509556999999994 45.931988999999994C31.454684999999998 45.931988999999994 29.136008999999998 47.009837999999995 27.027576 45.752106C26.606330999999997 45.931988999999994 25.973394 45.931988999999994 25.552148999999996 46.291064999999996C22.600535999999995 47.907182999999996 23.443716 52.218647999999995 25.341147 54.014649C25.130214 53.47569 24.7089 51.858881999999994 24.7089 51.140798999999994C24.7089 49.344798 26.816642999999996 48.446763 28.714764 48.26687999999999C30.401192999999996 48.26687999999999 30.190191 46.111872 30.401192999999996 46.111872C30.401192999999996 46.111872 31.033439999999995 47.907873 32.087621999999996 48.087066C34.61799 48.625955999999995 38.412851999999994 47.54879699999999 39.677966999999995 49.164915C39.888279 49.523990999999995 40.099281 50.422647 40.099281 50.781032999999994C40.732217999999996 50.242764 41.57539799999999 49.70387399999999 41.57539799999999 48.98572199999999C41.7864 47.54879699999999 38.834787 45.39303 36.936665999999995 45.39303C35.461169999999996 47.009147999999996 34.406988 45.931988999999994 32.509556999999994 45.931988999999994Z" clip-rule="evenodd" stroke-width="1"></path><path fill="#000000" fill-rule="evenodd" d="M30.822438 47.90849399999999C32.509556999999994 50.24345399999999 38.20185 47.90849399999999 39.677966999999995 49.704494999999994C40.099281 50.06357099999999 39.888279 52.039455 40.732217999999996 51.500496C42.62958 50.242764 43.051584 48.98572199999999 41.364464999999996 47.368914C39.256032 45.393719999999995 36.725663999999995 44.85483 36.936665999999995 45.752796000000004H36.725663999999995C35.039235 46.650762 33.774741 45.393719999999995 31.877309999999998 45.57360299999999C30.822438 45.752796000000004 31.033439999999995 45.931988999999994 30.822438 45.752796000000004C30.612126 45.752796000000004 30.401192999999996 45.752796000000004 30.190191 45.932679C27.238577999999997 46.111872 28.081827 44.49575399999999 25.551459 45.752796000000004C22.389533999999998 47.368914 22.810779 52.039455 25.130214 54.374345999999996C25.552148999999996 54.913305 26.394707999999998 54.19446299999999 25.973394 53.655573C25.762461 53.297186999999994 25.552148999999996 51.680379 25.341147 51.14141999999999C25.341147 49.704494999999994 27.238577999999997 48.98572199999999 28.714074 48.98572199999999C29.768945999999996 48.98572199999999 30.401192999999996 48.627336 30.822438 47.90849399999999ZM29.768255999999997 46.830645000000004C27.027644999999996 47.010528 27.660512999999998 45.752796000000004 25.762461 46.650762C24.708209999999998 47.189721 23.86503 48.446763 24.286965 50.24345399999999C24.708209999999998 48.626645999999994 27.027576 47.72868 28.714074 47.72868C29.347011 47.72868 29.768945999999996 47.54879699999999 29.768945999999996 46.830645000000004ZM37.147667999999996 45.932679C37.35860099999999 46.471568999999995 36.09348599999999 46.650762 35.672171999999996 46.650762C33.985053 46.830645000000004 33.563807999999995 45.932679 31.455374999999997 46.471568999999995C31.666377 46.650762 31.666377 47.009837999999995 31.87662 47.189721C33.352806 48.80583899999999 39.888279 45.931988999999994 40.732217999999996 50.06357099999999C41.364464999999996 49.524681 41.7864 48.98572199999999 41.364464999999996 48.26757C40.942460999999994 47.54879699999999 39.888279 46.65145199999999 39.256032 46.291754999999995C37.991538 45.932679 37.35860099999999 45.932679 37.147667999999996 45.932679Z" clip-rule="evenodd" stroke-width="1"></path><path fill="#000000" fill-rule="evenodd" d="M28.319186999999996 57.969038999999995C31.418183999999997 60.84627 36.066368999999995 60.403358999999995 38.943669 57.526128C39.165434999999995 57.30505199999999 38.72252399999999 56.640995999999994 38.501379 57.083906999999996C35.845293 59.29715099999999 31.418183999999997 59.29715099999999 28.762097999999995 57.526128C28.540953 57.30505199999999 28.098042 57.747963 28.319808 57.969038999999995Z" clip-rule="evenodd" stroke-width="1"></path><path fill="#000000" fill-rule="evenodd" d="M41.261655 48.873459000000004C41.48342099999999 49.759281 41.704566 52.414745999999994 41.04051 53.742788999999995C40.819433999999994 54.1857 41.48342099999999 54.406845 41.704566 54.1857C43.254444 52.414745999999994 43.032609 50.643792 42.147476999999995 48.651692999999995C41.704566 48.20947199999999 41.04051 48.430547999999995 41.261655 48.873459000000004Z" clip-rule="evenodd" stroke-width="1"></path><path fill="#000000" fill-rule="evenodd" d="M26.394707999999998 32.17194C26.605641 31.539692999999996 26.605641 30.485510999999995 26.605641 29.852573999999997C26.605641 29.009393999999997 26.394707999999998 30.485510999999995 25.762461 30.485510999999995C25.340456999999997 30.485510999999995 25.340456999999997 29.852573999999997 23.654027999999997 29.430639C21.545664 28.799082 19.859166 30.485510999999995 19.859166 30.906755999999998V32.382942C21.756597 31.118448 24.708209999999998 31.961007 26.394707999999998 32.17194Z" clip-rule="evenodd" stroke-width="1"></path><path fill="#000000" fill-rule="evenodd" d="M26.184395999999996 32.383632C26.816642999999996 32.804877 27.027576 31.32876 27.027576 30.486200999999994C27.027576 29.853263999999996 27.238577999999997 29.221016999999996 26.605641 29.221016999999996C26.184395999999996 29.221016999999996 25.973394 29.853263999999996 25.762461 30.064265999999996C23.232093 28.377768 20.913417 28.799771999999997 19.648232999999998 30.485510999999995C19.226919 30.907445999999997 19.226919 31.329380999999994 19.437230999999997 31.750695C19.437230999999997 32.594564999999996 19.437230999999997 33.015879 19.859166 33.226811999999995C20.491412999999998 33.437813999999996 20.491412999999998 32.383632 22.388844 32.17194C24.286274999999996 31.961627999999997 25.972703999999997 32.593875 26.184395999999996 32.383632ZM26.184395999999996 31.118448C25.551459 31.539692999999996 25.340456999999997 31.118448 24.286965 30.486200999999994C23.021780999999997 29.853263999999996 21.756597 30.064265999999996 20.912726999999997 30.907445999999997C20.703104999999997 30.907445999999997 20.28117 31.329380999999994 20.491412999999998 31.329380999999994C20.070168 32.593875 20.702415 30.486200999999994 26.184395999999996 31.961627999999997V31.118448Z" clip-rule="evenodd" stroke-width="1"></path><path fill="#000000" fill-rule="evenodd" d="M29.548491 14.567072999999999C25.785437999999996 11.246862 22.342889999999997 12.150968999999998 20.350790999999997 15.692946C21.457758 9.052593 28.540953 3.5192759999999996 35.402381999999996 2.8545299999999996C36.288204 2.8545299999999996 41.820899999999995 2.4116189999999995 42.042666 2.4116189999999995C46.805805 2.2344959999999996 50.675048999999994 7.502783999999999 51.339104999999996 7.059873C51.80161199999999 6.750821999999999 49.046787 4.3949549999999995 48.160965 3.7308989999999995C46.61177699999999 2.6246219999999996 45.228947999999995 1.526487 42.485577 1.3053419999999998C34.725491999999996 0.6805469999999999 28.541642999999997 1.7482529999999998 23.007566999999995 7.945694999999999C20.351481 10.822925999999999 18.802293 14.585978999999998 19.245203999999998 18.570176999999997C19.245203999999998 19.234163999999996 20.130335999999996 19.234163999999996 20.351481 18.570176999999997C21.458378999999997 13.700847 24.580422 11.668866 29.006840999999998 15.210773999999999C29.426085 15.546183 29.770256999999997 14.788148999999997 29.549180999999997 14.567072999999999Z" clip-rule="evenodd" stroke-width="1"></path><path fill="#000000" fill-rule="evenodd" d="M25.441887 9.937793999999998C27.433985999999997 10.15887 29.426085 12.372113999999998 30.532362 13.921923C30.754127999999994 14.364212999999998 31.418183999999997 13.921923 31.196418 13.700156999999999C29.868305999999997 11.044001999999999 28.319186999999996 9.051972 25.441887 9.273738C24.998976 9.273738 24.998976 9.937793999999998 25.441887 9.937793999999998Z" clip-rule="evenodd" stroke-width="1"></path><path fill="#000000" fill-rule="evenodd" d="M30.975272999999998 6.617583C31.196418 7.060493999999999 32.746227 10.380704999999999 32.967372 10.823616C33.853194 12.815714999999999 33.631428 13.036790999999997 34.074338999999995 13.036790999999997C34.295415 13.036790999999997 34.295415 12.815714999999999 34.295415 12.593879999999999C34.074338999999995 9.495503999999999 33.189138 7.945694999999999 31.639329 6.175362C31.196418 5.953595999999999 30.753507 6.396507 30.975272999999998 6.617652Z" clip-rule="evenodd" stroke-width="1"></path><path fill="#000000" fill-rule="evenodd" d="M35.402381999999996 5.511374999999999C35.844603 6.396507 37.17264599999999 10.15887 37.39448099999999 11.708748C37.39448099999999 12.150968999999998 38.058468 12.150968999999998 38.058468 11.708748C38.279613 8.609682 37.39448099999999 7.060493999999999 35.845293 5.068464C35.623458 4.625553 35.180547 5.068464 35.402381999999996 5.511374999999999Z" clip-rule="evenodd" stroke-width="1"></path><path fill="#000000" fill-rule="evenodd" d="M39.829491 4.6248629999999995C42.042666 5.952906 44.476986 7.945004999999999 45.583952999999994 10.380014999999998C45.805029 10.822925999999999 46.24793999999999 10.601090999999998 46.24793999999999 10.15887C45.362117999999995 6.838727999999999 43.370709 5.067773999999999 40.271712 3.9614969999999996C39.607656 3.739731 39.385889999999996 4.403718 39.829491 4.6248629999999995Z" clip-rule="evenodd" stroke-width="1"></path><path fill="#000000" fill-rule="evenodd" d="M48.01896299999999 8.831517C47.797127999999994 6.838727999999999 46.690850999999995 5.953595999999999 44.91989699999999 4.846628999999999C44.476986 4.625553 44.25590999999999 5.068464 44.476986 5.28954C45.362808 6.175362 47.133140999999995 8.388606 47.354907 9.052593C47.576052 9.494814 48.240038999999996 9.273738 48.01896299999999 8.831517Z" clip-rule="evenodd" stroke-width="1"></path><path fill="#000000" fill-rule="evenodd" d="M49.855536 7.694120999999999C49.41262499999999 6.144932999999999 48.74856899999999 5.038035 46.75647 4.1528339999999995C46.313559 3.931758 46.092414 4.373978999999999 46.313559 4.595745C47.641602 5.7020219999999995 49.19078999999999 8.137032 49.633701 8.137032C49.855536 7.9159559999999995 49.855536 7.9159559999999995 49.855536 7.694120999999999Z" clip-rule="evenodd" stroke-width="1"></path><path fill="#000000" fill-rule="evenodd" d="M57.314712 44.688471C57.757622999999995 49.778876999999994 54.659247 53.98491 51.781326 58.632405C50.23282799999999 61.067415 48.01896299999999 64.38755699999999 46.026863999999996 66.379656C45.805029 66.600801 46.24793999999999 67.043712 46.469085 66.82256699999999C50.453283 62.616603 56.208434999999994 54.870042 57.536477999999995 49.778876999999994C57.757622999999995 48.45083399999999 58.4223 44.24555999999999 57.536477999999995 44.24555999999999C57.536477999999995 44.466636 57.315333 44.466636 57.315333 44.688471Z" clip-rule="evenodd" stroke-width="1"></path><path fill="#000000" fill-rule="evenodd" d="M58.64344499999999 43.581503999999995C60.635543999999996 44.90954699999999 60.85661999999999 46.68057 64.176762 48.22968899999999C65.283039 48.893744999999996 66.611082 49.115511 67.718049 50.442933C67.939815 50.885844 68.603871 50.442933 68.16096 50.00071199999999C66.61177199999999 47.786778 64.840818 47.786778 62.40649799999999 45.57360299999999C58.200534 41.589405 58.421609999999994 43.360358999999995 58.64344499999999 43.581503999999995Z" clip-rule="evenodd" stroke-width="1"></path><path fill="#000000" fill-rule="evenodd" d="M59.527887 46.68057C59.527887 51.992810999999996 56.207744999999996 58.85486099999999 52.887603 62.83836899999999C52.66645799999999 63.281279999999995 53.109369 63.502424999999995 53.330513999999994 63.281279999999995C57.757622999999995 58.190183999999995 60.413709 53.320854 60.192632999999994 46.68057C60.192632999999994 46.238279999999996 59.527887 46.238279999999996 59.527887 46.68057Z" clip-rule="evenodd" stroke-width="1"></path><path fill="#000000" fill-rule="evenodd" d="M1.3156919999999999 57.30505199999999C5.078124 53.76376499999999 7.513065 53.099019 11.718407999999998 52.435032C17.694636 51.549899999999994 17.47356 50.66469899999999 20.572557 49.779567C20.793702 49.779567 20.793702 49.557801 20.793702 49.33665599999999C20.572557 48.67266899999999 19.244514 49.557801 15.702606 50.66469899999999C10.16922 52.213887 7.513755 50.221788 0.873471 57.083906999999996C0.43055999999999994 57.083906999999996 0.873471 57.526128 1.3156919999999999 57.30505199999999Z" clip-rule="evenodd" stroke-width="1"></path><path fill="#000000" fill-rule="evenodd" d="M22.564655999999996 56.419850999999994C22.121744999999997 60.84627 23.006877 64.38824699999999 26.327088 67.708389C26.548163999999996 67.92953399999999 27.212909999999997 67.486623 26.769999 67.26547799999999C24.335609999999996 64.609323 23.228022 60.18228299999999 23.228022 56.640995999999994C23.449787999999998 55.97694 22.785801 55.97694 22.563965999999997 56.419850999999994Z" clip-rule="evenodd" stroke-width="1"></path><path fill="#000000" fill-rule="evenodd" d="M20.350790999999997 50.66469899999999C19.686735 52.877942999999995 19.464969 54.42775199999999 20.129645999999997 57.747963C20.129645999999997 58.190183999999995 20.793702 58.190183999999995 20.793702 57.747963C20.793702 56.640995999999994 21.014846999999996 56.640995999999994 21.014846999999996 50.885844C21.014846999999996 50.221788 20.350790999999997 50.221788 20.350790999999997 50.66469899999999Z" clip-rule="evenodd" stroke-width="1"></path><path fill="#000000" fill-rule="evenodd" d="M64.176762 55.755863999999995C61.742442 60.404049 61.96289699999999 60.404049 60.85661999999999 62.83836899999999C60.63485399999999 63.281279999999995 61.29884099999999 63.502424999999995 61.520675999999995 63.06020399999999C63.733851 59.96113799999999 63.954995999999994 58.63309499999999 64.840818 55.755863999999995C65.06196299999999 55.755863999999995 64.39790699999999 55.534029 64.176762 55.755863999999995Z" clip-rule="evenodd" stroke-width="1"></path><path fill="#000000" fill-rule="evenodd" d="M38.279613 5.28954C41.15684399999999 9.716649 40.492788 10.822925999999999 41.15684399999999 10.822925999999999C41.820899999999995 10.822925999999999 41.378609999999995 8.609682 41.15684399999999 8.166770999999999C40.714622999999996 6.618272999999999 39.828801 5.732450999999999 38.943669 4.846628999999999C38.500758 4.625553 37.836701999999995 5.068464 38.279613 5.28954Z" clip-rule="evenodd" stroke-width="1"></path><path fill="#000000" fill-rule="evenodd" d="M56.208434999999994 40.92541799999999C56.650656 37.162986 57.733266 34.463637 57.978699 34.506899999999995C57.978699 34.506899999999995 58.113248999999996 34.469708999999995 58.200534 34.727976C58.421609999999994 34.949121 58.863209999999995 34.727976 58.642755 34.285064999999996C57.314712 32.514801 55.76552399999999 36.056087999999995 55.54437899999999 38.048118C55.322613 38.93394 55.54437899999999 40.040217 55.54437899999999 40.92541799999999C55.54437899999999 41.368328999999996 56.208434999999994 41.368328999999996 56.208434999999994 40.92541799999999Z" clip-rule="evenodd" stroke-width="1"></path></svg>