<svg xmlns="http://www.w3.org/2000/svg" fill="none" viewBox="-0.5 -0.5 70 70" id="Yao-Ming-Face-Hand-Drawn--Streamline-Memes.svg" height="70" width="70"><desc>Yao Ming Face Hand Drawn Streamline Element: https://streamlinehq.com</desc><path fill="#000000" fill-rule="evenodd" d="M32.299175999999996 47.741927999999994C33.201074999999996 47.967765 33.426843 47.065176 33.426843 47.516781C32.299175999999996 49.32051 31.396656 50.448176999999994 31.171578 50.448176999999994C25.759079999999997 51.575775 24.406334999999995 51.80161199999999 22.827752999999998 52.929279C23.95542 53.154357 24.857249999999997 53.154357 26.210063999999996 52.929279C25.759079999999997 52.929279 22.376148 53.380193999999996 21.474317999999997 52.929279C19.895735999999996 52.477605 19.444131 50.222339999999996 17.866239 50.222339999999996C18.091386 49.77211499999999 18.091386 48.869595 18.768068999999997 48.418679999999995C19.219053 48.193532999999995 19.895735999999996 48.418679999999995 20.572488 48.418679999999995C19.444821 48.418679999999995 19.444821 47.967696 19.895735999999996 49.09536299999999C20.121572999999998 49.546278 19.895735999999996 50.22303 20.121572999999998 50.44886699999999C20.798256 51.12555 21.475008 50.44886699999999 21.700155 50.44886699999999C22.15107 50.44886699999999 22.376838 50.673944999999996 22.827752999999998 50.44886699999999C23.052899999999998 50.44886699999999 23.278668 49.997192999999996 23.504504999999998 49.997192999999996H23.95542C25.082397 50.22303 25.308165 49.77211499999999 25.759079999999997 49.32051H26.210063999999996C27.563498999999997 49.32051 27.337661999999998 48.64375799999999 27.788576999999997 48.418679999999995C28.239492 48.193532999999995 28.916244 48.869595 29.592995999999996 48.193532999999995L29.818763999999998 47.967696C30.269679 48.418679999999995 30.945740999999998 49.3212 32.299175999999996 47.741927999999994ZM31.171578 50.44886699999999C29.818073999999996 51.80161199999999 28.464639000000002 52.703441999999995 26.660978999999998 52.929279C28.014414 52.703441999999995 30.269747999999996 51.350697 31.171578 50.448176999999994ZM21.925233 48.193532999999995C23.503814999999996 47.516781 24.406334999999995 46.389182999999996 28.239561000000002 46.840098000000005C29.367159 47.06586599999999 30.720663 47.291013 31.848260999999997 47.516781C30.720663 47.291013 27.788646 46.389182999999996 24.857249999999997 46.840098000000005C23.729651999999998 47.06586599999999 22.827063 47.741927999999994 21.925233 48.193532999999995Z" clip-rule="evenodd" stroke-width="1"></path><path fill="#000000" fill-rule="evenodd" d="M9.521792999999999 28.573934999999995C9.74763 29.700912 9.973398 30.603431999999998 9.74763 31.505261999999995C9.521792999999999 32.632929 8.845730999999999 33.760596 9.070877999999999 35.113341C9.070877999999999 36.466775999999996 10.424312999999998 36.691922999999996 10.424312999999998 37.594443C9.973398 43.457097 9.973398 43.457097 12.679647 48.644448C14.709143999999998 52.703441999999995 13.581476999999998 52.477605 19.895735999999996 58.11587099999999C20.120883 58.341018 20.346650999999998 58.11587099999999 20.346650999999998 58.11587099999999C20.797566 57.664956 19.669968 57.43911899999999 17.189556 54.732938999999995S14.709143999999998 50.673944999999996 13.581476999999998 48.41861099999999C12.453809999999999 45.938199 11.551289999999998 44.584764 11.551289999999998 42.104352C11.326142999999998 39.849087 11.777058 38.270505 11.777058 37.594443C11.777058 36.466775999999996 11.326142999999998 36.466775999999996 10.64946 35.564256C9.74763 34.436589 11.326142999999998 32.632929 10.875228 30.151827C10.875228 29.475074999999997 10.64946 28.799082 10.424312999999998 28.348098C9.973398 28.122329999999998 9.296714999999999 28.122329999999998 9.521792999999999 28.573244999999996Z" clip-rule="evenodd" stroke-width="1"></path><path fill="#000000" fill-rule="evenodd" d="M17.866239 53.83110899999999C20.121572999999998 59.017700999999995 19.219742999999998 60.14536799999999 20.572488 61.949787C22.376838 64.205052 29.142081 65.33202899999999 33.87775799999999 61.273035C34.328672999999995 61.047197999999995 33.87775799999999 60.371204999999996 33.426843 60.82211999999999C30.945740999999998 62.85161699999999 28.240250999999997 63.07738499999999 25.082397 62.62578C19.444821 61.949096999999995 21.925233 60.14536799999999 18.317154 53.37950399999999C18.317154 53.154357 17.640470999999998 53.37950399999999 17.866239 53.83110899999999Z" clip-rule="evenodd" stroke-width="1"></path><path fill="#000000" fill-rule="evenodd" d="M38.838581999999995 62.852306999999996C42.89826599999999 60.82211999999999 44.702685 57.890792999999995 47.40817499999999 54.28271399999999C48.535842 52.929279 49.663509 51.802302 50.115114 49.77211499999999C50.56602899999999 46.389873 48.987447 45.03636899999999 50.115114 41.202521999999995C51.242091 41.202521999999995 52.369688999999994 40.75160699999999 53.271588 40.075545C55.978458 37.82028 55.978458 35.114031 56.65520999999999 31.956867C57.10543499999999 29.701601999999998 57.55635 27.446268 56.203604999999996 25.41753C54.625023 22.936428 51.242091 22.936428 49.212593999999996 24.965856C48.310764 25.867755 47.85915899999999 26.996042999999997 47.634012 28.348856999999995C47.40817499999999 28.799771999999997 48.08492699999999 29.02554 48.310764 28.573934999999995C48.535842 27.446268 48.987447 26.318669999999997 49.889345999999996 25.642608C51.467859 24.064026 54.174108 24.064026 55.52685299999999 26.093522999999998C56.65452 27.897942 56.203604999999996 29.927369999999996 55.752689999999994 31.956176999999997C55.075937999999994 35.114031 55.073868 36.581453999999994 52.818602999999996 38.611641C51.01418399999999 40.190154 49.485350999999994 39.173024999999996 49.259514 40.075545C47.681001 45.261516 50.25946199999999 48.002955 48.455042999999996 51.16004999999999C48.22996499999999 51.385197 44.139230999999995 57.61106699999999 42.785726999999994 58.96388099999999C41.658819 60.091479 40.192085999999996 60.98364899999999 38.839341 61.88554799999999C38.498205 62.113386 38.387736 63.07738499999999 38.839341 62.852306999999996Z" clip-rule="evenodd" stroke-width="1"></path><path fill="#000000" fill-rule="evenodd" d="M22.827063 63.07738499999999C23.503814999999996 64.655967 23.278736999999996 65.332719 25.534001999999997 67.813131C25.759148999999997 68.264046 26.435832 67.813131 26.210063999999996 67.362216C25.082397 64.88180399999999 25.308165 65.106882 23.503814999999996 62.62647C23.277977999999997 62.400701999999995 22.601985 62.62647 22.827063 63.07738499999999Z" clip-rule="evenodd" stroke-width="1"></path><path fill="#000000" fill-rule="evenodd" d="M17.866239 68.264736C21.023403 68.264736 22.601985 66.460386 23.503814999999996 63.30322199999999C23.729651999999998 62.852306999999996 23.052899999999998 62.62647 22.827063 63.078075C21.700155 65.10757199999999 19.895735999999996 67.137069 17.640470999999998 67.58798399999999C17.189556 67.81382099999999 17.415324 68.48988299999999 17.866239 68.264736Z" clip-rule="evenodd" stroke-width="1"></path><path fill="#000000" fill-rule="evenodd" d="M52.82060399999999 39.747588C50.79117599999999 46.06184699999999 50.340191999999995 50.899781999999995 52.82060399999999 58.341018C54.174108 62.400701999999995 58.684017 65.106882 62.743700999999994 67.813131H63.194615999999996C63.87129899999999 66.910611 55.52685299999999 63.302532 53.723192999999995 58.11587099999999C51.918774 52.026689999999995 51.693006 45.8367 53.723192999999995 39.747588C54.174108 39.296603999999995 53.046440999999994 39.296603999999995 52.82060399999999 39.747588Z" clip-rule="evenodd" stroke-width="1"></path><path fill="#000000" fill-rule="evenodd" d="M15.385826999999999 32.407851C17.866239 33.986363999999995 18.091386 33.535449 17.866239 35.114031C17.640470999999998 40.52646 15.160058999999999 42.105042 16.964408999999996 43.232709C17.415324 43.45785599999999 17.641161 43.006871999999994 17.415324 42.781104C16.513493999999998 42.104352 17.866239 41.202521999999995 18.317154 38.947947C19.895735999999996 33.309681 18.768068999999997 33.309681 15.385826999999999 31.956935999999995C15.160058999999999 31.506020999999997 14.934221999999998 32.182013999999995 15.385826999999999 32.407851Z" clip-rule="evenodd" stroke-width="1"></path><path fill="#000000" fill-rule="evenodd" d="M20.797566 44.360376C19.670657999999996 44.811291 19.670657999999996 44.134539 18.768137999999997 44.360376C18.542990999999997 44.360376 17.866239 44.58614399999999 17.189556 44.360376C16.287726 43.90946099999999 16.287726 43.458546 15.836051999999999 43.683624C15.385826999999999 44.134539 16.287726 44.811291 16.738640999999998 45.037059C17.640470999999998 45.487973999999994 18.092076 45.487973999999994 18.993906 45.26220599999999C19.895735999999996 45.487973999999994 20.121572999999998 45.93895799999999 22.15107 45.037059C23.278736999999996 44.58614399999999 22.827821999999998 43.90946099999999 22.15107 43.683624C23.504504999999998 43.232709 25.534001999999997 44.360376 26.886746999999996 42.330189C28.240250999999997 40.301382 25.759148999999997 38.046048 23.95542 39.173714999999994C23.503814999999996 39.398862 22.601985 40.301382 23.052899999999998 40.52715C23.504504999999998 40.752297 23.504504999999998 40.301382 24.180566999999996 39.850466999999995C25.308165 39.173714999999994 26.887437 40.52715 25.984917 41.654126999999995C24.857249999999997 43.232709 23.503814999999996 41.879963999999994 21.700155 42.555957C20.798325 43.00756199999999 20.346650999999998 43.683624 20.798325 44.360376ZM21.474317999999997 43.90946099999999C21.700155 43.90946099999999 21.700155 43.90946099999999 21.474317999999997 43.90946099999999C21.700155 43.683624 21.474317999999997 43.683624 21.474317999999997 43.90946099999999ZM21.925233 43.683624C21.925233 43.90946099999999 21.925233 43.90946099999999 21.925233 43.683624ZM21.925233 43.683624C21.925233 43.458546 21.925233 43.458546 21.925233 43.683624Z" clip-rule="evenodd" stroke-width="1"></path><path fill="#000000" fill-rule="evenodd" d="M33.201074999999996 47.06586599999999C32.750159999999994 47.516781 32.299175999999996 47.291703 31.847571 47.06586599999999C23.503814999999996 45.035678999999995 23.503814999999996 47.06586599999999 20.797566 47.74261799999999C20.346650999999998 47.74261799999999 19.669968 47.516781 18.993215999999997 47.516781C17.640470999999998 47.74261799999999 17.415324 49.09536299999999 17.189556 49.77211499999999C16.963718999999998 50.22303 17.415324 50.673944999999996 17.866239 50.673944999999996C18.993906 50.673944999999996 19.669968 52.929279 21.474317999999997 53.380884C22.827752999999998 53.83110899999999 26.660978999999998 53.380884 28.013724 52.929279C30.720663 52.027379999999994 32.299175999999996 49.77211499999999 33.87775799999999 47.291703C34.102905 47.06586599999999 33.426843 46.840098000000005 33.201074999999996 47.06586599999999ZM32.524322999999995 47.967765C31.170887999999994 47.967765 28.916244 47.06586599999999 25.984917 47.291013C22.827063 47.516781 22.15107 49.3212 20.346650999999998 49.09536299999999C18.993215999999997 49.09536299999999 18.768137999999997 48.41861099999999 18.542301 49.77211499999999C21.700155 50.899781999999995 18.542301 53.155046999999996 26.435141999999995 52.252527C29.367159 52.027379999999994 30.945740999999998 50.44886699999999 32.524322999999995 47.967765Z" clip-rule="evenodd" stroke-width="1"></path><path fill="#000000" fill-rule="evenodd" d="M21.699464999999996 55.861295999999996C24.406334999999995 57.665646 30.269057999999998 56.312211 29.818073999999996 55.184543999999995C29.592995999999996 54.73362899999999 29.367159 55.184543999999995 27.562808999999998 55.410381C26.886056999999997 55.410381 23.052899999999998 55.63614899999999 22.15107 55.184543999999995C21.699464999999996 55.184543999999995 21.248549999999998 55.635459 21.699464999999996 55.861295999999996Z" clip-rule="evenodd" stroke-width="1"></path><path fill="#000000" fill-rule="evenodd" d="M27.788646 39.172335C29.367159 40.074855 32.524322999999995 43.457786999999996 32.975238 44.133849C33.87775799999999 45.487283999999995 33.65199 45.938268 34.328672999999995 45.938268C35.45634 45.712430999999995 32.750159999999994 41.427669 30.269747999999996 39.62394C27.562808999999998 37.81959 27.337661999999998 38.947188 27.788646 39.172335Z" clip-rule="evenodd" stroke-width="1"></path><path fill="#000000" fill-rule="evenodd" d="M35.681487 42.781104C37.711673999999995 45.487973999999994 36.583317 46.389873 34.77965699999999 53.155046999999996C34.328672999999995 54.73362899999999 34.102905 56.76312599999999 32.749469999999995 57.664956C32.299175999999996 57.890792999999995 32.749469999999995 58.56747599999999 33.201074999999996 58.341708C34.779588 57.439878 35.230571999999995 55.184543999999995 35.90725499999999 53.605962C37.936752 47.291703 38.838581999999995 45.48735299999999 36.358169999999994 42.555957C35.90725499999999 42.104352 35.230571999999995 42.555957 35.681487 42.781104Z" clip-rule="evenodd" stroke-width="1"></path><path fill="#000000" fill-rule="evenodd" d="M14.709143999999998 45.26220599999999C12.453809999999999 48.194222999999994 14.032392 49.772805 16.512804 52.25321699999999C16.738640999999998 52.704132 17.415324 52.25321699999999 16.963718999999998 51.802302C15.160058999999999 49.32188999999999 14.258229 48.194222999999994 15.385136999999999 45.487973999999994C15.385136999999999 45.037059 14.934221999999998 44.811291 14.708454 45.26220599999999Z" clip-rule="evenodd" stroke-width="1"></path><path fill="#000000" fill-rule="evenodd" d="M20.571797999999998 31.280183999999995C20.121572999999998 33.083844 20.571797999999998 34.211510999999994 22.15107 35.114031C22.601985 35.339178 22.827821999999998 34.888262999999995 22.601985 34.662425999999996C21.925233 33.985674 21.474317999999997 31.956176999999997 21.248549999999998 31.280183999999995C21.248549999999998 30.829269 20.571797999999998 30.829269 20.571797999999998 31.280183999999995Z" clip-rule="evenodd" stroke-width="1"></path><path fill="#000000" fill-rule="evenodd" d="M24.406334999999995 33.083844C25.533312 31.730408999999998 26.210063999999996 31.730408999999998 28.014414 31.956246C31.396656 32.182013999999995 31.396656 32.182013999999995 31.622493 31.731098999999997C31.622493 31.279493999999996 30.945740999999998 31.279493999999996 29.818073999999996 31.054347C28.014414 30.603431999999998 25.984917 30.152517 24.632171999999997 31.731098999999997C23.052899999999998 33.309681 24.180566999999996 33.309681 24.405644999999996 33.084534Z" clip-rule="evenodd" stroke-width="1"></path><path fill="#000000" fill-rule="evenodd" d="M33.201074999999996 31.505951999999997C34.779588 31.280873999999997 35.90725499999999 30.604121999999997 36.583317 28.574624999999997C36.809084999999996 28.12302 36.132402 27.897942 35.90656499999999 28.348856999999995C35.230571999999995 29.250686999999996 33.426153 30.604121999999997 32.975238 30.829269C32.524322999999995 31.055037 32.750159999999994 31.731789 33.201074999999996 31.505951999999997Z" clip-rule="evenodd" stroke-width="1"></path><path fill="#000000" fill-rule="evenodd" d="M34.328672999999995 32.632929C34.77965699999999 32.632929 35.230571999999995 32.858076 35.682176999999996 33.083844C36.358169999999994 33.309681 37.260069 33.534759 37.710983999999996 33.534759C38.162589 33.760596 38.387667 33.083844 37.936752 32.858076C36.358169999999994 31.504571999999996 35.45634 31.504571999999996 34.102905 31.730408999999998C33.87775799999999 31.956246 33.87775799999999 32.632929 34.328742 32.632929Z" clip-rule="evenodd" stroke-width="1"></path><path fill="#000000" fill-rule="evenodd" d="M12.002205 36.69330299999999C14.032392 34.888952999999994 14.257539 35.339867999999996 17.189556 35.565636C17.640470999999998 35.565636 17.640470999999998 34.888952999999994 17.414634 34.888952999999994C16.061199 34.438038 14.708454 33.761286 13.129871999999999 34.663116C12.453119999999998 35.114720999999996 12.228042 35.565636 11.551289999999998 36.467465999999995C11.100374999999998 36.69330299999999 11.551289999999998 37.144217999999995 12.002894999999999 36.69330299999999Z" clip-rule="evenodd" stroke-width="1"></path><path fill="#000000" fill-rule="evenodd" d="M17.415324 23.837567999999997C15.836741999999997 26.994663 15.836741999999997 28.799082 18.768828 30.828578999999998C19.219053 31.054347 19.444821 30.602741999999996 19.219053 30.377663999999996C17.640470999999998 28.799082 17.415324 27.671414999999996 17.640470999999998 26.092833C17.866239 24.288482999999996 18.317223 24.062645999999997 17.866239 23.837567999999997C17.640470999999998 23.386653 17.415324 23.612420999999998 17.415324 23.837567999999997Z" clip-rule="evenodd" stroke-width="1"></path><path fill="#000000" fill-rule="evenodd" d="M13.130562 23.161506C16.287657 20.230178999999996 16.512804 20.455256999999996 20.121572999999998 20.681093999999998C21.700155 20.681093999999998 23.278668 20.456015999999998 24.857249999999997 20.456015999999998C25.308165 20.456015999999998 25.308165 19.779263999999998 24.857249999999997 19.779263999999998C15.836741999999997 19.328349 16.287657 18.425829 12.453809999999999 22.710590999999997C12.453809999999999 22.936428 12.904725 23.387342999999998 13.130562 23.161506Z" clip-rule="evenodd" stroke-width="1"></path><path fill="#000000" fill-rule="evenodd" d="M34.245804 27.614766C31.699151999999998 29.615973 27.332831999999996 28.888850999999995 24.603812999999995 27.978741C23.148879 27.433158 20.783766 26.342129999999997 19.692048 27.978741C18.418722 22.339095 26.423412 26.159831999999994 30.243458999999998 26.705346C31.152948 26.705346 33.700289999999995 26.159831999999994 34.245804 27.614766Z" clip-rule="evenodd" stroke-width="1"></path><path fill="#000000" fill-rule="evenodd" d="M34.245804 27.433158C33.700289999999995 25.796616 31.699151999999998 26.887643999999995 28.060713 25.796616C24.421515 24.704207999999994 19.145843999999997 22.703001 18.782628 26.887643999999995C18.60033 29.070459 19.692048 28.888850999999995 20.055954 28.342647C20.783766 27.069252 22.966580999999998 28.16097 24.239906999999995 28.524944999999995C31.699151999999998 30.889988999999996 35.519199 27.797064 34.245804 27.433847999999998ZM33.700289999999995 27.615455999999995C33.336383999999995 26.705346 30.971270999999998 27.069941999999998 30.061160999999995 27.069941999999998C26.605019999999996 26.705346 20.601467999999997 23.794719 20.237561999999997 26.705346C22.602674999999998 25.614317999999997 29.152430999999996 30.526082999999996 33.700289999999995 27.615455999999995Z" clip-rule="evenodd" stroke-width="1"></path><path fill="#000000" fill-rule="evenodd" d="M14.961822 27.25086C12.596777999999999 26.886954 10.959477 29.798270999999996 9.867759 31.61718C9.322244999999999 32.527289999999994 8.958338999999999 33.982223999999995 10.050056999999999 34.710105C10.050056999999999 34.710105 10.050056999999999 34.527806999999996 10.595571 33.800616C12.596777999999999 31.071665999999997 13.870104 31.071665999999997 14.961891 29.434364999999996C15.325797 28.888850999999995 15.507404999999999 28.161038999999995 15.143498999999998 27.614766L14.961891 27.25086Z" clip-rule="evenodd" stroke-width="1"></path><path fill="#000000" fill-rule="evenodd" d="M10.595571 34.710105C12.596777999999999 31.435571999999997 15.689703 30.343785 15.689703 28.343337C15.689703 27.797753999999998 15.507404999999999 27.433158 15.325797 27.251549999999995C15.325797 26.523737999999994 13.142981999999998 26.887643999999995 12.051263999999998 27.797064C10.960166999999998 28.706553 8.412135 31.61718 8.776731 33.618317999999995C8.776731 34.892402999999995 10.231665 35.983430999999996 10.595571 34.710105ZM14.780213999999999 27.433158C12.779075999999998 27.433158 11.323382999999998 29.979879 10.413962999999999 31.799477999999997C10.050056999999999 32.344992 9.868448999999998 32.890505999999995 10.050056999999999 33.43671C11.868965999999999 30.526082999999996 14.780213999999999 29.797580999999997 14.961822 28.161038999999995C14.961822 27.797064 14.780213999999999 27.797064 14.780213999999999 27.433158Z" clip-rule="evenodd" stroke-width="1"></path><path fill="#000000" fill-rule="evenodd" d="M54.62157299999999 22.156796999999997C54.62157299999999 21.975188999999997 54.98547899999999 21.429675 54.98547899999999 21.247307999999997C54.98547899999999 21.0657 54.075368999999995 21.0657 53.89376099999999 19.610765999999998C53.89376099999999 18.700656 54.803180999999995 17.972775 54.803180999999995 17.244963C54.803180999999995 16.881057 54.25766699999999 17.063355 53.89376099999999 16.881057C53.34817799999999 16.517841 52.98427199999999 15.790028999999999 52.80266399999999 15.244514999999998C52.62036599999999 14.515944 52.80266399999999 13.788821999999998 52.98427199999999 13.242617999999998C52.98427199999999 13.061009999999998 53.16594899999999 12.515495999999999 53.16594899999999 12.333197999999998C52.98427199999999 11.969292000000001 50.98313399999999 12.333197999999998 50.43692999999999 8.148486C50.43692999999999 7.785269999999999 50.43692999999999 7.057457999999999 50.25532199999999 6.87585C50.072955 6.693551999999999 49.164224999999995 6.693551999999999 48.799629 6.693551999999999C47.163087 6.148038 45.707393999999994 4.873952999999999 44.97958199999999 3.600627C44.79728399999999 3.4190189999999996 44.61567599999999 2.691207 44.434067999999996 2.509599L43.523889 3.0551129999999995C41.158845 3.964533 38.793732 1.2355139999999998 38.248218 1.2355139999999998C38.06592 1.2355139999999998 37.520406 1.7810279999999998 37.338729 1.7810279999999998C35.155293 2.873505 33.881898 0.872988 32.79018 0.69C32.608571999999995 0.69 32.244665999999995 1.053906 32.244665999999995 1.2355139999999998C30.971270999999998 2.145693 29.151740999999998 2.145693 27.878345999999997 1.7810279999999998C27.514439999999997 1.5994199999999998 26.605019999999996 1.053906 26.241803999999995 1.053906C25.6956 1.053906 24.603812999999995 3.0551129999999995 21.147672 1.9633949999999998C20.237561999999997 3.600627 18.418653 4.874643 16.599123 5.237927999999999C15.871310999999999 5.4202259999999995 15.144188999999999 5.237927999999999 14.597916 5.237927999999999C13.506887999999998 5.056251 14.052401999999999 4.873952999999999 13.688495999999999 6.329646C12.779075999999998 10.331991 9.503853 10.331991 8.958338999999999 10.877505C8.776661999999998 11.059802999999999 9.503853 13.061009999999998 6.775523999999999 14.334335999999999C6.230009999999999 14.516633999999998 5.866103999999999 14.334335999999999 6.957132 15.425432999999998C8.776731 17.427261 8.412755999999998 18.33675 7.321038 20.337888C7.321038 20.519495999999997 7.139429999999999 20.519495999999997 7.139429999999999 20.701794C7.503335999999999 20.883401999999997 8.048849999999998 20.337888 8.594363999999999 20.701794C10.959477 21.792890999999997 8.412755999999998 25.613628 8.594363999999999 26.159142C8.776661999999998 26.34144 9.139947 26.34144 9.322244999999999 26.523048C9.686150999999999 26.886954 9.686150999999999 27.978741 9.686150999999999 28.342647C9.504542999999998 25.795236 9.686150999999999 23.430813 10.595571 21.0657C11.869587 17.426571 13.142981999999998 18.700656 14.234699999999998 18.518358C14.416307999999999 18.518358 14.234699999999998 17.972775 14.416307999999999 17.791167C15.14412 16.335543 18.600951 18.33675 20.055954 18.33675C20.237561999999997 18.33675 21.510887999999998 18.33675 21.510887999999998 18.154383C21.693185999999997 17.972775 20.965373999999997 17.972775 20.783766 17.791167C20.238252 17.427261 18.964236 16.699449 19.692048 15.971637C20.237561999999997 15.426122999999999 21.510887999999998 15.607731 22.238768999999998 15.607731C23.694392999999998 15.607731 25.513302 14.87985 26.787318 15.062147999999999C27.514439999999997 15.243825 27.878345999999997 15.607731 28.423928999999998 15.790028999999999L28.606226999999997 15.426122999999999C29.515646999999998 13.788821999999998 32.245355999999994 13.788821999999998 33.881898 16.517151L34.064195999999995 16.881057C34.791387 16.699449 34.609778999999996 15.062147999999999 35.700807 15.790028999999999C37.338729 16.699449 35.883105 19.24617 36.247011 20.701794C36.610917 22.156796999999997 38.793732 22.703001 39.521544 23.976326999999998C40.794869999999996 26.159142 38.612124 29.615973 43.887795 31.798788C44.43337799999999 31.981086 44.43337799999999 32.526599999999995 44.79728399999999 30.889298999999998C44.97958199999999 29.798270999999996 45.706704 27.433158 47.162328 28.342578C47.89020899999999 25.613628 50.61922799999999 22.521392999999996 53.711394 24.340232999999998C54.98547899999999 23.976326999999998 53.89376099999999 23.976326999999998 54.62157299999999 22.156796999999997Z" clip-rule="evenodd" stroke-width="1"></path><path fill="#000000" fill-rule="evenodd" d="M6.957132 19.792374C6.411617999999999 20.520186 6.775523999999999 21.0657 7.684944 21.0657C7.867241999999999 21.0657 8.230458 20.883401999999997 8.412755999999998 20.883401999999997C9.503853 21.428915999999997 8.958338999999999 23.066907 8.594432999999999 24.158625C8.048849999999998 25.432019999999994 7.503335999999999 26.34144 9.139947 26.705346C9.322244999999999 26.886954 9.139947 27.069252 9.322244999999999 28.161038999999995C9.322244999999999 28.888161 10.595571 28.888161 10.595571 28.161038999999995C10.595571 26.705346 10.413962999999999 26.159831999999994 10.595571 24.521841C10.777868999999999 22.339095 11.505749999999999 20.337888 12.051263999999998 19.610076C12.779075999999998 18.155142 13.506887999999998 19.064562 14.597985 18.882953999999998C14.780282999999999 18.882953999999998 14.961891 18.700656 15.143498999999998 18.519048C15.143498999999998 18.33675 14.961891 17.791167 15.143498999999998 17.973464999999997C15.689013 17.063355 19.509749999999997 19.428468 21.693254999999997 18.700656C22.238768999999998 18.519048 22.602674999999998 18.155072999999998 22.421067 17.791167C22.238768999999998 17.245652999999997 21.693254999999997 17.427261 21.329348999999997 17.245652999999997C20.965442999999997 17.063355 20.055954 16.517841 20.41986 16.335543C20.783766 15.971637 22.056471 16.153935 22.602674999999998 16.153935C24.058367999999994 16.153935 25.877207999999996 15.426122999999999 27.150533999999997 15.608420999999998C27.696116999999997 15.608420999999998 28.060713 16.153935 28.606226999999997 16.335543C29.334038999999997 16.517841 29.334038999999997 15.607731 29.879552999999998 15.244445999999998C30.789042 14.516633999999998 32.79018 14.698932 34.245872999999996 17.244963C34.609778999999996 17.790477 35.336901 17.427261 35.701496999999996 16.699449C35.883105 16.153935 35.883105 16.153935 36.247011 16.335543C37.520406 17.426571 36.247011 19.24617 36.610986 20.883401999999997C37.1565 23.066907 39.703221 22.885298999999996 40.249425 25.249722C40.613331 26.705346 39.885519 29.979879 43.523958 31.798788L44.614986 32.344992L44.97958199999999 32.526599999999995C46.07061 32.890505999999995 45.52509599999999 30.343785 46.79849099999999 29.070459C47.344005 28.342647 47.707911 29.070459 48.071817 28.888161C48.435723 28.706553 48.799629 25.977534 51.16474199999999 24.704138999999998C52.074162 24.158625 53.16594899999999 24.158625 54.25766699999999 24.885747H54.62157299999999C54.803180999999995 25.068113999999994 55.167086999999995 24.885747 55.167086999999995 24.522531C54.803180999999995 23.066907 55.712669999999996 22.339095 55.712669999999996 21.793512C55.712669999999996 21.429606 55.348695 21.429606 54.98547899999999 21.247998C53.711462999999995 19.792374 55.348695 19.064562 55.348695 17.791167C55.348695 17.427261 54.98547899999999 17.245652999999997 54.62157299999999 17.245652999999997C54.439274999999995 17.245652999999997 54.25766699999999 17.245652999999997 53.711462999999995 16.517841C52.98434099999999 15.426053999999999 53.711462999999995 14.334335999999999 53.711462999999995 13.061009999999998C53.89376099999999 11.969912999999998 52.98434099999999 12.515426999999999 52.07485199999999 11.605316999999998C50.80083599999999 10.331991 50.80083599999999 7.602971999999999 50.80083599999999 7.421363999999999C50.43692999999999 6.330336 49.52750999999999 7.239755999999999 47.89020899999999 6.147969C45.706704 4.874643 45.342798 3.0550439999999996 45.16118999999999 2.8734359999999994C44.61567599999999 1.782408 44.070161999999996 3.237411 42.614469 3.0551129999999995C40.794939 3.0551129999999995 39.339936 1.418502 38.975339999999996 1.2362039999999999C37.702704 0.508392 37.884312 1.7817179999999997 36.24708 1.964016C34.427481 2.1456239999999998 33.518060999999996 0.144486 32.426964 0.8722979999999999C32.063058 1.053906 31.516854 2.1456239999999998 29.333348999999995 1.963326C27.333521999999995 1.782408 26.786627999999997 0.5090819999999999 25.6956 1.236894C25.150085999999995 1.6007999999999998 24.78549 2.1463829999999997 23.148189 2.327991C21.693254999999997 2.327991 21.146981999999998 1.782408 20.783766 2.327991C19.692048 4.147521 17.508543 5.784822 14.780213999999999 5.2392389999999995C14.416307999999999 5.2392389999999995 13.870104 4.8753329999999995 13.506198 5.420915999999999C13.142981999999998 5.96643 13.324589999999999 6.330336 13.324589999999999 6.876539999999999C12.596777999999999 10.696587 9.503853 10.332681 8.776731 11.061182999999998C8.048849999999998 11.788373999999997 9.503853 13.061699999999998 6.775523999999999 14.335026C6.411617999999999 14.517323999999999 6.047711999999999 14.517323999999999 5.8654139999999995 14.880608999999998C5.502197999999999 15.426122999999999 6.2293199999999995 15.972326999999998 6.593226 16.518531C8.412755999999998 17.427950999999997 7.684944 18.155142 6.957132 19.793063999999998ZM32.972477999999995 0.871608C30.243458999999998 3.600627 26.605019999999996 1.2362039999999999 26.241113999999996 1.2362039999999999C25.150085999999995 1.963326 24.058298999999998 2.8728149999999997 21.329348999999997 2.327301C19.509749999999997 5.056251 16.417515 5.96643 14.416307999999999 5.4202259999999995C14.052401999999999 7.9668779999999995 12.960683999999999 9.422571 10.595571 10.514288999999998C9.140636999999998 11.059802999999999 9.686150999999999 10.695896999999999 9.504542999999998 11.605316999999998C9.322244999999999 13.061009999999998 8.412825 13.970429999999999 7.139429999999999 14.516633999999998C8.230458 15.790028999999999 9.140636999999998 16.881747 8.594432999999999 18.519048C8.048849999999998 20.155589999999997 7.867241999999999 19.24617 8.776731 19.792374C10.050056999999999 20.337888 9.686150999999999 21.0657 9.867759 20.520186C10.595571 18.700656 11.323382999999998 17.244963 13.142981999999998 17.608869C14.052401999999999 17.791167 13.506887999999998 17.608869 13.688495999999999 17.244963C14.779523999999999 15.243825 18.236424 17.244963 19.509749999999997 17.608869C18.60033 16.881747 18.60033 16.153935 19.145843999999997 15.426122999999999C19.873655999999997 14.516633999999998 21.329348999999997 14.880539999999998 22.057160999999997 14.880539999999998C23.512095 14.880539999999998 25.331694 14.152727999999998 26.787318 14.335026C27.332831999999996 14.335026 27.696807 14.698241999999999 28.060713 14.880539999999998C28.970132999999997 13.242617999999998 31.699151999999998 12.879401999999999 33.700289999999995 15.243756C34.245872999999996 15.971637 34.063575 15.789338999999998 34.245872999999996 15.607731C34.791387 14.334335999999999 36.065402999999996 14.880539999999998 36.428619 15.607731C37.884312 17.608869 35.519199 19.610076 37.338798 21.247307999999997C38.612124 22.521392999999996 39.88545 22.703001 40.249425 24.704138999999998C40.613331 26.159831999999994 40.249425 27.614766 41.158845 29.070459C42.068265 30.525392999999998 43.523958 30.889298999999998 44.069472 31.253204999999998C44.43337799999999 29.616662999999996 45.16118999999999 27.068561999999996 46.79849099999999 27.614766C47.707911 24.522531 50.61922799999999 22.157486999999996 53.52985499999999 23.612420999999998C53.52985499999999 22.703001 53.711462999999995 22.157486999999996 54.075368999999995 21.429606C51.89255399999999 19.792374 53.711462999999995 17.972775 53.89376099999999 17.244963C53.711462999999995 17.244963 53.34824699999999 17.244963 53.16594899999999 17.063355C52.62036599999999 16.699449 52.07485199999999 15.972326999999998 51.89255399999999 15.244445999999998C51.710256 14.516633999999998 51.89255399999999 13.788821999999998 52.074162 13.061009999999998C52.25645999999999 12.151520999999999 52.25645999999999 12.697103999999998 51.52864799999999 12.333197999999998C50.25532199999999 11.605316999999998 49.52750999999999 9.786476999999998 49.34583299999999 8.330784C49.16353499999999 6.694242 49.52750999999999 7.602971999999999 48.071817 7.239755999999999C46.25290799999999 6.694242 44.79728399999999 5.238549 44.069472 3.964533C43.523958 3.0551129999999995 44.069472 3.237411 43.160052 3.600627C40.613331 4.510737 38.06592 1.964016 37.702704 1.7817179999999997C35.519199 3.4190189999999996 33.700359 1.053906 32.972477999999995 0.8722979999999999ZM14.051711999999998 17.608869C13.870104 17.608869 13.870104 17.791167 13.870104 17.791167C14.052401999999999 17.791167 14.052401999999999 17.791167 14.052401999999999 17.608869Z" clip-rule="evenodd" stroke-width="1"></path></svg>