<svg xmlns="http://www.w3.org/2000/svg" fill="none" viewBox="-0.5 -0.5 70 70" id="Disappointed-Fan-Hand-Drawn--Streamline-Memes.svg" height="70" width="70"><desc>Disappointed Fan Hand Drawn Streamline Element: https://streamlinehq.com</desc><path fill="#000000" fill-rule="evenodd" d="M41.14953 32.494859999999996c1.3385999999999998 0.44643 1.7843399999999998 0.44643 4.014419999999999 0 0.44643 0 0.44643 -0.6692999999999999 0 -0.6692999999999999 -2.45295 -0.22286999999999998 -1.5607799999999998 -0.44573999999999997 -4.014419999999999 0 -0.44573999999999997 0 -0.44573999999999997 0.6692999999999999 0 0.6692999999999999Z" clip-rule="evenodd" stroke-width="1"></path><path fill="#000000" fill-rule="evenodd" d="M39.58806 36.50928c2.45364 0.6692999999999999 2.89938 0.44643 5.35302 0.22286999999999998 0.44573999999999997 0 0.44573999999999997 -0.6692999999999999 0 -0.6692999999999999 -3.5686799999999996 -0.44573999999999997 -2.89938 -0.44573999999999997 -5.35302 -0.22286999999999998 -0.22286999999999998 0 -0.44573999999999997 0.6692999999999999 0 0.6692999999999999Z" clip-rule="evenodd" stroke-width="1"></path><path fill="#000000" fill-rule="evenodd" d="M39.58806 40.97013c2.6771999999999996 0.6692999999999999 3.5686799999999996 0.44573999999999997 6.4680599999999995 0 0.44643 0 0.44643 -0.6692999999999999 0 -0.6692999999999999 -5.79876 -0.22286999999999998 -3.3451199999999996 -0.22286999999999998 -6.2445 0 -0.6692999999999999 0 -0.6692999999999999 0.6692999999999999 -0.22355999999999998 0.6692999999999999Z" clip-rule="evenodd" stroke-width="1"></path><path fill="#000000" fill-rule="evenodd" d="M39.14232 45.87602999999999c2.67651 0.6692999999999999 4.014419999999999 0.6692999999999999 8.2524 0 0.44573999999999997 0 0.44573999999999997 -0.6692999999999999 0 -0.6692999999999999 -1.3385999999999998 0 -2.90007 -0.22218 -4.90728 -0.22218l-3.3451199999999996 0c-0.44643 0.22286999999999998 -0.44643 0.8921699999999999 0 0.8921699999999999Z" clip-rule="evenodd" stroke-width="1"></path><path fill="#000000" fill-rule="evenodd" d="M38.69589 50.33757c4.014419999999999 0.6692999999999999 5.1301499999999995 0.22286999999999998 9.14457 0 0.44573999999999997 0 0.44573999999999997 -0.6692999999999999 0 -0.6692999999999999 -6.690929999999999 -0.22355999999999998 -6.690929999999999 0 -9.14457 0 -0.44573999999999997 0 -0.44573999999999997 0.6692999999999999 0 0.6692999999999999Z" clip-rule="evenodd" stroke-width="1"></path><path fill="#000000" fill-rule="evenodd" d="M37.35798 55.467029999999994c4.46085 0.6692999999999999 6.4680599999999995 0.22286999999999998 10.92891 -0.44573999999999997 0.44573999999999997 0 0.44573999999999997 -0.6692999999999999 0 -0.6692999999999999 -11.59821 0.44643 -11.151779999999999 0.22286999999999998 -11.151779999999999 0.6692999999999999 0 0.22286999999999998 0 0.44573999999999997 0.22286999999999998 0.44573999999999997Z" clip-rule="evenodd" stroke-width="1"></path><path fill="#000000" fill-rule="evenodd" d="M41.81883 29.149739999999998c1.11504 2.67651 -0.22286999999999998 6.02163 -0.22286999999999998 8.9217 -0.22355999999999998 3.7908599999999995 0.8921699999999999 7.13667 0.8921699999999999 10.70535 0 3.79155 -0.6692999999999999 7.13667 0 10.928219999999998 0 0.44643 0.6692999999999999 0.22286999999999998 0.6692999999999999 -0.22286999999999998 -0.6692999999999999 -3.12225 0.22218 -7.36023 0.44573999999999997 -10.70535 0 -2.45364 -0.44643 -4.90659 -0.6692999999999999 -7.36023 -0.6692999999999999 -5.79876 0.44573999999999997 -6.4680599999999995 0.22286999999999998 -9.81387 -0.44573999999999997 -3.79155 -1.56147 -3.12225 -1.3385999999999998 -2.45295Z" clip-rule="evenodd" stroke-width="1"></path><path fill="#000000" fill-rule="evenodd" d="m41.3724 14.652149999999999 1.11504 0c0.6692999999999999 0 1.1157299999999999 -0.22286999999999998 1.56147 -0.22286999999999998 0.44573999999999997 0 0.44573999999999997 -0.6692999999999999 0 -0.6692999999999999 -1.3385999999999998 -0.44573999999999997 -2.0079 -0.44573999999999997 -3.12225 0.22286999999999998 -0.22355999999999998 0 0 0.6692999999999999 0.44573999999999997 0.6692999999999999Z" clip-rule="evenodd" stroke-width="1"></path><path fill="#000000" fill-rule="evenodd" d="M40.92666 13.09068c1.3385999999999998 0 0.6692999999999999 0.22286999999999998 2.89938 -0.44643 0.44573999999999997 0 0.44573999999999997 -0.6692999999999999 0 -0.6692999999999999 -1.56147 -0.22286999999999998 -1.7843399999999998 -0.22286999999999998 -3.12294 0.44643 -0.44573999999999997 0 -0.22286999999999998 0.6692999999999999 0.22355999999999998 0.6692999999999999Z" clip-rule="evenodd" stroke-width="1"></path><path fill="#000000" fill-rule="evenodd" d="M36.02007 15.321449999999997c0.44573999999999997 0 3.12225 0 3.3451199999999996 -0.44643 0 -0.44573999999999997 -1.11504 -0.6692999999999999 -1.3385999999999998 -0.6692999999999999l-1.11435 0c-2.2307699999999997 0.6692999999999999 -1.3385999999999998 1.3385999999999998 -0.8921699999999999 1.1157299999999999Z" clip-rule="evenodd" stroke-width="1"></path><path fill="#000000" fill-rule="evenodd" d="M44.71820999999999 9.07626c-0.6692999999999999 -1.11504 -1.11504 -1.7843399999999998 -2.23008 -2.67651 -3.3458099999999997 -2.23008 -8.475269999999998 -1.3385999999999998 -10.482479999999999 2.0079 -1.1157299999999999 1.7836499999999997 -0.6692999999999999 4.014419999999999 -0.22355999999999998 6.02163 -2.45295 0.8921699999999999 -0.8921699999999999 5.79876 1.3385999999999998 5.79876 0.22286999999999998 0.8921699999999999 0.6692999999999999 1.7843399999999998 1.5607799999999998 2.45295 1.3385999999999998 1.11504 5.1301499999999995 2.2307699999999997 7.36023 1.11504 1.7843399999999998 -0.8914799999999999 3.12225 -3.12225 3.5686799999999996 -4.9059 0.44573999999999997 -1.7843399999999998 -0.22286999999999998 -3.5686799999999996 -0.44643 -5.35302 -0.22286999999999998 -1.3385999999999998 0 -2.45364 -0.22286999999999998 -4.01511 0 -0.44573999999999997 -0.6692999999999999 -0.22286999999999998 -0.6692999999999999 0.22355999999999998 0.22355999999999998 1.11504 0 2.45295 0 3.79155 0.22355999999999998 2.89938 1.1157299999999999 4.68372 -0.6692999999999999 7.13667 -1.5607799999999998 2.2307699999999997 -3.12225 2.89938 -6.467369999999999 1.7843399999999998 -2.0079 -0.6692999999999999 -2.45364 -1.3385999999999998 -3.12225 -3.5686799999999996 -0.22355999999999998 -0.22286999999999998 -0.44643 -0.44573999999999997 -0.8921699999999999 -0.44573999999999997 -0.8921699999999999 0.44573999999999997 -2.0079 -2.45364 -1.3385999999999998 -3.3458099999999997 0.22286999999999998 -0.44573999999999997 0.6692999999999999 0 1.11504 -0.44573999999999997 0.44643 -0.6692999999999999 -0.44573999999999997 -1.56147 -0.44573999999999997 -4.014419999999999 0 -5.1301499999999995 7.47891 -6.39354 10.3776 -3.0477299999999996 1.1157299999999999 1.11504 1.31169 1.48626 1.44279 1.56285 0.36984 0.21597 0.54096 -0.0759 0.44643 -0.0759Z" clip-rule="evenodd" stroke-width="1"></path><path fill="#000000" fill-rule="evenodd" d="M45.61038 14.429969999999999c0.22286999999999998 -0.22355999999999998 0.6692999999999999 -0.44643 0.8914799999999999 -0.22355999999999998 0.44643 0.44643 0.22355999999999998 2.0079 0 2.89938 -0.44573999999999997 1.3385999999999998 -1.11504 1.11504 -0.8921699999999999 1.56147 0.44643 0.6692999999999999 2.45364 -1.3385999999999998 2.45364 -3.79155 -0.22286999999999998 -1.7843399999999998 -1.56147 -2.23008 -2.45295 -1.56147l-0.44643 0.44643c-0.44573999999999997 0.6692999999999999 0 1.11504 0.44643 0.6692999999999999Z" clip-rule="evenodd" stroke-width="1"></path><path fill="#000000" fill-rule="evenodd" d="M41.59527 17.32866c-0.22286999999999998 0.22286999999999998 -0.22286999999999998 -0.22355999999999998 -0.6692999999999999 0.22286999999999998 -0.22286999999999998 0.22286999999999998 -0.44573999999999997 0.44573999999999997 -0.6686099999999999 0.22286999999999998 -0.8921699999999999 -0.44573999999999997 -0.44573999999999997 -0.22286999999999998 -1.11504 -0.22286999999999998h-0.22286999999999998v-0.22286999999999998c0.22286999999999998 -0.44643 -0.44643 -0.6692999999999999 -0.6692999999999999 -0.22355999999999998 -0.44643 1.56147 0.8921699999999999 1.3385999999999998 1.11504 1.56147 0.8921699999999999 0.6692999999999999 1.56147 0.22286999999999998 2.23008 -0.44573999999999997 1.1157299999999999 -0.22355999999999998 0.8921699999999999 -1.3385999999999998 0.22355999999999998 -1.7843399999999998 -0.44643 -0.22355999999999998 -0.6692999999999999 0.22286999999999998 -0.44643 0.44573999999999997 0.22286999999999998 0 0.22286999999999998 0.22286999999999998 0.22286999999999998 0.44643Zm0.22355999999999998 0.8921699999999999c-0.22355999999999998 0.22286999999999998 -0.44643 0 0 0Z" clip-rule="evenodd" stroke-width="1"></path><path fill="#000000" fill-rule="evenodd" d="M38.25015 20.89734c0.44573999999999997 0 1.3385999999999998 0 1.7843399999999998 -0.22355999999999998 0.8921699999999999 0 2.0072099999999997 -0.22286999999999998 2.89938 -0.22286999999999998 0.44573999999999997 0 0.44573999999999997 -0.6692999999999999 0 -0.6692999999999999 -2.2307699999999997 -0.6692999999999999 -3.3458099999999997 -0.22286999999999998 -4.90659 0.44643 -0.44643 0.22286999999999998 -0.22286999999999998 0.6692999999999999 0.22286999999999998 0.6692999999999999Z" clip-rule="evenodd" stroke-width="1"></path><path fill="#000000" fill-rule="evenodd" d="M39.81093 22.23525c0.8921699999999999 0.22355999999999998 0.6692999999999999 0.44643 2.0079 -0.22286999999999998 0.44573999999999997 0 0.44573999999999997 -0.6692999999999999 0 -0.6692999999999999 -0.8921699999999999 -0.22286999999999998 -1.1157299999999999 -0.44573999999999997 -2.0079 0.22355999999999998 -0.6692999999999999 0 -0.44573999999999997 0.6692999999999999 0 0.6692999999999999Z" clip-rule="evenodd" stroke-width="1"></path><path fill="#000000" fill-rule="evenodd" d="m34.68147 13.536419999999998 1.7843399999999998 0c0.8921699999999999 0 2.0079 -0.22286999999999998 2.6771999999999996 -0.44573999999999997 0.44573999999999997 0 0.44573999999999997 -0.6692999999999999 0 -0.6692999999999999 -2.45364 -0.44573999999999997 -3.3464999999999994 -0.22286999999999998 -4.68441 0.44573999999999997 -0.44573999999999997 0.22355999999999998 -0.22286999999999998 0.8921699999999999 0.22286999999999998 0.6692999999999999Z" clip-rule="evenodd" stroke-width="1"></path><path fill="#000000" fill-rule="evenodd" d="M36.46581 14.652149999999999c-0.22286999999999998 0.22286999999999998 -0.22286999999999998 0.22286999999999998 -0.22286999999999998 0.44573999999999997 -0.22355999999999998 0.8921699999999999 1.33791 1.3385999999999998 1.7836499999999997 0.44643 0.44643 -0.8921699999999999 -0.44573999999999997 -2.0079 -1.5607799999999998 -0.8921699999999999Zm0.8921699999999999 0.22286999999999998c-0.22355999999999998 0.22286999999999998 -0.22355999999999998 0 0 0Z" clip-rule="evenodd" stroke-width="1"></path><path fill="#000000" fill-rule="evenodd" d="M42.93387 14.206409999999998c0 -0.44643 -0.44643 -0.22355999999999998 -0.8921699999999999 -0.22355999999999998 -0.22355999999999998 0 -0.22355999999999998 0.22355999999999998 -0.44643 0.22355999999999998 -0.44573999999999997 0.6692999999999999 0.22286999999999998 1.3385999999999998 0.8921699999999999 1.11504 0.8921699999999999 -0.22286999999999998 0.8921699999999999 -0.8921699999999999 0.44643 -1.11504Zm-0.22286999999999998 0.22286999999999998c0 0.22286999999999998 0 0.22286999999999998 0 0v0.22286999999999998l0 -0.22286999999999998Zm-0.44643 0c0 0.22286999999999998 0 0.22286999999999998 0 0 0.22286999999999998 0.22286999999999998 0 0.22286999999999998 0 0Z" clip-rule="evenodd" stroke-width="1"></path><path fill="#000000" fill-rule="evenodd" d="M43.82603999999999 21.1209c-0.44643 3.56799 -1.11504 7.35954 -3.3458099999999997 8.47458 -0.44573999999999997 0.22355999999999998 0 0.8921699999999999 0.22286999999999998 0.6692999999999999 3.5686799999999996 -1.3385999999999998 3.79224 -5.5752 3.79224 -9.14388 0 -0.44643 -0.44643 -0.44643 -0.6692999999999999 0Z" clip-rule="evenodd" stroke-width="1"></path><path fill="#000000" fill-rule="evenodd" d="M22.861079999999998 44.53812c-0.22286999999999998 -0.22286999999999998 -0.6692999999999999 -0.44643 -1.11504 -1.3385999999999998 -0.8921699999999999 -2.0065199999999996 0 -2.8986899999999993 -2.2307699999999997 -1.33791 -0.6692999999999999 0.44643 2.2307699999999997 9.591 5.1301499999999995 14.27403 0 0.22286999999999998 0.22286999999999998 0.22355999999999998 0.44573999999999997 0.22355999999999998 0.8921699999999999 -0.44643 -1.7843399999999998 -1.3385999999999998 -4.90659 -13.828289999999999l0.22286999999999998 -0.22286999999999998c0.22286999999999998 0.8921699999999999 0.44643 1.7843399999999998 1.11504 2.45295 3.79155 4.23798 3.3458099999999997 -11.59752 2.2307699999999997 -17.173409999999997 10.482479999999999 -4.68372 6.2445 -0.6692999999999999 8.698139999999999 -5.12946 0.22286999999999998 -0.22355999999999998 0.44573999999999997 -0.6692999999999999 0.6692999999999999 -0.8921699999999999l0.44573999999999997 0.44573999999999997c4.68372 5.575889999999999 2.45364 3.3458099999999997 6.4680599999999995 5.35302 0.22286999999999998 2.67651 -0.22286999999999998 5.79876 -1.56147 8.028839999999999 -0.22286999999999998 0.6692999999999999 1.11504 15.1662 -2.67651 21.857129999999998 -0.44573999999999997 0.8921699999999999 0.44643 2.0079 0.44643 2.90007 0 0.44573999999999997 0.6692999999999999 0.22286999999999998 0.6692999999999999 0 -0.22355999999999998 -0.8921699999999999 -0.8921699999999999 -1.7843399999999998 -0.44643 -2.45364 3.3458099999999997 -5.79876 3.12225 -16.950539999999997 3.12225 -21.857129999999998 2.2307699999999997 -3.79155 2.0079 -8.9217 1.3385999999999998 -9.36744 -1.3385999999999998 -0.6692999999999999 -2.89938 -0.8921699999999999 -3.79155 -2.0079 -3.5686799999999996 -4.68303 -4.68372 -6.02163 -6.690929999999999 -0.6686099999999999 -2.67651 0.6692999999999999 -5.1301499999999995 1.7843399999999998 -7.5831 2.89938 -0.8921699999999999 0.44643 0.22286999999999998 1.11504 0.6692999999999999 7.137359999999999 0.22286999999999998 3.56799 -0.22355999999999998 10.03605 -0.6692999999999999 10.70535Z" clip-rule="evenodd" stroke-width="1"></path><path fill="#000000" fill-rule="evenodd" d="M43.82603999999999 25.80462c2.0072099999999997 5.5752 0.22286999999999998 8.698139999999999 0.6692999999999999 10.928219999999998 0.6692999999999999 3.5686799999999996 2.45295 5.35302 3.7908599999999995 16.727669999999996 0.22355999999999998 1.7836499999999997 0.6692999999999999 4.014419999999999 0.22355999999999998 5.79876 0 0.44573999999999997 0.6692999999999999 0.44573999999999997 0.6692999999999999 0 0.44573999999999997 -2.2307699999999997 0 -11.151779999999999 -1.78503 -17.61984 -0.44573999999999997 -1.7843399999999998 -1.33791 -3.5686799999999996 -1.5607799999999998 -5.35302 -0.44643 -1.7836499999999997 1.11504 -5.352329999999999 -1.11504 -10.928219999999998 -0.44643 -0.22286999999999998 -1.11504 0 -0.8921699999999999 0.44643Z" clip-rule="evenodd" stroke-width="1"></path><path fill="#000000" fill-rule="evenodd" d="M44.125499999999995 23.334419999999998c3.1243199999999995 6.248639999999999 8.76783 6.248639999999999 9.43713 7.140809999999999 2.0072099999999997 2.0072099999999997 0 14.942639999999997 -0.6692999999999999 18.065579999999997 -0.8921699999999999 4.014419999999999 1.11504 7.805969999999999 0.6692999999999999 11.82039 0 0.44643 0.6692999999999999 0.44643 0.6692999999999999 0 0.6692999999999999 -3.79155 -1.3385999999999998 -8.028839999999999 -0.44643 -11.59752 1.11504 -3.79155 3.12225 -16.5048 0.44643 -19.180619999999998 -1.3385999999999998 -1.56147 -5.455139999999999 -0.2346 -9.66 -6.695069999999999 0 -0.61617 -0.6692999999999999 0 -0.44643 0.44643Z" clip-rule="evenodd" stroke-width="1"></path><path fill="#000000" fill-rule="evenodd" d="m57.653639999999996 45.65385 -0.44573999999999997 1.11504c0 0.22286999999999998 -0.22286999999999998 0.6692999999999999 -0.22286999999999998 0.8921699999999999 -0.22355999999999998 0.6692999999999999 -1.7843399999999998 1.11504 -2.2307699999999997 2.0079 -0.22286999999999998 0.44505 -0.22286999999999998 0.8914799999999999 -0.44573999999999997 1.11435 -0.44643 0.44643 -1.11504 0.8921699999999999 -1.56147 1.3385999999999998 -0.22286999999999998 0.22286999999999998 0.22355999999999998 0.6692999999999999 0.44643 0.44573999999999997 0.6692999999999999 -0.6692999999999999 1.11504 -0.6692999999999999 1.7843399999999998 -1.3385999999999998 0.44573999999999997 -0.44573999999999997 0.44573999999999997 -1.11504 0.6692999999999999 -1.33791 0.6686099999999999 -0.44573999999999997 1.33791 -0.6692999999999999 2.0065199999999996 -1.5607799999999998 0.22355999999999998 -0.44643 0.22355999999999998 -0.8921699999999999 0.44643 -1.3385999999999998 1.11504 -2.67651 1.3385999999999998 -2.45295 -1.11504 -2.67651 -0.8921699999999999 0 -1.7843399999999998 -0.44573999999999997 -2.45364 -0.8914799999999999 -0.44573999999999997 -0.22355999999999998 -0.6692999999999999 0.22286999999999998 -0.44573999999999997 0.44573999999999997 1.11504 1.11504 2.23008 1.56147 3.56799 1.7843399999999998Z" clip-rule="evenodd" stroke-width="1"></path><path fill="#000000" fill-rule="evenodd" d="M54.53139 30.48765c2.23008 0.6692999999999999 1.7843399999999998 2.0079 3.3451199999999996 3.12294 2.6771999999999996 1.7836499999999997 6.02232 2.67582 7.5831 6.2445 0.44643 1.11504 0.22355999999999998 1.3385999999999998 1.56147 2.23008 1.3385999999999998 0.6692999999999999 0.22286999999999998 1.7843399999999998 0.22286999999999998 2.89938 0 0.8921699999999999 0.44643 1.7843399999999998 -0.22286999999999998 2.45364 -0.6692999999999999 0.44573999999999997 -0.8921699999999999 0.6692999999999999 -1.3385999999999998 1.3385999999999998 -0.22218 0.6692999999999999 -0.44573999999999997 1.33791 -2.45295 3.56799 -3.12225 3.12294 -4.014419999999999 2.45364 -4.68372 2.89938 -1.11504 0.44643 -2.45295 3.12294 -3.5686799999999996 3.3458099999999997 -0.44573999999999997 0.22286999999999998 -0.8914799999999999 -0.44643 -1.11504 0 -0.22286999999999998 0.44573999999999997 0.44643 0.8921699999999999 1.11504 0.6692999999999999 1.3385999999999998 -0.22355999999999998 3.12294 -3.12294 4.01511 -3.3458099999999997 0.8921699999999999 -0.22286999999999998 1.7843399999999998 0.22286999999999998 4.9059 -2.89938 2.6771999999999996 -2.45364 2.45364 -3.12225 2.90007 -4.014419999999999 0.44573999999999997 -0.6692999999999999 1.56147 -0.6692999999999999 1.7843399999999998 -2.2307699999999997 0.22286999999999998 -1.11504 -0.44643 -0.6692999999999999 0.22286999999999998 -2.67651 0.8921699999999999 -2.67582 -1.56147 -2.89938 -1.7843399999999998 -3.79155 -0.6692999999999999 -1.7836499999999997 -1.3385999999999998 -3.12225 -3.79155 -4.68303 -1.7843399999999998 -1.1157299999999999 -4.68372 -2.2307699999999997 -5.35302 -3.12294 -0.6692999999999999 -0.6692999999999999 -1.11504 -1.56147 -2.0072099999999997 -2.0072099999999997 -2.0072099999999997 -1.3385999999999998 -1.5607799999999998 -0.22286999999999998 -1.33791 0Z" clip-rule="evenodd" stroke-width="1"></path><path fill="#000000" fill-rule="evenodd" d="M53.192789999999995 54.351989999999994c0.6692999999999999 1.56147 1.1157299999999999 2.0079 1.1157299999999999 2.2307699999999997 0.22286999999999998 0.6692999999999999 0.22286999999999998 0.8914799999999999 0.44573999999999997 0.8914799999999999 0.44643 0 0.44643 -1.11504 0.44643 -1.5607799999999998 -0.22355999999999998 -0.8921699999999999 -0.8921699999999999 -1.3385999999999998 -1.3385999999999998 -1.7843399999999998 -0.44573999999999997 -0.44643 -0.8921699999999999 0 -0.6692999999999999 0.22286999999999998Z" clip-rule="evenodd" stroke-width="1"></path><path fill="#000000" fill-rule="evenodd" d="M54.97713 51.22905c1.56147 0.22286999999999998 3.12294 2.2307699999999997 3.3458099999999997 3.12225 0.22286999999999998 0.6692999999999999 -0.44643 0.8921699999999999 -0.22286999999999998 1.3385999999999998 0.44573999999999997 0.44573999999999997 0.8921699999999999 -0.44643 1.11504 -1.11504 0.22286999999999998 -1.56147 -1.3385999999999998 -4.23798 -4.23798 -4.01511 -0.44573999999999997 0 -0.44573999999999997 0.6692999999999999 0 0.6692999999999999Z" clip-rule="evenodd" stroke-width="1"></path><path fill="#000000" fill-rule="evenodd" d="M58.100069999999995 45.65316c1.3385999999999998 0 2.67651 0.22286999999999998 4.014419999999999 -0.6692999999999999 0.6692999999999999 -0.44573999999999997 1.1157299999999999 -1.11504 1.56147 -1.5607799999999998 0.44573999999999997 -0.44643 1.11504 -0.6692999999999999 0.8921699999999999 0 -0.22286999999999998 0.8921699999999999 -0.8921699999999999 0.6692999999999999 -0.6692999999999999 1.11504 0.22286999999999998 0.6692999999999999 1.7843399999999998 -0.44573999999999997 1.56147 -1.56147 -0.22286999999999998 -1.11504 -1.56147 -0.8921699999999999 -2.67651 -0.22286999999999998 -1.56147 1.3385999999999998 -0.22286999999999998 1.3385999999999998 -4.90659 2.45364 -0.44643 -0.22286999999999998 -0.22286999999999998 0.44573999999999997 0.22286999999999998 0.44573999999999997Z" clip-rule="evenodd" stroke-width="1"></path><path fill="#000000" fill-rule="evenodd" d="M58.769369999999995 33.609899999999996c-0.44643 2.0072099999999997 -1.7843399999999998 4.68303 -3.79155 6.690929999999999 -0.22286999999999998 0.22286999999999998 0 0.8914799999999999 0.44573999999999997 0.44573999999999997 3.3458099999999997 -2.23008 4.014419999999999 -4.46085 4.014419999999999 -7.13667 0 -0.44643 -0.6692999999999999 -0.44643 -0.6692999999999999 0Z" clip-rule="evenodd" stroke-width="1"></path><path fill="#000000" fill-rule="evenodd" d="M62.11379999999999 35.39355c-0.44505 3.12294 -2.67582 6.913799999999999 -5.5752 8.698139999999999 -0.44573999999999997 0.22355999999999998 0 0.8921699999999999 0.22286999999999998 0.6692999999999999 3.5686799999999996 -1.5607799999999998 5.79876 -4.68372 5.79876 -9.36744 0.22355999999999998 -0.22286999999999998 -0.44573999999999997 -0.44573999999999997 -0.44573999999999997 0Z" clip-rule="evenodd" stroke-width="1"></path><path fill="#000000" fill-rule="evenodd" d="M65.4603 38.96223c-1.1157299999999999 2.0079 -0.8921699999999999 2.2307699999999997 -1.3385999999999998 2.89938 -0.22286999999999998 0.44643 0.22286999999999998 0.6692999999999999 0.44643 0.44643 1.11504 -0.8921699999999999 1.3385999999999998 -1.7843399999999998 1.3385999999999998 -3.12294 0.22218 -0.6692999999999999 -0.44643 -0.6692999999999999 -0.44643 -0.22286999999999998Z" clip-rule="evenodd" stroke-width="1"></path><path fill="#000000" fill-rule="evenodd" d="M63.22953 42.75447c0.22286999999999998 0.22355999999999998 0.6692999999999999 -0.22286999999999998 0.44643 -0.44573999999999997 -2.0079 -2.0079 -3.5686799999999996 -3.79155 -6.24519 -5.35302 -2.0079 -1.3385999999999998 -2.45364 -1.5607799999999998 -2.67651 -1.3385999999999998 -0.22286999999999998 0.44643 0.44643 0.89286 8.475269999999998 7.137359999999999Z" clip-rule="evenodd" stroke-width="1"></path><path fill="#000000" fill-rule="evenodd" d="M58.546499999999995 52.56765c2.8986899999999993 -1.5607799999999998 4.9059 -3.12225 6.2445 -6.02163 0.22286999999999998 -0.44643 -0.44643 -0.6692999999999999 -0.6692999999999999 -0.22286999999999998 -1.7843399999999998 2.89938 -6.4680599999999995 5.5752 -6.02163 6.2445 0 0.22286999999999998 0.22286999999999998 0.22286999999999998 0.44573999999999997 0Z" clip-rule="evenodd" stroke-width="1"></path><path fill="#000000" fill-rule="evenodd" d="M57.653639999999996 47.88393c2.2307699999999997 0.22286999999999998 5.575889999999999 1.7836499999999997 5.79876 4.46016 0 0.44643 0.6692999999999999 0.44643 0.6692999999999999 0 0 -2.89938 -2.45364 -5.35302 -6.4680599999999995 -5.12946 -0.44573999999999997 0 -0.44573999999999997 0.6692999999999999 0 0.6692999999999999Z" clip-rule="evenodd" stroke-width="1"></path><path fill="#000000" fill-rule="evenodd" d="M14.162939999999999 49.22183999999999c0.22286999999999998 -3.56799 -4.46085 -3.3451199999999996 -1.7843399999999998 -3.12225 0.22286999999999998 0 0.8921699999999999 0.22286999999999998 1.11504 0 1.3385999999999998 -1.3385999999999998 3.12225 -1.3385999999999998 4.68372 -2.45364 1.3385999999999998 -0.8921699999999999 2.45295 -2.23008 4.014419999999999 -2.89938 0.44573999999999997 -0.22286999999999998 0 -0.8921699999999999 -0.22286999999999998 -0.6692999999999999 -1.56147 0.89286 -2.45364 2.0079 -4.01511 2.90007 -1.7836499999999997 0.8921699999999999 -3.3451199999999996 0.8921699999999999 -4.9059 2.45295 -0.22355999999999998 0 -0.44643 -0.22286999999999998 -0.44643 -0.22286999999999998 -2.67651 0 -2.89938 1.11504 -2.2307699999999997 1.3385999999999998 1.1157299999999999 0.44573999999999997 2.0079 0.6692999999999999 2.6771999999999996 1.33791 0.6686099999999999 0.8921699999999999 -0.22355999999999998 1.7843399999999998 0.44573999999999997 2.0072099999999997 0.8921699999999999 0.44643 1.7843399999999998 0.22286999999999998 2.0072099999999997 1.11504 0.6692999999999999 1.7843399999999998 -2.45364 3.79155 -4.46085 4.23798 -1.7843399999999998 0.44573999999999997 -2.67651 -1.11504 -3.79155 -2.6771999999999996C4.7955 49.89183 0.55752 46.99245 1.44969 43.2009c0.8921699999999999 -4.23798 9.591 -8.2524 14.72046 -11.59752 2.23008 -1.3385999999999998 4.014419999999999 -3.5686799999999996 6.690929999999999 -3.5686799999999996 0.44573999999999997 0 0.44573999999999997 -0.6692999999999999 0 -0.6692999999999999 -3.12294 0 -4.90659 2.2307699999999997 -7.137359999999999 3.5686799999999996C9.702089999999998 34.502069999999996 1.22682 38.07006 0.11177999999999999 42.97734c-0.8921699999999999 4.46016 3.79155 7.805969999999999 6.02163 10.25892 1.56147 1.56147 2.45364 3.5686799999999996 4.90659 2.90007 2.67651 -0.6692999999999999 6.02163 -3.12294 5.1301499999999995 -5.79876 0 -0.8921699999999999 -1.1157299999999999 -0.8921699999999999 -2.0079 -1.1157299999999999Zm-1.1157299999999999 -4.014419999999999c0.22355999999999998 0 0.22355999999999998 -0.22286999999999998 0 0Z" clip-rule="evenodd" stroke-width="1"></path><path fill="#000000" fill-rule="evenodd" d="m5.2412399999999995 44.09307 0.44643 0c1.11504 0 2.45295 0.44573999999999997 3.56799 0.8914799999999999 0.44643 0.22355999999999998 0.6692999999999999 -0.44573999999999997 0.44643 -0.6692999999999999 -0.8921699999999999 -0.6686099999999999 -2.45364 -2.0065199999999996 -4.23798 -1.33791 -2.0072099999999997 0.6692999999999999 -0.8921699999999999 2.2307699999999997 0.8921699999999999 2.45364 0.44643 0 0.44643 -0.6692999999999999 0 -0.6692999999999999 -0.44573999999999997 -0.22286999999999998 -0.8921699999999999 -0.44573999999999997 -1.11504 -0.6692999999999999Zm0 0c-0.22286999999999998 0 -0.22286999999999998 0 0 0Z" clip-rule="evenodd" stroke-width="1"></path><path fill="#000000" fill-rule="evenodd" d="M7.24845 37.17789c1.7843399999999998 3.3458099999999997 3.3458099999999997 5.79876 6.690929999999999 8.02953 0.22286999999999998 0.22286999999999998 0.6692999999999999 -0.22355999999999998 0.44643 -0.44643 -1.56147 -1.5607799999999998 -6.2445 -7.805969999999999 -6.4680599999999995 -8.028839999999999 -0.44573999999999997 -0.22355999999999998 -0.8921699999999999 0 -0.6692999999999999 0.44573999999999997Z" clip-rule="evenodd" stroke-width="1"></path><path fill="#000000" fill-rule="evenodd" d="M11.26287 34.27851c1.7843399999999998 3.79155 3.79155 5.79876 6.913799999999999 8.475269999999998 0.22355999999999998 0.22286999999999998 0.89286 -0.22286999999999998 0.44643 -0.44643 -6.2445 -6.467369999999999 -6.690929999999999 -8.698139999999999 -7.35954 -8.475269999999998l0 0.44643Z" clip-rule="evenodd" stroke-width="1"></path><path fill="#000000" fill-rule="evenodd" d="M15.723719999999998 31.82556c0.8921699999999999 3.5686799999999996 2.45364 6.4680599999999995 5.35302 8.475269999999998 0.44573999999999997 0.22286999999999998 0.6692999999999999 -0.22286999999999998 0.44573999999999997 -0.44573999999999997 -2.0072099999999997 -1.7843399999999998 -4.46016 -6.913799999999999 -5.12946 -8.2524 0 -0.44643 -0.6692999999999999 -0.22286999999999998 -0.6692999999999999 0.22286999999999998Z" clip-rule="evenodd" stroke-width="1"></path><path fill="#000000" fill-rule="evenodd" d="M18.71211 29.554769999999998c0.8921699999999999 3.12225 2.45295 4.46085 5.12946 6.2445 0.44643 0.22355999999999998 0.6692999999999999 -0.22286999999999998 0.44643 -0.44573999999999997 -1.3385999999999998 -1.3385999999999998 -4.01511 -4.23729 -4.90728 -6.02163 -0.22286999999999998 -0.44643 -0.8921699999999999 -0.22286999999999998 -0.6692999999999999 0.22286999999999998Z" clip-rule="evenodd" stroke-width="1"></path><path fill="#000000" fill-rule="evenodd" d="M7.02558 43.42238999999999c2.0079 -2.45295 6.913799999999999 -4.9059 11.151779999999999 -9.366749999999998 1.5607799999999998 -1.56147 3.12225 -3.79155 5.352329999999999 -3.5686799999999996 0.44643 0 0.44643 -0.6692999999999999 0 -0.6692999999999999 -2.67582 -0.22286999999999998 -4.46016 1.56147 -6.2445 3.3458099999999997 -2.0079 2.0072099999999997 -3.79155 3.12225 -6.2445 5.352329999999999 -6.468749999999999 5.35302 -4.23798 5.1301499999999995 -4.01511 4.90659Z" clip-rule="evenodd" stroke-width="1"></path><path fill="#000000" fill-rule="evenodd" d="M23.976119999999998 34.725629999999995c-6.02163 3.12225 -5.79876 4.68372 -9.81318 8.2524 -2.45364 2.23008 -2.89938 2.0065199999999996 -2.6771999999999996 2.45295 0.6692999999999999 1.3385999999999998 8.2524 -6.4680599999999995 8.9217 -7.137359999999999a144.78615 144.78615 0 0 1 4.01511 -3.12225c0.22286999999999998 0 0 -0.6692999999999999 -0.44643 -0.44573999999999997Z" clip-rule="evenodd" stroke-width="1"></path><path fill="#000000" fill-rule="evenodd" d="M3.2340299999999997 49.66827c4.68372 -1.7843399999999998 4.46085 -1.7843399999999998 6.02163 -2.45364 0.44643 0 0.22355999999999998 -0.6692999999999999 -0.22286999999999998 -0.6692999999999999 -3.12225 0.44643 -4.23729 1.1157299999999999 -6.2445 2.45364 -0.22355999999999998 0.22355999999999998 0 0.8921699999999999 0.44573999999999997 0.6692999999999999Z" clip-rule="evenodd" stroke-width="1"></path><path fill="#000000" fill-rule="evenodd" d="M6.356279999999999 52.56765c2.6771999999999996 -0.6692999999999999 4.01511 -1.3385999999999998 7.36023 -3.5686799999999996 0.44573999999999997 -0.22286999999999998 0 -0.8921699999999999 -0.44573999999999997 -0.6692999999999999 -3.12294 1.56147 -0.6692999999999999 0 -7.137359999999999 3.5686799999999996 -0.44573999999999997 0.22286999999999998 -0.22286999999999998 0.6692999999999999 0.22286999999999998 0.6692999999999999Z" clip-rule="evenodd" stroke-width="1"></path><path fill="#000000" fill-rule="evenodd" d="M15.05442 49.89113999999999C13.93938 51.451919999999994 11.04 53.681999999999995 8.36349 54.351299999999995c-0.44573999999999997 0 -0.22286999999999998 0.6692999999999999 0 0.6692999999999999 3.12294 -0.22355999999999998 5.79876 -1.78503 7.137359999999999 -4.68441 0.44573999999999997 -0.44573999999999997 -0.22286999999999998 -0.8921699999999999 -0.44643 -0.44573999999999997Z" clip-rule="evenodd" stroke-width="1"></path><path fill="#000000" fill-rule="evenodd" d="M13.717199999999998 54.351299999999995c-0.89286 -0.8914799999999999 -4.23798 -4.236599999999999 -4.46085 -4.46016 -2.90007 -3.12225 -2.6771999999999996 -3.5686799999999996 -3.12294 -3.3458099999999997 -0.22286999999999998 0 -0.22286999999999998 0.22355999999999998 0 0.44643 2.0079 3.79155 4.23798 5.79876 7.137359999999999 7.805969999999999 0.22286999999999998 0.44643 0.6692999999999999 -0.22286999999999998 0.44573999999999997 -0.44573999999999997Z" clip-rule="evenodd" stroke-width="1"></path><path fill="#000000" fill-rule="evenodd" d="M11.26287 56.135639999999995c0.8921699999999999 1.11504 2.2307699999999997 3.3458099999999997 4.01511 3.79155 1.11504 0.22286999999999998 2.89938 -0.6692999999999999 3.79155 -1.3385999999999998 1.5607799999999998 -1.33791 1.7836499999999997 -2.89938 0 -4.46016 -0.6692999999999999 -0.6692999999999999 -1.7843399999999998 -1.11504 -2.45364 -1.56147 -0.22286999999999998 -0.22286999999999998 -0.44573999999999997 0 -0.44573999999999997 0 -0.6692999999999999 0.6692999999999999 4.014419999999999 2.45364 2.89938 4.46085 -0.44643 0.6692999999999999 -1.7843399999999998 1.56147 -2.6771999999999996 1.7843399999999998 -0.6686099999999999 0.22286999999999998 -1.11504 0.22286999999999998 -2.45295 -0.6692999999999999 -2.0072099999999997 -1.56147 -2.23008 -2.67651 -2.67651 -2.23008 -0.22286999999999998 -0.22286999999999998 -0.22286999999999998 0 0 0.22286999999999998Z" clip-rule="evenodd" stroke-width="1"></path><path fill="#000000" fill-rule="evenodd" d="M18.17736 58.3671c0.44573999999999997 0.22286999999999998 0.6692999999999999 -0.22355999999999998 0.44573999999999997 -0.44643 -2.45295 -2.67651 -2.23008 -2.23008 -4.014419999999999 -3.56799 -0.44573999999999997 -0.44643 -2.0079 0.44573999999999997 3.5686799999999996 4.014419999999999Z" clip-rule="evenodd" stroke-width="1"></path><path fill="#000000" fill-rule="evenodd" d="m26.65263 57.0285 0 -0.6692999999999999c-0.22355999999999998 -0.6692999999999999 -0.8921699999999999 -1.11504 -1.7843399999999998 -1.11504 -1.3385999999999998 0 -2.23008 0.6692999999999999 -3.3458099999999997 0.8921699999999999 -1.11504 0 -1.3385999999999998 -0.8921699999999999 -1.7843399999999998 -0.44643 -0.44573999999999997 0.44643 0.8921699999999999 1.11504 1.3385999999999998 1.11504 1.3385999999999998 0.22355999999999998 2.45364 -0.44573999999999997 3.5686799999999996 -0.44573999999999997 0.44573999999999997 0 0.8921699999999999 0.22286999999999998 0.8921699999999999 0.44573999999999997l0 0.8921699999999999c0.22286999999999998 0.6692999999999999 0.8914799999999999 0.44643 0.8914799999999999 0.8921699999999999 -0.22286999999999998 0.44643 -0.44573999999999997 0.6692999999999999 -0.44573999999999997 1.11504 0 0.44643 0.22286999999999998 1.3385999999999998 -1.56147 2.45364 -3.3451199999999996 2.0079 -3.56799 -0.6692999999999999 -7.35954 -3.12225l-0.44643 0c-0.22286999999999998 0.44573999999999997 0.22286999999999998 0.44573999999999997 1.3385999999999998 1.5607799999999998 1.11504 1.11504 1.7836499999999997 2.0079 2.67582 2.6771999999999996 2.2307699999999997 1.5607799999999998 6.02232 -0.44643 6.4680599999999995 -2.6771999999999996v-0.8921699999999999c0.22286999999999998 -0.44573999999999997 0.6692999999999999 -0.8921699999999999 0.44643 -1.7843399999999998 0 -0.44573999999999997 -0.44643 -0.6692999999999999 -0.8921699999999999 -0.8914799999999999Z" clip-rule="evenodd" stroke-width="1"></path><path fill="#000000" fill-rule="evenodd" d="M30.889919999999996 24.91107c0.8921699999999999 2.89938 2.2307699999999997 5.12946 6.2445 7.805969999999999 0.44643 0.22286999999999998 0.6692999999999999 -0.22286999999999998 0.44643 -0.44573999999999997 -2.45364 -2.2307699999999997 -4.90659 -5.35302 -6.02163 -7.36023 -0.22286999999999998 -0.6692999999999999 -0.6692999999999999 -0.44643 -0.6692999999999999 0Z" clip-rule="evenodd" stroke-width="1"></path><path fill="#000000" fill-rule="evenodd" d="m46.72542 26.24967 0 1.7843399999999998 0 2.45364c0 0.44573999999999997 0.6692999999999999 0.6692999999999999 0.6692999999999999 0.22286999999999998 0.8921699999999999 -2.23008 0.6692999999999999 -3.12225 0 -4.46085 -0.22355999999999998 -0.44573999999999997 -0.8921699999999999 -0.44573999999999997 -0.6692999999999999 0Z" clip-rule="evenodd" stroke-width="1"></path><path fill="#000000" fill-rule="evenodd" d="M26.429069999999996 34.94781c6.2445 -0.44643 6.02232 -0.6692999999999999 10.70604 -1.56147 0.44573999999999997 0 0.44573999999999997 -0.6692999999999999 0 -0.6692999999999999 -5.35302 0.22355999999999998 -6.6916199999999995 0.6692999999999999 -10.70604 1.56147 -0.6692999999999999 0 -0.44573999999999997 0.6692999999999999 0 0.6692999999999999Z" clip-rule="evenodd" stroke-width="1"></path><path fill="#000000" fill-rule="evenodd" d="M47.84046 32.494859999999996c3.5686799999999996 0.44643 4.90659 0 6.4680599999999995 0.22286999999999998 0.44573999999999997 0 0.6692999999999999 -0.44573999999999997 0.22286999999999998 -0.6692999999999999 -2.67651 -0.8914799999999999 -4.23729 -0.6686099999999999 -6.4680599999999995 -0.22286999999999998 -0.6692999999999999 0 -0.6692999999999999 0.6692999999999999 -0.22286999999999998 0.6692999999999999Z" clip-rule="evenodd" stroke-width="1"></path><path fill="#000000" fill-rule="evenodd" d="M28.43628 39.8544c6.02232 0 6.913799999999999 -0.6692999999999999 10.482479999999999 -0.6692999999999999 0.44643 0 0.44643 -0.6686099999999999 0 -0.6686099999999999 -4.46016 -0.44573999999999997 -7.13667 0.22286999999999998 -10.482479999999999 0.6692999999999999 -0.44573999999999997 0 -0.44573999999999997 0.6692999999999999 0 0.6692999999999999Z" clip-rule="evenodd" stroke-width="1"></path><path fill="#000000" fill-rule="evenodd" d="M26.8755 45.65385c7.13667 0 6.4680599999999995 -0.44643 11.374649999999999 -0.6692999999999999 0.44573999999999997 0 0.44573999999999997 -0.6692999999999999 0 -0.6692999999999999 -5.12946 -0.44573999999999997 -7.805969999999999 0.22355999999999998 -11.374649999999999 0.6692999999999999 -0.44643 0.22286999999999998 -0.44643 0.8921699999999999 0 0.6692999999999999Z" clip-rule="evenodd" stroke-width="1"></path><path fill="#000000" fill-rule="evenodd" d="M24.421859999999995 51.45329999999999c7.36023 0.44573999999999997 9.14457 -0.22355999999999998 13.382549999999998 -0.44643 0.44573999999999997 0 0.44573999999999997 -0.6692999999999999 0 -0.6692999999999999 -9.591 -0.22286999999999998 -8.69883 0.22286999999999998 -13.382549999999998 0.44643 -0.44573999999999997 0 -0.44573999999999997 0.6692999999999999 0 0.6692999999999999Z" clip-rule="evenodd" stroke-width="1"></path><path fill="#000000" fill-rule="evenodd" d="M29.10558 57.47424c3.3458099999999997 0.44573999999999997 3.79155 0 6.02163 0 0.44643 0 0.44643 -0.6692999999999999 0 -0.6692999999999999 -3.12225 -0.44573999999999997 -4.014419999999999 -0.22286999999999998 -6.02163 0 -0.44573999999999997 0 -0.44573999999999997 0.6692999999999999 0 0.6692999999999999Z" clip-rule="evenodd" stroke-width="1"></path><path fill="#000000" fill-rule="evenodd" d="M46.72542 38.07075c4.46085 0.22286999999999998 4.46085 0 7.36023 -0.22286999999999998 0.44573999999999997 0 0.44573999999999997 -0.6692999999999999 0 -0.6692999999999999 -3.5686799999999996 -0.6692999999999999 -5.1301499999999995 -0.22286999999999998 -7.36023 0.22286999999999998 -0.44643 0 -0.44643 0.6692999999999999 0 0.6692999999999999Z" clip-rule="evenodd" stroke-width="1"></path><path fill="#000000" fill-rule="evenodd" d="M54.308519999999994 42.08517c-2.0079 -0.44643 -2.45364 -0.6692999999999999 -5.575889999999999 0 -0.44643 0 -0.44643 0.6692999999999999 0 0.6692999999999999 3.5686799999999996 0.22286999999999998 1.7843399999999998 0.44573999999999997 5.5752 0 0.44643 0 0.44643 -0.6692999999999999 0 -0.6692999999999999Z" clip-rule="evenodd" stroke-width="1"></path><path fill="#000000" fill-rule="evenodd" d="M53.41635 48.10679999999999c-1.3385999999999998 -0.22286999999999998 -1.3385999999999998 -0.44573999999999997 -3.3458099999999997 0.22355999999999998 -0.44573999999999997 0 -0.44573999999999997 0.6692999999999999 0 0.6692999999999999 1.7843399999999998 0.22286999999999998 1.56147 0.22286999999999998 3.12294 -0.22355999999999998 0.6692999999999999 0 0.6692999999999999 -0.6692999999999999 0.22286999999999998 -0.6692999999999999Z" clip-rule="evenodd" stroke-width="1"></path><path fill="#000000" fill-rule="evenodd" d="M53.192789999999995 54.574859999999994c-1.11504 -0.22286999999999998 -1.11504 -0.22286999999999998 -2.67582 0.22286999999999998 -0.44643 0 -0.44643 0.6692999999999999 0 0.6692999999999999 1.5607799999999998 0.22286999999999998 1.3385999999999998 0.22286999999999998 2.67651 -0.22286999999999998 0.44573999999999997 0 0.44573999999999997 -0.6692999999999999 0 -0.6692999999999999Z" clip-rule="evenodd" stroke-width="1"></path></svg>