<svg xmlns="http://www.w3.org/2000/svg" fill="none" viewBox="-0.5 -0.5 70 70" id="Doge-Hand-Drawn--Streamline-Memes.svg" height="70" width="70"><desc>Doge Hand Drawn Streamline Element: https://streamlinehq.com</desc><path fill="#000000" fill-rule="evenodd" d="M25.484459999999995 11.687219999999998c-2.64477 0.9618599999999998 -12.261299999999999 4.80861 -14.66526 6.971759999999999C4.5678 24.42945 0.24011999999999997 38.13285 0.4809299999999999 45.34542c0.24011999999999997 3.36582 1.4420999999999997 6.4915199999999995 2.88489 9.377099999999999C2.16384 57.84683999999999 0.7210499999999999 61.45278 0 64.81859999999999c0 0.4809299999999999 0.7210499999999999 0.4809299999999999 0.7210499999999999 0.24080999999999997 0.7217399999999999 -3.36582 2.16384 -7.212569999999999 3.60663 -10.09746C4.5678 54.00078 0.24011999999999997 49.43297999999999 1.9230299999999998 40.296c1.20267 -6.73164 5.28954 -18.51201 11.54025 -22.118639999999996 1.2019799999999998 -0.7210499999999999 7.453379999999999 -3.60594 8.65536 -4.086869999999999 3.60594 -1.68291 3.8467499999999997 -1.4420999999999997 3.60594 -1.9230299999999998 0 -0.4809299999999999 -0.24011999999999997 -0.4809299999999999 -0.24011999999999997 -0.4809299999999999Z" clip-rule="evenodd" stroke-width="1"></path><path fill="#000000" fill-rule="evenodd" d="M20.43573 14.331299999999999c-0.24080999999999997 -2.8841999999999994 0.4809299999999999 -12.501419999999998 2.64477 -12.261299999999999 1.68291 0 6.73164 7.21326 7.693499999999999 8.415239999999999 0.48023999999999994 0.4809299999999999 0.48023999999999994 0 8.894789999999999 0.96117 13.704089999999999 1.6835999999999998 5.04873 2.88558 15.14688 -5.04873 2.4039599999999997 -1.9230299999999998 4.086869999999999 -0.24011999999999997 5.28885 2.64477 1.9237199999999997 5.04873 0.7210499999999999 9.61653 0.24080999999999997 14.66526 -0.4809299999999999 4.5678 3.8467499999999997 7.93431 4.807919999999999 12.02118 1.2019799999999998 5.04873 1.2019799999999998 10.578389999999999 1.6835999999999998 15.86793 0.48023999999999994 3.8467499999999997 1.20129 9.1356 1.4420999999999997 12.501419999999998 0 0.4809299999999999 0.7210499999999999 0.4809299999999999 0.7210499999999999 0 -0.24011999999999997 -3.8467499999999997 -0.7210499999999999 -8.41455 -1.2019799999999998 -12.501419999999998 -0.4809299999999999 -5.529659999999999 -0.4809299999999999 -10.578389999999999 -1.68291 -15.86793 -0.9618599999999998 -4.086869999999999 -5.04873 -7.693499999999999 -4.5678 -11.78037 0.4809299999999999 -5.529659999999999 1.68291 -10.09746 -0.24080999999999997 -15.386999999999999 -1.4420999999999997 -3.8467499999999997 -4.086869999999999 -5.76978 -7.45269 -3.36582 -12.02118 9.857339999999999 2.4039599999999997 5.04873 -22.35876 4.32768 -1.2019799999999998 -1.6835999999999998 -6.2514 -8.65536 -8.41455 -8.65536 -3.36582 0 -3.60663 10.09746 -3.3665099999999994 13.46328 0 0.4809299999999999 0.7217399999999999 0.4809299999999999 0.7217399999999999 0Z" clip-rule="evenodd" stroke-width="1"></path><path fill="#000000" fill-rule="evenodd" d="M23.0805 21.303749999999997c-0.24218999999999996 1.0695 -0.4809299999999999 2.4046499999999997 -0.7217399999999999 3.8467499999999997 -0.24011999999999997 0.4809299999999999 0.4809299999999999 0.7217399999999999 0.7217399999999999 0.24080999999999997 0.96117 -1.6835999999999998 0.96117 -2.64477 0.7210499999999999 -4.08756 0 -0.49679999999999996 -0.5858099999999999 -0.44022 -0.7210499999999999 0Z" clip-rule="evenodd" stroke-width="1"></path><path fill="#000000" fill-rule="evenodd" d="M26.686439999999997 24.189329999999998c-0.40709999999999996 0.5589 -1.1405699999999999 1.5593999999999997 -1.68291 2.64477 -0.24011999999999997 0.48023999999999994 0.4809299999999999 0.7210499999999999 0.7210499999999999 0.4809299999999999 1.06605 -1.06605 1.5318 -1.94994 1.6835999999999998 -2.4046499999999997 0.24011999999999997 -0.7210499999999999 -0.4809299999999999 -1.2019799999999998 -0.7217399999999999 -0.7210499999999999Z" clip-rule="evenodd" stroke-width="1"></path><path fill="#000000" fill-rule="evenodd" d="M37.504949999999994 31.401899999999998c0.24080999999999997 0 0.24080999999999997 -0.4809299999999999 0 -0.7210499999999999 -5.04873 -4.08756 -6.73164 -4.32768 -10.09746 1.2019799999999998 -0.24011999999999997 0.24080999999999997 0 0.7210499999999999 0.24080999999999997 0.9618599999999998 3.60594 2.4039599999999997 7.45269 1.68291 9.85665 -1.4420999999999997Zm-0.7210499999999999 -0.24011999999999997c-4.80861 -3.60663 -5.529659999999999 -2.88489 -7.933619999999999 0.9618599999999998 2.8841999999999994 1.4420999999999997 5.76978 1.2019799999999998 7.933619999999999 -0.9618599999999998Z" clip-rule="evenodd" stroke-width="1"></path><path fill="#000000" fill-rule="evenodd" d="M17.06991 24.188639999999996c-1.2019799999999998 -0.9618599999999998 -2.64477 -0.7210499999999999 -3.60663 0.4809299999999999 -2.64477 2.88489 -0.9618599999999998 6.0099 1.6835999999999998 5.76978 3.1250099999999996 -0.7210499999999999 3.60594 -4.3269899999999994 1.9230299999999998 -6.250709999999999Zm0.24011999999999997 3.36582c-0.24011999999999997 -0.24011999999999997 0 -1.2019799999999998 -0.7210499999999999 -2.16384 -0.7217399999999999 -0.7210499999999999 -1.6835999999999998 -0.7210499999999999 -2.64477 0.4809299999999999 -1.68291 2.16384 -0.24011999999999997 3.8467499999999997 1.2019799999999998 3.60663 1.6835999999999998 -0.7217399999999999 2.16384 -1.9237199999999997 2.16384 -1.9237199999999997Z" clip-rule="evenodd" stroke-width="1"></path><path fill="#000000" fill-rule="evenodd" d="M15.927959999999999 28.979999999999997c1.4420999999999997 0.24149999999999996 2.6440799999999998 -2.40327 0.7210499999999999 -4.08618 -1.2019799999999998 0 -2.64477 3.60594 -0.7210499999999999 4.086869999999999Z" clip-rule="evenodd" stroke-width="1"></path><path fill="#000000" fill-rule="evenodd" d="M11.747249999999998 42.817949999999996c-0.17387999999999998 5.19018 8.96862 8.917559999999998 16.422 4.34976 0.31395 -0.1932 0.44090999999999997 -0.3795 0.44090999999999997 -0.6203099999999999 -0.4809299999999999 -0.7210499999999999 -1.44279 1.2019799999999998 -6.2514 1.2019799999999998 -1.9230299999999998 0 -3.8467499999999997 -0.4809299999999999 -5.76978 -1.2019799999999998 -1.9237199999999997 -0.7210499999999999 -3.2202299999999995 -1.71534 -3.70116 -3.8791799999999994 -0.4809299999999999 -0.24080999999999997 -1.1405699999999999 -0.33119999999999994 -1.1405699999999999 0.14972999999999997Z" clip-rule="evenodd" stroke-width="1"></path><path fill="#000000" fill-rule="evenodd" d="M12.98235 45.58554c0.4809299999999999 -0.24011999999999997 0 -0.9618599999999998 -0.4809299999999999 -0.4809299999999999 -0.96117 0.4809299999999999 -3.60594 0.9618599999999998 -3.8460599999999996 1.4420999999999997 0.24011999999999997 0.48161999999999994 2.4039599999999997 1.20267 4.3269899999999994 -0.96117Z" clip-rule="evenodd" stroke-width="1"></path><path fill="#000000" fill-rule="evenodd" d="M20.675849999999997 41.01843c-0.27048 0.39812999999999993 -0.58512 1.01913 -0.7210499999999999 1.9237199999999997 -0.24080999999999997 0.4809299999999999 0.4809299999999999 0.7210499999999999 0.7210499999999999 0.24011999999999997 0.414 -0.6734399999999999 0.6465299999999999 -1.16127 0.7217399999999999 -1.9237199999999997 0.04278 -0.4347 -0.4809299999999999 -0.48023999999999994 -0.7217399999999999 -0.24011999999999997Z" clip-rule="evenodd" stroke-width="1"></path><path fill="#000000" fill-rule="evenodd" d="M22.35876 44.38493999999999c-0.39398999999999995 0.5382 -0.8355899999999999 1.14333 -0.96117 1.9230299999999998 -0.24080999999999997 0.4809299999999999 0.48023999999999994 0.7210499999999999 0.7210499999999999 0.24011999999999997 0.48989999999999995 -0.5658 0.9618599999999998 -1.6256399999999998 0.9618599999999998 -1.9230299999999998 0 -0.4809299999999999 -0.4809299999999999 -0.7210499999999999 -0.7217399999999999 -0.24080999999999997Z" clip-rule="evenodd" stroke-width="1"></path><path fill="#000000" fill-rule="evenodd" d="M17.79096 43.182269999999995c-0.45677999999999996 0.76866 -0.86043 1.29927 -0.9618599999999998 2.16384 -0.24011999999999997 0.4809299999999999 0.4809299999999999 0.7217399999999999 0.7217399999999999 0.24080999999999997 0.7210499999999999 -0.9618599999999998 0.8183399999999998 -1.4972999999999999 0.96117 -2.16384 0 -0.4809299999999999 -0.38778 -0.5740799999999999 -0.7210499999999999 -0.24080999999999997Z" clip-rule="evenodd" stroke-width="1"></path><path fill="#000000" fill-rule="evenodd" d="M21.87783 37.89273c3.60663 -0.4809299999999999 6.732329999999999 1.4420999999999997 10.578389999999999 0.96117 4.32768 -0.4809299999999999 6.4915199999999995 -4.5678 10.33827 -5.28885 3.1257 -0.7217399999999999 6.4915199999999995 -0.7217399999999999 9.1356 0.24011999999999997 4.8092999999999995 1.4420999999999997 8.65536 5.76978 9.857339999999999 8.17443 1.6835999999999998 3.60594 -1.4420999999999997 6.73164 -0.4809299999999999 7.212569999999999 0.24080999999999997 0 0.4809299999999999 0 0.4809299999999999 -0.24080999999999997 0.9618599999999998 -2.4039599999999997 1.9237199999999997 -4.5678 0.7217399999999999 -7.452C61.30649999999999 38.61308999999999 57.45975 34.2861 52.170899999999996 32.6025c-3.1257 -0.9618599999999998 -6.4915199999999995 -1.2019799999999998 -9.857339999999999 -0.24011999999999997 -4.086869999999999 0.96117 -6.49083 4.807919999999999 -10.337579999999999 5.529659999999999 -3.60663 0.48023999999999994 -6.4915199999999995 -1.20267 -10.33827 -0.7217399999999999 -0.24011999999999997 0 -0.24011999999999997 0.7217399999999999 0.24011999999999997 0.7217399999999999Z" clip-rule="evenodd" stroke-width="1"></path><path fill="#000000" fill-rule="evenodd" d="M8.41455 25.631429999999998c0.4809299999999999 0 0.7217399999999999 0.9618599999999998 0.7217399999999999 1.6835999999999998 0 2.6440799999999998 -0.7217399999999999 2.4039599999999997 1.9230299999999998 6.0099 0 0.24080999999999997 0.24011999999999997 0.24080999999999997 0.4809299999999999 0 0.4809299999999999 -0.24011999999999997 -0.24080999999999997 -0.9618599999999998 -0.9618599999999998 -2.64477 -0.7210499999999999 -2.16384 0.24080999999999997 -3.1257 -0.24011999999999997 -4.807919999999999 -0.7217399999999999 -2.16384 -2.64477 -2.16384 -4.08756 -0.4809299999999999 -0.96117 1.4420999999999997 -1.2019799999999998 1.68291 -0.96117 1.9230299999999998 0.7210499999999999 0.7217399999999999 1.68291 -1.68291 3.1257 -1.68291Z" clip-rule="evenodd" stroke-width="1"></path><path fill="#000000" fill-rule="evenodd" d="M32.06085 32.122949999999996c-0.19802999999999996 -1.1867999999999999 0.39536999999999994 -2.3735999999999997 1.3841399999999997 -2.9669999999999996 0.9894599999999999 -0.5933999999999999 2.17557 0.5933999999999999 2.9669999999999996 1.38483 0.39536999999999994 0.39536999999999994 0.9887699999999999 0.5933999999999999 -0.19802999999999996 1.58217 -1.1867999999999999 0.9887699999999999 -4.35114 1.3841399999999997 -4.15311 0Z" clip-rule="evenodd" stroke-width="1"></path><path fill="#000000" fill-rule="evenodd" d="M3.1257 53.760659999999994c3.8467499999999997 6.972449999999999 12.742229999999998 13.22316 23.801549999999995 14.185019999999998 13.944209999999998 1.4420999999999997 27.406799999999997 -5.7704699999999995 31.254239999999996 -12.261299999999999 0.24011999999999997 -0.4809299999999999 -0.4809299999999999 -0.7217399999999999 -0.7217399999999999 -0.4809299999999999 -2.6440799999999998 4.32768 -8.41455 7.45269 -13.22247 9.1356 -18.031769999999998 6.4915199999999995 -34.86087 -1.4420999999999997 -40.39053 -11.059319999999998 -0.24011999999999997 -0.24011999999999997 -0.9618599999999998 0.24080999999999997 -0.7210499999999999 0.4809299999999999Z" clip-rule="evenodd" stroke-width="1"></path><path fill="#000000" fill-rule="evenodd" d="M11.54025 51.596129999999995c1.2019799999999998 1.2019799999999998 2.4039599999999997 1.9237199999999997 4.5678 1.9237199999999997 0.4809299999999999 0 0.4809299999999999 -0.7217399999999999 0 -0.7217399999999999 -0.9618599999999998 -0.24011999999999997 -4.32768 -1.9230299999999998 -4.80861 -1.68291 0.24011999999999997 0 0.24080999999999997 0.24080999999999997 0.24080999999999997 0.4809299999999999Z" clip-rule="evenodd" stroke-width="1"></path><path fill="#000000" fill-rule="evenodd" d="M12.947849999999999 36.78321c-4.97766 0 -2.48883 9.753839999999999 2.79933 3.5762699999999996 0.6223799999999999 -0.6499799999999999 0.9335699999999999 -1.3006499999999999 0.6223799999999999 -2.27562 -0.6223799999999999 -0.9756599999999999 -2.48883 -1.3006499999999999 -3.4223999999999997 -1.3006499999999999Z" clip-rule="evenodd" stroke-width="1"></path><path fill="#000000" fill-rule="evenodd" d="M12.947849999999999 36.458909999999996c-2.17764 -0.32567999999999997 -4.35528 2.27562 -2.8000199999999995 5.20122 2.48883 4.55193 9.954629999999998 -2.9255999999999998 5.2881599999999995 -4.876919999999999 -0.93288 -0.3243 -1.86645 -0.3243 -2.4881399999999996 -0.3243Zm0 0.6499799999999999c0.93288 0.3243 2.48883 0.3243 2.79933 1.3006499999999999 0.6223799999999999 0.97497 -2.17764 3.5762699999999996 -3.7329 3.25059 -1.2440699999999998 -0.3243 -2.17764 -4.226249999999999 0.9335699999999999 -4.55124Z" clip-rule="evenodd" stroke-width="1"></path><path fill="#000000" fill-rule="evenodd" d="M56.017649999999996 8.56152c-1.4420999999999997 1.9237199999999997 -5.28954 5.529659999999999 -3.8467499999999997 8.65536 0.9618599999999998 2.16384 4.5678 5.529659999999999 5.28885 6.2514 0.24080999999999997 0.23942999999999998 0.4809299999999999 0.23942999999999998 0.4809299999999999 0 0.4809299999999999 -0.24149999999999996 0 -0.48161999999999994 -2.4039599999999997 -3.3665099999999994 -3.1257 -3.8467499999999997 -2.88489 -4.5678 -1.4420999999999997 -6.971759999999999 1.68222 -3.1257 3.1250099999999996 -4.32768 2.4039599999999997 -4.5678 -0.24080999999999997 -0.24149999999999996 -0.4809299999999999 -0.24149999999999996 -0.4809299999999999 0Z" clip-rule="evenodd" stroke-width="1"></path><path fill="#000000" fill-rule="evenodd" d="M22.59957 5.91744c0.4809299999999999 1.4420999999999997 0.4809299999999999 2.4039599999999997 2.16384 6.0099 0.24011999999999997 0.4809299999999999 0.96117 0.24080999999999997 0.7210499999999999 -0.24011999999999997 -0.7210499999999999 -2.88489 -0.4809299999999999 -3.60594 -2.16384 -6.2514 -0.24080999999999997 -0.24011999999999997 -0.9618599999999998 0 -0.7210499999999999 0.48161999999999994Z" clip-rule="evenodd" stroke-width="1"></path></svg>