<svg xmlns="http://www.w3.org/2000/svg" fill="none" viewBox="-0.5 -0.5 70 70" id="Drake-Hotline-Bling-No-Hand-Drawn--Streamline-Memes.svg" height="70" width="70"><desc>Drake Hotline Bling No Hand Drawn Streamline Element: https://streamlinehq.com</desc><path fill="#000000" fill-rule="evenodd" d="M8.944401 24.526809c0.24039599999999997 3.8463359999999995 3.365544 5.048316 6.490692 6.731088 1.2019799999999998 0.7211879999999998 0.9615839999999999 0.7211879999999998 1.4423759999999997 1.2019799999999998 0.7211879999999998 0.7211879999999998 0.9615839999999999 0.48072299999999996 1.4423759999999997 0.7211189999999998 1.4423759999999997 0.9615839999999999 2.6443559999999997 2.4039599999999997 4.807919999999999 1.2019799999999998 0.48079199999999994 -0.24039599999999997 2.1634949999999997 -1.442307 1.6827029999999998 -1.923099 -0.48079199999999994 -0.48079199999999994 -0.7211189999999998 0.48079199999999994 -2.1634949999999997 1.2019799999999998 -2.163564 0.9615839999999999 -3.125148 -0.9615149999999999 -4.327128 -1.442307 -0.24039599999999997 -0.24039599999999997 -0.7212569999999999 -0.240534 -0.9615839999999999 -0.240534 -0.24039599999999997 -0.24039599999999997 -0.48079199999999994 -0.48065399999999997 -0.7211879999999998 -0.9614459999999999 -0.9615839999999999 -0.9615839999999999 -3.365544 -1.6828409999999998 -5.288711999999999 -3.3656129999999997 -1.9231679999999998 -1.9231679999999998 -1.682772 -3.1250789999999995 -1.682772 -3.8462669999999997 -0.24039599999999997 -0.48079199999999994 -0.7211879999999998 -0.4808609999999999 -1.2019799999999998 -0.9616529999999999 -0.7211879999999998 -0.48079199999999994 -2.8847589 -6.490761 -3.1251548999999996 -6.971552999999999 -1.2019730999999998 -4.327058999999999 0.48079199999999994 -8.173326 3.6059468999999993 -11.298439499999999C13.752321 -0.23386584 17.117865 1.4488757999999997 17.117865 0.48729110999999997c0 -2.4039524099999996 -18.991256399999997 4.08666369 -11.539001099999998 19.471993889999997 0.48079199999999994 1.2019799999999998 1.2019662 3.365544 2.1635571 4.086732 0.7211879999999998 0.48079199999999994 0.9615839999999999 0.48079199999999994 1.2019799999999998 0.48079199999999994Z" clip-rule="evenodd" stroke-width="1"></path><path fill="#000000" fill-rule="evenodd" d="M19.522032 1.4489309999999997c3.365544 0.9615839999999999 7.692602999999999 5.529176999999999 7.692602999999999 9.375513 0 0.48079199999999994 0.7212569999999999 0.48079199999999994 0.7212569999999999 0 0.24039599999999997 -5.0483367 -3.60594 -9.615874499999999 -8.41386 -10.0966665 -0.24039599999999997 0 -0.48079199999999994 0.7211535 0 0.7211535Z" clip-rule="evenodd" stroke-width="1"></path><path fill="#000000" fill-rule="evenodd" d="M16.156419 7.699502999999999c0 3.125148 -1.682772 3.60594 -0.9615839999999999 4.086732 0.9615839999999999 0.7211879999999998 1.9231679999999998 1.6827029999999998 2.6443559999999997 2.644287 0.48079199999999994 0.7211879999999998 1.4423759999999997 -0.9616529999999999 3.365544 -0.9616529999999999 1.4423759999999997 0 1.9231679999999998 1.2021179999999998 2.4039599999999997 0.721326 0.48079199999999994 -0.7211879999999998 -1.4423759999999997 -1.442445 -2.4039599999999997 -1.442445 -0.9615839999999999 0 -1.923099 0.4808609999999999 -2.884683 0.9616529999999999 -0.7211879999999998 -0.7211879999999998 -1.202049 -1.442445 -2.163633 -2.163633 1.9231679999999998 -3.365544 0.7211879999999998 -8.413756499999998 -0.48072299999999996 -8.1733605 -0.9615839999999999 0.24039599999999997 -0.000069 1.6827375 -1.6828409999999998 5.529073499999999 -1.4423759999999997 3.8463359999999995 -4.807850999999999 6.73095 -8.894576099999998 6.971346 -0.48079199999999994 0 -0.48079199999999994 0.721326 0 0.721326 5.7694971 -0.24039599999999997 9.6157641 -3.8463359999999995 11.0581401 -8.894651999999999Z" clip-rule="evenodd" stroke-width="1"></path><path fill="#000000" fill-rule="evenodd" d="M24.329813999999995 13.709196c2.163564 -3.8463359999999995 5.048316 0 3.60594 3.60594 -0.48079199999999994 0.9615839999999999 -1.4423759999999997 1.2019799999999998 -1.9231679999999998 0.48079199999999994 -0.24039599999999997 -0.48079199999999994 -0.9615839999999999 -0.000069 -0.7211879999999998 0.48072299999999996 0.7211879999999998 1.4423759999999997 2.8847519999999993 1.202049 3.60594 -0.48072299999999996 2.6443559999999997 -5.288711999999999 -3.365544 -9.615908999999998 -5.288711999999999 -4.327197 -0.24039599999999997 0.48079199999999994 0.48079199999999994 0.7212569999999999 0.7211879999999998 0.24046499999999996Z" clip-rule="evenodd" stroke-width="1"></path><path fill="#000000" fill-rule="evenodd" d="M10.146519 23.084432999999997c0.9615839999999999 0.9615839999999999 0.9616529999999999 0.9615839999999999 0.9616529999999999 2.8847519999999993 0 0.7211879999999998 -0.24046499999999996 2.163564 0.48072299999999996 3.125148 0.9615839999999999 1.4423759999999997 2.163633 0.48079199999999994 3.1252169999999997 0 0.48079199999999994 -0.24039599999999997 -0.000069 -0.9615839999999999 -0.24046499999999996 -0.7211879999999998 -1.4423759999999997 0.48079199999999994 -1.9231679999999998 0.721326 -1.9231679999999998 -0.9614459999999999 0 -2.8847519999999993 0.48079199999999994 -3.60594 -1.6827029999999998 -4.807919999999999 -0.48079199999999994 -0.48079199999999994 -0.9616529999999999 0.240258 -0.7212569999999999 0.48065399999999997Z" clip-rule="evenodd" stroke-width="1"></path><path fill="#000000" fill-rule="evenodd" d="M14.954508 25.968908999999996c0.24039599999999997 0 0.48079199999999994 0.48079199999999994 0.48079199999999994 0.7211879999999998 0.24039599999999997 0.24039599999999997 0.48079199999999994 0.4808609999999999 0.7211879999999998 0.9616529999999999 0 0.24039599999999997 0 0.48079199999999994 0.24039599999999997 0.48079199999999994 0.7211879999999998 0 0.7211879999999998 -1.9231679999999998 -0.24039599999999997 -2.4039599999999997 -1.4423759999999997 -0.9615839999999999 -1.9231679999999998 -0.000069 -1.2019799999999998 0.24032699999999999Z" clip-rule="evenodd" stroke-width="1"></path><path fill="#000000" fill-rule="evenodd" d="M8.944676999999999 24.527223c0.7211879999999998 0.7211879999999998 1.682772 0.48072299999999996 2.163564 -0.24046499999999996 0.48079199999999994 -0.24039599999999997 0 -0.9615839999999999 -0.48079199999999994 -0.7211879999999998l-0.9615839999999999 0s-0.48079199999999994 0.24046499999999996 -0.7211879999999998 0.24046499999999996c0 -0.24039599999999997 -0.48079199999999994 0.48079199999999994 0 0.7211879999999998Z" clip-rule="evenodd" stroke-width="1"></path><path fill="#000000" fill-rule="evenodd" d="M8.944607999999999 22.844451c0.7211879999999998 0.48079199999999994 0.48079199999999994 0.48072299999999996 1.682772 0.24032699999999999 0.48079199999999994 0 0.7211879999999998 -0.48072299999999996 0.24039599999999997 -0.7211189999999998 -0.9615839999999999 -0.7211879999999998 -0.9615839999999999 -0.7211189999999998 -1.682772 -0.24039599999999997 -0.7211879999999998 0 -0.7211879999999998 0.7211879999999998 -0.24039599999999997 0.7211879999999998Z" clip-rule="evenodd" stroke-width="1"></path><path fill="#000000" fill-rule="evenodd" d="M12.069824999999998 22.363107c2.4039599999999997 0.7211879999999998 3.605871 -1.9231679999999998 6.490623 -4.327128 0.48079199999999994 -0.24039599999999997 0.000069 -0.9615839999999999 -0.48072299999999996 -0.48079199999999994 -4.567524 2.6443559999999997 -4.327128 4.327058999999999 -6.0099 4.327058999999999 -0.24039599999999997 -0.24039599999999997 -0.48079199999999994 0.24046499999999996 0 0.4808609999999999Z" clip-rule="evenodd" stroke-width="1"></path><path fill="#000000" fill-rule="evenodd" d="M14.714111999999998 22.363452c0.7211879999999998 0.7211879999999998 1.682772 0.7212569999999999 2.4039599999999997 0.24046499999999996 0.9615839999999999 -0.48079199999999994 1.442307 -1.4423759999999997 1.923099 -2.4039599999999997 0.24039599999999997 -0.48079199999999994 -0.24039599999999997 -0.7211879999999998 -0.48079199999999994 -0.48079199999999994 -0.7211879999999998 0.7211879999999998 -2.4039599999999997 2.163564 -3.365544 1.9231679999999998 -0.48079199999999994 -0.24039599999999997 -0.9615149999999999 0.48072299999999996 -0.48072299999999996 0.7211189999999998Z" clip-rule="evenodd" stroke-width="1"></path><path fill="#000000" fill-rule="evenodd" d="M16.396815 31.738274999999998c1.9231679999999998 0.7211879999999998 3.365544 -0.24039599999999997 4.807919999999999 -1.9231679999999998 0.24039599999999997 -0.24039599999999997 0 -0.9615839999999999 -0.48072299999999996 -0.48079199999999994 -0.7211879999999998 0.48079199999999994 -3.3656129999999997 1.682772 -4.327197 1.682772 -0.24039599999999997 -0.24039599999999997 -0.48079199999999994 0.48079199999999994 0 0.7211879999999998Z" clip-rule="evenodd" stroke-width="1"></path><path fill="#000000" fill-rule="evenodd" d="M25.006359 32.858214c-1.0004309999999998 -3.043659 0.6003 -4.058166 4.402131 -7.7105429999999995 -0.600231 -2.434872 -2.601231 -4.261025999999999 -4.202031 -5.88432 1.8008999999999997 4.464023999999999 -2.000931 4.464023999999999 -1.600731 9.130908 -2.601231 -1.2175049999999998 -2.000931 -2.029083 -8.003862 1.0145069999999998 -1.2006 0.608718 -1.4006999999999998 0.40578899999999996 -0.6003 0.8116469999999999 2.601231 -1.217436 4.802331 -2.2320119999999997 6.0028619999999995 -2.029083 2.2011 0.608718 2.6012999999999997 2.377464 1.899018 3.8841479999999997 -0.8003999999999999 1.217436 -2.1766739999999998 0.49604099999999995 -2.1766739999999998 0.090183 0 -0.40578899999999996 0.20009999999999997 -0.608718 0 -0.40578899999999996 -0.40019999999999994 0.20292899999999997 -1.400631 1.0145069999999998 -1.600731 1.217436 0.6003 0.608718 1.6783559999999997 1.3012709999999998 2.4787559999999997 1.5042 0.8003309999999999 0.608718 2.801262 -0.40585799999999994 3.4015619999999998 -1.6232939999999998Z" clip-rule="evenodd" stroke-width="1"></path><path fill="#000000" fill-rule="evenodd" d="M21.004289999999997 32.249357999999994c0 -0.20292899999999997 0.20009999999999997 -0.40585799999999994 0 -0.8116469999999999 -0.20009999999999997 -0.20292899999999997 -0.40013099999999996 -0.20292899999999997 -0.600231 0 -0.40019999999999994 0.20292899999999997 -1.8008309999999998 1.217436 -1.8008309999999998 1.623225 0 0.40585799999999994 1.200531 1.2175049999999998 1.400631 1.420434 1.0004309999999998 0.608718 1.8008309999999998 0.8115779999999999 3.0014309999999997 0.40571999999999997 1.2006 -0.40578899999999996 2.201031 -1.4202959999999998 2.201031 -1.8261539999999998 0.40019999999999994 -0.608718 -1.600731 -1.623225 2.2011 -5.478530999999999 2.001 -2.029083 2.4012 -2.029083 2.4012 -2.434872 -0.6003 -2.637801 -2.4012 -4.464023999999999 -4.402131 -6.290177999999999 -0.40019999999999994 -0.40578899999999996 -1.2006 0 -1.0005 0.608718 1.4006999999999998 3.8553059999999997 -1.8008999999999997 4.261095 -1.8008999999999997 7.7105429999999995 -2.000931 -1.217436 -2.801331 -0.8116469999999999 -7.603661999999999 1.6232939999999998 -1.2006 0.608718 -1.400631 0.608718 -1.600731 1.0145069999999998 0 0.40585799999999994 0.40013099999999996 0.608718 0.8003309999999999 0.8116469999999999 0.8003999999999999 0.40578899999999996 4.802331 -2.434872 6.002930999999999 -2.029083 0.8003999999999999 0.20292899999999997 1.600731 0.608718 2.000931 1.217436 0.6003 0.8116469999999999 0.676476 1.7436989999999999 0.276207 2.211036 -0.44629199999999997 0.750168 -1.276707 0.426765 -1.4768069999999998 0.223905Zm3.6017999999999994 0.608649c-1.0005 -3.0435899999999996 1.0005 -4.869744 4.202031 -7.710474 -0.40019999999999994 -1.6232939999999998 -1.6007999999999998 -2.8407299999999998 -2.8013999999999997 -4.058166 0 4.058166 -2.401131 3.2465189999999997 -2.000931 7.304684999999999 0 0.40585799999999994 -0.40019999999999994 0.8116469999999999 -1.0005 0.608718 -0.20009999999999997 0 0 0.000069 0.20009999999999997 0.40585799999999994 0.8003999999999999 1.014576 0.40019999999999994 2.2320119999999997 -0.20009999999999997 3.2465189999999997 -1.0005 1.4203649999999999 -2.601231 0.608787 -3.0014309999999997 0l-0.6003 0.40578899999999996c0.20009999999999997 0.20292899999999997 0.6003 0.40578899999999996 0.8003999999999999 0.8116469999999999 1.8008309999999998 1.217436 3.6017309999999996 0 4.402131 -1.014576Z" clip-rule="evenodd" stroke-width="1"></path><path fill="#000000" fill-rule="evenodd" d="M28.897475999999997 21.641643c1.2019799999999998 0.24039599999999997 2.403891 3.125148 3.365475 4.807919999999999 0.24039599999999997 0.48079199999999994 0.9615839999999999 0.000069 0.7211879999999998 -0.24032699999999999 -0.7211879999999998 -1.4423759999999997 -1.4423759999999997 -3.125148 -2.163564 -4.086732 -1.682772 -2.4039599999999997 -3.605871 -1.6828409999999998 -3.1250789999999995 0.24032699999999999 0.9615839999999999 3.365544 3.8462669999999997 6.009830999999999 2.884683 11.538938999999997 0 0.48079199999999994 0.4808609999999999 0.7212569999999999 0.7212569999999999 0.24046499999999996 0.48079199999999994 -2.163564 0.7211879999999998 -3.8463359999999995 0 -5.769503999999999 0 -1.4423759999999997 -2.4039599999999997 -6.490692 -2.4039599999999997 -6.731088Z" clip-rule="evenodd" stroke-width="1"></path><path fill="#000000" fill-rule="evenodd" d="M30.339713999999997 15.151503c1.9231679999999998 0.9615839999999999 0.7211189999999998 4.567593 2.884683 8.654325 0.24039599999999997 0.48079199999999994 0.9616529999999999 0.240258 0.7212569999999999 -0.240534 -1.682772 -3.60594 -0.24046499999999996 -4.567455 -1.442445 -7.452207 -0.9615839999999999 -2.6443559999999997 -3.1250789999999995 -2.6443559999999997 -3.365475 -1.2019799999999998 -0.48079199999999994 1.4423759999999997 0.24032699999999999 5.529038999999999 0.7211189999999998 6.9714149999999995 0 0.48079199999999994 0.7211879999999998 0.24046499999999996 0.7211879999999998 -0.24032699999999999 -0.24039599999999997 -0.9615839999999999 -0.7211189999999998 -6.731088 -0.24032699999999999 -6.490692Z" clip-rule="evenodd" stroke-width="1"></path><path fill="#000000" fill-rule="evenodd" d="M32.022417 12.265992c1.682772 1.2019799999999998 1.682772 11.058353999999998 3.365544 10.337166 0.48079199999999994 -0.24039599999999997 0.000069 -0.4808609999999999 -0.24032699999999999 -2.163633 -0.48079199999999994 -2.163564 -0.000069 -4.567524 -0.9616529999999999 -7.21188 -0.9615839999999999 -2.8847519999999993 -3.125148 -2.644287 -3.125148 -0.7211189999999998 0 0.48079199999999994 0.000069 0.9615839999999999 0.24046499999999996 2.4039599999999997 0 0.48079199999999994 0.7211189999999998 0.48079199999999994 0.7211189999999998 0 0 -0.9615839999999999 -0.24039599999999997 -2.163702 0 -2.6444939999999995Z" clip-rule="evenodd" stroke-width="1"></path><path fill="#000000" fill-rule="evenodd" d="M34.666911 15.872483999999998c0 -0.48079199999999994 0.48079199999999994 -3.365544 0.7211879999999998 -3.125148 1.2019799999999998 1.2019799999999998 0.000069 8.173464 3.125148 13.221779999999999 0.24039599999999997 0.48079199999999994 0.7211879999999998 0.9615839999999999 1.2019799999999998 1.682772 0 0.24039599999999997 0.24039599999999997 0.24032699999999999 0.48079199999999994 0.24032699999999999 0.9615839999999999 -0.48079199999999994 -0.9615839999999999 -0.48072299999999996 -2.163564 -6.250226999999999 -1.2019799999999998 -5.529107999999999 -0.48079199999999994 -7.933067999999999 -1.9231679999999998 -9.375444 -0.7211189999999998 -0.7211879999999998 -1.4423759999999997 -0.48079199999999994 -1.9231679999999998 0.48079199999999994 -0.24039599999999997 0.48079199999999994 -0.24032699999999999 1.2019799999999998 -0.24032699999999999 3.125148 0 0.48079199999999994 0.7211189999999998 0.48079199999999994 0.7211189999999998 0Z" clip-rule="evenodd" stroke-width="1"></path><path fill="#000000" fill-rule="evenodd" d="M35.628633 39.190895999999995c2.4039599999999997 -4.327128 5.769503999999999 -4.807850999999999 6.490692 -8.654186999999999 0.48079199999999994 -1.9231679999999998 0 -3.605871 0.24039599999999997 -5.529038999999999 0.24039599999999997 -1.4423759999999997 0.9615839999999999 -3.365544 0 -4.807919999999999s-2.4039599999999997 -0.721326 -3.125148 0.48065399999999997c-0.9615839999999999 1.682772 -0.48079199999999994 3.6060089999999994 -0.48079199999999994 5.048385 0 0.48079199999999994 0.7211879999999998 0.48079199999999994 0.7211879999999998 0 0 -1.682772 0 -3.3656129999999997 0.7211879999999998 -4.567593 0.24032699999999999 -0.48079199999999994 0.9615839999999999 -0.9615839999999999 1.4423759999999997 -0.48079199999999994 0.48079199999999994 0.9615839999999999 -0.24046499999999996 2.8847519999999993 -0.24046499999999996 4.086732 -0.24039599999999997 1.682772 0.000069 3.6060089999999994 -0.24032699999999999 5.288781 -0.48079199999999994 2.403891 -2.4039599999999997 3.8462669999999997 -4.086732 5.529038999999999 -0.9615839999999999 0.9615839999999999 -1.201911 1.9231679999999998 -1.923099 2.8847519999999993 -0.24039599999999997 0.7211879999999998 0.24032699999999999 1.2019799999999998 0.48072299999999996 0.7211879999999998Z" clip-rule="evenodd" stroke-width="1"></path><path fill="#000000" fill-rule="evenodd" d="M37.311198 27.652026c-0.7211879999999998 1.4423759999999997 -0.9615839999999999 2.884683 0 5.048247 0.24039599999999997 0.48079199999999994 0.7211879999999998 0.24046499999999996 0.7211879999999998 -0.24032699999999999 -0.24039599999999997 -1.682772 0.24032699999999999 -5.048247 -0.24046499999999996 -5.048247 -0.24039599999999997 -0.24039599999999997 -0.48072299999999996 -0.000069 -0.48072299999999996 0.24032699999999999Z" clip-rule="evenodd" stroke-width="1"></path><path fill="#000000" fill-rule="evenodd" d="M26.493378 6.496950299999999c8.41386 -4.0867251 15.866066999999997 -4.0868148 21.395175 3.3654267 5.048316 6.731088 2.1634949999999997 10.817889 3.1250789999999995 11.058284999999998 0.9615839999999999 0.24039599999999997 1.6828409999999998 -6.250296 -2.1634949999999997 -11.779404 -2.4039599999999997 -3.3655578 -6.0099 -6.0099345 -9.856235999999999 -6.4907265 -4.807919999999999 -0.7211811 -8.413790999999998 1.2020973 -12.740918999999998 3.1252583999999994 -0.48079199999999994 0.24039599999999997 0 0.7211604 0.24039599999999997 0.7211604Z" clip-rule="evenodd" stroke-width="1"></path><path fill="#000000" fill-rule="evenodd" d="M38.753712 15.632019c2.6443559999999997 -1.682772 5.769503999999999 -4.086663 5.288711999999999 -7.452207 -0.48079199999999994 -2.8847658 -3.8463359999999995 -4.0867664999999995 -6.731088 -4.0867664999999995 -1.4423759999999997 0 -3.1250789999999995 0.48075749999999995 -4.567455 0.7211535 -0.24039599999999997 0 -0.24046499999999996 0.2404236 -0.24046499999999996 0.48081959999999996 0.24039599999999997 0.7211879999999998 1.2019799999999998 -0.2404857 4.807919999999999 -0.2404857 5.769503999999999 0.24039599999999997 8.41386 4.327190099999999 1.2019799999999998 9.8562981 -0.7211879999999998 0.48079199999999994 -0.24039599999999997 0.9615839999999999 0.24039599999999997 0.7211879999999998Z" clip-rule="evenodd" stroke-width="1"></path><path fill="#000000" fill-rule="evenodd" d="M42.359514 24.286827c5.288711999999999 -4.086663 8.41386 -3.365475 12.981384 -0.24032699999999999 3.8463359999999995 2.6443559999999997 7.932998999999999 6.490692 10.577354999999999 9.615839999999999 0.24039599999999997 0.48079199999999994 0.9616529999999999 -0.000069 0.4808609999999999 -0.48079199999999994 -3.60594 -4.567524 -11.539007999999997 -13.221710999999999 -17.308512 -12.981315 -2.8847519999999993 0.24039599999999997 -5.048316 1.6827029999999998 -7.21188 3.365475 -0.24039599999999997 0.48079199999999994 0 0.9615149999999999 0.48079199999999994 0.7211189999999998Z" clip-rule="evenodd" stroke-width="1"></path><path fill="#000000" fill-rule="evenodd" d="M9.4254 25.728719999999996c-1.9231679999999998 3.365475 -2.404029 4.086732 -0.4808609999999999 7.692671999999999C6.3002175000000005 38.710103999999994 1.2519429 45.921915 2.21352 52.172211c0.9615839999999999 6.9714149999999995 9.856235999999999 18.990938999999997 18.270096 10.577285999999999 0 6.0099 -0.24039599999999997 6.2503649999999995 0.24039599999999997 6.2503649999999995s0.24032699999999999 -0.000069 0.48072299999999996 -7.452344999999999c0 -0.48079199999999994 -0.48072299999999996 -0.7211189999999998 -0.7211189999999998 -0.24032699999999999 -1.4423759999999997 1.4423759999999997 -3.125148 2.884821 -5.048316 3.3656129999999997 -5.529107999999999 0.9615839999999999 -11.298612 -7.21188 -12.0198 -12.500592 -0.7211879999999998 -5.769503999999999 3.8463359999999995 -12.981384 6.490692 -18.510492 0.24039599999999997 -0.48079199999999994 -1.4423759999999997 -2.1634949999999997 -1.4423759999999997 -3.8462669999999997 0 -1.9231679999999998 1.9231679999999998 -3.60594 1.4423759999999997 -4.086732 -0.24039599999999997 -0.24039599999999997 -0.24039599999999997 0 -0.48079199999999994 0Z" clip-rule="evenodd" stroke-width="1"></path><path fill="#000000" fill-rule="evenodd" d="M26.49324 55.297497c3.125148 -1.4423759999999997 7.21188 -5.769503999999999 8.41386 -9.615839999999999 5.288711999999999 -2.4039599999999997 4.807919999999999 -7.692602999999999 2.4039599999999997 -9.856167 -0.9615839999999999 -0.7211879999999998 -1.4423759999999997 1.2019799999999998 -2.6443559999999997 2.4039599999999997 -0.48079199999999994 -0.48079199999999994 -0.9615839999999999 -0.9616529999999999 -1.4423759999999997 -1.442445 -2.6443559999999997 -3.365544 -1.682772 -5.529107999999999 -4.807919999999999 -2.4039599999999997 -0.7211879999999998 0.7211879999999998 -1.4423759999999997 1.442445 -1.9231679999999998 2.163633 -0.7211879999999998 -0.24039599999999997 -1.2019799999999998 -0.24039599999999997 -1.9231679999999998 0 -2.163564 0.48079199999999994 -9.134979 6.731088 -11.298543 8.894651999999999 -2.8847519999999993 -0.48079199999999994 -5.288711999999999 0.7211189999999998 -7.692692699999999 2.644287 -0.24039599999999997 0.24039599999999997 -0.24039599999999997 0.24046499999999996 0 0.4808609999999999 0.7211879999999998 0.7211879999999998 2.8847727 -3.1252169999999997 7.692692699999999 -2.163633 0.7211879999999998 0.24039599999999997 -1.2019799999999998 0.4808609999999999 9.134979 -7.452207 1.2019799999999998 -0.7211879999999998 2.4039599999999997 -1.9231679999999998 3.60594 -1.2019799999999998 0.9615839999999999 0.48079199999999994 1.4423759999999997 -1.6828409999999998 4.086732 -3.3656129999999997 0.9615839999999999 1.9231679999999998 3.8463359999999995 6.2503649999999995 5.048316 5.048385 0.7211879999999998 -0.7211879999999998 0.9615149999999999 -1.4423759999999997 1.442307 -2.163564 0.9615839999999999 1.4423759999999997 1.202049 3.605871 0.24046499999999996 5.048247 -0.7211879999999998 1.2019799999999998 -1.9231679999999998 1.923099 -3.125148 2.403891 -0.7211879999999998 0.24039599999999997 -0.24039599999999997 2.163633 -3.365475 5.769573 -3.125148 3.8463359999999995 -4.327197 3.3656129999999997 -5.288781 4.567593 -1.4423759999999997 1.9231679999999998 -3.1250789999999995 4.327128 -4.567455 6.0099 -0.24039599999999997 0.24039599999999997 0.24032699999999999 0.7210499999999999 0.48072299999999996 0.48065399999999997 2.4039599999999997 -1.9231679999999998 5.048316 -5.529038999999999 5.529107999999999 -6.250226999999999Z" clip-rule="evenodd" stroke-width="1"></path><path fill="#000000" fill-rule="evenodd" d="M26.733911999999997 37.267452c0.48079199999999994 3.8463359999999995 2.4039599999999997 6.490692 5.769503999999999 7.933067999999999 0.48079199999999994 0.24039599999999997 0.7211879999999998 -0.48079199999999994 0.24039599999999997 -0.7211879999999998 -2.4039599999999997 -1.682772 -4.567524 -5.048247 -5.288711999999999 -7.452207 -0.24039599999999997 -0.24039599999999997 -0.9615839999999999 -0.24046499999999996 -0.7211879999999998 0.24032699999999999Z" clip-rule="evenodd" stroke-width="1"></path><path fill="#000000" fill-rule="evenodd" d="M16.877537999999998 42.556577999999995c-0.24039599999999997 6.009830999999999 2.8847519999999993 10.577285999999999 7.4522759999999995 12.260057999999999 0.48079199999999994 0.24039599999999997 0.7211189999999998 -0.48072299999999996 0.24032699999999999 -0.7211189999999998 -3.8463359999999995 -1.682772 -6.9714149999999995 -7.4522759999999995 -6.9714149999999995 -11.538938999999997 0 -0.48079199999999994 -0.7211879999999998 -0.48079199999999994 -0.7211879999999998 0Z" clip-rule="evenodd" stroke-width="1"></path><path fill="#000000" fill-rule="evenodd" d="M12.550272 37.507847999999996c1.4423759999999997 2.8847519999999993 2.163633 3.3656129999999997 4.567593 5.769573 0.24039599999999997 0.24039599999999997 0.9615149999999999 0 0.48072299999999996 -0.48079199999999994 -3.365544 -4.567524 -1.6827029999999998 -2.6443559999999997 -4.567455 -5.529107999999999 -0.24039599999999997 -0.7211879999999998 -0.7212569999999999 -0.24046499999999996 -0.4808609999999999 0.24032699999999999Z" clip-rule="evenodd" stroke-width="1"></path><path fill="#000000" fill-rule="evenodd" d="M29.378199 25.247652c-6.0099 3.60594 -6.250226999999999 8.654186999999999 -2.644287 10.336958999999998 0.48079199999999994 0.24039599999999997 1.2019799999999998 0.48079199999999994 1.2019799999999998 0 0.24039599999999997 -0.48079199999999994 -0.24046499999999996 -0.48072299999999996 -0.9616529999999999 -0.7211189999999998 -3.365544 -2.163564 -0.7211879999999998 -6.490692 2.6443559999999997 -8.894651999999999 0.7211879999999998 -0.24039599999999997 0.24039599999999997 -0.9615839999999999 -0.24039599999999997 -0.7211879999999998Z" clip-rule="evenodd" stroke-width="1"></path><path fill="#000000" fill-rule="evenodd" d="M20.002823999999997 34.623165c1.2019799999999998 1.2019799999999998 1.6828409999999998 1.9230299999999998 4.0868009999999995 2.884614 0.48079199999999994 0.24039599999999997 0.7211879999999998 -0.48079199999999994 0.24039599999999997 -0.7211189999999998 -1.9231679999999998 -1.4423759999999997 -1.202049 -1.202049 -4.086732 -2.884821 0 0 -0.4808609999999999 0.4809299999999999 -0.24046499999999996 0.721326Z" clip-rule="evenodd" stroke-width="1"></path><path fill="#000000" fill-rule="evenodd" d="M13.511993999999998 33.902252999999995c2.6443559999999997 2.6443559999999997 5.769434999999999 3.8464049999999994 7.452207 5.769573 0.24039599999999997 0.48079199999999994 0.9615839999999999 -0.000069 0.48079199999999994 -0.4808609999999999 -2.403891 -3.125148 -5.769503999999999 -4.567385999999999 -7.4522759999999995 -5.769366 -0.48079199999999994 -0.24039599999999997 -0.7211189999999998 0.240258 -0.48072299999999996 0.48065399999999997Z" clip-rule="evenodd" stroke-width="1"></path><path fill="#000000" fill-rule="evenodd" d="M32.503416 48.56640899999999c0.24039599999999997 2.4039599999999997 0.7211879999999998 10.096563 0.7211879999999998 11.779335 0.24039599999999997 8.173395 -0.48079199999999994 8.173395 0.24039599999999997 8.413790999999998 0.24039599999999997 0 0.4808609999999999 -0.24032699999999999 0.4808609999999999 -0.24032699999999999 0.9615839999999999 -9.375444 0.7211189999999998 -12.500523 -0.7212569999999999 -19.952799 -0.24039599999999997 -0.48079199999999994 -0.7211879999999998 -0.48079199999999994 -0.7211879999999998 0Z" clip-rule="evenodd" stroke-width="1"></path><path fill="#000000" fill-rule="evenodd" d="M34.185981 44.961020999999995c0.7211879999999998 8.654256 0.7211879999999998 12.981384 4.327128 23.318412 0.24039599999999997 0.48079199999999994 0.7211879999999998 0.240258 0.7211879999999998 -0.240534 -2.8847519999999993 -9.375375 -3.8463359999999995 -23.55867 -4.567524 -23.55867 -0.48079199999999994 0.24032699999999999 -0.7211879999999998 0.24039599999999997 -0.48079199999999994 0.48079199999999994Z" clip-rule="evenodd" stroke-width="1"></path><path fill="#000000" fill-rule="evenodd" d="M55.100432999999995 26.930906999999994c-3.8462669999999997 4.807919999999999 -5.769503999999999 13.702571999999998 -2.6443559999999997 22.356758999999997 2.6443559999999997 7.21188 7.933067999999999 12.741056999999998 13.462176 17.789303999999998 0.24039599999999997 0.24039599999999997 0.7211879999999998 -0.24039599999999997 0.48079199999999994 -0.48079199999999994C57.023669999999996 57.94192199999999 49.811721 47.12410199999999 52.456077 34.38311399999999c0.48079199999999994 -2.6443559999999997 1.442445 -5.048316 3.1252169999999997 -7.211811 0.48079199999999994 -0.24039599999999997 -0.000069 -0.7211879999999998 -0.4808609999999999 -0.24039599999999997Z" clip-rule="evenodd" stroke-width="1"></path><path fill="#000000" fill-rule="evenodd" d="M38.99397 66.83622899999999c6.0099 -1.442307 12.260195999999999 -2.1634949999999997 18.991283999999997 -7.932998999999999 0.48079199999999994 -0.24039599999999997 0 -0.9615839999999999 -0.48079199999999994 -0.48079199999999994 -6.490692 5.288711999999999 -19.231610999999997 7.21188 -18.991214999999997 8.173464 0.24039599999999997 0.24039599999999997 0.48072299999999996 0.24032699999999999 0.48072299999999996 0.24032699999999999Z" clip-rule="evenodd" stroke-width="1"></path><path fill="#000000" fill-rule="evenodd" d="M20.724080999999998 66.355713c4.567455 1.201911 8.413790999999998 1.9231679999999998 12.981315 0.48079199999999994 0.48079199999999994 0 0.24039599999999997 -0.7211879999999998 -0.24039599999999997 -0.7211879999999998 -3.125148 0.7211879999999998 -9.615839999999999 0 -12.500592 -0.48079199999999994 -0.7211879999999998 0 -0.7211189999999998 0.7211879999999998 -0.24032699999999999 0.7211879999999998Z" clip-rule="evenodd" stroke-width="1"></path><path fill="#000000" fill-rule="evenodd" d="M35.868891 52.412607c3.60594 -0.7211879999999998 9.375444 -0.9615149999999999 16.346859 -4.567455 0.48079199999999994 -0.24039599999999997 0.24046499999999996 -0.9616529999999999 -0.24032699999999999 -0.7212569999999999 -4.567524 2.1634949999999997 -16.587324 4.0868009999999995 -16.346928 5.048385 0 0.24039599999999997 0 0.48072299999999996 0.24039599999999997 0.24032699999999999Z" clip-rule="evenodd" stroke-width="1"></path><path fill="#000000" fill-rule="evenodd" d="M29.618457 53.37398399999999c1.4423759999999997 0.24039599999999997 1.4423759999999997 0.48079199999999994 3.8463359999999995 0 0.48079199999999994 0 0.48079199999999994 -0.7211879999999998 0 -0.7211879999999998 -1.9231679999999998 -0.24039599999999997 -1.9231679999999998 -0.48079199999999994 -3.8463359999999995 0 -0.48079199999999994 0 -0.48079199999999994 0.7211879999999998 0 0.7211879999999998Z" clip-rule="evenodd" stroke-width="1"></path></svg>