<svg xmlns="http://www.w3.org/2000/svg" fill="none" viewBox="-0.5 -0.5 70 70" id="Drake-Hotline-Bling-Yes-Hand-Drawn--Streamline-Memes.svg" height="70" width="70"><desc>Drake Hotline Bling Yes Hand Drawn Streamline Element: https://streamlinehq.com</desc><path fill="#000000" fill-rule="evenodd" d="M40.671774 4.997807999999999C32.775138 4.559106 31.020260999999994 11.139636 30.581559 18.81699C30.362208 21.229851 29.923436999999996 23.862063 31.458962999999997 26.055572999999995C35.846052 32.636171999999995 40.452422999999996 32.636103 44.839512 27.810381C47.033021999999995 25.397519999999997 47.033021999999995 24.739535999999998 47.691075 21.887973C47.691075 21.449270999999996 47.252303999999995 21.229851 47.033021999999995 21.668553C46.37489999999999 24.300765 46.37489999999999 24.958817999999997 44.40081 27.152327999999997C39.794301 31.758698999999996 36.065334 30.662081999999998 32.555718 25.178238C31.239611999999997 23.204079 31.897733999999996 20.791218 31.897733999999996 18.597707999999997C32.117016 13.113933 32.775069 6.971966999999999 38.25891299999999 5.655860999999999C39.136317 5.436509999999999 40.013721 5.2172279999999995 40.891124999999995 5.436579C41.110406999999995 5.875281 41.110476 5.217159 40.671774 4.997807999999999Z" clip-rule="evenodd" stroke-width="1"></path><path fill="#000000" fill-rule="evenodd" d="M48.787760999999996 18.597984C49.445814 12.456086999999998 47.47165499999999 7.849716 41.987811 5.436786C41.549108999999994 5.217434999999999 41.329826999999995 5.875488 41.768529 6.0948389999999995C46.37489999999999 8.288349 48.129708 13.333421999999999 47.691006 18.378494999999997C47.691006 19.47525 48.349059 19.475388 48.787760999999996 19.69467C50.103866999999994 21.230196 47.910357 24.520461 46.594251 24.081758999999998C46.15554899999999 23.862408 45.936128999999994 24.520391999999998 46.374831 24.739811999999997C48.56840999999999 25.617215999999996 52.078025999999994 19.914089999999998 48.787760999999996 18.597984Z" clip-rule="evenodd" stroke-width="1"></path><path fill="#000000" fill-rule="evenodd" d="M31.020260999999994 17.50047C29.265452999999997 17.061767999999997 27.949347 19.474629 29.265452999999997 21.88749C29.704155 22.764894 31.020329999999998 23.642298 31.239611999999997 22.984313999999998C31.239611999999997 22.764894 31.239611999999997 22.545543 31.020260999999994 22.545543C29.923506 22.106840999999996 29.484803999999997 18.377805 31.020260999999994 18.377805C31.239611999999997 18.158454 31.458962999999997 17.50047 31.020260999999994 17.50047Z" clip-rule="evenodd" stroke-width="1"></path><path fill="#000000" fill-rule="evenodd" d="M33.652542 15.087746999999998C35.407419 15.965150999999997 36.942876 15.087815999999998 37.381578 13.771640999999999C37.600929 13.332939 36.942876 13.113587999999998 36.723524999999995 13.552289999999998C36.065472 14.210273999999998 34.31059499999999 14.648976 33.652542 14.648976C33.433190999999994 14.429694 33.21384 14.868395999999999 33.652542 15.087746999999998Z" clip-rule="evenodd" stroke-width="1"></path><path fill="#000000" fill-rule="evenodd" d="M44.619954 15.745662C45.058656 15.745662 45.058656 15.087608999999999 44.619954 15.087608999999999C43.961969999999994 15.087608999999999 41.768391 13.552220999999998 41.329688999999995 13.771503C40.890987 14.429625 42.865145999999996 16.403715 44.619954 15.745662Z" clip-rule="evenodd" stroke-width="1"></path><path fill="#000000" fill-rule="evenodd" d="M34.749297 21.449270999999996S34.530015 21.668691 34.530015 21.887973C34.530015 22.107393000000002 34.749297 22.107254999999995 34.749297 22.326605999999998C34.749297 22.765308 35.407419 22.765308 35.407419 22.326605999999998C35.846121 21.887904 35.846121 21.668553 35.407419 21.229851C35.187999 21.010430999999997 34.530015 21.010568999999997 34.749297 21.449270999999996Z" clip-rule="evenodd" stroke-width="1"></path><path fill="#000000" fill-rule="evenodd" d="M41.768391 23.204424C42.20709299999999 22.765721999999997 42.20709299999999 22.985003999999996 42.20709299999999 22.107669C42.426444 21.668967 41.768391 21.449616 41.54904 21.888317999999998C40.890987 22.327088999999997 40.890987 22.327088999999997 40.890987 22.985073C41.110268999999995 23.204493 41.54904 23.423706 41.768391 23.204424Z" clip-rule="evenodd" stroke-width="1"></path><path fill="#000000" fill-rule="evenodd" d="M35.407281 22.107461999999998C37.162088999999995 20.571935999999997 40.013652 21.230058 41.76846 22.546164C41.987811 22.765514999999997 42.42651299999999 22.326743999999998 42.207162 22.107461999999998C40.013652 19.694532 36.942669 19.036478999999996 34.968579 21.668691C34.529877 21.888042 34.968579 22.326743999999998 35.407281 22.107461999999998Z" clip-rule="evenodd" stroke-width="1"></path><path fill="#000000" fill-rule="evenodd" d="M33.213770999999994 13.333698C33.871824 12.675645 34.529945999999995 11.798240999999999 35.407349999999994 11.798240999999999C36.723456 11.578889999999998 37.162158 12.236942999999998 37.381508999999994 11.798240999999999C37.60086 11.140187999999998 36.065334 10.701486 35.407349999999994 10.701486C33.652473 10.482135 32.99442 12.236942999999998 32.555718 13.114415999999999C32.336366999999996 13.333767 32.99442 13.7724 33.213770999999994 13.333698Z" clip-rule="evenodd" stroke-width="1"></path><path fill="#000000" fill-rule="evenodd" d="M41.768736 12.455604C42.646139999999995 12.236252999999998 43.523543999999994 12.236321999999998 44.40094799999999 12.675023999999999C45.93640499999999 13.552427999999999 45.717054 14.429901 46.375037999999996 14.210480999999998C47.033159999999995 13.771778999999999 44.83965 9.823323 42.207437999999996 11.358849C40.891262999999995 12.236252999999998 41.549316 12.674954999999999 41.768736 12.455604Z" clip-rule="evenodd" stroke-width="1"></path><path fill="#000000" fill-rule="evenodd" d="M38.039631 18.378287999999998C33.213908999999994 18.817059 33.43326 21.010568999999997 32.117154 23.862201C31.897803 24.520184999999994 31.239749999999997 23.86227 31.239749999999997 24.081551999999995C31.239749999999997 24.300971999999998 32.336504999999995 25.836428999999995 32.555856 26.275131C34.091313 28.249221 35.846121 30.662150999999998 38.697753 30.662150999999998C44.400879 30.442799999999995 47.691143999999994 23.204079 46.375037999999996 23.42343C45.49763399999999 23.642780999999996 44.62023 24.081483 43.742826 22.765376999999997C43.304123999999995 22.107324 43.304123999999995 21.22992 43.08477299999999 20.571866999999997C42.646071 20.571866999999997 40.891262999999995 18.159005999999998 38.039631 18.378287999999998ZM39.136385999999995 19.255761C35.84619 19.036478999999996 34.530015 20.352584999999998 33.652611 23.204147999999996C33.652611 23.423498999999996 33.43326 23.862201 33.43326 24.300902999999998C33.65268 24.958956 34.968786 25.397657999999996 35.62677 25.397657999999996C36.504174 25.397657999999996 36.942876 24.081483 36.942876 23.862201C36.723594 23.423498999999996 35.407487999999994 22.984797 36.504174 22.546094999999998C37.162296 22.326743999999998 38.697753 22.326743999999998 39.355737 22.984865999999997C39.575157 23.423568 39.136455 23.642780999999996 38.917035 23.862201C38.478333 25.617009 40.671842999999996 26.274993 41.98794899999999 24.520184999999994C43.742826 22.326674999999998 41.549246999999994 19.694463 39.136385999999995 19.255761Z" clip-rule="evenodd" stroke-width="1"></path><path fill="#000000" fill-rule="evenodd" d="M37.162088999999995 17.720373C37.820073 18.159143999999998 38.039493 18.159143999999998 38.25877499999999 18.159143999999998C38.478195 18.159143999999998 38.478195 17.939724 38.25877499999999 17.720373C37.600790999999994 15.526862999999999 35.845914 17.062389 36.503966999999996 17.501091L36.723386999999995 17.720373H37.162088999999995Z" clip-rule="evenodd" stroke-width="1"></path><path fill="#000000" d="M40.891194 17.501091C40.891194 17.720442 40.594286999999994 17.806347 40.594286999999994 17.806347C40.015238999999994 18.013761 39.972735 17.964288 39.355737 17.939655C39.136385999999995 18.159074999999998 38.697683999999995 17.501022 39.136385999999995 17.281671L39.575088 16.842969C40.01379 16.623548999999997 40.671842999999996 16.623548999999997 40.671842999999996 16.842969C40.671842999999996 16.842969 40.891194 16.843038 40.891194 17.06232V17.501091Z" stroke-width="1"></path><path fill="#000000" fill-rule="evenodd" d="M36.284684999999996 15.746351999999998C35.187861 16.185123 34.96851 17.062596 35.407211999999994 17.501298C35.626563 17.939999999999998 36.284684999999996 18.598122 36.723386999999995 18.159351V17.720648999999998C36.503966999999996 17.501229 36.723386999999995 17.062527 36.723386999999995 16.843176C36.723386999999995 16.623825 36.723318 16.404473999999997 36.942669 16.185123C36.942669 15.965772 36.723386999999995 15.527069999999998 36.284684999999996 15.746351999999998Z" clip-rule="evenodd" stroke-width="1"></path><path fill="#000000" fill-rule="evenodd" d="M41.110406999999995 16.623894V17.281947C41.110406999999995 17.501298 41.110338 17.940068999999998 40.891056 18.15942C40.671636 18.15942 40.671704999999996 18.378770999999997 40.671704999999996 18.598191C41.110406999999995 19.256175 42.42651299999999 17.939999999999998 41.987811 16.843245C41.549108999999994 15.527138999999998 40.671704999999996 16.185192 41.110406999999995 16.623894Z" clip-rule="evenodd" stroke-width="1"></path><path fill="#000000" fill-rule="evenodd" d="M40.452422999999996 53.474999999999994C40.013721 54.13312199999999 40.013721 54.79110599999999 40.452422999999996 55.22980799999999C40.891124999999995 55.88793 41.549178 55.88793 41.768529 56.10728099999999C41.329826999999995 59.836317 47.252303999999995 58.08143999999999 48.787760999999996 58.95884399999999C49.22646299999999 59.178194999999995 49.445814 59.836248 49.665164999999995 59.616897C50.103866999999994 59.39754599999999 49.445814 58.739492999999996 49.00711199999999 58.30079099999999C47.032953 56.984685 42.426581999999996 58.52027999999999 42.645933 55.887999C42.865283999999996 55.010594999999995 40.891124999999995 55.010594999999995 41.110476 54.352472999999996C41.768529 53.255717999999995 41.987811 53.036435999999995 40.891124999999995 52.597733999999996C38.258843999999996 50.842926 45.278145 51.062139 48.56840999999999 51.93954299999999C49.00711199999999 52.15896299999999 49.22646299999999 51.500841 48.787760999999996 51.281558999999994C40.233003 48.210645 37.820142 51.720261 40.452422999999996 53.475069Z" clip-rule="evenodd" stroke-width="1"></path><path fill="#000000" fill-rule="evenodd" d="M44.839442999999996 58.519451999999994C45.278145 65.97745499999999 53.394201 64.222716 52.078025999999994 56.984064C52.078025999999994 56.764713 52.297377 56.325942 52.297377 56.10665999999999C52.51672799999999 55.009836 52.07809499999999 54.57106499999999 51.63939299999999 54.13236299999999V53.035608C51.41997299999999 51.938853 50.761919999999996 51.28079999999999 49.66509599999999 50.842098C49.226394 50.622678 49.00711199999999 51.280938 49.445814 51.50022C51.858675 52.59704399999999 50.542569 53.69372999999999 50.761919999999996 54.351851999999994C50.981271 54.79055399999999 51.200621999999996 55.009836 51.200621999999996 55.448538C51.200621999999996 55.667958 50.761919999999996 56.325942 50.761919999999996 56.54536199999999C50.542569 57.20341499999999 50.981271 58.080749999999995 50.761919999999996 59.396856C49.884516 63.125823 45.936128999999994 62.90654099999999 45.278145 58.300101C45.497426999999995 58.080749999999995 44.839442999999996 58.08068099999999 44.839442999999996 58.519451999999994Z" clip-rule="evenodd" stroke-width="1"></path><path fill="#000000" fill-rule="evenodd" d="M46.155687 51.280592999999996C46.59438899999999 50.84189099999999 53.174918999999996 42.72590399999999 53.613621 44.04201C53.832972 45.79688699999999 49.22653199999999 49.30650299999999 49.884654 51.500012999999996C50.103936 51.938714999999995 50.542638000000004 51.719294999999995 50.542638000000004 51.280592999999996C50.103936 49.74513599999999 54.71044499999999 46.454871 54.92972699999999 44.48078099999999C54.92972699999999 43.603376999999995 54.49102499999999 42.506553 53.39426999999999 42.725972999999996C51.20075999999999 43.164674999999995 47.03309099999999 49.306365 45.936266999999994 50.84189099999999C45.278282999999995 51.280592999999996 45.716985 51.499944 46.155687 51.280592999999996Z" clip-rule="evenodd" stroke-width="1"></path><path fill="#000000" fill-rule="evenodd" d="M48.349059 53.47437899999999C47.25223499999999 53.03567699999999 46.594251 52.59704399999999 44.839374 52.816326C44.40067199999999 52.816326 44.40067199999999 53.47437899999999 44.839374 53.47437899999999C46.594251 53.913081 45.716846999999994 54.132431999999994 48.349059 54.132431999999994C48.56840999999999 54.132431999999994 48.787760999999996 53.47437899999999 48.349059 53.47437899999999Z" clip-rule="evenodd" stroke-width="1"></path><path fill="#000000" fill-rule="evenodd" d="M48.568548 55.88793C47.471793 55.44922799999999 47.03309099999999 55.010456999999995 45.278282999999995 55.449158999999995C44.839580999999995 55.449158999999995 44.839580999999995 56.107212 45.278282999999995 56.107212C46.813671 56.54591399999999 46.155687 56.54591399999999 48.34919699999999 56.54591399999999C48.787898999999996 56.54591399999999 49.00725 55.88793 48.568548 55.88793Z" clip-rule="evenodd" stroke-width="1"></path><path fill="#000000" fill-rule="evenodd" d="M44.40067199999999 50.40422399999999C42.42651299999999 49.088118 42.645863999999996 47.771943 41.110338 47.333240999999994C38.916897 46.675118999999995 37.600790999999994 49.52682 39.794301 51.50090999999999C40.013652 51.72032999999999 40.671704999999996 51.281558999999994 40.233003 51.062208C39.136179 49.74610199999999 39.794301 48.210575999999996 40.891056 48.649278C41.549108999999994 48.868559999999995 41.76846 49.307399999999994 42.207162 49.965453C42.645863999999996 50.404154999999996 43.523267999999995 51.062139 44.181321 51.28149C44.620023 51.28149 44.839374 50.623506 44.40067199999999 50.404154999999996Z" clip-rule="evenodd" stroke-width="1"></path><path fill="#000000" fill-rule="evenodd" d="M31.020398999999994 24.958886999999997C30.800978999999998 30.881432999999994 31.239681 31.758836999999996 27.291431999999997 36.803979C27.072011999999997 37.023329999999994 27.072011999999997 37.461963 27.291431999999997 37.68131399999999C32.775207 42.945738 36.504174 41.84905199999999 41.549246999999994 39.874824C41.768667 39.874824 41.768667 39.65561099999999 41.768667 39.436190999999994C41.329964999999994 38.120084999999996 36.065472 44.042562 28.607537999999998 37.023261C32.336504999999995 31.758836999999996 31.678382999999997 30.442661999999995 31.678382999999997 24.958886999999997C31.678382999999997 24.520184999999994 31.020398999999994 24.520184999999994 31.020398999999994 24.958886999999997Z" clip-rule="evenodd" stroke-width="1"></path><path fill="#000000" fill-rule="evenodd" d="M45.716709 26.275337999999998C45.058656 28.249427999999998 45.278076 28.688129999999997 45.49735799999999 30.662357999999998C45.49735799999999 31.101059999999997 46.15547999999999 31.101059999999997 46.15547999999999 30.662357999999998C46.594181999999996 27.810725999999995 46.594181999999996 28.468847999999998 46.374762 26.275337999999998C46.374762 25.836566999999995 45.716709 25.836566999999995 45.716709 26.275337999999998Z" clip-rule="evenodd" stroke-width="1"></path><path fill="#000000" fill-rule="evenodd" d="M46.81353299999999 28.029869999999995C47.032953 29.565257999999996 45.497426999999995 29.784608999999996 43.084565999999995 34.39098C41.329758 37.900596 40.233003 43.823142 40.452354 47.552108999999994C40.452354 47.990811 41.110406999999995 47.990811 41.110406999999995 47.552108999999994C41.110406999999995 44.481195 42.645933 36.803909999999995 46.15554899999999 31.320134999999997C47.032953 30.22338 47.910287999999994 29.345906999999997 47.471586 27.810381C47.25223499999999 27.59103 46.81353299999999 27.591168 46.81353299999999 28.029869999999995Z" clip-rule="evenodd" stroke-width="1"></path><path fill="#000000" fill-rule="evenodd" d="M46.15554899999999 25.836566999999995C48.568341000000004 26.49462 50.10379799999999 28.688060999999998 50.10379799999999 31.100991C50.10379799999999 31.539692999999996 50.5425 31.539692999999996 51.639324 32.197746C52.73601 32.855729999999994 52.95542999999999 33.294501 53.174712 33.075219C53.61341399999999 32.636447999999994 51.639255 31.100991 51.20055299999999 30.881639999999997C51.639255 25.617215999999996 46.15554899999999 24.739742999999997 46.15554899999999 25.397865C45.716778 25.617215999999996 45.936128999999994 25.836566999999995 46.15554899999999 25.836566999999995Z" clip-rule="evenodd" stroke-width="1"></path><path fill="#000000" fill-rule="evenodd" d="M48.82301999999999 37.655438999999994C50.203571999999994 35.692319999999995 50.893779 34.22006699999999 50.893779 31.029989999999994C50.893779 30.539261999999997 50.203503 30.539261999999997 50.203503 31.029989999999994C49.743342 32.993178 47.672582999999996 37.410143999999995 48.132743999999995 37.900940999999996C48.592974 37.900940999999996 48.82301999999999 37.900802999999996 48.82301999999999 37.655438999999994Z" clip-rule="evenodd" stroke-width="1"></path><path fill="#000000" fill-rule="evenodd" d="M51.639531 25.83636C52.29758399999999 26.275062 52.955636999999996 26.713832999999997 53.61368999999999 27.371816999999997C56.903954999999996 31.320203999999997 50.98140899999999 36.145857 46.594457999999996 38.778068999999995C46.15575599999999 38.99742 46.59438899999999 39.65561099999999 46.813739999999996 39.436190999999994C49.665303 37.900802999999996 52.516935000000004 36.58455899999999 54.49102499999999 33.73299599999999C56.026551 31.539486 56.245901999999994 28.907342999999997 54.271743 26.933114999999997C53.61368999999999 26.275062 52.736216999999996 25.83636 52.078233 25.397657999999996C51.420111 25.178238 51.20082899999999 25.617009 51.639531 25.83636Z" clip-rule="evenodd" stroke-width="1"></path><path fill="#000000" fill-rule="evenodd" d="M49.00725 23.423222999999997C55.587849 24.739329 57.56200799999999 27.152189999999997 58.439412 31.539278999999997C59.09739599999999 35.487597 58.878114 38.777862 55.368498 40.75202099999999C54.49102499999999 41.190723 53.613621 41.410143 52.516935000000004 41.848845C52.078233 42.068127 52.29751499999999 42.506828999999996 52.736216999999996 42.506828999999996C53.833040999999994 42.287478 54.71044499999999 42.068196 55.807199999999995 41.629493999999994C59.755517999999995 39.655334999999994 60.41357099999999 35.92623 59.755517999999995 31.539278999999997C58.878114 25.397381999999997 55.14907799999999 23.861994 49.44595199999999 22.984589999999997C48.568548 22.545887999999994 48.568548 23.203803 49.00725 23.423222999999997Z" clip-rule="evenodd" stroke-width="1"></path><path fill="#000000" fill-rule="evenodd" d="M29.704223999999996 21.887766C25.097852999999997 23.861994 23.343045 27.590892 20.052711 30.881156999999998C17.63985 33.294087 10.401197999999999 34.610262 13.472180999999997 40.53273899999999C14.568867 42.72631799999999 16.981797 44.70040799999999 18.736604999999997 45.577811999999994C19.175306999999997 45.797231999999994 19.394658 45.358529999999995 20.491412999999998 44.481125999999996C22.904273999999997 46.89391799999999 24.878432999999998 49.964832 25.755905999999996 53.035745999999996C25.975256999999996 53.474447999999995 26.413959 53.25509699999999 26.413959 52.816395C25.536555 49.087427999999996 23.343045 45.79716299999999 20.930115 43.384302C20.491412999999998 42.9456 19.614009 43.822934999999994 18.955956 44.261637C17.420499 43.384232999999995 15.446270999999998 41.629355999999994 14.568867 39.874548C11.936654999999998 35.048894999999995 18.078552 34.390773 20.930115 31.539278999999997C24.001029 28.248945 25.755905999999996 24.300627 30.142926 22.326399C30.142926 22.326399 29.923574999999996 21.668484 29.704223999999996 21.887766Z" clip-rule="evenodd" stroke-width="1"></path><path fill="#000000" fill-rule="evenodd" d="M28.168629 36.58469699999999C23.123417999999997 42.068472 22.904136 42.068472 23.123487 42.50717399999999C24.659012999999995 44.70075299999999 26.194400999999996 47.991018 26.633103 52.158825C27.510506999999997 60.055460999999994 24.878294999999998 62.687604 25.755699 62.906954999999996C25.975118999999996 62.906954999999996 26.194400999999996 62.907024 26.194400999999996 62.68767299999999C28.826613 55.887723 28.607330999999995 47.77173599999999 24.439593 42.287960999999996C25.97505 40.533083999999995 27.291225 38.778206999999995 28.826613 37.023399C29.046032999999998 36.58469699999999 28.387911 36.145995 28.168629 36.58469699999999Z" clip-rule="evenodd" stroke-width="1"></path><path fill="#000000" fill-rule="evenodd" d="M12.813851999999997 44.261568C10.839692999999999 48.209886 10.620341999999999 51.71964 12.59457 55.887378C12.813851999999997 56.32608 13.252554 56.10665999999999 13.252554 55.667958C11.936447999999999 52.596975 12.155799 47.771322 13.471974 44.48105699999999C13.691256 44.042355 13.033202999999999 43.822866 12.813851999999997 44.261568Z" clip-rule="evenodd" stroke-width="1"></path><path fill="#000000" fill-rule="evenodd" d="M12.375287999999998 56.10665999999999C12.375287999999998 56.54536199999999 12.155937 57.861468 11.936585999999998 58.300169999999994C11.717234999999999 60.055046999999995 11.936585999999998 61.590573 11.936585999999998 63.125961C11.936585999999998 63.56473199999999 12.594707999999999 63.56473199999999 12.594707999999999 63.125961C12.594707999999999 57.642185999999995 13.472111999999997 56.984064 13.252692 55.667958C13.252692 55.229256 9.523724999999999 52.158410999999994 9.304443 47.771322C9.304443 47.33262 8.646321 47.33262 8.646321 47.771322C8.865741 51.500288999999995 10.401129 54.351921 12.375287999999998 56.10665999999999Z" clip-rule="evenodd" stroke-width="1"></path><path fill="#000000" fill-rule="evenodd" d="M12.814128 37.680831C5.794896 42.725972999999996 4.2594389999999995 49.087151999999996 0.7497539999999999 54.570995999999994C0.530403 55.00969799999999 0.969174 55.22911799999999 1.1885249999999998 55.00969799999999C5.3561939999999995 48.867801 8.427108 41.848637999999994 13.033547999999998 38.339022C13.691531999999999 37.900319999999994 13.25283 37.242129 12.814128 37.680899999999994Z" clip-rule="evenodd" stroke-width="1"></path><path fill="#000000" fill-rule="evenodd" d="M57.34245 39.87441C62.16817199999999 44.042148 66.11649 48.648588 67.652016 62.248349999999995C67.652016 62.68712099999999 68.30999999999999 62.68712099999999 68.30999999999999 62.248349999999995C67.652016 55.009767 66.993894 48.209955 61.948820999999995 42.72617999999999C60.632715 41.410005 59.31660899999999 40.53260099999999 58.000502999999995 39.435846C57.561800999999996 38.997144 57.12303 39.435708 57.34245 39.87441Z" clip-rule="evenodd" stroke-width="1"></path><path fill="#000000" fill-rule="evenodd" d="M52.078025999999994 56.106591C58.439205 63.125823 57.34251899999999 61.809647999999996 58.219922999999994 62.906472C58.439205 63.34517399999999 59.097327 62.90660999999999 58.658625 62.467907999999994C56.684397 59.177574 54.92958899999999 57.64204799999999 52.297307999999994 55.667888999999995C52.297307999999994 55.448468999999996 51.858675 55.88723999999999 52.078025999999994 56.106591Z" clip-rule="evenodd" stroke-width="1"></path><path fill="#000000" fill-rule="evenodd" d="M58.000640999999995 51.71977799999999C56.026481999999994 54.57134099999999 55.807131 55.88751599999999 55.368429 59.177780999999996C55.368429 59.616482999999995 55.807131 59.835765 56.026481999999994 59.397062999999996C56.026481999999994 59.17771199999999 58.658694 52.37783099999999 58.658694 52.15848C58.87804499999999 51.71977799999999 58.219992 51.281076 58.000640999999995 51.71977799999999Z" clip-rule="evenodd" stroke-width="1"></path><path fill="#000000" fill-rule="evenodd" d="M43.084565999999995 58.081371C42.426444 61.810338 45.936128999999994 64.881183 49.445744999999995 63.345726C49.884446999999994 63.126374999999996 49.66509599999999 62.468391 49.226394 62.68767299999999C46.374831 63.565076999999995 43.74255 60.713583 43.74255 58.081371C43.74255 57.64266899999999 43.084565999999995 57.64266899999999 43.084565999999995 58.081371Z" clip-rule="evenodd" stroke-width="1"></path><path fill="#000000" fill-rule="evenodd" d="M41.98794899999999 57.422489999999996C40.891194 59.616 40.671842999999996 61.37087699999999 42.20736899999999 63.78380699999999C42.426651 64.22250899999999 43.08477299999999 64.003158 42.865353 63.56445599999999C42.20736899999999 61.809647999999996 42.426651 58.95801599999999 42.865353 57.861192C42.646071 57.20313899999999 42.20736899999999 56.983788 41.98794899999999 57.42242099999999Z" clip-rule="evenodd" stroke-width="1"></path><path fill="#000000" fill-rule="evenodd" d="M30.362277 24.739467C28.607468999999995 25.397450999999997 27.510714 25.836153 25.975256999999996 28.029663C25.755905999999996 28.249014 26.194608 28.687715999999998 26.414028 28.468434C27.291431999999997 27.810312 27.510714 27.810312 30.581697 25.397450999999997C31.020398999999994 25.1781 30.800978999999998 24.520046999999995 30.362277 24.739467Z" clip-rule="evenodd" stroke-width="1"></path><path fill="#000000" fill-rule="evenodd" d="M13.910813999999998 54.57168599999999C20.271993 56.326494 22.246152 56.10714299999999 27.949347 56.326494C28.388049 56.326494 28.388049 55.668440999999994 27.949347 55.668440999999994C26.633240999999998 55.668440999999994 15.007568999999998 54.133053 13.910813999999998 53.913633C13.472111999999997 53.913633 13.472111999999997 54.57168599999999 13.910813999999998 54.57168599999999Z" clip-rule="evenodd" stroke-width="1"></path><path fill="#000000" fill-rule="evenodd" d="M38.697753 62.687604C38.917035 58.739286 39.355737 54.790968 39.794439 52.597527C40.013859 52.158825 39.355737 51.939336 39.136385999999995 52.378038C37.600998 56.54570699999999 37.82028 58.958706 38.039631 62.468391C38.039631 63.126374999999996 38.697753 63.12630599999999 38.697753 62.687604Z" clip-rule="evenodd" stroke-width="1"></path><path fill="#000000" fill-rule="evenodd" d="M42.20709299999999 57.642531C40.671566999999996 56.76512699999999 41.110268999999995 56.984339999999996 39.136109999999995 56.76505799999999C38.697407999999996 56.54563799999999 38.478125999999996 57.203759999999996 38.916828 57.423041999999995C40.45221599999999 58.300445999999994 40.671566999999996 58.300515 41.987673 58.300515C42.42637499999999 58.300515 42.645795 57.642531 42.20709299999999 57.642531Z" clip-rule="evenodd" stroke-width="1"></path></svg>