<svg xmlns="http://www.w3.org/2000/svg" fill="none" viewBox="-0.5 -0.5 70 70" id="Leo-Laughing-Hand-Drawn--Streamline-Memes.svg" height="70" width="70"><desc>Leo Laughing Hand Drawn Streamline Element: https://streamlinehq.com</desc><path fill="#000000" fill-rule="evenodd" d="M34.304247 19.025025C34.304247 20.980002 34.521735 22.500554999999995 33.435468 23.368644C33.000423 23.586132 33.435468 24.238733999999997 33.653025 24.021176999999998C34.956089999999996 23.586132 35.390445 22.283067 35.390445 20.980002C35.390445 20.328089999999996 35.172957 19.676937 34.9554 19.025025C34.9554 18.589979999999997 34.304178 18.589979999999997 34.304178 19.025025Z" clip-rule="evenodd" stroke-width="1"></path><path fill="#000000" fill-rule="evenodd" d="M37.127865 23.151777C36.69282 22.934289 35.389754999999994 21.414357 35.172957 20.762444999999996C35.172957 20.328089999999996 34.521045 20.544957 34.521045 20.762444999999996C34.521045 22.283067 35.172957 23.369334 36.910377 23.803689C37.345422 23.803689 37.562219999999996 23.151777 37.127865 23.151777Z" clip-rule="evenodd" stroke-width="1"></path><path fill="#000000" fill-rule="evenodd" d="M36.693509999999996 19.676937C39.299709 24.673088999999997 44.078303999999996 20.545647 46.468326 22.500554999999995C46.685814 22.718111999999998 47.119479 22.283067 46.902681 22.0662C44.947703999999995 20.111292 40.603463999999995 21.848712 38.648486999999996 20.763135C38.21344199999999 20.545647 37.779087 20.111292 37.34473199999999 19.460069999999998C36.910377 19.025025 36.47602199999999 19.460069999999998 36.693509999999996 19.677557999999998Z" clip-rule="evenodd" stroke-width="1"></path><path fill="#000000" fill-rule="evenodd" d="M32.566068 20.327399999999997C31.263002999999998 22.283067 27.569984999999996 22.500554999999995 26.050053 23.803689C25.615007999999996 24.238044 24.746297999999996 25.106754 25.180652999999996 25.324241999999998C25.615698 25.541798999999997 25.398141 24.889197 26.484408 24.454842C27.787473 23.803689 32.131713 23.803689 33.21798 20.545647C33.435468 20.328089999999996 32.782934999999995 20.110602 32.566068 20.328089999999996Z" clip-rule="evenodd" stroke-width="1"></path><path fill="#000000" fill-rule="evenodd" d="M34.08669 26.193641999999997C33.652335 29.451683999999997 34.08669 29.451683999999997 33.869201999999994 30.537260999999997C33.652335 30.972305999999996 34.304247 31.189103999999997 34.521735 30.754748999999997C35.390445 29.017328999999997 35.390445 27.931130999999997 34.956089999999996 26.193641999999997C34.73860199999999 25.541109 34.08669 25.758596999999998 34.08669 26.193641999999997Z" clip-rule="evenodd" stroke-width="1"></path><path fill="#000000" fill-rule="evenodd" d="M33.86989199999999 34.446456C34.956089999999996 34.881501 36.041667 34.446456 36.693509999999996 33.795303C36.911066999999996 34.22965799999999 37.127865 34.447146 37.345422 34.22965799999999C37.779776999999996 34.012101 37.562909999999995 33.794613 37.127865 32.926524C36.910377 32.709036 36.69282 32.709036 36.47602199999999 32.926524C35.824799999999996 33.577746 34.521045 33.795303 33.652335 33.144081C33.434847 32.926524 33.001113 32.926524 32.783625 33.144081C32.34858 32.491547999999995 32.783625 32.057193 32.34858 32.057193C31.697357999999998 31.839635999999995 31.697357999999998 33.143391 31.914915 33.577746C32.566068 34.230348 33.435468 34.881501 33.869823 34.446456Z" clip-rule="evenodd" stroke-width="1"></path><path fill="#000000" fill-rule="evenodd" d="M38.43099899999999 31.406660999999996C38.648486999999996 31.841015999999996 38.648486999999996 32.492169 38.648486999999996 32.92721399999999C38.648486999999996 33.578435999999996 38.648486999999996 34.012791 37.996643999999996 34.230348C37.562219999999996 34.230348 37.562219999999996 34.882191 37.996643999999996 34.882191C39.95155199999999 34.882191 40.385906999999996 32.492169 38.866043999999995 31.189103999999997C38.866043999999995 30.754748999999997 38.21344199999999 31.189103999999997 38.43099899999999 31.406660999999996Z" clip-rule="evenodd" stroke-width="1"></path><path fill="#000000" fill-rule="evenodd" d="M41.255306999999995 40.094519999999996C40.16910899999999 39.66016499999999 39.082842 39.008942999999995 37.996575 38.79145499999999C37.345422 38.79145499999999 37.127865 39.008942999999995 36.693509999999996 39.008942999999995C36.47602199999999 39.008942999999995 36.041667 38.573898 35.390445 39.008942999999995C35.172957 39.008942999999995 35.824799999999996 38.79145499999999 33.652335 39.877652999999995C32.783625 40.312008 32.566758 42.70134 36.47602199999999 42.484472999999994C38.214132 42.484472999999994 40.385906999999996 42.484472999999994 41.472173999999995 41.615072999999995C42.124016999999995 41.180718 42.124016999999995 40.746362999999995 42.124016999999995 40.312008C41.90652899999999 40.312008 41.68897199999999 40.312008 41.255306999999995 40.094519999999996ZM37.779776999999996 39.876962999999996C37.34473199999999 40.094519999999996 37.127865 40.312008 36.47602199999999 40.312008C35.60731199999999 40.312008 36.693509999999996 39.876962999999996 34.304178 40.96392C34.304178 41.398275 35.390445 41.398275 37.996575 41.398275C38.648486999999996 41.398275 41.03781899999999 41.615762999999994 41.255306999999995 40.746362999999995C40.169039999999995 40.52887499999999 38.43093 39.66016499999999 37.779776999999996 39.877652999999995Z" clip-rule="evenodd" stroke-width="1"></path><path fill="#000000" fill-rule="evenodd" d="M39.734753999999995 26.192952C40.385906999999996 25.757907 40.820952 25.541109 41.255306999999995 25.324241999999998C43.427082 25.975464 46.25145899999999 25.324241999999998 46.033971 24.672399C45.816413999999995 24.237354 45.598926 24.672399 43.861506 24.672399C40.16910899999999 24.454842 41.90652899999999 23.151777 39.30039899999999 25.758596999999998C39.082842 25.976153999999998 39.517886999999995 26.409819 39.734753999999995 26.192952Z" clip-rule="evenodd" stroke-width="1"></path><path fill="#000000" fill-rule="evenodd" d="M42.77523899999999 25.324241999999998C42.558372 25.759286999999997 42.558372 26.192952 42.992726999999995 26.627307C43.644639 27.279908999999996 44.730906 26.627307 44.730906 25.758596999999998C44.730906 24.672399 43.210284 24.455531999999998 42.77523899999999 25.324241999999998Z" clip-rule="evenodd" stroke-width="1"></path><path fill="#000000" fill-rule="evenodd" d="M41.03781899999999 26.627996999999997C42.77523899999999 28.365416999999997 45.598926 27.279908999999996 45.816413999999995 25.107443999999997C46.033971 24.672399 45.382059 24.455531999999998 45.164570999999995 24.889886999999998C44.947014 25.324932 44.295860999999995 25.976153999999998 43.427150999999995 26.193641999999997C41.90652899999999 26.627996999999997 41.03781899999999 25.758596999999998 40.82026199999999 26.193641999999997C40.82026199999999 26.193641999999997 40.82026199999999 26.411198999999996 41.03781899999999 26.627996999999997Z" clip-rule="evenodd" stroke-width="1"></path><path fill="#000000" fill-rule="evenodd" d="M46.033971 27.062351999999997C46.25145899999999 26.627307 45.598926 26.409819 45.382059 26.627307C44.947014 27.279908999999996 44.078993999999994 27.713573999999998 43.209593999999996 27.713573999999998C41.03781899999999 27.931130999999997 40.603463999999995 26.627307 40.385906999999996 27.062351999999997C39.517196999999996 28.147928999999998 44.295860999999995 30.972305999999996 46.033971 27.062351999999997Z" clip-rule="evenodd" stroke-width="1"></path><path fill="#000000" fill-rule="evenodd" d="M46.195707 45.0363C42.511520999999995 50.32128599999999 37.707741 53.36453099999999 32.902581 49.039956C30.980930999999998 47.278731 29.699601 44.716139999999996 28.418270999999997 42.473639999999996C29.539865999999996 42.7938 30.180186 41.032574999999994 30.500346 40.39156499999999C31.781675999999997 38.469915 33.383165999999996 36.868424999999995 35.625665999999995 36.227415C35.625665999999995 36.548264999999994 35.785401 37.02816 35.785401 37.34900999999999C33.543591 38.14975499999999 30.820505999999998 41.032574999999994 31.140665999999996 42.954224999999994C31.461516 44.716139999999996 33.703326 45.99740099999999 35.304816 46.477985999999994C37.386891 47.118306 36.265986 44.234865 37.386891 44.55571499999999C37.867475999999996 44.716139999999996 38.187636 45.35645999999999 38.508486 45.837044999999996C39.468965999999995 47.438466 42.51221099999999 45.67661999999999 43.152530999999996 44.07513C43.793472 42.313905 42.992726999999995 39.590819999999994 41.390616 38.63034C40.589870999999995 37.989329999999995 39.468965999999995 37.829595 38.508486 37.508745C36.906306 36.868424999999995 37.066731 36.067679999999996 37.867475999999996 35.90725499999999C38.989070999999996 35.747519999999994 42.351786 37.02885 43.953275999999995 39.751245C44.754020999999995 41.19230999999999 44.754020999999995 43.43481 46.195707 45.0363Z" clip-rule="evenodd" stroke-width="1"></path><path fill="#000000" fill-rule="evenodd" d="M46.355442 44.716139999999996C44.433792 42.63406499999999 45.394962 39.751245 42.351716999999994 37.188584999999996C41.230812 36.227415 39.629391 35.42667 38.668220999999996 35.266935C37.066731 34.946085 36.105561 36.067679999999996 37.227155999999994 37.02816C38.668220999999996 38.30949 41.391237 37.508745 42.512142 40.87215C43.152462 42.7938 42.672566999999994 43.915395 41.551041 44.716139999999996C41.071076999999995 45.196034999999995 39.949551 45.67661999999999 39.309231 45.516884999999995C38.668220999999996 45.35645999999999 38.668220999999996 44.55571499999999 38.187636 44.07582C37.707741 43.594545 37.066731 43.43481 36.586146 43.915395C35.945826 44.395289999999996 36.106251 45.516884999999995 35.945826 45.67661999999999C35.625665999999995 45.837044999999996 32.101836 44.395289999999996 31.781675999999997 42.63406499999999C31.461516 41.193 33.863751 38.469915 35.945826 37.66917C36.426410999999995 37.508745 36.426410999999995 37.188584999999996 36.265986 35.90725499999999C36.265986 35.587095 35.785401 35.266935 35.465241 35.42667C33.223431 36.067679999999996 31.301091 37.508745 30.020450999999998 39.910979999999995C29.699601 40.39156499999999 29.219016 41.993055 28.578695999999997 41.83331999999999C28.098110999999996 41.672895 27.617525999999994 42.152789999999996 27.937686 42.63406499999999C30.340610999999996 46.317561 30.980930999999998 48.87953099999999 34.824920999999996 50.801871C39.469587 53.04368099999999 43.633047 49.520540999999994 46.516557 45.195966C46.516557 45.036231 46.516557 44.876495999999996 46.356131999999995 44.71607099999999ZM45.875547 45.03561C43.633047 42.473639999999996 44.914376999999995 38.469224999999994 39.629391 36.547574999999995C39.148806 36.38784 38.188325999999996 35.90725499999999 37.707741 36.228105C38.027901 36.708 39.468965999999995 37.02816 40.750296 37.508745C43.793472 38.790074999999995 45.234536999999996 43.274385 42.351716999999994 45.67661999999999C41.550971999999994 46.317561 40.269710999999994 47.117685 39.148806 46.798146C38.027210999999994 46.477295999999996 37.867475999999996 45.67661999999999 37.547316 45.196034999999995C37.066731 44.395289999999996 37.547316 46.157136 36.586146 46.798146C35.145081 47.758626 26.496620999999998 43.915326 33.063006 38.14975499999999C30.660770999999997 40.071405 30.500346 42.313215 29.219016 42.7938L31.141355999999995 46.157136C34.824920999999996 51.92277599999999 40.270331999999996 52.723521 45.875547 45.03561Z" clip-rule="evenodd" stroke-width="1"></path><path fill="#000000" fill-rule="evenodd" d="M27.570605999999998 27.279218999999998C28.221828 26.844174 29.090538 26.409819 29.742449999999995 26.192952C31.263002999999998 25.541109 30.611159999999995 25.757907 31.697357999999998 26.410508999999998C32.132403 26.627307 32.783625 27.061730999999998 33.000491999999994 26.627307C33.21798 26.192330999999996 32.782934999999995 26.409819 32.131781999999994 25.758596999999998C31.479869999999995 24.889197 31.479869999999995 24.454842 30.828647999999998 24.454842C29.090538 24.672399 28.221828 25.324241999999998 26.918763 26.627307C26.918763 27.061730999999998 27.353118 27.496086 27.570605999999998 27.279218999999998Z" clip-rule="evenodd" stroke-width="1"></path><path fill="#000000" fill-rule="evenodd" d="M31.697357999999998 26.627307C32.566068 25.541109 30.394292999999998 24.454842 29.959937999999998 25.975464C29.742449999999995 27.061730999999998 31.045514999999995 27.279218999999998 31.697357999999998 26.627307Z" clip-rule="evenodd" stroke-width="1"></path><path fill="#000000" fill-rule="evenodd" d="M31.914915 27.279908999999996C32.34927 27.062351999999997 31.914915 26.410508999999998 31.697357999999998 26.627307C31.263002999999998 26.844863999999998 30.394292999999998 26.844863999999998 29.959937999999998 26.844863999999998C28.222517999999997 26.627307 28.439385 25.976153999999998 28.004960999999998 26.410508999999998C27.136250999999998 26.845553999999996 29.308094999999994 29.234195999999997 31.914915 27.279908999999996Z" clip-rule="evenodd" stroke-width="1"></path><path fill="#000000" fill-rule="evenodd" d="M30.394292999999998 28.799151C29.742449999999995 29.234195999999997 29.525582999999997 29.234195999999997 29.525582999999997 29.450993999999998C29.74314 29.885348999999998 30.828647999999998 29.450993999999998 31.263002999999998 29.450993999999998C32.783625 29.015949 33.435468 27.496086 33.000491999999994 27.278529C32.783625 27.061040999999996 32.783625 27.278529 30.394292999999998 28.799151Z" clip-rule="evenodd" stroke-width="1"></path><path fill="#000000" fill-rule="evenodd" d="M52.549986 25.541109C52.549986 22.500554999999995 51.898832999999996 19.893734999999996 49.074456 18.59067C49.943856 15.983849999999999 49.292013000000004 11.857097999999999 47.553833999999995 9.902121C45.164570999999995 7.077812999999999 42.340883999999996 7.947212999999999 39.082842 9.467075999999999C35.824799999999996 10.987698 34.9554 11.422742999999999 32.34927 10.553343C30.394292999999998 9.902121 28.873670999999998 9.032720999999999 26.918072999999996 10.118988C24.311942999999996 11.639541 24.095076 15.550184999999999 23.660721 18.373182C22.356966 26.410508999999998 23.878277999999998 27.279218999999998 24.529431 30.320393999999997C25.398141 34.881501 24.094386 35.099058 28.439315999999998 42.484472999999994C28.656872999999997 42.918828 29.308094999999994 42.484472999999994 29.090538 42.049428C24.963786 34.881501 26.266851 34.664702999999996 25.615698 30.102905999999997C25.180652999999996 26.844863999999998 23.660721 26.192952 24.963786 18.59067C25.398830999999998 16.201338 25.615698 12.291452999999999 27.569916 11.205186C29.090538 10.336476 30.611159999999995 10.987698 32.131713 11.639541C38.214132 13.812074999999998 42.77523899999999 6.209033999999999 46.902681 10.553343C48.640101 12.291452999999999 49.074456 16.635693 48.205746 18.59067C47.553833999999995 20.328089999999996 52.98434099999999 17.72196 51.463787999999994 28.799840999999997C51.463787999999994 29.451683999999997 52.116321 29.450993999999998 52.333188 29.017328999999997C52.98434099999999 26.844863999999998 54.288095999999996 22.934979 55.59122999999999 22.500554999999995C56.026275 22.283067 56.243072999999995 22.934979 56.45993999999999 23.369334C57.111782999999996 25.541109 55.15687499999999 30.754748999999997 53.201898 32.275371C52.333188 32.926593 51.898832999999996 32.492858999999996 51.898832999999996 32.926593C51.898832999999996 33.795303 54.939318 33.361568999999996 56.894985 27.713573999999998C57.32864999999999 26.410508999999998 57.763695 24.455531999999998 57.32864999999999 23.152466999999998C57.111093 22.283067 56.45993999999999 21.414357 55.373673 21.848712C53.853050999999994 22.283756999999998 52.98434099999999 24.238044 52.549986 25.541109Z" clip-rule="evenodd" stroke-width="1"></path><path fill="#000000" fill-rule="evenodd" d="M46.468326 45.30816C52.549986 38.357721 53.419385999999996 38.357721 52.549986 32.92721399999999C52.549986 32.709725999999996 52.332497999999994 32.709725999999996 52.11563099999999 32.709725999999996C51.24692099999999 32.92721399999999 52.985031 35.534102999999995 50.595698999999996 38.574588C49.50950099999999 39.878342999999994 49.075146 40.09521 47.771391 42.050118C47.12016899999999 42.918828 46.685123999999995 43.787538 46.033971 44.87380499999999C45.816413999999995 45.30885 46.25145899999999 45.74251499999999 46.468326 45.30885Z" clip-rule="evenodd" stroke-width="1"></path><path fill="#000000" fill-rule="evenodd" d="M49.291944 30.537260999999997L47.98887899999999 31.840325999999997C47.33634599999999 32.492169 46.685123999999995 33.360948 46.250769 33.795303C45.816413999999995 34.012791 46.250769 34.664013 46.685814 34.230348C48.640101 33.360257999999995 49.291944 32.274681 49.72629899999999 30.754058999999998C49.943856 30.319703999999998 49.508811 30.102905999999997 49.291323 30.536570999999995Z" clip-rule="evenodd" stroke-width="1"></path><path fill="#000000" fill-rule="evenodd" d="M29.308094999999994 17.504472C30.61185 17.286914999999997 31.48056 16.85325 32.783625 16.85325C33.86989199999999 16.85325 34.956089999999996 17.070738 36.041667 17.070738C37.562219999999996 16.85325 39.30039899999999 16.418204999999997 40.82026199999999 17.070738C41.255306999999995 17.287605 41.472864 16.635693 41.03781899999999 16.418204999999997C39.30039899999999 15.549494999999999 37.779776999999996 15.766982999999998 35.82411 15.983849999999999C34.73860199999999 15.983849999999999 33.652335 15.766292999999997 32.566758 15.983849999999999C31.263002999999998 16.201338 30.176804999999995 16.635693 28.873739999999994 17.070048C28.656183 16.852559999999997 28.873739999999994 17.505093 29.308785 17.505093Z" clip-rule="evenodd" stroke-width="1"></path><path fill="#000000" fill-rule="evenodd" d="M31.697357999999998 18.59067C33.869823 18.808227 33.435468 18.59067 34.738533 18.59067C35.173578 18.59067 35.173578 17.938827 34.738533 17.938827C33.001113 17.504472 32.566758 17.72196 31.48056 17.938827C31.045514999999995 17.938827 31.263002999999998 18.591359999999998 31.698047999999996 18.591359999999998Z" clip-rule="evenodd" stroke-width="1"></path><path fill="#000000" fill-rule="evenodd" d="M35.172957 44.22258299999999C36.259155 45.091362 37.562219999999996 45.30885 38.648486999999996 44.65700699999999C39.082842 44.43945 39.734753999999995 44.005095 40.16910899999999 44.43945C40.386596999999995 44.65700699999999 40.82026199999999 44.221962 40.603463999999995 44.005095C39.517196999999996 42.70202999999999 37.779776999999996 44.44014 35.389754999999994 43.57074C35.172957 43.353182999999994 34.73860199999999 44.005784999999996 35.172957 44.22258299999999Z" clip-rule="evenodd" stroke-width="1"></path><path fill="#000000" fill-rule="evenodd" d="M4.763069999999999 60.73028099999999C5.414223 59.209728 11.279084999999998 61.599681 13.017263999999999 58.558506C13.451618999999999 57.689796 13.234752 56.820395999999995 12.365352 56.169174C10.84473 55.300464 6.2836229999999995 55.517331 5.414223 55.517331C4.545513 55.734818999999995 3.4593149999999993 56.169174 2.808093 56.603528999999995C-0.45063899999999996 58.775373 0.8531159999999999 62.03403599999999 1.504338 65.508945C1.504338 65.726433 1.7218949999999997 65.726433 1.939383 65.726433C2.590605 65.726433 1.504338 63.120303 1.7218949999999997 60.73028099999999C1.7218949999999997 58.99286099999999 2.373738 58.12415099999999 3.676803 57.472238999999995C4.979868 56.820395999999995 5.414223 56.603528999999995 6.066134999999999 56.603528999999995C7.803554999999999 56.603528999999995 13.017263999999999 56.386041 12.147863999999998 57.906594C11.496642 59.209728 8.455467 59.210348999999994 6.934844999999999 59.210348999999994C5.63178 59.210348999999994 4.545513 59.210348999999994 4.111158 60.295926C4.111158 60.947838 4.546203 61.16532599999999 4.763069999999999 60.730971Z" clip-rule="evenodd" stroke-width="1"></path><path fill="#000000" fill-rule="evenodd" d="M5.196734999999999 56.603528999999995C9.758531999999999 49.43560199999999 20.402679 56.16848399999999 18.012725999999997 57.472238999999995C16.275236999999997 58.340948999999995 14.413409999999999 56.820395999999995 12.458502 56.603528999999995C12.023456999999999 56.603528999999995 12.023456999999999 57.25544099999999 12.458502 57.25544099999999C14.413409999999999 57.47292899999999 16.275236999999997 59.427216 18.447080999999997 58.340948999999995C23.225676 56.169174 10.192886999999999 47.04558 4.546203 56.169174C4.328715 56.603528999999995 4.979868 57.037884 5.197424999999999 56.603528999999995Z" clip-rule="evenodd" stroke-width="1"></path><path fill="#000000" fill-rule="evenodd" d="M8.021112 55.951685999999995C8.021112 56.38673099999999 8.672265 56.169174 8.672265 55.734128999999996C8.672265 55.08290699999999 9.10731 54.21419699999999 9.541665 53.56235399999999C10.192886999999999 51.82493399999999 8.889822 51.390578999999995 7.803554999999999 52.69364399999999C6.934844999999999 53.779841999999995 6.934844999999999 54.866108999999994 7.369199999999999 55.734818999999995C7.369199999999999 56.386041 7.804244999999999 56.386662 8.021112 55.952307ZM8.455467 53.127998999999996C8.455467 52.910441999999996 8.455467 52.910441999999996 8.455467 53.127998999999996C8.455467 52.910441999999996 8.23791 52.910441999999996 8.455467 53.127998999999996Z" clip-rule="evenodd" stroke-width="1"></path><path fill="#000000" fill-rule="evenodd" d="M7.803554999999999 54.213576C8.672265 52.910441999999996 9.541665 51.389889 10.84473 50.737976999999994C13.451618999999999 49.434912 18.447080999999997 51.173021999999996 20.619546 52.910441999999996C21.271389 53.56235399999999 24.746297999999996 54.43106399999999 23.660721 55.29977399999999C23.225676 55.734818999999995 22.356966 55.734818999999995 21.705744 55.734818999999995C20.185191 55.734818999999995 19.315790999999997 54.864729 19.098924 55.517261999999995C19.098924 55.734818999999995 19.098924 55.951685999999995 19.316412 55.951685999999995C20.166147 56.43696299999999 20.813919 56.54708699999999 21.488255999999996 56.602838999999996C24.095076 56.820395999999995 25.832496 55.082286 23.877519 53.561664C23.008809 52.910441999999996 21.922610999999996 52.692954 21.270699 52.041731999999996C19.750767 50.955534 17.361504 49.652468999999996 14.971482 49.217423999999994C9.97533 48.348713999999994 8.672265 51.173021999999996 7.152333 53.77922099999999C6.934844999999999 54.21419699999999 7.586688 54.64793099999999 7.803554999999999 54.21419699999999Z" clip-rule="evenodd" stroke-width="1"></path><path fill="#000000" fill-rule="evenodd" d="M11.930997 50.30431199999999C15.406526999999999 49.00055699999999 18.230214 49.218045 21.705744 50.521868999999995C22.140788999999998 50.738667 24.746987999999998 51.173021999999996 24.312632999999998 51.607377C23.443233 52.476087 21.525654 51.988049999999994 20.873741999999996 51.988049999999994C20.439386999999996 51.988049999999994 20.439386999999996 52.640583 20.873741999999996 52.640583C22.177497 52.85745 22.574454 53.34548699999999 24.095765999999998 52.910441999999996C24.963786 52.692954 25.833185999999998 52.041731999999996 25.398141 51.173021999999996C24.963786 49.869957 23.008878 49.869957 22.140099 49.652468999999996C18.013347 47.91497999999999 15.406526999999999 48.13184699999999 11.714129999999999 49.869957C11.279084999999998 49.869957 11.496642 50.521179 11.931687 50.30431199999999Z" clip-rule="evenodd" stroke-width="1"></path><path fill="#000000" fill-rule="evenodd" d="M16.927149 60.513482999999994C16.492103999999998 61.599681 15.189039 64.423368 13.885974 65.72712299999999C13.450928999999999 65.94399 13.885974 66.595143 14.321018999999998 66.160788C16.492794 64.640856 17.361504 62.90274599999999 17.578370999999997 60.513482999999994C17.795859 60.078438 17.143946999999997 60.078438 16.927149 60.513482999999994Z" clip-rule="evenodd" stroke-width="1"></path><path fill="#000000" fill-rule="evenodd" d="M16.927149 58.123461C16.709591999999997 59.427216 16.927149 60.947838 17.795859 62.033346C19.098924 63.988322999999994 21.271389 63.337101 21.923301 65.508945C22.357656 67.02949799999999 21.923301 67.68141 22.574454 67.68141C22.792011 67.68141 23.009498999999998 67.463853 23.009498999999998 67.463853C23.660721 60.51341399999999 18.230904 64.640166 18.013347 58.12415099999999C17.578370999999997 57.689105999999995 16.927149 57.689105999999995 16.927149 58.12415099999999Z" clip-rule="evenodd" stroke-width="1"></path><path fill="#000000" fill-rule="evenodd" d="M30.545195999999997 53.960001C27.721508999999998 55.04626799999999 25.331556 53.960001 25.114689 54.828711C25.114689 55.04626799999999 25.114689 55.263755999999994 25.332245999999998 55.263755999999994C26.200955999999998 55.480622999999994 27.287153999999997 55.480622999999994 28.155932999999997 55.697421C32.71704 55.91497799999999 33.803238 52.439378999999995 25.983399 52.439378999999995C25.549044 52.439378999999995 25.549044 53.091291 25.983399 53.091291C29.024642999999998 53.308779 28.590287999999997 53.091291 30.545195999999997 53.960001Z" clip-rule="evenodd" stroke-width="1"></path><path fill="#000000" fill-rule="evenodd" d="M24.963786 51.172332C26.484408 51.172332 31.263002999999998 52.041731999999996 32.131713 53.561664C32.566758 54.21419699999999 31.914224999999995 55.082286 31.697357999999998 55.951685999999995C31.046205 58.123461 30.177495 60.73028099999999 28.439315999999998 62.250902999999994C26.918763 63.77083499999999 24.746987999999998 63.77145599999999 24.311942999999996 66.37765499999999C24.311942999999996 66.81269999999999 24.964475999999998 66.81269999999999 24.964475999999998 66.37765499999999C25.398141 63.77145599999999 28.439385 64.857033 31.046205 60.512793C32.131713 58.775373 33.21798 55.299084 33.21798 54.64793099999999C33.653025 51.389889 28.004271 50.737976999999994 24.746987999999998 50.737976999999994C24.529431 50.520489 24.529431 51.173021999999996 24.964475999999998 51.173021999999996Z" clip-rule="evenodd" stroke-width="1"></path><path fill="#000000" fill-rule="evenodd" d="M23.877588 25.541109C22.792011 24.021176999999998 22.792011 22.500554999999995 22.574454 20.545647C22.356966 19.45938 21.922610999999996 18.59067 21.922610999999996 17.504472C21.922610999999996 16.418895 22.575143999999998 15.115139999999998 23.008878 14.029562999999998C24.529431 8.164700999999999 24.963786 5.123525999999999 36.693509999999996 3.168549C45.165261 1.8654839999999997 46.033280999999995 2.516706 51.24692099999999 7.078433999999999C52.767542999999996 8.381568 54.504963 9.467766 55.374362999999995 11.205186C57.111782999999996 14.463917999999998 56.67742799999999 17.939448 56.894295 21.631845C56.894295 22.718111999999998 57.329339999999995 23.803689 57.329339999999995 24.673088999999997C57.329339999999995 25.758596999999998 57.111782999999996 26.844863999999998 57.329339999999995 27.931061999999997C57.546828 29.451683999999997 58.632405 30.972305999999996 58.632405 32.492169C58.632405 33.795924 57.54613799999999 34.881501 57.54613799999999 36.185255999999995C57.32864999999999 37.271522999999995 57.981182999999994 37.922675999999996 58.198049999999995 39.008942999999995C58.198049999999995 39.443988 58.849892999999994 39.443988 58.849892999999994 39.008942999999995C58.849892999999994 38.140232999999995 58.19735999999999 37.271522999999995 58.41484799999999 36.402812999999995C58.632405 35.099058 59.718602999999995 34.230348 59.718602999999995 32.709725999999996C59.718602999999995 30.972305999999996 58.41484799999999 29.668550999999997 58.41484799999999 28.148618999999997C58.41484799999999 27.062351999999997 58.632405 25.976153999999998 58.41484799999999 24.889886999999998C58.41484799999999 23.804378999999997 57.980493 22.718111999999998 57.980493 21.631845C57.763005 17.938827 58.198049999999995 14.246429999999998 56.45993999999999 10.770831C55.374362999999995 8.815923 53.853741 7.729656 52.116321 6.209723999999999C46.46763599999999 1.4311289999999999 45.382059 0.561729 36.47602199999999 1.8647939999999998C32.566068 2.517327 29.091227999999997 3.168549 26.050053 5.557880999999999C23.008809 7.947212999999999 22.792011 10.336476 22.140099 13.812074999999998C21.922610999999996 15.115139999999998 20.919281999999995 16.619408999999997 21.136839 17.923164C21.136839 19.009431 21.922610999999996 20.004548999999997 21.922610999999996 21.090816C22.357656 23.045723999999996 21.705054 24.070097999999998 23.008809 25.807586999999995C23.226366 26.242632 24.311942999999996 25.758596999999998 23.877519 25.541798999999997Z" clip-rule="evenodd" stroke-width="1"></path><path fill="#000000" fill-rule="evenodd" d="M55.80871799999999 33.795924C56.243072999999995 35.534102999999995 54.288095999999996 37.705878 57.111782999999996 39.878342999999994C57.329339999999995 40.095831 57.980493 39.660785999999995 57.54613799999999 39.443298C56.02558499999999 37.489011 57.111093 36.620301 56.894295 34.882191C56.45993999999999 32.710415999999995 55.59122999999999 33.361568999999996 55.80871799999999 33.795924Z" clip-rule="evenodd" stroke-width="1"></path><path fill="#000000" fill-rule="evenodd" d="M53.636252999999996 34.882191C53.853741 36.185255999999995 53.201898 38.792075999999994 55.374362999999995 40.312698C55.591919999999995 40.530255 56.02558499999999 40.09521 55.80871799999999 39.877652999999995C55.373673 39.226431 55.15687499999999 38.575278 54.939318 37.705878C54.939318 37.271522999999995 54.504963 34.013481 53.853741 34.230969C53.636252999999996 34.665324 53.636252999999996 34.665324 53.636252999999996 34.882191Z" clip-rule="evenodd" stroke-width="1"></path><path fill="#000000" fill-rule="evenodd" d="M52.333188 38.140232999999995C52.11563099999999 39.443988 52.333188 40.312698 53.419385999999996 41.181408C53.636942999999995 41.61645299999999 54.288095999999996 41.181408 53.853741 40.746362999999995C53.636252999999996 40.312698 53.636252999999996 39.660855 53.418696 39.008942999999995C53.201898 38.574588 52.985031 38.140232999999995 52.985031 37.923365999999994C52.985031 37.488321 52.333188 37.705878 52.333188 38.140922999999994Z" clip-rule="evenodd" stroke-width="1"></path><path fill="#000000" fill-rule="evenodd" d="M25.026989999999998 30.399260999999996C25.462034999999997 33.222947999999995 26.113257 34.091657999999995 27.633879 36.481610999999994C27.851366999999996 36.916034999999994 28.502589 36.481610999999994 28.285721999999996 36.264123C25.244547 29.530550999999996 26.113257 31.485459 25.678902 30.399260999999996C25.461344999999998 29.747348999999996 25.026989999999998 29.964905999999996 25.026989999999998 30.399260999999996Z" clip-rule="evenodd" stroke-width="1"></path><path fill="#000000" fill-rule="evenodd" d="M51.24692099999999 38.792075999999994C51.681965999999996 41.83263 49.943856 43.788228 47.98887899999999 46.17756C44.078993999999994 50.521179 44.078993999999994 51.390578999999995 42.340883999999996 53.56235399999999C39.300329999999995 57.037884 36.693509999999996 56.821086 34.738533 54.648621C31.914915 51.607377 33.435468 49.218114 32.566068 49.001247C31.697357999999998 49.001247 32.131713 53.779841999999995 34.956089999999996 56.169174C37.779776999999996 58.341638999999994 40.820952 57.037884 43.210284 54.431754C44.513349 52.911131999999995 45.599616 51.173021999999996 46.685123999999995 49.870647C49.291944 46.39442699999999 52.767542999999996 43.57074 51.898832999999996 39.008942999999995C51.898832999999996 38.140232999999995 51.24692099999999 38.357721 51.24692099999999 38.79145499999999Z" clip-rule="evenodd" stroke-width="1"></path><path fill="#000000" fill-rule="evenodd" d="M57.329339999999995 65.726433C57.763695 62.90274599999999 56.243072999999995 60.947838 56.02558499999999 58.12415099999999C55.808028 54.866108999999994 58.849203 53.563044 54.939318 42.266985C58.198049999999995 44.005095 61.456092 44.87380499999999 64.931622 45.30816C65.365977 45.30816 65.365977 44.656317 64.931622 44.656317C60.587382 44.005095 57.329339999999995 42.70202999999999 54.070608 40.747052999999994C53.636252999999996 40.529565 53.201898 40.96460999999999 53.201898 41.398275C57.54613799999999 53.779841999999995 54.504963 54.866108999999994 54.722451 58.340948999999995C54.94000799999999 60.947838 56.67742799999999 63.337101 56.243072999999995 65.726433C56.67742799999999 65.94399 57.329339999999995 66.161478 57.329339999999995 65.726433Z" clip-rule="evenodd" stroke-width="1"></path><path fill="#000000" fill-rule="evenodd" d="M29.091227999999997 44.43945C19.750836 50.30431199999999 21.488255999999996 49.218114 21.053900999999996 49.43560199999999C20.619546 49.65308999999999 21.053900999999996 50.30431199999999 21.271389 50.087445C25.398141 48.56689199999999 26.918763 47.26313699999999 29.525582999999997 45.091362C29.74314 44.87380499999999 29.308094999999994 44.22258299999999 29.090538 44.43945Z" clip-rule="evenodd" stroke-width="1"></path><path fill="#000000" fill-rule="evenodd" d="M30.177495 46.828092C29.308094999999994 48.131157 28.656183 49.00055699999999 28.656183 50.955534C28.656183 51.389889 29.308785 51.389889 29.308785 50.955534C29.525582999999997 50.303622 30.176804999999995 49.434912 30.828647999999998 47.04558C31.046205 46.828092 30.393602999999995 46.393737 30.176804999999995 46.828092Z" clip-rule="evenodd" stroke-width="1"></path><path fill="#000000" fill-rule="evenodd" d="M33.435468 56.821086C36.259155 63.55465799999999 42.341574 57.90728399999999 45.382059 58.558506C46.685814 58.993551 44.29579199999999 61.817169 40.820952 61.817169C38.214132 61.817169 36.042356999999996 60.51341399999999 34.304178 61.164636C32.783625 61.599681 32.566758 63.337101 33.652335 64.423368C37.127865 68.55081 46.685123999999995 62.251523999999996 45.165192 65.292768C43.861437 67.898898 39.734064 66.378276 36.911066999999996 66.161478C36.259155 66.161478 34.304178 66.161478 34.521735 66.59583299999998C34.739222999999996 67.030188 34.956089999999996 66.59583299999998 36.911066999999996 66.81332099999999C38.865975 67.030188 41.03781899999999 67.68209999999999 42.992726999999995 67.46454299999999C46.468326 67.02949799999999 47.337036 63.55465799999999 44.947703999999995 63.337101C43.210284 63.119612999999994 37.345422 66.161478 34.738533 63.77214599999999C34.08669 63.119612999999994 33.869823 62.251593 34.956089999999996 62.03403599999999C36.259155 61.816548 38.648486999999996 62.90343599999999 41.03781899999999 62.90343599999999C46.468326 62.90343599999999 49.291944 57.472238999999995 45.165192 57.25544099999999C41.689662 57.25544099999999 36.693509999999996 62.03403599999999 34.304178 56.38673099999999C33.869133 56.169174 33.21798 56.38673099999999 33.435468 56.821086Z" clip-rule="evenodd" stroke-width="1"></path><path fill="#000000" fill-rule="evenodd" d="M31.045514999999995 58.340948999999995C31.045514999999995 60.51341399999999 30.394292999999998 62.250902999999994 31.263002999999998 66.160788C31.263002999999998 66.59583299999998 31.914915 66.59583299999998 31.914915 66.160788C31.914915 63.337101 32.34927 62.03403599999999 31.697357999999998 58.340948999999995C31.697357999999998 57.906594 31.045514999999995 57.906594 31.045514999999995 58.340948999999995Z" clip-rule="evenodd" stroke-width="1"></path><path fill="#000000" fill-rule="evenodd" d="M47.337036 65.508945C48.85758899999999 61.382192999999994 53.418696 57.254751 55.15687499999999 52.259288999999995C56.243072999999995 49.65239999999999 56.243072999999995 45.090672 55.374362999999995 45.30816C54.504963 45.52571699999999 56.243072999999995 47.26313699999999 54.070608 51.82493399999999C52.11563099999999 56.603528999999995 48.640101 59.427216 46.468326 65.29207799999999C46.685814 65.726433 47.119479 65.9433 47.337036 65.50956599999999Z" clip-rule="evenodd" stroke-width="1"></path><path fill="#000000" fill-rule="evenodd" d="M58.631715 59.209658999999995C56.243072999999995 59.86157099999999 56.67742799999999 62.250902999999994 57.980493 63.119612999999994C57.54613799999999 64.640166 59.284248 66.160788 61.021668 64.857033L61.45671299999999 64.422678C61.67358 64.857723 62.10793499999999 65.075211 62.54229 65.075211S63.194132999999994 64.640166 62.75984699999999 64.422678C62.10724499999999 64.20512099999999 62.324802 63.553968 61.67358 63.553968C61.021668 63.553968 59.935469999999995 64.857723 59.284248 63.989013C59.066759999999995 63.77145599999999 59.066759999999995 63.119612999999994 59.066759999999995 63.33641099999999C59.066759999999995 63.33641099999999 59.066759999999995 63.119612999999994 59.284248 62.90274599999999C59.50180499999999 62.46770099999999 59.284248 62.25021299999999 59.284248 62.25021299999999C58.849203 61.816548 58.41484799999999 62.25021299999999 58.198049999999995 61.38212399999999C57.980493 60.73028099999999 58.632405 60.295926 59.284248 60.078368999999995C59.718602999999995 59.860881 59.718602999999995 59.644014 59.718602999999995 59.209658999999995C59.93616 57.906594 60.804179999999995 57.254751 61.67358 57.689105999999995C62.10793499999999 57.906594 62.324802 57.254751 61.89113699999999 57.037884C60.369825 56.386041 58.632405 57.689105999999995 58.632405 59.209658999999995Z" clip-rule="evenodd" stroke-width="1"></path><path fill="#000000" fill-rule="evenodd" d="M66.66904199999999 60.29661599999999C67.972797 61.599681 65.80033199999998 62.03403599999999 65.583465 62.250902999999994C65.148489 62.68594799999999 65.365977 63.119612999999994 65.365977 63.337101C65.14842 63.989013 64.27971 64.205811 63.628556999999994 64.205811C63.193512 64.205811 63.193512 64.857723 63.411 64.857723C65.80033199999998 65.50956599999999 66.234687 63.337101 66.234687 62.90274599999999C66.234687 62.90274599999999 66.66290099999999 62.78109899999999 66.88659899999999 62.685258C68.407152 62.03403599999999 68.841507 60.295926 67.53844199999999 59.210348999999994C68.62401899999999 58.12415099999999 67.53844199999999 55.300464 65.14842 56.169174C64.27971 54.648551999999995 61.89044699999999 56.38673099999999 62.54229 56.820395999999995C62.75984699999999 57.037884 62.97664499999999 56.820395999999995 63.411 56.386041C64.27971 55.951685999999995 64.27971 56.821086 64.497267 57.037884C64.714755 57.47292899999999 65.582844 57.037884 65.80033199999998 57.037884C66.235377 57.037884 66.88659899999999 57.689796 66.452244 58.558506C66.234687 59.210348999999994 65.80033199999998 59.64470399999999 66.669732 60.295926Z" clip-rule="evenodd" stroke-width="1"></path><path fill="#000000" fill-rule="evenodd" d="M64.28039999999999 59.86157099999999C63.992186999999994 59.905041 63.89972699999999 59.80719899999999 63.62786699999999 60.079058999999994C63.411 60.295926 63.411 60.512793 63.62786699999999 60.947148C63.62786699999999 61.599681 63.194202 61.816548 62.97664499999999 61.816548C62.10793499999999 61.59899099999999 62.75915699999999 60.73028099999999 61.456092 60.947148C61.021668 60.73028099999999 61.456092 60.295926 61.67358 60.078438C62.10793499999999 59.860881 61.67358 59.209728 61.23853499999999 59.427216C59.935469999999995 60.078438 60.152958 61.816548 61.67358 61.816548C62.54229 63.988322999999994 65.14911 62.685258 64.931622 60.947148C67.10408699999999 59.644014 65.14911 56.603528999999995 63.411 58.123461C62.97664499999999 58.340948999999995 63.411 58.99286099999999 63.846045 58.558506C64.497267 57.90590399999999 65.365977 59.427216 64.27971 59.86157099999999Z" clip-rule="evenodd" stroke-width="1"></path><path fill="#000000" fill-rule="evenodd" d="M59.718602999999995 64.857723C59.813823 65.25398999999999 60.010887 65.877336 60.369825 66.37765499999999C60.587382 66.81269999999999 61.23922499999999 66.595143 61.02242699999999 66.160788C60.90278099999999 65.608167 60.719241 65.02766999999999 60.369825 64.64023499999999C60.152336999999996 64.205811 59.718602999999995 64.422678 59.718602999999995 64.857723Z" clip-rule="evenodd" stroke-width="1"></path><path fill="#000000" fill-rule="evenodd" d="M66.66904199999999 62.250902999999994C66.01781999999999 63.77145599999999 66.234687 63.77145599999999 66.451554 65.508945C66.451554 65.94399 67.10408699999999 65.94399 67.10408699999999 65.508945C67.755309 63.77145599999999 67.53844199999999 63.553968 67.32164399999999 62.250902999999994C67.32164399999999 62.033346 66.66904199999999 61.815858 66.66904199999999 62.250902999999994Z" clip-rule="evenodd" stroke-width="1"></path></svg>