<svg xmlns="http://www.w3.org/2000/svg" fill="none" viewBox="-0.5 -0.5 70 70" id="Picard-Facepalm-Hand-Drawn--Streamline-Memes.svg" height="70" width="70"><desc>Picard Facepalm Hand Drawn Streamline Element: https://streamlinehq.com</desc><path fill="#000000" fill-rule="evenodd" d="M32.632239 36.269712C33.075770999999996 36.04787699999999 34.406574 36.713243999999996 35.071940999999995 36.935078999999995C37.068732 38.044047 37.289877 38.93118 37.734099 38.487579C37.955934 38.265813 37.734099 38.044047 37.734099 38.044047C36.625130999999996 37.156845 34.184739 34.717143 32.410404 35.382509999999996C31.079669999999997 35.826111 31.966802999999995 37.156845 32.854004999999994 38.265813C33.962973 39.374781 34.406574 39.81907199999999 35.293707 41.149806C36.402674999999995 43.589507999999995 36.402674999999995 44.698476 38.843067 46.473501C42.836028 49.135037999999994 42.169971 48.02606999999999 44.611053 53.350455C44.832129 53.79336599999999 45.27573 53.57153099999999 45.27573 53.12793C43.279629 48.02606999999999 44.388597 49.135037999999994 39.730959 45.586299C37.512333 43.811343 37.512333 42.924141 36.403364999999994 40.706205C35.294397 38.488268999999995 33.519372 37.82221199999999 32.632239 36.269712Z" clip-rule="evenodd" stroke-width="1"></path><path fill="#000000" fill-rule="evenodd" d="M32.854004999999994 32.942117999999994C33.741138 31.833149999999996 39.508434 37.156845 39.952034999999995 36.491478C40.173869999999994 36.269712 39.952034999999995 36.04787699999999 39.952034999999995 36.04787699999999C37.955934 34.494687 35.959764 31.833149999999996 33.075770999999996 31.611383999999997C31.745036999999996 31.833149999999996 31.523270999999994 32.942117999999994 32.188638 34.051086C32.854004999999994 34.938219 33.297605999999995 35.38182 34.628339999999994 36.491478C34.850795999999995 36.713243999999996 35.294397 36.269712 35.072631 36.04787699999999C34.184739 35.160053999999995 33.519372 34.494687 33.075770999999996 33.385719C32.854004999999994 33.163883999999996 32.854004999999994 32.942117999999994 32.854004999999994 32.942117999999994Z" clip-rule="evenodd" stroke-width="1"></path><path fill="#000000" fill-rule="evenodd" d="M37.512333 34.051086C36.846966 33.385719 36.403364999999994 32.720352 35.516163 31.833149999999996C34.407194999999994 30.501725999999994 32.410404 28.727390999999997 34.184739 29.170992C35.293707 29.614524 37.29049799999999 31.388859 39.508434 33.163883999999996C40.839858 34.272852 41.061693 34.716452999999994 41.28345899999999 34.272852C41.505294 34.051086 41.061693 33.607485 39.952034999999995 32.498517C38.399466 30.945327 35.737998 28.283789999999996 34.184739 27.839498999999996C32.410404 27.396587999999998 31.301436 28.949157 32.410404 30.280580999999998C32.632239 30.723492 34.628339999999994 32.498517 35.294397 33.163883999999996C36.403364999999994 34.272852 36.625130999999996 34.716452999999994 37.068732 34.494687C37.734099 34.494687 37.734099 34.272852 37.512333 34.051086Z" clip-rule="evenodd" stroke-width="1"></path><path fill="#000000" fill-rule="evenodd" d="M37.29049799999999 30.058124999999997C37.068732 29.614524 36.181599 28.505555999999995 36.403364999999994 28.062024C37.734099 27.618422999999996 45.498186000000004 34.051086 46.162932 34.938908999999995C46.38469799999999 35.160053999999995 47.050754999999995 34.716452999999994 46.60653299999999 34.494687C45.05396399999999 32.498517 39.508434 27.396587999999998 36.846966 27.174822C34.62902999999999 27.396587999999998 35.293707 28.727390999999997 36.625130999999996 30.501725999999994C37.068732 30.723492 37.512333 30.280580999999998 37.290566999999996 30.058124999999997Z" clip-rule="evenodd" stroke-width="1"></path><path fill="#000000" fill-rule="evenodd" d="M52.595594999999996 49.135659C49.712292 44.254875 50.821259999999995 42.036939 50.599425 39.596546999999994C50.155823999999996 36.935078999999995 48.60332399999999 37.600446 50.377658999999994 33.829251C51.930228 30.502416 47.937957 29.614524 46.162932 34.272852C45.941097 34.717143 46.60653299999999 34.938908999999995 46.828298999999994 34.495308C47.716122 32.277440999999996 49.490457 31.389549 49.712292 32.054916C50.155893 32.720352 48.381488999999995 34.494687 48.381488999999995 36.490787999999995C48.381488999999995 37.82221199999999 49.26869099999999 38.709413999999995 49.26869099999999 39.81838199999999C49.712292 42.258773999999995 48.60332399999999 44.477331 51.930228 49.57856999999999C52.37375999999999 49.80040499999999 52.818051 49.57856999999999 52.595594999999996 49.13496899999999Z" clip-rule="evenodd" stroke-width="1"></path><path fill="#000000" fill-rule="evenodd" d="M48.825089999999996 31.167092999999998C49.934058 30.723492 50.377658999999994 30.945327 50.377658999999994 30.501725999999994C50.377658999999994 29.836358999999998 48.825089999999996 30.058124999999997 48.381488999999995 30.279890999999996C46.60646399999999 30.723492 45.719331 32.497827 45.941097 32.719662C46.38469799999999 32.941427999999995 46.60646399999999 32.054294999999996 48.825089999999996 31.167092999999998Z" clip-rule="evenodd" stroke-width="1"></path><path fill="#000000" fill-rule="evenodd" d="M36.181599 24.956886C39.952034999999995 27.619113 39.064902 26.510144999999994 41.505294 27.840878999999997C41.948826 28.062644999999996 42.170660999999996 27.619113 41.948826 27.397278C39.730959 25.400487 38.621990999999994 24.956886 36.625130999999996 24.291519C35.959764 24.291519 35.737998 24.73512 36.181599 24.956886Z" clip-rule="evenodd" stroke-width="1"></path><path fill="#000000" fill-rule="evenodd" d="M38.399466 23.403695999999997C40.617402 25.178030999999997 39.952034999999995 24.512663999999997 42.392427 25.843397999999997C42.836028 26.065853999999998 43.057793999999994 25.621632 42.836028 25.399797C40.839858 23.625462 40.395635999999996 23.625462 38.843067 22.960095C38.177699999999994 22.516493999999994 37.955934 23.181860999999998 38.399466 23.403695999999997Z" clip-rule="evenodd" stroke-width="1"></path><path fill="#000000" fill-rule="evenodd" d="M33.075770999999996 26.731221C37.955934 6.323643 63.46544099999999 10.538369999999999 55.479518999999996 29.836358999999998C55.257752999999994 30.280580999999998 55.92312 30.502416 56.144954999999996 30.058814999999996C64.79617499999999 10.094769 37.955934 3.662106 32.410404 26.508765C32.410404 26.953055999999997 33.075770999999996 27.174822 33.075770999999996 26.731221Z" clip-rule="evenodd" stroke-width="1"></path><path fill="#000000" fill-rule="evenodd" d="M54.370619999999995 31.389549C56.366721 30.058124999999997 56.588556 30.723492 56.588556 31.833149999999996C56.588556 33.829319999999996 54.370619999999995 35.38182 53.26165199999999 36.713243999999996C52.37375999999999 37.82221199999999 51.486627 38.265813 51.486627 37.156845C51.486627 36.712622999999994 50.377658999999994 36.713243999999996 50.821259999999995 37.82221199999999C51.486627 39.153014999999996 53.039127 38.487648 53.927019 37.378679999999996C55.257752999999994 36.04787699999999 56.81032199999999 35.160743999999994 57.475688999999996 32.942117999999994C58.14105599999999 30.724181999999995 56.81032199999999 27.840189 53.927019 30.724181999999995C53.705183999999996 31.167782999999996 54.148785 31.611383999999997 54.370619999999995 31.389549Z" clip-rule="evenodd" stroke-width="1"></path><path fill="#000000" fill-rule="evenodd" d="M52.818051 35.382509999999996C53.26165199999999 34.938908999999995 55.257752999999994 32.499207 55.479518999999996 32.499207C55.701354 32.720973 55.701354 32.942808 56.144954999999996 32.942808C56.81032199999999 32.720973 55.701354 30.280580999999998 53.26165199999999 32.942808C51.486627 35.604276 52.59621599999999 35.826111 52.818051 35.382509999999996Z" clip-rule="evenodd" stroke-width="1"></path><path fill="#000000" fill-rule="evenodd" d="M54.81415199999999 34.494687C55.701354 33.607485 55.257752999999994 32.498517 54.370619999999995 32.276751C53.927019 32.054916 53.705183999999996 32.720352 54.148785 32.942117999999994C54.370619999999995 33.163883999999996 54.148785 33.385719 54.148785 33.607485C54.148785 33.607485 54.370619999999995 34.051086 54.370619999999995 34.272852C53.927019 34.494687 54.592386 34.716452999999994 54.81415199999999 34.494687Z" clip-rule="evenodd" stroke-width="1"></path><path fill="#000000" fill-rule="evenodd" d="M51.930228 38.265813C49.934058 40.927971 51.04302599999999 39.81907199999999 50.155823999999996 41.37157199999999C49.934058 41.815172999999994 50.377658999999994 42.036939 50.599425 41.815172999999994C52.151993999999995 40.484438999999995 52.37375999999999 39.81907199999999 52.596284999999995 38.488268999999995C52.596284999999995 38.044047 51.930228 37.82221199999999 51.930228 38.265813Z" clip-rule="evenodd" stroke-width="1"></path><path fill="#000000" fill-rule="evenodd" d="M57.476378999999994 23.404386C52.374449999999996 26.510144999999994 51.708392999999994 31.83384 52.374449999999996 31.83384C53.03981699999999 31.83384 53.705183999999996 31.390238999999998 54.148785 31.168473C57.698145000000004 29.171613 56.588556 24.291519 57.475688999999996 23.404386Z" clip-rule="evenodd" stroke-width="1"></path><path fill="#000000" fill-rule="evenodd" d="M32.188638 38.487579C31.966802999999995 39.374781 32.410404 40.040148 32.632239 40.705515S32.632239 42.036317999999994 32.854004999999994 42.923451C33.297605999999995 44.47671 35.071940999999995 45.807444000000004 36.846275999999996 45.585677999999994C37.290566999999996 45.585677999999994 37.290566999999996 44.920241999999995 36.846275999999996 44.920241999999995C35.737308 44.920241999999995 34.406574 43.811343 34.184739 42.47984999999999C33.962973 41.814482999999996 34.184739 41.149116 33.741206999999996 40.483748999999996C33.519372 39.596546999999994 33.075770999999996 39.596546999999994 33.075770999999996 38.93118C33.075770999999996 38.487579 33.075770999999996 38.043357 32.632239 38.043357C32.375282999999996 38.007476999999994 32.275853999999995 38.137335 32.188638 38.487579Z" clip-rule="evenodd" stroke-width="1"></path><path fill="#000000" fill-rule="evenodd" d="M30.414302999999997 35.603654999999996C26.643107999999998 35.160053999999995 21.541248 33.385719 17.548287 34.716452999999994C14.221383 35.825421 11.115623999999999 38.709413999999995 8.675232 41.149116C8.231631 41.370881999999995 6.679061999999999 40.483748999999996 5.791929 42.036317999999994C5.570093999999999 42.47984999999999 5.3483279999999995 43.145216999999995 5.3483279999999995 43.589507999999995C2.686101 43.145906999999994 1.798968 44.033108999999996 0.69 46.472811C0.69 46.694576999999995 0.69 46.916411999999994 0.9117659999999999 46.916411999999994C1.577202 47.138177999999996 1.3553669999999998 46.02921 2.4643349999999997 44.920241999999995C3.129702 44.254875 3.795759 44.254875 4.904726999999999 44.254875C5.570093999999999 44.47671 6.013695 44.698476 6.235460999999999 44.254875C6.679061999999999 43.36774199999999 6.679061999999999 42.258084 7.344428999999999 42.036939H8.897688C9.784820999999999 41.814482999999996 11.115623999999999 40.040148 14.442528 37.600446C17.104685999999997 35.603586 19.322621999999996 34.938219 22.871981999999996 35.160053999999995C28.639967999999996 35.603586 30.857834999999998 36.712554 30.857834999999998 35.825421C30.857834999999998 35.603586 30.636069 35.603586 30.414302999999997 35.603586Z" clip-rule="evenodd" stroke-width="1"></path><path fill="#000000" fill-rule="evenodd" d="M5.126562 46.694646C7.566263999999999 47.581779 9.784820999999999 47.803545 12.668123999999999 46.916411999999994C13.112414999999999 46.916411999999994 12.889959 46.251045 12.446357999999998 46.251045C11.33739 46.472811 10.228422 46.472811 9.119454 46.251045C4.904726999999999 46.02921 4.682961 45.807444000000004 4.682961 46.251045C4.904726999999999 46.472811 4.904726999999999 46.694646 5.126493 46.694646Z" clip-rule="evenodd" stroke-width="1"></path><path fill="#000000" fill-rule="evenodd" d="M15.108584999999998 42.48054C12.446357999999998 53.349765 14.664294 46.02921 8.009865 56.454834C7.78803 56.898435 8.231631 57.120200999999994 8.453396999999999 56.898435C11.115623999999999 53.12793 13.555325999999997 51.353595 14.221383 50.022171C15.330350999999999 47.80423499999999 15.330350999999999 44.920241999999995 15.552116999999999 42.702374999999996C15.773952 42.258773999999995 15.108515999999998 42.036939 15.108515999999998 42.48054Z" clip-rule="evenodd" stroke-width="1"></path><path fill="#000000" fill-rule="evenodd" d="M53.26165199999999 40.262603999999996C59.69431499999999 44.47671 62.356473 44.254875 64.574409 46.695267C66.792345 48.913202999999996 67.679478 53.12793 67.45771199999999 55.1241C67.45771199999999 55.568321999999995 68.789136 56.233068 68.123769 51.79719599999999C66.792345 43.145906999999994 60.80328299999999 44.033108999999996 53.705183999999996 39.819002999999995C53.26165199999999 39.597237 52.818051 40.040838 53.26165199999999 40.262603999999996Z" clip-rule="evenodd" stroke-width="1"></path><path fill="#000000" fill-rule="evenodd" d="M15.329660999999998 36.269022C18.879710999999997 37.599756 23.537348999999995 41.370881999999995 28.417443 43.588817999999996C29.748245999999998 44.254253999999996 34.850106 46.02921 35.071940999999995 45.14207699999999C35.071940999999995 44.254253999999996 34.184739 45.363842999999996 28.861043999999996 42.701685C24.202716 40.483748999999996 21.319412999999997 37.821521999999995 15.552116999999999 35.82473099999999C15.330350999999999 35.603654999999996 15.108515999999998 36.047186999999994 15.330350999999999 36.269022Z" clip-rule="evenodd" stroke-width="1"></path><path fill="#000000" fill-rule="evenodd" d="M51.04302599999999 46.917723C57.91997999999999 49.357493999999996 66.126978 49.135659 67.01480099999999 52.462563C67.01480099999999 52.906164 67.679478 52.684398 67.679478 52.24079699999999C66.57051 47.582468999999996 55.257752999999994 47.582468999999996 51.264792 46.25173499999999C50.821259999999995 46.02989999999999 50.599425 46.695267 51.04302599999999 46.917102Z" clip-rule="evenodd" stroke-width="1"></path><path fill="#000000" fill-rule="evenodd" d="M43.944995999999996 51.353595C40.839237 54.015131999999994 42.170660999999996 56.233757999999995 48.60332399999999 52.906164C50.155823999999996 52.018961999999995 52.818051 50.46646199999999 53.26165199999999 48.913893C53.483418 48.24852599999999 53.03981699999999 47.582468999999996 51.930228 47.582468999999996C51.486627 47.582468999999996 51.486627 48.247836 51.930228 48.247836C55.701354 48.469601999999995 43.501394999999995 54.237587999999995 43.279629 53.57153099999999C43.057793999999994 53.57153099999999 43.279629 53.349765 43.501394999999995 53.12793C44.166762 52.018961999999995 44.832129 51.79719599999999 44.61036299999999 51.353595C44.166762 51.131828999999996 43.944995999999996 51.131828999999996 43.944995999999996 51.353595Z" clip-rule="evenodd" stroke-width="1"></path><path fill="#000000" fill-rule="evenodd" d="M41.948826 51.796506C40.395635999999996 53.127309 40.617402 54.458042999999996 41.726369999999996 56.232378C41.948204999999994 56.676669 42.614193 56.232378 42.392427 56.011233C42.170660999999996 55.12340999999999 41.948826 54.236898 42.170660999999996 53.34907499999999C42.392427 52.240107 42.614262 52.240107 42.392427 52.018341C42.392427 51.57473999999999 42.170660999999996 51.57473999999999 41.948826 51.796506Z" clip-rule="evenodd" stroke-width="1"></path><path fill="#000000" fill-rule="evenodd" d="M53.03981699999999 47.804925C54.148785 48.02669099999999 53.927019 49.135659 55.92312 53.12862C57.475688999999996 56.233757999999995 57.697455 56.67729 57.91929 56.45552399999999C58.14105599999999 56.45552399999999 58.14105599999999 56.233757999999995 58.14105599999999 56.011922999999996C56.81032199999999 52.906164 55.47958799999999 46.917102 53.03981699999999 47.138867999999995C52.81736099999999 47.138867999999995 52.595594999999996 47.804925 53.03981699999999 47.804925Z" clip-rule="evenodd" stroke-width="1"></path><path fill="#000000" fill-rule="evenodd" d="M19.100856 48.02538C16.661085 47.581779 19.322621999999996 45.363842999999996 22.206615 45.14207699999999C26.199507 44.920241999999995 27.973910999999998 46.916411999999994 36.403364999999994 47.581779C36.846966 47.581779 36.846966 46.916411999999994 36.403364999999994 46.916411999999994C27.973841999999998 46.02921 21.984779999999997 41.59271699999999 18.213654 45.585677999999994C16.88292 46.916411999999994 17.104685999999997 48.247145999999994 18.879020999999998 48.690746999999995C19.545078 48.690746999999995 19.544387999999998 48.02538 19.100856 48.02538Z" clip-rule="evenodd" stroke-width="1"></path><path fill="#000000" fill-rule="evenodd" d="M28.195677 50.243936999999995C31.522580999999995 50.465772 35.293707 51.35290499999999 43.057793999999994 49.80040499999999C43.501394999999995 49.80040499999999 43.279629 49.13496899999999 43.057793999999994 49.13496899999999C39.73089 49.57856999999999 35.293707 49.13496899999999 28.195677 49.57856999999999C27.752075999999995 49.57856999999999 27.752075999999995 50.243936999999995 28.195677 50.243936999999995Z" clip-rule="evenodd" stroke-width="1"></path></svg>