<svg xmlns="http://www.w3.org/2000/svg" fill="none" viewBox="-0.5 -0.5 70 70" id="Pointing-At-Cat-Meme-Hand-Drawn--Streamline-Memes.svg" height="70" width="70"><desc>Pointing At Cat Meme Hand Drawn Streamline Element: https://streamlinehq.com</desc><path fill="#000000" fill-rule="evenodd" d="M24.608781 44.45497499999999C23.724200999999997 43.79154 23.281910999999997 42.685745999999995 22.839621 42.022242C22.176116999999998 41.137662 22.618475999999998 40.47422699999999 23.060697 39.589647C24.387635999999997 37.156983 25.93572 37.378059 27.041514 36.93576899999999C29.031888 36.272265 28.147239 36.272334 29.695323 36.272334C31.022261999999998 36.493548 30.137681999999995 38.483784 29.474178 39.810722999999996C29.916468 40.695303 30.358757999999995 41.358807 30.137612999999998 42.24338699999999C29.695323 39.589577999999996 28.589597999999995 39.589647 28.368383999999995 40.47422699999999C28.147239 40.916585999999995 28.368383999999995 41.580020999999995 28.368383999999995 42.022242C28.368383999999995 43.570326 26.599223999999996 45.11840999999999 22.618475999999998 41.580020999999995C23.060697 42.906890999999995 23.724200999999997 43.79154 24.608781 44.454906ZM24.387635999999997 38.483922C26.156864999999996 38.70506699999999 27.483804 38.704997999999996 29.031819 37.59920399999999C29.695323 37.156914 29.916468 37.156983 29.253032999999995 36.93576899999999C28.589597999999995 36.93576899999999 27.704948999999996 37.378059 26.156864999999996 37.820418C25.714574999999996 37.820418 24.829995 38.041563 24.387635999999997 38.483922Z" clip-rule="evenodd" stroke-width="1"></path><path fill="#000000" fill-rule="evenodd" d="M21.291536999999998 13.715544C25.272284999999997 13.273253999999998 28.810743 17.032857 30.137681999999995 21.234681C30.579972 22.782833999999998 30.801116999999998 24.330917999999997 31.243406999999994 25.657788C31.685765999999997 26.984727 32.127987 28.090521 32.570346 29.417390999999995C33.012705 30.965474999999994 32.570346 31.407765 33.23385 31.407765C34.339574999999996 31.407765 32.570346 26.984657999999996 32.349200999999994 25.436642999999997C32.127987 24.109703999999997 31.906910999999997 22.782765 31.464621 21.455894999999998C29.916468 15.042482999999999 25.272284999999997 12.388673999999998 21.291536999999998 13.052109C20.849247 13.052109 20.849247 13.715544 21.291536999999998 13.715544Z" clip-rule="evenodd" stroke-width="1"></path><path fill="#000000" fill-rule="evenodd" d="M32.791284 32.513628C32.570208 34.28285699999999 31.685558999999998 37.379025 32.791284 40.696338C33.012498 41.138628 33.454719 40.917483 33.454719 40.475123999999994C33.012498 38.04246 33.89707799999999 36.273230999999996 33.454719 32.513628C33.454719 32.071338 32.791284 32.071338 32.791284 32.513628Z" clip-rule="evenodd" stroke-width="1"></path><path fill="#000000" fill-rule="evenodd" d="M26.820299999999996 36.494099999999996C26.378009999999996 36.494099999999996 25.93572 36.715244999999996 25.49343 36.715244999999996C23.060697 37.15760399999999 21.733826999999998 39.811412999999995 21.733826999999998 40.917207C21.733826999999998 42.022932 23.060697 44.01330599999999 23.502986999999997 44.45559599999999C26.156864999999996 47.55176399999999 31.464551999999998 44.45559599999999 30.358757999999995 41.138352C29.916468 39.369122999999995 29.474178 40.253772 29.916468 39.147977999999995C30.358757999999995 37.821107999999995 30.768411 36.355893 29.441471999999997 35.913672C28.582008 35.846534999999996 27.628221 36.292137 26.820299999999996 36.494099999999996ZM28.810674 39.811412999999995C28.589529 39.369122999999995 30.358757999999995 36.715244999999996 29.253032999999995 36.494099999999996L28.712004 36.515766C28.438004999999997 36.655284 27.938927999999997 36.82102199999999 27.041514 37.15760399999999C25.714574999999996 37.378749 24.387635999999997 37.378749 23.281910999999997 39.590337C22.839551999999998 40.474917 22.618406999999998 40.917207 23.060697 41.580710999999994C23.724132 42.465291 24.387635999999997 43.792161 25.49343 44.234451C27.262658999999996 44.897886 29.253032999999995 43.34987099999999 29.474178 42.24414599999999C29.474178 41.359428 29.253032999999995 40.474847999999994 28.810674 39.811412999999995Z" clip-rule="evenodd" stroke-width="1"></path><path fill="#000000" fill-rule="evenodd" d="M25.49343 24.329952C25.051071 26.983761 24.608781 25.435677 25.93572 27.868340999999997C26.156796 28.310699999999997 26.820299999999996 29.195279999999997 27.262658999999996 30.079928999999996C27.483804 30.522219 27.926094 30.301073999999996 27.926094 29.858784C27.483734999999996 27.868340999999997 27.041514 26.983829999999998 26.378009999999996 26.099180999999998C26.599155 23.445303 25.49343 23.666517 25.49343 24.329952Z" clip-rule="evenodd" stroke-width="1"></path><path fill="#000000" fill-rule="evenodd" d="M28.368315 30.744329999999998C29.171543999999997 31.132661999999996 28.810605 31.850123999999997 28.147169999999996 32.513558999999994C27.041445 33.840429 26.377941 33.398208 26.377941 34.061643C26.599085999999996 34.725147 28.147169999999996 34.061643 28.589529 33.61928399999999C31.022123999999998 32.071269 28.810605 29.85975 28.147169999999996 30.302039999999995C27.981707999999994 30.469088999999997 28.118742 30.708312 28.368315 30.744329999999998Z" clip-rule="evenodd" stroke-width="1"></path><path fill="#000000" fill-rule="evenodd" d="M25.714506 33.176718C25.208942999999998 32.958194999999996 24.692684999999997 33.134904 24.166490999999997 33.397932C23.724132 33.619077 23.945276999999997 34.28258099999999 24.387635999999997 34.061436C24.909483 33.800478 25.149258 33.840222 25.49343 33.840222C26.156796 33.840222 26.156796 33.176718 25.714506 33.176718Z" clip-rule="evenodd" stroke-width="1"></path><path fill="#000000" fill-rule="evenodd" d="M23.281772999999998 31.40742C22.175978999999998 32.070924 22.175978999999998 33.397863 23.060559 34.061297999999994C23.281772999999998 34.503588 23.945208 34.061297999999994 23.502848999999998 33.618939C23.096715 33.328449 23.275700999999998 31.992264 23.723993999999994 31.849778999999998C23.945208 31.628565 23.502917999999998 31.186274999999995 23.281772999999998 31.40742Z" clip-rule="evenodd" stroke-width="1"></path><path fill="#000000" fill-rule="evenodd" d="M21.291536999999998 39.148185C21.291536999999998 38.92704 22.618475999999998 34.503932999999996 22.618475999999998 34.282788C23.060697 33.17699399999999 23.281910999999997 32.734773 22.839621 32.734773C22.618475999999998 32.734773 22.397261999999998 32.734773 22.397261999999998 32.955918C20.628033 35.38858199999999 20.406957 37.378956 20.406957 39.369398999999994C20.406957 39.369398999999994 21.070392 39.590475 21.291536999999998 39.148185Z" clip-rule="evenodd" stroke-width="1"></path><path fill="#000000" fill-rule="evenodd" d="M27.262658999999996 26.541608999999998C28.147239 25.878174 30.358757999999995 24.108945 30.801116999999998 25.214739C31.022261999999998 25.657028999999998 31.464551999999998 25.435883999999998 31.464551999999998 24.993524999999995C31.243406999999994 24.108945 30.358757999999995 23.666655 29.253032999999995 23.887799999999995C27.926094 24.108945 27.483734999999996 25.214739 26.820299999999996 26.099318999999998C26.378009999999996 26.541677999999997 26.820299999999996 26.983899 27.262658999999996 26.541608999999998Z" clip-rule="evenodd" stroke-width="1"></path><path fill="#000000" fill-rule="evenodd" d="M30.801116999999998 25.215428999999997C30.579902999999998 25.657718999999997 29.695323 26.100008999999996 29.253032999999995 26.100008999999996C28.368383999999995 26.542367999999996 28.147239 26.321085 28.147239 26.763443999999996C28.147239 27.205734 29.474178 27.205734 29.916468 27.205734C31.464621 26.984589 31.906841999999997 25.215428999999997 31.464551999999998 24.994215C31.022261999999998 24.773069999999997 30.801116999999998 24.994215 30.801116999999998 25.215428999999997Z" clip-rule="evenodd" stroke-width="1"></path><path fill="#000000" fill-rule="evenodd" d="M29.031819 24.773139C27.926094 25.436574 29.031819 26.542367999999996 29.695254 25.878932999999996C30.579902999999998 25.215428999999997 29.695323 24.109634999999997 28.810674 24.994283999999997L29.031819 24.773139Z" clip-rule="evenodd" stroke-width="1"></path><path fill="#000000" fill-rule="evenodd" d="M21.291468 27.205319999999997C19.301094 25.436159999999997 17.310789 26.763099 15.320345999999997 28.311183C15.099200999999999 28.532259 15.099269999999999 28.753473 15.099269999999999 28.974617999999996C15.320414999999997 29.416838999999996 15.983849999999999 29.416908 17.310789 29.416908C18.858873 29.416908 19.301094 29.195694 19.301094 28.974617999999996C19.301094 28.532259 18.858873 28.753473 17.310789 28.532327999999996C17.089574999999996 28.532327999999996 16.868429999999996 28.532259 17.75301 28.090038C18.858873 27.426534 19.743453 27.205319999999997 20.849178 27.868824C21.070323 28.089968999999996 21.512612999999998 27.647678999999997 21.291468 27.205319999999997Z" clip-rule="evenodd" stroke-width="1"></path><path fill="#000000" fill-rule="evenodd" d="M19.079949 26.984589C17.974154999999996 27.426878999999996 18.637659 28.753887 19.522308 28.532673C20.628033 28.311527999999996 19.964598 26.763443999999996 18.858873 27.205734L19.079949 26.984589Z" clip-rule="evenodd" stroke-width="1"></path><path fill="#000000" fill-rule="evenodd" d="M19.079949 12.830205C17.089505999999997 12.166700999999998 15.320345999999997 13.272494999999997 14.435765999999997 15.041724C13.772262 16.810953 13.551116999999998 18.801327 13.108827 20.570556C12.224247 27.205181999999997 10.676162999999999 26.762753999999997 9.791583 30.964715999999996C9.570369 31.849296 9.128079 34.724318999999994 10.012728 34.503105C10.233804 34.503105 10.233804 34.282029 10.233804 34.060883999999994C9.570369 30.743571 13.108827 27.205112999999997 13.993407 22.782074999999995C14.656911 19.022471999999997 14.656911 12.166700999999998 18.858804 13.49364C19.301094 13.49364 19.522239 13.051349999999998 19.079949 12.830205Z" clip-rule="evenodd" stroke-width="1"></path><path fill="#000000" fill-rule="evenodd" d="M11.118384 17.253518999999997C11.781887999999999 26.763099 7.801139999999998 29.195694 8.906865 34.503381C10.454949 40.695716999999995 15.320345999999997 42.686021999999994 16.426071 44.89761C16.647285 45.33989999999999 17.31072 45.11868599999999 17.089505999999997 44.676465C16.426071 43.128381 14.877987 42.022518 13.772262 40.916793C7.801139999999998 34.282236 10.455017999999999 30.522701999999995 11.560742999999999 26.099594999999997C12.224178 23.003496 12.224247 20.570832 11.781887999999999 17.474664C11.781887999999999 16.811228999999997 11.118384 16.811228999999997 11.118384 17.253518999999997Z" clip-rule="evenodd" stroke-width="1"></path><path fill="#000000" fill-rule="evenodd" d="M30.579834 21.676764C28.147169999999996 22.561344 27.26259 23.888282999999998 27.041445 23.888282999999998C27.041445 23.888282999999998 26.377941 23.445923999999998 26.599085999999996 23.003703C27.483666 22.119123 29.03175 21.234405 30.358689 21.455619L30.579834 21.676764Z" clip-rule="evenodd" stroke-width="1"></path><path fill="#000000" fill-rule="evenodd" d="M21.512750999999998 24.330434999999998C19.301232 23.003496 14.435904 24.772725 14.657048999999999 25.215083999999997C14.878193999999999 25.436228999999997 14.435904 25.215083999999997 16.647423 24.993939C19.301232 24.772725 20.185812 25.436228999999997 20.849315999999998 25.215083999999997C21.070529999999998 25.215083999999997 21.733964999999998 24.551579999999998 21.512750999999998 24.330434999999998Z" clip-rule="evenodd" stroke-width="1"></path><path fill="#000000" fill-rule="evenodd" d="M14.877987 9.29154C12.224178 9.070395 9.791583 9.070464 7.358849999999999 11.945418C3.599247 16.14738 2.2723079999999998 22.118433 0.945369 26.541470999999998C0.945369 26.762615999999998 0.945369 26.983761 1.166583 26.983761C2.051163 27.204975 5.147330999999999 11.503127999999998 12.224178 10.176188999999999C13.108827 9.954975 13.772262 9.954975 14.656842 10.176188999999999C15.320345999999997 9.954975 15.320345999999997 9.512754 14.877987 9.291609Z" clip-rule="evenodd" stroke-width="1"></path><path fill="#000000" fill-rule="evenodd" d="M16.647354 9.29154C21.070460999999998 7.522379999999999 23.281979999999997 8.628174 25.935788999999996 11.724342C29.031888 15.262731 34.11843 24.772310999999995 35.003009999999996 28.310768999999997C35.887659 31.849226999999996 33.676071 34.72425 35.666444999999996 37.156914C35.887589999999996 37.37799 36.551094 37.156845 36.108804 36.714555C35.22422399999999 35.608761 35.445299999999996 34.060745999999995 35.666444999999996 32.733807C36.32994899999999 28.974203999999997 35.887589999999996 26.762684999999994 33.23385 21.454998C31.243406999999994 17.474249999999998 27.041514 9.29154 22.397261999999998 7.964669999999999C20.406957 7.301234999999999 18.195438 7.964739 16.205064 8.628174C15.983918999999998 8.849319 16.426209 9.29154 16.647354 9.29154Z" clip-rule="evenodd" stroke-width="1"></path><path fill="#000000" fill-rule="evenodd" d="M9.791583 13.272356999999998C7.358849999999999 17.253035999999998 5.147330999999999 22.560792 3.156957 28.531913999999997C1.6089419999999999 32.954952 2.714667 33.618387 2.0512319999999997 36.714486C1.6089419999999999 38.926004999999996 0.724293 39.147287999999996 1.166583 39.36836399999999C1.8300869999999998 39.81065399999999 2.4935219999999996 37.599135 2.714667 36.9357C3.378171 34.060745999999995 2.4935219999999996 33.397242 4.041606 28.974203999999997C7.580063999999999 19.022333999999997 8.685789 16.14738 10.012728 13.714647C10.455017999999999 13.272356999999998 10.012728 12.829998 9.791583 13.272356999999998Z" clip-rule="evenodd" stroke-width="1"></path><path fill="#000000" fill-rule="evenodd" d="M6.474269999999999 40.916379C6.695415 42.906752999999995 6.03198 44.454906 4.041606 44.89712699999999C3.599316 45.118272 3.820461 45.56056199999999 4.262751 45.56056199999999C10.012728 44.233692 6.916629 36.272195999999994 5.58969 36.714486C4.926254999999999 36.9357 5.368544999999999 37.59906599999999 5.368544999999999 39.36836399999999C5.58969 44.012547 1.166652 44.89712699999999 1.3877969999999997 45.56056199999999C1.8300869999999998 46.22406599999999 5.810835 44.012477999999994 6.474269999999999 40.916379Z" clip-rule="evenodd" stroke-width="1"></path><path fill="#000000" fill-rule="evenodd" d="M0.945369 48.65679899999999C2.4934529999999997 48.65679899999999 3.8203229999999997 48.435723 5.3684069999999995 47.772219C5.589551999999999 49.320302999999996 6.695346 50.64724199999999 8.022216 50.868387C9.128009999999998 53.522195999999994 11.560673999999999 55.733784 14.214552 54.62799C14.656842 54.406845 14.435696999999998 53.964555 13.993407 53.964555C11.781887999999999 54.849135 9.791514 52.195325999999994 9.128009999999998 49.98380699999999C9.128009999999998 49.76266199999999 8.906865 49.541447999999995 8.685719999999998 49.541447999999995C8.022216 49.320372 7.579994999999999 48.878012999999996 7.137636 48.435723C6.253056 47.108784 6.695346 46.445349 6.253056 46.00305899999999C5.589620999999999 45.781845 5.589551999999999 46.445349 3.5991779999999993 47.108784C1.3876589999999998 47.772288 0.945369 47.32992899999999 0.945369 47.99336399999999C0.5030789999999999 48.656867999999996 0.724224 48.65679899999999 0.945369 48.65679899999999Z" clip-rule="evenodd" stroke-width="1"></path><path fill="#000000" fill-rule="evenodd" d="M11.781887999999999 51.310815C12.887682 52.858899 13.993407 55.954997999999996 14.214621 58.60880699999999C14.214621 59.05109699999999 14.877987 59.05109699999999 14.877987 58.60880699999999C15.320345999999997 55.512639 14.656842 53.07997499999999 12.445322999999998 50.868455999999995C12.003102 50.647310999999995 11.560742999999999 51.089600999999995 11.781887999999999 51.310815Z" clip-rule="evenodd" stroke-width="1"></path><path fill="#000000" fill-rule="evenodd" d="M17.089505999999997 50.86907699999999C17.31072 49.099847999999994 16.868360999999997 47.330619 15.983780999999999 45.56139C15.762635999999999 45.119099999999996 15.099200999999999 45.119099999999996 14.877987 45.56139C13.772262 48.436412999999995 11.339597999999999 49.099847999999994 12.224178 49.763352C14.214552 51.53251199999999 15.762566999999999 54.18639 16.204925999999997 56.619054C16.204925999999997 57.06134399999999 16.868360999999997 57.06134399999999 16.868360999999997 56.619054C16.426071 53.965176 15.541490999999999 51.53258099999999 13.329902999999998 49.321062C14.214552 48.436412999999995 14.877987 47.772977999999995 15.320345999999997 46.88832899999999C15.983780999999999 47.994123 16.426071 49.321062 16.204925999999997 50.648001C16.426071 51.311436 17.089505999999997 51.311367 17.089505999999997 50.86907699999999Z" clip-rule="evenodd" stroke-width="1"></path><path fill="#000000" fill-rule="evenodd" d="M7.579994999999999 45.561597C10.454949 46.446245999999995 13.772262 44.01358199999999 11.339597999999999 41.802063C11.118384 41.580918 10.454949 42.023139 10.897238999999999 42.244353C11.560742999999999 43.128932999999996 11.118384 43.792437 10.012659 44.234657999999996C9.349224 44.45587199999999 8.464575 44.898162 7.801139999999998 44.898162C7.358780999999999 44.898162 7.137636 45.561597 7.5799259999999995 45.561597Z" clip-rule="evenodd" stroke-width="1"></path><path fill="#000000" fill-rule="evenodd" d="M17.31072 45.782672999999996C18.416445 47.773047 19.743384 51.53265 19.522239 54.40767299999999C19.522239 54.849962999999995 20.185674 54.850032 20.185674 54.628817999999995C21.070323 51.09042899999999 20.185674 48.436551 17.974154999999996 45.561527999999996C17.752941 44.898092999999996 17.089505999999997 45.340382999999996 17.31072 45.782672999999996Z" clip-rule="evenodd" stroke-width="1"></path><path fill="#000000" fill-rule="evenodd" d="M19.522377 47.330688C20.849247 48.436482 21.512750999999998 49.099917 24.387704999999997 49.763352C24.830063999999997 49.984497 25.051139999999997 49.321062 24.608849999999997 49.099917C23.724200999999997 48.657557999999995 22.839689999999997 47.994054 21.733895999999998 47.551832999999995C21.070460999999998 47.109474 20.406957 46.888397999999995 19.743522 46.667253C19.522377 46.446039 19.301232 47.109542999999995 19.522377 47.330688Z" clip-rule="evenodd" stroke-width="1"></path><path fill="#000000" fill-rule="evenodd" d="M24.166628999999997 46.666563C25.493568 47.551142999999996 27.041583 47.772288 28.589667 46.666563C29.031957 46.445349 28.810812 45.78191399999999 28.368453 46.003128C27.262728 46.22427299999999 25.051209 46.22427299999999 24.608849999999997 46.003128C24.166628999999997 45.78191399999999 23.72427 46.445349 24.166628999999997 46.666563Z" clip-rule="evenodd" stroke-width="1"></path><path fill="#000000" fill-rule="evenodd" d="M1.166583 58.16637899999999C3.820392 56.176004999999996 6.916559999999999 54.849135 10.012659 56.176004999999996C10.676162999999999 56.397219 10.897238999999999 57.724019999999996 11.339597999999999 58.608669C11.560742999999999 59.050959 12.224178 58.608737999999995 12.003033 58.387524C11.560742999999999 57.28179899999999 11.781887999999999 56.176004999999996 10.676162999999999 55.51250099999999C7.1377049999999995 53.522195999999994 3.820392 55.07028 0.945369 57.94523399999999C0.6761999999999999 58.16637899999999 0.8899619999999999 58.373861999999995 1.166583 58.16637899999999Z" clip-rule="evenodd" stroke-width="1"></path><path fill="#000000" fill-rule="evenodd" d="M7.137773999999999 60.600077999999996C8.685858 59.93657399999999 11.560811999999999 59.27307 13.551185999999998 60.157719C13.993476 60.37886399999999 14.214621 59.71542899999999 13.772331 59.494284C11.781956999999998 57.946268999999994 9.128148 57.9462 6.6954839999999995 59.936505C6.253125 60.157719 6.6954839999999995 60.821154 7.137773999999999 60.600077999999996Z" clip-rule="evenodd" stroke-width="1"></path><path fill="#000000" fill-rule="evenodd" d="M11.560742999999999 62.811527999999996C17.75301 55.955825999999995 30.358757999999995 47.109680999999995 32.791422 43.128932999999996C33.45492599999999 42.023139 33.89721599999999 40.475123999999994 34.781796 39.590543999999994C35.66637599999999 38.705895 36.993314999999996 38.04246 37.877894999999995 37.15787999999999C41.195277 34.28285699999999 44.733666 31.186688999999994 48.93555899999999 30.302108999999998C49.377918 30.302108999999998 50.262497999999994 30.523253999999998 50.926002 30.744398999999998C51.810582 30.744398999999998 52.695161999999996 30.523253999999998 53.358666 30.523253999999998C55.34903999999999 30.523253999999998 59.329788 31.850192999999997 61.762451999999996 31.850192999999997C62.647031999999996 31.850192999999997 63.973971 31.407833999999998 64.85855099999999 31.850192999999997C65.743269 32.071338 64.85855099999999 33.61942199999999 64.41626099999999 34.061712C61.54130699999999 36.052085999999996 55.34903999999999 33.840498 54.24324599999999 35.609727C54.022101 36.052017 54.46439099999999 36.273230999999996 54.906749999999995 36.052017C55.791329999999995 34.725215999999996 61.983666 37.15787999999999 65.079765 34.946292C66.18549 34.061712 67.07007 31.850192999999997 65.521986 31.186688999999994C64.41626099999999 30.744329999999998 63.08939099999999 31.186688999999994 62.20474199999999 31.186688999999994C59.77207799999999 31.186688999999994 55.791329999999995 29.859818999999998 53.57981099999999 29.638673999999998C52.695161999999996 29.638673999999998 51.810582 29.85975 51.14707799999999 29.85975C50.262497999999994 29.85975 49.820207999999994 29.41746 48.714483 29.41746C44.29137599999999 30.302108999999998 40.531773 33.398208 36.993314999999996 36.494307C35.887521 37.378956 34.781796 37.821315 33.676071 38.92704C31.464551999999998 41.359773 33.233712 41.359773 28.589529 45.78274199999999C22.176116999999998 51.753864 16.868429999999996 55.734680999999995 10.676162999999999 62.36923799999999C10.897307999999999 62.590382999999996 11.339666999999999 63.03274199999999 11.560742999999999 62.811527999999996Z" clip-rule="evenodd" stroke-width="1"></path><path fill="#000000" fill-rule="evenodd" d="M50.704788 31.849641C52.031727 34.061159999999994 54.02217 38.484128999999996 54.46439099999999 39.810998999999995C54.68560499999999 40.695716999999995 54.906749999999995 41.13793799999999 54.243314999999996 42.022586999999994C53.80095599999999 42.464877 53.358666 42.907236 52.695231 42.686091C52.252872 42.464946 52.031727 42.243801 51.810582 42.464946C51.589437 42.907236 52.031727 43.128381 52.474086 43.128381C54.02217 43.791816 56.454834 42.243801 55.570184999999995 39.36877799999999C54.906749999999995 36.936113999999996 53.358666 34.061159999999994 51.147147 31.407282C50.926002 30.964992 50.262567 31.407282 50.704788 31.849641Z" clip-rule="evenodd" stroke-width="1"></path><path fill="#000000" fill-rule="evenodd" d="M47.608757999999995 34.282442999999994C49.156772999999994 36.051671999999996 52.474086 41.801649 51.147216 43.57087799999999C50.92607099999999 44.01316799999999 50.26263599999999 44.234382 49.820277 44.013237C49.599132 44.013237 49.37798699999999 44.01316799999999 49.37798699999999 44.23431299999999C48.714552 45.340106999999996 54.243314999999996 46.00361099999999 52.03179599999999 39.59013C51.36836099999999 37.599756 50.483712 36.051671999999996 48.051047999999994 33.840153C47.608757999999995 33.397863 47.166468 33.840084 47.608757999999995 34.282442999999994Z" clip-rule="evenodd" stroke-width="1"></path><path fill="#000000" fill-rule="evenodd" d="M45.397101 36.715520999999995C46.945116 38.705895 50.262497999999994 44.677017 48.050909999999995 45.78274199999999C45.17595599999999 47.330825999999995 44.070231 40.696268999999994 42.964437 41.359704C42.743292 41.359704 42.743292 41.580918 42.743292 41.802063C43.627871999999996 43.350147 44.95481099999999 48.657765 48.493199999999995 46.888536C52.03165799999999 45.11930699999999 48.493199999999995 39.369398999999994 45.61824599999999 36.2733C45.397031999999996 36.052085999999996 44.95481099999999 36.494375999999995 45.397101 36.715520999999995Z" clip-rule="evenodd" stroke-width="1"></path><path fill="#000000" fill-rule="evenodd" d="M44.070161999999996 34.281753C44.512521 34.502897999999995 44.733596999999996 35.387477999999994 45.17595599999999 36.714417C45.17595599999999 37.156776 45.839459999999995 36.935630999999994 45.839459999999995 36.493272C45.839459999999995 35.829837 46.060536 35.166402 45.618314999999996 34.502897999999995C45.397101 34.060677 44.733666 33.618317999999995 44.29137599999999 33.618317999999995C44.070161999999996 33.397172999999995 43.627871999999996 34.060607999999995 44.070161999999996 34.281753Z" clip-rule="evenodd" stroke-width="1"></path><path fill="#000000" fill-rule="evenodd" d="M46.502964 32.292414C46.72410899999999 32.513628 46.72410899999999 32.955918 46.945185 32.955918C47.166399 33.398277 47.60868899999999 33.840498 47.60868899999999 34.061712C47.60868899999999 34.504002 48.272192999999994 34.28285699999999 48.272192999999994 33.840498C48.272192999999994 32.734773 48.051047999999994 31.850192999999997 46.945185 31.628978999999998C46.502964 31.628978999999998 46.281749999999995 32.071269 46.502964 32.292414Z" clip-rule="evenodd" stroke-width="1"></path><path fill="#000000" fill-rule="evenodd" d="M42.964368 41.358945C42.631443 41.418216 42.300933 41.537448 42.07978799999999 41.801303999999995C41.637498 42.022448999999995 42.07978799999999 42.685883999999994 42.300933 42.464739C42.56713499999999 42.344747999999996 42.964368 42.216269999999994 43.185582 42.02238C43.627871999999996 41.801235 43.406727 41.1378 42.964368 41.358945Z" clip-rule="evenodd" stroke-width="1"></path><path fill="#000000" fill-rule="evenodd" d="M39.204972 43.128726C40.310697 45.119099999999996 42.52221599999999 45.340314 44.291514 44.676809999999996C44.733735 44.455664999999996 44.512589999999996 44.013374999999996 44.070299999999996 44.013374999999996C42.74343 44.234519999999996 40.531911 43.57101599999999 39.647262 42.686436C39.426048 42.465291 38.762612999999995 42.907512 39.204972 43.128726Z" clip-rule="evenodd" stroke-width="1"></path><path fill="#000000" fill-rule="evenodd" d="M27.926094 66.791793C37.214459999999995 52.637961 35.666444999999996 53.301465 38.762544 48.878358C41.637567 44.676534 43.185582 44.89761 42.74336099999999 44.234175C42.301002 43.570671 38.983757999999995 47.10919799999999 38.099039999999995 48.214991999999995C35.224154999999996 51.974595 32.791422 57.945648 27.483734999999996 66.349503C27.041514 66.79172399999999 27.704948999999996 67.234083 27.926094 66.791793Z" clip-rule="evenodd" stroke-width="1"></path><path fill="#000000" fill-rule="evenodd" d="M54.685536 38.042252999999995C56.012406 37.821107999999995 57.56049 37.821107999999995 58.666284 38.263397999999995C59.329719 38.484612 59.550864 39.147977999999995 59.10857399999999 39.590337C58.223924999999994 40.474917 56.45469599999999 40.032695999999994 55.127757 40.696130999999994C54.685536 40.917276 54.906681 41.580710999999994 55.348971 41.359497C56.012406 41.138352 57.339344999999994 41.359497 58.223924999999994 41.138352C59.550864 40.917207 60.43544399999999 39.811412999999995 60.214299 38.705687999999995C59.550864 36.051809999999996 53.800818 36.936459 54.022031999999996 37.821107999999995C54.243176999999996 38.042252999999995 54.464322 38.042252999999995 54.685536 38.042252999999995Z" clip-rule="evenodd" stroke-width="1"></path><path fill="#000000" fill-rule="evenodd" d="M23.502986999999997 22.782144C23.724132 23.224434 23.724132 24.993731999999998 23.060697 25.214807999999998C22.618406999999998 25.214807999999998 22.839551999999998 25.878242999999998 23.281910999999997 25.878242999999998C24.829925999999997 25.878242999999998 25.49343 23.44551 24.166490999999997 22.339785C23.724132 21.897494999999996 23.060697 22.339854 23.502986999999997 22.782144Z" clip-rule="evenodd" stroke-width="1"></path><path fill="#000000" fill-rule="evenodd" d="M50.70485699999999 17.695809C50.92607099999999 18.801533999999997 50.483712 21.013122 50.04142199999999 21.897702C49.820277 22.340061 50.483781 22.561137 50.70485699999999 22.339992C52.03179599999999 20.791907999999996 52.47415499999999 19.243893 51.589574999999996 17.474664C51.147216 17.032373999999997 50.483781 17.253449999999997 50.70485699999999 17.695809Z" clip-rule="evenodd" stroke-width="1"></path><path fill="#000000" fill-rule="evenodd" d="M50.48357399999999 24.551441999999998C50.925933 25.436090999999998 51.589368 25.436090999999998 52.47394799999999 24.772586999999994C52.69509299999999 24.551510999999998 52.47394799999999 24.772586999999994 52.69509299999999 24.772586999999994C53.358596999999996 25.214945999999998 54.243176999999996 22.782282 51.589368 23.888006999999998L51.368154 23.666862C50.704719 23.003426999999995 50.041214999999994 23.224572 49.82007 23.445648C49.82007 24.330365999999998 50.262429 24.772586999999994 50.48357399999999 24.551441999999998Z" clip-rule="evenodd" stroke-width="1"></path><path fill="#000000" fill-rule="evenodd" d="M50.483712 28.753541999999996C49.820277 28.532327999999996 49.156772999999994 28.090106999999996 48.714483 27.868892999999996C49.820207999999994 27.426602999999997 51.147147 27.205388999999997 52.695231 28.753541999999996C52.91637599999999 29.195832 53.57981099999999 28.753541999999996 53.137589999999996 28.311251999999996C52.252872 26.984313 50.926002 26.099732999999997 49.156772999999994 26.320877999999997C48.272192999999994 26.542023 47.829834 26.763167999999997 47.166468 27.205457999999997C46.72410899999999 27.426672 46.72410899999999 27.868892999999996 46.945254 28.311251999999996C47.829834 28.753541999999996 48.714483 29.195832 50.041353 29.416976999999996C50.704788 29.416976999999996 50.92607099999999 28.753541999999996 50.483712 28.753541999999996Z" clip-rule="evenodd" stroke-width="1"></path><path fill="#000000" fill-rule="evenodd" d="M46.50282599999999 18.138236999999997C47.387406 17.253587999999997 48.714344999999994 17.253656999999997 49.82007 18.580596C50.041214999999994 19.022886 50.704649999999994 18.580527 50.483505 18.138236999999997C48.493131 13.936344 44.73352799999999 17.474733 45.397031999999996 18.359451C46.060466999999996 19.022886 46.723901999999995 19.022886 47.608551 19.244031C48.050841 19.465107 48.271986 18.801671999999996 47.82969599999999 18.580596C47.608481999999995 18.580596 46.945046999999995 18.359382 46.50282599999999 18.138236999999997Z" clip-rule="evenodd" stroke-width="1"></path><path fill="#000000" fill-rule="evenodd" d="M59.55093299999999 19.686666C58.22399399999999 17.917437 56.454764999999995 17.475078 54.46439099999999 18.802017C53.358666 19.465452 55.570184999999995 21.013536 56.89712399999999 21.234681C57.339344999999994 21.455894999999998 57.560627999999994 20.792391 57.118269 20.571315C56.675909999999995 20.350101 56.012474999999995 19.907811 55.791329999999995 19.465521C58.22399399999999 18.580872 59.329788 20.571246 59.77207799999999 20.128956C59.77207799999999 20.128956 59.77200899999999 19.907811 59.55093299999999 19.686666Z" clip-rule="evenodd" stroke-width="1"></path><path fill="#000000" fill-rule="evenodd" d="M48.272262 17.032718999999997C47.16653699999999 17.696154 48.051117 19.023162 48.935697 18.580803C49.599132 18.138513 48.935697 16.811642999999997 48.272262 17.475009V17.032718999999997Z" clip-rule="evenodd" stroke-width="1"></path><path fill="#000000" fill-rule="evenodd" d="M57.33927599999999 19.023093C56.233551 19.465383 56.896986 20.571177 57.56049 20.350032C58.445069999999994 20.128887 58.445069999999994 18.580803 57.33927599999999 19.023093Z" clip-rule="evenodd" stroke-width="1"></path><path fill="#000000" fill-rule="evenodd" d="M46.06039799999999 15.263075999999998H49.377779999999994C50.704649999999994 15.484220999999998 50.483505 16.147724999999998 50.925794999999994 15.926511C51.589299 15.484220999999998 49.820001 13.493846999999999 46.94497799999999 14.157351C45.839253 14.378426999999999 45.618108 14.599640999999998 45.618108 14.820785999999998C45.618108 15.041862 45.839322 15.263075999999998 46.06039799999999 15.263075999999998Z" clip-rule="evenodd" stroke-width="1"></path><path fill="#000000" fill-rule="evenodd" d="M55.570322999999995 16.810814999999998C57.11840699999999 16.368524999999998 59.32992599999999 17.695394999999998 60.435651 18.80112C60.656864999999996 19.022333999999997 61.320299999999996 18.801189 60.878009999999996 18.358898999999997C59.55107099999999 16.368524999999998 57.339552 14.820440999999999 55.127964 16.14738C54.685742999999995 16.368524999999998 55.127964 17.031959999999998 55.570322999999995 16.810814999999998Z" clip-rule="evenodd" stroke-width="1"></path><path fill="#000000" fill-rule="evenodd" d="M55.348971 6.638697C51.14707799999999 4.427178 48.050979 7.302201 46.060536 11.282948999999999C44.95481099999999 13.494468 44.512451999999996 15.705986999999999 43.849016999999996 17.917506C42.964437 20.35017 41.637498 22.340612999999998 40.973994 24.773277C40.310559 27.427086 40.310559 30.744398999999998 39.425979 32.955918C39.204834 33.398277 39.868269 33.619353 40.089414 33.177063C41.195208 30.302108999999998 40.973994 27.648230999999996 41.858643 24.994491C42.52207799999999 22.561757999999998 43.849016999999996 20.571384 44.95481099999999 18.138651C46.060536 15.042551999999999 48.272055 3.5425979999999995 55.127757 6.859910999999999C55.348971 7.523345999999999 55.79126099999999 6.8598419999999996 55.348971 6.638697Z" clip-rule="evenodd" stroke-width="1"></path><path fill="#000000" fill-rule="evenodd" d="M35.445299999999996 22.561275C36.108804 20.128611 39.868337999999994 9.070946999999999 41.858781 7.080572999999999C43.627941 5.311344 46.06060499999999 4.2056189999999996 48.493269 3.5421149999999995C51.368292 2.6575349999999998 53.801024999999996 2.43639 56.23368899999999 4.2056189999999996C56.675909999999995 4.426832999999999 56.89712399999999 3.984474 56.675909999999995 3.763329C54.24324599999999 1.55181 51.58950599999999 1.7729549999999998 48.272192999999994 2.6575349999999998C41.195346 4.426764 39.868337999999994 7.080572999999999 37.877964 12.388259999999999C36.108734999999996 17.253587999999997 35.445299999999996 19.686252 34.781864999999996 22.561275C34.781864999999996 23.003633999999998 35.445299999999996 23.003633999999998 35.445299999999996 22.561275Z" clip-rule="evenodd" stroke-width="1"></path><path fill="#000000" fill-rule="evenodd" d="M56.233551 5.974640999999999L55.791192 6.195785999999999C55.348971 6.416930999999999 55.570116 7.080366 56.012336999999995 6.859220999999999C56.45469599999999 6.638076 57.33927599999999 6.638076 57.56049 5.974640999999999C57.781634999999994 5.5322819999999995 57.11813099999999 5.089992 56.896986 4.868847C56.45469599999999 4.426557 56.45462699999999 4.426557 56.675771999999995 4.426557C57.11813099999999 4.426557 57.11813099999999 3.7631219999999996 56.675771999999995 3.7631219999999996C54.464253 3.541908 54.685466999999996 4.868847 56.233551 5.974640999999999Z" clip-rule="evenodd" stroke-width="1"></path><path fill="#000000" fill-rule="evenodd" d="M57.781842 4.868847C63.752964 6.416930999999999 65.301048 12.830343 67.512567 19.243824C67.733712 19.686114 68.176071 19.464969 68.176071 19.022678999999997C66.185628 11.724618 65.52219299999999 5.974640999999999 58.00298699999999 4.205481C57.560697 3.984267 57.339483 4.647702 57.781842 4.868847Z" clip-rule="evenodd" stroke-width="1"></path><path fill="#000000" fill-rule="evenodd" d="M58.002849 7.965635999999999C61.54130699999999 10.398299999999999 61.762451999999996 13.936827 61.983596999999996 18.138651C61.983596999999996 18.802155 61.98352799999999 19.244445 61.76238299999999 19.90788C60.43551299999999 23.667482999999997 61.09894799999999 21.677108999999998 60.877803 24.552131999999997C60.656727 26.763651 58.002849 29.638605 58.666284 30.080894999999998C58.88742899999999 30.080894999999998 59.108642999999994 30.080894999999998 59.108642999999994 29.85975C59.550864 28.97517 60.214368 27.869376 60.877803 26.984796C62.20474199999999 24.552131999999997 61.762451999999996 23.888628 61.983596999999996 22.340543999999998C62.425886999999996 20.792529 63.08939099999999 20.129025 63.08939099999999 18.138651C62.86824599999999 13.273322999999998 62.425886999999996 9.95601 58.445139 7.302201C58.002849 7.302201 57.56055899999999 7.744491 58.002849 7.965635999999999Z" clip-rule="evenodd" stroke-width="1"></path><path fill="#000000" fill-rule="evenodd" d="M40.973994 25.656959999999998C40.310489999999994 27.868548 40.531704 29.416632 41.858643 31.407006C42.07978799999999 31.849364999999995 42.74322299999999 31.407006 42.522009 30.964647C41.858643 29.637776999999996 41.637429 26.541677999999997 41.637429 25.656959999999998C41.858643 25.435883999999998 41.195139 25.435883999999998 40.973994 25.656959999999998Z" clip-rule="evenodd" stroke-width="1"></path><path fill="#000000" fill-rule="evenodd" d="M43.18565099999999 46.003955999999995C44.733666 50.869284 41.858712 51.753864 40.310627999999994 55.07117699999999C38.541399 59.05192499999999 41.858781 61.484519999999996 42.07992599999999 63.253817999999995C42.301002 64.138398 41.637567 64.35954299999999 42.07992599999999 64.58075699999999C42.522147 64.801902 42.74336099999999 63.696039 42.74336099999999 63.032604C42.522147 60.821085 39.647192999999994 58.83078 41.195277 55.513397999999995C42.74336099999999 52.196154 45.618314999999996 51.31157399999999 43.627941 45.561597C43.627941 45.340452 42.964506 45.561597 43.18565099999999 46.003955999999995Z" clip-rule="evenodd" stroke-width="1"></path><path fill="#000000" fill-rule="evenodd" d="M36.772031999999996 54.407604C33.675933 60.82101599999999 40.531704 63.25374899999999 38.320116 65.68641299999999C38.098971 65.907558 38.541261 66.571062 38.762406 66.128772C42.079719 63.25374899999999 35.66623799999999 60.599871 37.43553599999999 54.628749C37.656681 54.18645899999999 36.993176999999996 53.965244999999996 36.772031999999996 54.407604Z" clip-rule="evenodd" stroke-width="1"></path><path fill="#000000" fill-rule="evenodd" d="M54.68560499999999 42.90765C48.714414 50.426856 49.820207999999994 58.609427999999994 48.27212399999999 66.349779C48.27212399999999 66.792069 48.714414 67.013283 48.93555899999999 66.570924C50.925933 58.167138 50.926002 49.321062 55.12782599999999 43.34994C55.34903999999999 42.90758099999999 54.906681 42.46536 54.68560499999999 42.90765Z" clip-rule="evenodd" stroke-width="1"></path><path fill="#000000" fill-rule="evenodd" d="M43.627941 54.185976C44.070231 55.95520499999999 44.512521 60.820601999999994 44.512521 62.589831C44.733666 66.570579 44.512521 66.57051 45.176024999999996 66.57051C45.39717 66.57051 45.39717 66.34936499999999 45.618314999999996 66.34936499999999C45.839459999999995 61.92632699999999 46.06060499999999 59.05137299999999 44.291444999999996 53.964831C44.070231 53.52261 43.627941 53.74368599999999 43.627941 54.185976Z" clip-rule="evenodd" stroke-width="1"></path><path fill="#000000" fill-rule="evenodd" d="M51.589437 49.541999999999994C47.387474999999995 52.417023 46.723971 55.95548099999999 44.29130699999999 54.849686999999996C43.849016999999996 54.628541999999996 43.627871999999996 55.291977 44.070093 55.513121999999996C47.166329999999995 57.50349599999999 49.377849 53.080458 52.03165799999999 50.205434999999994C52.252803 49.76321399999999 52.03165799999999 49.320854999999995 51.589437 49.541999999999994Z" clip-rule="evenodd" stroke-width="1"></path><path fill="#000000" fill-rule="evenodd" d="M61.76238299999999 39.147495C68.839368 43.128312 67.73357399999999 43.791746999999994 68.17586399999999 43.349456999999994C68.839368 42.907098 66.848925 41.13793799999999 66.406635 40.695648C64.85855099999999 39.36877799999999 63.53168099999999 38.926418999999996 61.76238299999999 38.48406C61.76238299999999 38.262983999999996 61.54130699999999 38.926418999999996 61.76238299999999 39.147495Z" clip-rule="evenodd" stroke-width="1"></path><path fill="#000000" fill-rule="evenodd" d="M63.75282599999999 19.244445C63.973971 23.888696999999997 65.522055 27.205940999999996 63.75282599999999 30.302108999999998V30.744398999999998C64.41632999999999 31.186757999999998 66.406635 27.869376 65.079765 22.561757999999998C64.85855099999999 21.456032999999998 64.41626099999999 20.35017 64.195116 19.244445C64.41626099999999 18.802155 63.75282599999999 18.802155 63.75282599999999 19.244445Z" clip-rule="evenodd" stroke-width="1"></path></svg>