<svg xmlns="http://www.w3.org/2000/svg" fill="none" viewBox="-0.5 -0.5 70 70" id="Roll-Safe-Hand-Drawn--Streamline-Memes.svg" height="70" width="70"><desc>Roll Safe Hand Drawn Streamline Element: https://streamlinehq.com</desc><path fill="#000000" fill-rule="evenodd" d="M44.63223599999999 32.8716C39.00404399999999 27.919815 31.350288 36.02352 37.878378 36.473538C40.35465 36.69916799999999 43.056621 35.573571 44.63223599999999 34.222896C45.082184999999996 33.997265999999996 44.63223599999999 33.322308 44.18152799999999 33.772256999999996C41.480315999999995 35.798511 36.97848 35.573571 36.527772 34.672914C36.30276299999999 33.997265999999996 40.579659 30.396017999999998 44.18152799999999 33.322308C44.407227 33.772256999999996 44.857176 33.096608999999994 44.63223599999999 32.8716Z" clip-rule="evenodd" stroke-width="1"></path><path fill="#000000" fill-rule="evenodd" d="M39.327515999999996 32.269161C37.528962 33.168437999999995 38.878187999999994 34.966992 40.002474 34.516974C41.351079 34.067715 40.901751 31.819832999999996 38.878187999999994 32.269161H39.327515999999996Z" clip-rule="evenodd" stroke-width="1"></path><path fill="#000000" fill-rule="evenodd" d="M39.103197 32.044152C36.630374999999994 32.943429 38.20392 36.090519 40.226793 35.191242C42.250356 34.291965 40.901751 31.369884 39.103197 32.044152ZM39.327515999999996 32.718419999999995C38.428239 33.392756999999996 39.327515999999996 34.291965 39.777465 34.067715C40.451801999999994 33.842015999999994 40.226793 32.718419999999995 39.328205999999994 32.718419999999995Z" clip-rule="evenodd" stroke-width="1"></path><path fill="#000000" fill-rule="evenodd" d="M57.68848499999999 27.918435C55.437222 26.117811 52.735941 27.243477 52.060293 29.044031999999994C51.385335 30.845346 52.511001 31.970942999999995 54.086547 31.745312999999996C55.212213 31.745312999999996 57.68848499999999 30.845346 58.138434 29.269730999999997C58.138434 28.819092 57.68848499999999 28.594082999999998 57.46347599999999 29.044031999999994C57.237776999999994 30.169698 53.86160699999999 30.845346 53.186648999999996 30.169698C52.510932 29.49474 54.537255 26.342819999999996 57.238467 28.144064999999998C57.68848499999999 28.594082999999998 58.138434 28.144064999999998 57.68848499999999 27.918435Z" clip-rule="evenodd" stroke-width="1"></path><path fill="#000000" fill-rule="evenodd" d="M54.747842999999996 29.836634999999998C55.699836 30.164246999999996 56.030139 28.893611999999997 55.238915999999996 28.408748999999997C54.765645 27.926645999999998 53.159256 29.503640999999995 54.747842999999996 29.836634999999998Z" clip-rule="evenodd" stroke-width="1"></path><path fill="#000000" fill-rule="evenodd" d="M55.400928 27.933476999999996C55.086357 27.612074999999997 54.290373 27.763874999999995 53.64887999999999 28.393707C53.167466999999995 28.865598 53.315886 29.980292999999996 54.427131 30.149825999999997C56.32828799999999 30.803600999999997 56.667491999999996 28.581111 55.40161799999999 27.933476999999996ZM55.077525 28.566069C54.760194 28.563308999999997 54.43603199999999 29.195900999999996 54.754053 29.199281999999997C55.068624 29.519994 55.392785999999994 28.886780999999996 55.077525 28.566069Z" clip-rule="evenodd" stroke-width="1"></path><path fill="#000000" fill-rule="evenodd" d="M52.510932 29.044722C51.16032599999999 31.746002999999995 52.736630999999996 33.997265999999996 54.537255 36.248529C54.76219499999999 36.698477999999994 55.437222 36.248529 54.98720399999999 35.798511C54.086547 33.997265999999996 52.511622 31.071045 53.18657999999999 29.044722C53.18657999999999 28.819782 52.510932 28.594772999999996 52.510932 29.044722Z" clip-rule="evenodd" stroke-width="1"></path><path fill="#000000" fill-rule="evenodd" d="M56.78782799999999 40.300416C58.138434 40.075407 59.039091 38.49979199999999 58.138434 37.14918599999999C57.68848499999999 36.473538 55.662851999999994 34.672914 55.437222 35.573571C55.212213 36.248529 56.562819 36.248529 57.46347599999999 37.599135C58.138434 38.949740999999996 56.112869999999994 39.625389 56.78782799999999 39.174749999999996C56.562819 39.174749999999996 56.112869999999994 39.174749999999996 55.887860999999994 39.625457999999995C55.437222 40.525355999999995 55.437222 40.976063999999994 54.537255 41.426013C54.086547 41.651711999999996 53.86160699999999 41.426013 53.411589 41.426013C51.610344 40.976063999999994 49.35970199999999 43.001628 47.783466 41.651711999999996C46.6578 40.751054999999994 48.23410499999999 39.625457999999995 47.55845699999999 39.400448999999995C46.883499 38.949740999999996 46.207851 40.976063999999994 46.883499 41.876031C47.55845699999999 43.227326999999995 49.584711 43.452335999999995 51.385335 43.001628C53.186648999999996 42.551679 52.735941 42.551679 53.636598 42.551679C54.311555999999996 42.777308999999995 54.762263999999995 42.777308999999995 55.437222 42.325979999999994C56.337879 41.876720999999996 56.337879 41.201072999999994 56.78782799999999 40.300416Z" clip-rule="evenodd" stroke-width="1"></path><path fill="#000000" fill-rule="evenodd" d="M52.510932 29.269730999999997C53.185959 27.694115999999998 54.986514 25.217844 57.012837 24.092246999999997C57.46347599999999 23.866547999999998 57.238467 23.191589999999998 56.78782799999999 23.416598999999998C53.86160699999999 24.542195999999997 52.28599199999999 26.34351 51.835283999999994 29.044722C51.835283999999994 29.71968 52.510932 29.71968 52.510932 29.270421Z" clip-rule="evenodd" stroke-width="1"></path><path fill="#000000" fill-rule="evenodd" d="M45.307193999999996 28.144064999999998C41.030297999999995 27.019157999999997 37.429119 27.469106999999997 34.727838 30.620336999999996C34.502207999999996 30.846035999999998 34.95215699999999 31.520993999999998 35.177166 31.071045C37.878378 28.819782 41.930955 28.369764 45.307193999999996 28.594772999999996C45.617625 28.594772999999996 45.761283 28.26378 45.307193999999996 28.144064999999998Z" clip-rule="evenodd" stroke-width="1"></path><path fill="#000000" fill-rule="evenodd" d="M53.539515 42.156378C51.066624 43.280663999999994 48.143853 45.303537 47.245266 45.753485999999995C46.345988999999996 45.978494999999995 45.446712 46.202814 44.54743499999999 46.652763C43.648157999999995 47.327031 44.32242599999999 48.225618 47.694525 47.327031C50.842374 46.427754 53.090187 44.404259999999994 53.98946399999999 43.954932C55.113749999999996 43.504982999999996 56.237345999999995 43.505672999999994 57.36087299999999 43.280663999999994C58.0359 43.055655 58.485158999999996 42.381387 58.485158999999996 41.70711899999999C58.485158999999996 41.257101 56.013026999999994 41.257101 55.788017999999994 41.48142C55.113749999999996 41.931369 54.214473 42.606396 53.539515 42.156378Z" clip-rule="evenodd" stroke-width="1"></path><path fill="#000000" fill-rule="evenodd" d="M53.764455 41.930679C53.31519599999999 41.48142 48.818811000000004 44.179251 47.919534 44.629200000000004C46.795247999999994 45.303537 46.120979999999996 45.303537 44.997384 45.527787C41.400276 46.877081999999994 44.32242599999999 50.698508999999994 52.415919 45.527787C53.090187 45.07852799999999 53.539515 44.629200000000004 54.214473 44.404259999999994C55.113749999999996 43.954241999999994 56.237345999999995 43.954241999999994 57.361563 43.729923C58.26084 43.504982999999996 58.934487 42.605706 58.710167999999996 41.70642899999999C58.485158999999996 41.032092 57.810891 41.032092 57.136623 41.032092C56.687295 41.032092 56.012336999999995 41.032092 55.338069 41.257101C54.888740999999996 41.48142 54.43879199999999 42.156378 53.765145 41.931369ZM44.997384 47.102091C44.771753999999994 47.102091 44.771753999999994 47.102091 44.997384 47.102091ZM58.0359 41.931369C57.58657199999999 41.931369 56.237345999999995 41.70642899999999 55.788017999999994 41.931369C54.888740999999996 42.156378 54.43879199999999 42.830645999999994 53.539515 42.605706C53.090187 42.605706 48.818811000000004 45.527787 48.369482999999995 45.527787C46.795247999999994 46.427064 45.671651999999995 46.427754 44.772375 47.102091C47.694525 47.776359 53.090187 43.729923 53.539515 43.504982999999996C55.563008999999994 42.605706 58.0359 43.504982999999996 58.0359 41.931438ZM44.997384 47.101400999999996C44.997384 46.877081999999994 44.771753999999994 46.877081999999994 44.997384 47.101400999999996C44.771753999999994 47.101400999999996 44.771753999999994 47.101400999999996 44.997384 47.101400999999996ZM58.0359 41.931369C58.26084 42.156378 58.0359 42.156378 58.0359 41.931369C58.26084 42.156378 58.26084 42.156378 58.0359 41.931369Z" clip-rule="evenodd" stroke-width="1"></path><path fill="#000000" fill-rule="evenodd" d="M57.68848499999999 43.451646C58.138434 45.70290899999999 53.636598 47.728472999999994 51.610344 48.40412099999999C47.108439 49.754726999999995 44.857176 48.854138999999996 43.731578999999996 49.07907899999999C43.281560999999996 49.30477799999999 42.605913 49.979735999999995 43.056621 50.20474499999999C43.506569999999996 50.430375 43.506569999999996 49.979046 43.956587999999996 49.754726999999995C44.857176 49.529097 47.333448 50.65469399999999 51.835283999999994 49.529097C54.76219499999999 48.629129999999996 59.039091 46.377866999999995 58.138434 43.22594699999999C58.364132999999995 42.775997999999994 57.68848499999999 43.000938 57.68848499999999 43.451646Z" clip-rule="evenodd" stroke-width="1"></path><path fill="#000000" fill-rule="evenodd" d="M56.78782799999999 47.50415399999999C57.013526999999996 51.10540199999999 50.935385999999994 53.356665 47.55845699999999 52.00598999999999C47.108508 51.780359999999995 46.883499 52.456008 47.332758 52.681017C51.610344 54.93227999999999 58.363443 52.230999 57.46347599999999 47.50415399999999C57.46347599999999 46.828506 56.78782799999999 47.053515 56.78782799999999 47.50415399999999Z" clip-rule="evenodd" stroke-width="1"></path><path fill="#000000" fill-rule="evenodd" d="M50.935385999999994 11.936585999999998C54.98720399999999 21.165957 58.58845199999999 22.291622999999998 57.46347599999999 26.34351C57.237776999999994 26.794148999999997 57.913425 27.019157999999997 58.138434 26.569139999999997C59.48910899999999 22.516632 56.562819 19.590342 53.185959 14.187849C51.385335 11.486637 51.610344 11.260938 51.16032599999999 11.486637C50.934695999999995 11.486637 50.934695999999995 11.711646 50.934695999999995 11.936585999999998Z" clip-rule="evenodd" stroke-width="1"></path><path fill="#000000" fill-rule="evenodd" d="M57.68848499999999 32.64666C59.039091 35.572881 58.81408199999999 39.174749999999996 57.913425 41.876031C57.687795 42.325979999999994 58.363443 42.550989 58.58845199999999 42.100971C60.164756999999994 38.49910199999999 60.61470599999999 35.572881 58.363443 32.195952C57.91349399999999 31.970942999999995 57.46347599999999 32.195952 57.68848499999999 32.64666Z" clip-rule="evenodd" stroke-width="1"></path><path fill="#000000" fill-rule="evenodd" d="M55.887860999999994 50.429753999999996C54.086547 56.507895 51.385335 61.010421 45.082875 60.33477299999999C40.129709999999996 59.884755 36.862905 55.869851999999995 36.637206 56.995448999999994C36.637206 57.22114799999999 36.753471 57.858501 36.97848 57.858501C38.554095 58.53414899999999 39.679691999999996 59.43411599999999 41.255306999999995 60.109764C44.63223599999999 61.910388 49.80972 62.13601799999999 52.96094999999999 58.75915799999999C55.212213 56.507895 56.112869999999994 53.356665 56.78782799999999 50.20474499999999C56.78782799999999 50.20474499999999 56.112869999999994 49.979735999999995 55.887860999999994 50.430375Z" clip-rule="evenodd" stroke-width="1"></path><path fill="#000000" fill-rule="evenodd" d="M44.18152799999999 41.876031C44.407227 41.650332 44.857176 40.525355999999995 45.082184999999996 40.300416C45.307884 39.849708 45.757833 39.174749999999996 45.307884 38.949051C44.856486 38.72411099999999 44.856486 39.174749999999996 44.407227 39.849708C43.731578999999996 40.750364999999995 43.056621 41.200314 43.056621 41.651022C42.830921999999994 42.325979999999994 43.731578999999996 43.67658599999999 42.605913 45.70290899999999C41.705256 47.278524 40.805358 47.278524 41.030297999999995 47.728472999999994C41.480315999999995 48.629129999999996 45.532134 45.02719199999999 44.18152799999999 41.876031ZM44.18152799999999 41.876031C44.18152799999999 42.100971 43.956587999999996 42.100971 44.18152799999999 41.876031Z" clip-rule="evenodd" stroke-width="1"></path><path fill="#000000" fill-rule="evenodd" d="M14.467160999999999 30.170388C15.592757999999998 29.944688999999997 16.718424 30.170388 17.618391 30.620336999999996C19.644645 28.594772999999996 22.120917 25.893492 25.272146999999997 26.118501C25.272146999999997 24.992834999999996 25.497846 24.542886 25.497846 24.542886C25.497846 23.867238 25.272146999999997 22.291622999999998 24.822128999999997 21.165957C23.696531999999998 18.464744999999997 20.770311 20.940326999999996 18.969687 21.165957C14.91711 21.391656 13.567194 18.014037 15.592757999999998 18.689754C16.267785 18.915383999999996 16.943433 19.365402 17.844089999999998 19.365402C20.094662999999997 19.590342 22.120917 18.914694 23.246582999999998 16.889129999999998C27.073460999999998 10.58598 34.502207999999996 12.386603999999998 40.805358 12.161594999999998C43.055931 11.935896 46.882808999999995 12.161594999999998 48.45911399999999 10.135340999999999C49.584021 8.559726 48.008405999999994 6.533403 46.882808999999995 5.4084959999999995C42.155964 1.1309099999999999 27.298401 -1.120353 18.743987999999998 5.182797C11.090232 11.035998 9.514617 22.291622999999998 14.242151999999997 30.395328V30.170388H14.467160999999999Z" clip-rule="evenodd" stroke-width="1"></path><path fill="#000000" fill-rule="evenodd" d="M14.692169999999999 29.72037C12.441597 30.620336999999996 11.76588 33.096608999999994 12.891545999999998 34.447905C13.117244999999999 34.897923 13.792203 34.447905 13.566503999999998 33.997265999999996C13.116554999999998 32.646590999999994 14.242151999999997 30.620336999999996 14.9178 30.170388C15.592826999999998 30.170388 15.142809 29.49543 14.692169999999999 29.72037Z" clip-rule="evenodd" stroke-width="1"></path><path fill="#000000" fill-rule="evenodd" d="M49.80972 60.109764C49.584021 61.23536099999999 49.35908099999999 61.911077999999996 49.584021 63.036674999999995C50.259669 65.06223899999999 51.610344 66.18790499999999 52.736630999999996 67.538511C52.96094999999999 67.98921899999999 53.636598 67.538511 53.185959 67.088562C52.510932 65.962896 51.835283999999994 65.06230799999999 51.16032599999999 63.93664199999999C49.584711 61.010421 50.934695999999995 59.65974599999999 50.034729 59.65974599999999C50.034729 59.65974599999999 49.80902999999999 59.88544499999999 49.80902999999999 60.109764Z" clip-rule="evenodd" stroke-width="1"></path><path fill="#000000" fill-rule="evenodd" d="M51.835283999999994 59.209796999999995C55.212213 65.737956 54.76219499999999 65.737956 55.212213 65.51225699999999C55.437912 65.51225699999999 55.437912 65.287248 55.437912 65.06230799999999C54.986514 61.911077999999996 53.86160699999999 60.560402999999994 52.510932 58.75915799999999C52.06098299999999 58.53414899999999 51.610344 58.984788 51.835283999999994 59.209796999999995Z" clip-rule="evenodd" stroke-width="1"></path><path fill="#000000" fill-rule="evenodd" d="M54.536564999999996 56.732835C57.237776999999994 59.209106999999996 57.012837 59.209106999999996 61.740372 60.109764C65.56725 60.784721999999995 68.04345299999999 62.13601799999999 68.268462 61.46036999999999C68.494161 61.010421 67.818513 60.785412 65.79288 60.109764C58.589141999999995 57.408483 59.939057999999996 59.659814999999995 54.98720399999999 56.282886C54.761573999999996 56.057187 54.311555999999996 56.508585 54.536564999999996 56.732835Z" clip-rule="evenodd" stroke-width="1"></path><path fill="#000000" fill-rule="evenodd" d="M65.56725 66.63785399999999C63.54161699999999 64.6116 62.416019999999996 62.810976 59.714738999999994 60.559713C58.364132999999995 59.43411599999999 55.887860999999994 57.632802 54.762263999999995 56.282886C54.536564999999996 55.832178 53.86160699999999 56.282886 54.31224599999999 56.732835C55.662851999999994 58.75915799999999 63.766626 65.962206 65.11723199999999 67.31288099999999C65.56725 67.31288099999999 66.017889 66.86286299999999 65.56725 66.63785399999999Z" clip-rule="evenodd" stroke-width="1"></path><path fill="#000000" fill-rule="evenodd" d="M19.419636 66.638544C14.467160999999999 59.435496 14.017142999999997 59.21048699999999 11.991579 51.33103199999999C11.76588 50.206125 11.090921999999997 48.85545 11.090921999999997 47.72985299999999C11.090921999999997 45.02857199999999 13.566503999999998 44.802941999999994 13.566503999999998 35.573571C13.566503999999998 33.772946999999995 16.493415 32.64666 18.069029999999998 31.071045C19.194696 29.72037 20.995941 28.595463 22.571556 27.469797C23.021574 27.019157999999997 23.697222 26.344199999999997 24.147170999999997 26.569139999999997C25.722786 26.569139999999997 25.272836999999996 31.071665999999997 20.770311 32.197331999999996C20.320293 32.421651 20.320293 34.222896 18.069029999999998 36.02352C17.619080999999998 36.474159 18.519737999999997 38.274783 17.394071999999998 42.101661C17.394071999999998 42.551679 17.844020999999998 42.777308999999995 18.069029999999998 42.32736C18.519737999999997 40.526046 18.744677999999997 38.725422 18.744677999999997 36.473469C19.870344 35.573571 20.995251 34.447905 21.445959 32.87229C27.074081999999997 31.296675 27.299090999999997 25.443542999999995 24.37287 25.443542999999995C23.471522999999998 25.443542999999995 22.571556 26.119191 21.895908 26.569139999999997C20.320293 27.694805999999996 18.519737999999997 28.595463 17.168373 30.171077999999998C15.592757999999998 31.971633 12.441597 32.87229 12.441597 35.573571C12.441597 44.802941999999994 9.740316 44.577932999999994 9.965325 47.72985299999999C9.965325 49.080459 10.640282999999998 50.431065 10.865981999999999 51.55673099999999C13.116554999999998 60.110454 13.792203 60.110454 18.743987999999998 67.089252C19.195386 67.31419199999999 19.645335 66.863553 19.419705 66.638544Z" clip-rule="evenodd" stroke-width="1"></path><path fill="#000000" fill-rule="evenodd" d="M14.9178 45.70290899999999C15.592757999999998 43.902285 17.168373 43.677276 18.519048 42.776619C20.095353 41.876720999999996 21.22026 40.751054999999994 22.796564999999998 39.849708C25.272146999999997 38.49979199999999 28.199057999999997 38.49979199999999 28.874706 40.976063999999994C28.874706 41.201004 29.099714999999996 41.201004 29.324724 41.201004C29.999682 40.975373999999995 29.324724 38.949740999999996 27.749108999999997 38.274093C24.147170999999997 36.473538 20.095284 40.300416 18.069029999999998 41.651022C16.267785 42.776619 14.9178 43.226637 14.242151999999997 45.252891C14.016522 45.928539 14.692169999999999 46.153548 14.9178 45.70290899999999Z" clip-rule="evenodd" stroke-width="1"></path><path fill="#000000" fill-rule="evenodd" d="M21.445959 45.70290899999999C22.571556 44.12729399999999 24.147170999999997 44.352233999999996 25.722786 43.677276C27.974048999999997 42.776619 32.701584 38.274783 33.82656 42.776619C34.052189999999996 43.226637 33.82656 43.677276 34.277198999999996 43.677276C35.177856 43.677276 34.502897999999995 39.850398 31.800926999999994 39.625389C30.000372 39.625389 27.749108999999997 40.976063999999994 26.398433999999998 41.876031C24.147170999999997 43.226637 23.697222 43.001628 22.571556 43.677276C21.895908 44.12729399999999 20.545302 45.252891 20.995941 45.70290899999999C20.995941 45.928539 21.22095 45.928539 21.445959 45.70290899999999Z" clip-rule="evenodd" stroke-width="1"></path><path fill="#000000" fill-rule="evenodd" d="M28.424066999999997 47.728472999999994C29.099714999999996 46.602876 30.224622 46.377866999999995 31.350977999999998 45.927848999999995C32.926593 45.25220099999999 36.077823 40.975373999999995 37.203419999999994 46.152857999999995C37.878378 48.854138999999996 37.429119 50.880393 35.402865 53.130966C35.177166 53.356665 35.627805 53.806613999999996 35.852813999999995 53.581604999999996C38.104077 51.330342 38.779725 49.07907899999999 38.328396 45.927848999999995C38.104077 44.12660399999999 36.97848 42.550989 35.402865 42.550989C34.052189999999996 42.550989 32.926593 43.451646 32.025935999999994 44.352233999999996C30.450320999999995 45.70290899999999 30.450320999999995 45.25220099999999 29.099024999999997 46.152857999999995C26.848451999999998 47.728472999999994 27.974048999999997 48.179111999999996 28.424066999999997 47.728472999999994Z" clip-rule="evenodd" stroke-width="1"></path><path fill="#000000" fill-rule="evenodd" d="M34.276509 51.330342C34.276509 52.00598999999999 34.052189999999996 52.456008 34.276509 52.456008C34.727906999999995 52.681638 35.177856 51.33103199999999 35.402865 50.880393C35.852813999999995 49.529787 34.95215699999999 47.729163 34.502207999999996 47.953481999999994C34.052189999999996 48.179111999999996 34.502207999999996 49.079769 34.276509 51.330342Z" clip-rule="evenodd" stroke-width="1"></path><path fill="#000000" fill-rule="evenodd" d="M35.852813999999995 47.50415399999999C35.376161999999994 47.980115999999995 35.138180999999996 48.525147 34.95215699999999 49.30477799999999C34.726527 49.754726999999995 35.402865 49.979735999999995 35.627805 49.529787C36.302831999999995 48.854138999999996 36.527772 48.629129999999996 36.527772 47.503464C36.527772 47.277834 36.109286999999995 47.24706 35.852813999999995 47.503464Z" clip-rule="evenodd" stroke-width="1"></path><path fill="#000000" fill-rule="evenodd" d="M34.95215699999999 50.880393C35.347457999999996 51.002109 35.80699799999999 51.106092 36.077823 51.106092C36.527772 51.106092 36.527772 50.430375 36.077823 50.430375C35.951966999999996 50.349714 35.323515 50.20474499999999 34.95215699999999 50.20474499999999C34.726527 50.20474499999999 34.502207999999996 50.880393 34.95215699999999 50.880393Z" clip-rule="evenodd" stroke-width="1"></path><path fill="#000000" fill-rule="evenodd" d="M34.05156899999999 52.231688999999996C35.852813999999995 55.83286799999999 36.527772 61.461059999999996 36.302831999999995 64.61229C36.077132999999996 66.41360399999999 35.852813999999995 66.638544 36.302831999999995 66.863553C37.428429 67.313571 37.428429 61.010421 37.203419999999994 59.209796999999995C36.97779 56.734215 36.302831999999995 54.482262 34.502207999999996 51.78105C34.502207999999996 51.556041 33.82656 51.78105 34.05156899999999 52.231688999999996Z" clip-rule="evenodd" stroke-width="1"></path><path fill="#000000" fill-rule="evenodd" d="M11.990889 54.032312999999995C10.415273999999998 55.607927999999994 10.190264999999998 56.73352499999999 9.063978 58.30913999999999C8.614719 59.209796999999995 4.337133 59.659814999999995 0.735264 66.864243C0.510255 67.313571 1.185903 67.539201 1.410912 67.088562C2.3115689999999995 65.512947 4.337822999999999 63.261683999999995 6.8134049999999995 61.236050999999996C7.489052999999999 60.560402999999994 9.740316 59.88544499999999 10.415273999999998 58.75984799999999C11.090232 57.183543 11.540939999999999 55.607927999999994 12.666536999999998 54.257321999999995C12.891545999999998 54.257321999999995 12.440907 53.807303999999995 11.990889 54.032312999999995Z" clip-rule="evenodd" stroke-width="1"></path><path fill="#000000" fill-rule="evenodd" d="M19.419636 35.122173C20.545302 35.7972 21.445959 37.823454 21.445959 39.17406C21.445959 39.624767999999996 22.120917 39.849708 22.120917 39.399758999999996C22.796564999999998 37.373504999999994 21.895908 35.122173 19.869654 34.672224C19.419636 34.221585 19.194696 34.89723299999999 19.419636 35.122173Z" clip-rule="evenodd" stroke-width="1"></path></svg>